<!-- Generator: Adobe Illustrator 19.1.0, SVG Export Plug-In  -->
<svg version="1.1"
	 xmlns="http://www.w3.org/2000/svg" xmlns:xlink="http://www.w3.org/1999/xlink" xmlns:a="http://ns.adobe.com/AdobeSVGViewerExtensions/3.0/"
	 x="0px" y="0px" width="1088.4px" height="225.9px" viewBox="0 0 1088.4 225.9" enable-background="new 0 0 1088.4 225.9"
	 xml:space="preserve">
<defs>
</defs>
<g id="cqUd4A_2_">
	<g>
		<path fill="#015BAB" d="M562.8,16.8c4.1,0,8.1,0,12,0c1.5,0,1.4,1,1.4,2c0,4.3,0.1,8.7,0.1,13c0.1,4,0.2,8.1,0.3,12.1
			c0,1.5,0.6,1.9,2,1.9c10.5,0,20.9,0,31.4,0c1.7,0,2.1-0.6,2.1-2.2c0-7.9,0-15.8,0-23.8c0-0.9,0-1.8,0-3.1c4.3,0,8.4-0.1,12.4,0.1
			c0.4,0,1.1,1.1,1.1,1.7c0.1,2.3-0.1,4.6-0.1,6.9c0,20.6,0,41.2,0,61.8c0,2.1-0.5,2.9-2.7,2.8c-3-0.2-6-0.1-9,0
			c-1.9,0.1-2.4-0.6-2.4-2.5c0.2-8.1,0.2-16.3,0.4-24.4c0-1.9-0.6-2.6-2.5-2.6c-10.2,0.1-20.5,0.1-30.7,0c-1.8,0-2.5,0.5-2.8,2.2
			c-1.7,9.9-5.4,18.9-12.1,26.5c-8.3,9.3-18.3,16.1-30.7,18.2c-10,1.8-19.9,0.8-29.4-3c-10.6-4.3-19.6-10.7-26.1-20.3
			c-7.1-10.4-9.2-22.1-8.5-34.5c0.7-12.2,5.1-22.7,13.2-31.7c8.6-9.5,19.1-15.6,31.9-17.4c12.3-1.7,24.1-0.1,35,6.2
			c2.5,1.4,2.5,1.6,1.1,3.9c-1.6,2.6-3.2,5.2-4.7,7.9c-0.8,1.4-1.4,1.5-2.8,0.8c-7.5-3.8-15.5-5.8-24-5.1
			c-13.7,1.2-23.6,8.4-30.5,20c-3.6,6-5.9,12.4-5.5,19.5c0.8,11.7,4,22.5,13.4,30.2c9.2,7.6,20,12.1,31.9,10
			c15.1-2.7,26.4-10.9,31.7-26c3-8.4,3-17.1,2.9-25.9c-0.1-8,0-16,0-24C562.7,17.8,562.8,17.5,562.8,16.8z"/>
		<path fill="#015BAB" d="M522.1,83.4c-4.3-1-8.5-1.9-12.7-3c-2.3-0.6-2.4-1.4-0.9-3.2c0.6-0.7,1.1-1.5,1.7-2
			c2.8-2.2,2.9-5.7,4.5-8.5c1.2-2.1-0.4-3.3-2.8-3.1c-2.1,0.2-4.3-0.1-6.3-0.6c-2-0.5-2.2-2.1-1.7-4.1c0.3-1.3-0.1-2.8-0.5-4.1
			c-0.4-1.8-1.2-3.5-1.5-5.2c-0.1-0.6,0.9-1.4,1.5-2c2-1.8,2.6-3.5,1.7-5.5c-0.2-0.4-0.4-0.9-0.7-1.1c-3.3-1.6-2.7-4.8-2.3-7.3
			c0.4-2.5,2.6-3.9,5.1-4.7c1.3-0.4,2.5-1,3.6-1.8c3.3-2.4,6.9-2.4,10.7-1.5c2.7,0.6,5.5,0.4,8.1,1.2c6.3,1.7,11.5,4.8,12.8,11.9
			c0.4,2,0.2,4.1,0.1,6.2c-0.1,1.8-0.6,3.6-0.4,5.3c0.1,1.2,0.6,2.6,1.4,3.6c1.3,1.5,1.1,2.7-0.2,3.8c-2.5,2.2-5.4,3.7-8.8,4.2
			c-3.2,0.5-3.3,1.1-2.3,4c1.4,4.2,4.5,7,7.4,10.1c1.6,1.7,1.6,2.3-0.5,3.2c-5.3,2.3-10.7,4.1-16.6,3.8
			C522.2,82.9,522.2,83.2,522.1,83.4z"/>
		<path fill="#015BAB" d="M424.9,205.7c0.6-0.4,1.1-0.9,1.7-1.1c3.2-0.9,3.9-1.6,3.9-5c0-11.4,0.1-22.7,0-34.1c0-4.3-0.8-5.1-5-5.9
			c-0.4-0.1-0.8-0.3-1.1-0.9c5.9-0.9,11.8-0.4,17.6-0.6c0.1,0.3,0.1,0.6,0.2,0.9c-0.7,0.3-1.5,0.6-2.2,0.8c-2.7,0.7-3.5,1.6-3.5,4.4
			c-0.1,4.5,0,9-0.1,13.4c0,1.7,0.8,2.3,2.3,2.3c7.8,0,15.5,0,23.3,0c1.5,0,2.1-0.8,2.1-2.3c-0.1-4.3,0-8.5,0-12.8
			c0-3.7-0.6-4.3-4.1-5.2c-0.5-0.1-1-0.4-1.5-0.9c5.9-0.9,11.7-0.4,17.5-0.6c0.1,0.3,0.1,0.6,0.2,0.9c-0.6,0.2-1.3,0.6-2,0.7
			c-3.1,0.7-4.1,1.8-4.2,5.1c0,11.6-0.1,23.2,0,34.7c0,3.1,1.1,5,4.5,5.2c0.5,0,1.1,0.7,1.6,1.1c-0.5,0.2-1,0.7-1.5,0.7
			c-5,0-10,0-15,0c-0.4,0-0.7-0.1-1.4-0.8c0.6-0.4,1.2-0.9,1.8-1.1c3.3-0.7,4-1.4,4-4.8c0-4.9-0.1-9.9,0-14.8c0-1.8-0.8-2.4-2.4-2.4
			c-7.6,0-15.2,0-22.9,0c-1.6,0-2.4,0.6-2.4,2.4c0.1,4.9,0,9.7,0,14.6c0,3.5,0.9,4.4,4.4,5c0.7,0.1,1.3,0.7,2,1.1
			c-0.7,0.3-1.3,0.8-2,0.8c-5.1,0.1-10.3,0-15.4,0C425.2,206.2,425.1,206,424.9,205.7z"/>
		<path fill="#015BAB" d="M922.2,204.3c-0.4,0.5-0.8,1.3-1.4,1.5c-2.8,0.8-5.7,1.4-8.8,2.1c-0.2-1.2-0.3-2.4-0.6-4
			c-1.3,0.7-2.3,1.3-3.3,1.8c-8.1,4.3-17.6-0.8-18.9-9.9c-1.9-13.8,9.8-21.1,20.5-19c0.4,0.1,0.9,0.1,1.6,0.2
			c0.1-0.8,0.2-1.5,0.2-2.2c0-3.8,0-7.6,0-11.4c0-1.9-0.3-3.5-2.2-4.6c-1-0.6-1.3-1.5-0.1-2c2.3-1,4.7-1.7,7.5-2.7
			c0,1.3,0,2.3,0,3.3c0,13.4-0.1,26.9-0.1,40.3c0,1.1,0,2.2,0.2,3.4c0.3,2.6,1.3,3.3,3.9,2.7c0.3-0.1,0.7,0,1.1-0.1
			C921.9,204,922,204.1,922.2,204.3z M911.5,192c0-1.1,0-2.2,0-3.4c0-1.2,0-2.4,0-3.6c0-2.8-1.6-5-4.2-5.9c-3.5-1.3-7.7-0.1-10,3.1
			c-3.2,4.5-3.6,9.4-1.6,14.4c2.1,5.6,6,7.9,11.6,7c2.9-0.4,4.1-1.8,4.1-4.7C911.5,196.7,911.5,194.3,911.5,192z"/>
		<path fill="#015BAB" d="M275.5,177.1c0-5.3,0.1-10.3-0.1-15.2c0-0.9-1-1.7-1.6-2.5c-0.4-0.5-1-0.8-2-1.6c3.1-1.3,5.8-2.3,8.8-3.6
			c0.1,1.2,0.2,2,0.2,2.9c-0.1,13.9-0.2,27.8-0.2,41.7c0,4.9,0.6,5.4,6,5.2c-0.9,1-1.3,1.8-1.9,2c-2.8,0.8-5.6,1.4-8.7,2.1
			c-0.2-1.2-0.4-2.4-0.6-3.8c-1.8,0.9-3.3,1.8-5,2.4c-9.2,3.2-18.3-3.6-17.4-14.8c1-11.6,11.6-16.5,20.5-14.7
			C274.1,177,274.7,177,275.5,177.1z M275.6,192.2c0-2.4,0-4.8,0-7.2c0-2.9-1.4-4.9-4.2-5.9c-3.2-1.2-7.2-0.1-9.5,2.6
			c-3.6,4.1-4.2,10.9-1.5,16.2c2.3,4.5,5.9,6.5,11,5.8c3.1-0.4,4.3-1.7,4.3-4.8C275.6,196.7,275.6,194.4,275.6,192.2z"/>
		<path fill="#015BAB" d="M766.5,184.5c0.6-0.2,1.2-0.5,1.8-0.7c5-1.4,8.2-4.4,8.9-9.8c0.6-4.9-0.3-9.3-4.6-12.3
			c-2.9-2-6.2-2-9.5-1.5c-0.6,0.1-1.4,1.5-1.5,2.4c-0.2,2.3-0.1,4.6-0.1,6.9c0,9.9,0.1,19.7,0.1,29.6c0,3.7,1.1,4.8,4.8,5.4
			c0.7,0.1,1.3,0.7,1.9,1.1c-0.7,0.3-1.3,0.8-2,0.8c-4.8,0.1-9.7,0-14.5,0c-0.5,0-1-0.1-1.5-0.2c-0.1-0.2-0.2-0.4-0.3-0.6
			c0.6-0.4,1.1-1,1.8-1.1c3.2-0.7,3.9-1.4,4-4.6c0.2-10.2,0.3-20.4,0.4-30.7c0-1.7-0.2-3.4-0.4-5.1c-0.2-2.8-1-3.5-3.9-3.9
			c-0.7-0.1-1.4-0.6-2.1-0.8c0.7-0.4,1.4-1.1,2.1-1.2c4.4-0.2,8.8-0.4,13.2-0.1c3.4,0.2,6.8,0.6,10.1,1.5c5,1.5,8.1,5.9,8.3,10.8
			c0.2,6.6-2.3,10.9-7.6,13.2C772.3,185.2,769.6,185.6,766.5,184.5z"/>
		<path fill="#015BAB" d="M180.7,157.8c3.3-1.3,6-2.4,9-3.7c0,8.7,0,17.2,0,26.1c1.2-0.6,1.8-1,2.5-1.3c2.2-0.8,4.3-2,6.5-2.2
			c5.9-0.5,10,2.1,10.2,8.9c0.1,4.9-0.1,9.7,0.1,14.6c0.1,2.7-0.4,4,3.5,4.5c0.5,0.1,0.9,0.8,1.8,1.5c-2.9,0-5.2,0-7.4,0
			c-1.9,0-3.7,0.2-5.6,0.1c-0.6,0-1.2-0.5-1.8-0.8c0.5-0.4,0.9-1,1.4-1c1.7-0.2,2.7-1.2,2.7-2.7c0-5.7,0-11.3-0.4-17
			c-0.2-2.7-2.1-4.5-4.8-4.9c-3.3-0.6-6.3,0.1-8.3,3c-0.5,0.7-0.6,1.7-0.6,2.5c-0.1,4.9-0.1,9.7,0,14.6c0,3,0.5,3.6,3.4,4.6
			c0.4,0.2,0.7,0.8,1.1,1.1c-0.4,0.2-0.8,0.6-1.2,0.6c-3.9,0-7.8,0.1-11.6,0c-0.4,0-0.9-0.5-1.3-0.8c0.4-0.3,0.8-0.9,1.3-1
			c3.2-0.9,3.5-1.1,3.5-4.4c0-12.2,0-24.4,0.1-36.5C184.7,161.1,183.5,159.4,180.7,157.8z"/>
		<path fill="#015BAB" d="M551.9,224.7c-0.6,0.1-1.2,0.2-1.8,0.2c-3.9,0-7.8,0-11.6,0c-0.5,0-1-0.5-1.6-0.7c0.5-0.3,0.9-0.7,1.4-0.8
			c2.4-0.6,3.1-1.5,3.1-4.4c0-7.7,0-15.4,0-23.1c0-2.8,0-5.7,0-8.5c0-4.4,0-4.4-3.1-7.8c2.6-1.5,5.1-2.9,8-4.5c0,1.1,0,1.7,0,2.3
			c0.1,0.7,0.2,1.4,0.3,2.1c0.8-0.2,1.5-0.2,2.3-0.5c1.7-0.6,3.3-1.4,5-1.9c6.9-2.1,13.5,2.4,14.8,10c1.4,8.4-3.1,16.7-10.9,19.1
			c-2.8,0.9-5.9,1-8.8,1c-1.9,0-2.6,0.5-2.6,2.4c0,3.1-0.1,6.3,0,9.4c0.1,3.3,0.7,3.9,4.1,4.4c0.6,0.1,1.1,0.3,1.7,0.5
			C552,224.1,551.9,224.4,551.9,224.7z M546.2,192.1C546.2,192.1,546.2,192.1,546.2,192.1c0,2.2,0,4.5,0,6.7c0,2.4,1.1,4,3.3,5.2
			c4.3,2.2,9,1.1,11.4-3.2c2.5-4.5,3.1-9.2,1.2-14.2c-1.8-4.8-5.3-7.1-10.3-6.6c-3.8,0.4-5.5,2.1-5.6,5.9
			C546.2,188,546.2,190,546.2,192.1z"/>
		<path fill="#015BAB" d="M49.9,157.3c2.3-0.9,5-2,8.1-3.2c0,8.9,0,17.3,0,25.7c2.6-1,5-2.2,7.4-2.8c6.6-1.7,11.4,2.1,11.5,8.9
			c0.1,4.8,0,9.6,0,14.3c0,3.5,0.1,3.6,3.5,4.5c0.5,0.1,0.9,0.6,1.9,1.3c-1.1,0.3-1.6,0.5-2,0.5c-3.8,0-7.6,0-11.4,0
			c-0.5,0-1-0.4-1.5-0.6c0.4-0.4,0.8-1.1,1.3-1.2c2.6-0.2,3.1-2,3.2-4.1c0.1-4.5,0.1-9,0-13.4c-0.1-2.8-1-5.5-4-6.7
			c-2.9-1.1-5.8-0.9-8.2,1.1c-1,0.8-1.8,2.3-1.8,3.6c-0.2,5.2-0.1,10.4-0.1,15.7c0,2,0.5,3.7,3,3.9c0.4,0,0.8,0.7,1.2,1
			c-0.4,0.3-0.8,0.7-1.1,0.7c-4,0-8,0-12.1,0c-0.3,0-0.6-0.2-1-0.4c-0.1-0.2-0.1-0.4-0.2-0.7c0.8-0.3,1.5-0.7,2.3-0.9
			c1.5-0.2,2.3-1,2.4-2.5c0-0.4,0.2-0.9,0.2-1.3c0-12.5,0.1-25.1-0.1-37.6C52.5,161.4,51,159.6,49.9,157.3z"/>
		<path fill="#015BAB" d="M1007.4,157.4c2.7-1.1,5.5-2.2,8.3-3.3c0,4.6,0,8.8,0,13.1c0,4.2,0,8.4,0,12.7c2.9-1.1,5.4-2.3,7.9-3
			c6.2-1.6,11.3,2.2,11.4,8.7c0.1,5.1,0.1,10.2,0,15.2c0,2.2,0.6,3.6,3,3.8c0.6,0,1.2,0.6,1.8,1c-0.1,0.2-0.1,0.4-0.2,0.7
			c-0.6,0.1-1.2,0.2-1.8,0.2c-3.5,0-7,0-10.5-0.1c-0.6,0-1.2-0.5-1.8-0.7c0.6-0.4,1.1-0.7,1.6-1.2c0.9-0.8,2.5-1.6,2.5-2.4
			c0.1-5.9,0.2-11.9-0.5-17.8c-0.4-3.6-3.6-5-8-4.4c-3.4,0.4-5.4,2.8-5.4,6.2c0,4.6,0,9.3,0,13.9c0,2.3,0.2,4.4,3.3,4.6
			c0.4,0,0.7,0.6,1,1c-0.5,0.3-0.9,0.8-1.4,0.8c-3.7,0.1-7.4,0.1-11.2,0c-0.5,0-1.1-0.5-1.6-0.8c0.4-0.3,0.8-1,1.3-1
			c3-0.1,3.6-2.1,3.6-4.4c0.1-12.2,0-24.3,0-36.5c0-2.5-1-4.5-3.6-5.6C1007.3,158,1007.4,157.7,1007.4,157.4z"/>
		<path fill="#015BAB" d="M806.6,205.7c0.5-0.4,1-1,1.5-1.1c2.2-0.2,3-1.6,3-3.5c0.1-4.9,0.2-9.7,0-14.6c-0.1-2.9-1.3-5.6-4.4-6.4
			c-3.2-0.9-6.3-0.5-8.6,2.2c-0.7,0.8-1,2.2-1.1,3.3c-0.1,4.8-0.1,9.6,0,14.3c0,2.3,0.2,4.6,3.4,4.8c0.4,0,0.7,0.6,1,1.4
			c-4.6,0-9.3,0-13.9,0c-0.1-0.2-0.2-0.3-0.3-0.5c0.6-0.4,1.2-1,1.8-1c2.1-0.1,2.8-1.4,3-3.2c0.1-0.7,0.1-1.5,0.1-2.2
			c0-10.9,0-21.8,0-32.7c0-3.2,0.6-6.6-3.7-8.3c0.1-0.2,0.2-0.5,0.3-0.7c2.7-1.1,5.4-2.2,8.6-3.5c0,8.9,0,17.4,0,25.8
			c2.8-1.1,5.2-2.3,7.8-2.9c6.1-1.4,11.1,1.8,11.3,8.5c0.1,5,0,10,0,15c0,3.1,0.3,3.4,3.3,4.2c0.5,0.1,0.9,0.6,1.3,0.9
			c-0.3,0.3-0.7,0.8-1,0.9c-4.3,0.1-8.6,0-12.9,0C806.8,206.2,806.7,206,806.6,205.7z"/>
		<path fill="#015BAB" d="M971.4,179.5c2.6-1.4,5.1-2.8,7.9-4.3c0.1,1.8,0.2,3.2,0.3,4.7c2.8-1,5.1-2.2,7.5-2.7c7-1.6,13,2,14.4,9
			c1.7,8.5-1.7,16.9-10.4,19.9c-2.9,1-6.1,1.1-9.2,1.1c-1.8,0.1-2.4,0.6-2.3,2.3c0.1,3.2,0,6.4,0,9.6c0,3.1,0.7,3.8,3.8,4.3
			c0.6,0.1,1.1,0.6,1.7,0.9c-0.6,0.2-1.1,0.6-1.7,0.6c-4,0.1-7.9,0-11.9,0c-0.5,0-1-0.4-1.5-0.6c0.4-0.3,0.8-0.9,1.2-0.9
			c2.3-0.2,3.2-1.6,3.2-3.8c0-4.4,0.1-8.8,0.1-13.2c0-6,0-11.9,0-17.9C974.4,183.3,974.4,183.3,971.4,179.5z M979.5,192
			c0,2.2,0.1,4.5,0,6.7c-0.2,2.9,1.4,4.6,3.8,5.7c4.2,1.8,8.5,0.4,10.8-3.6c2.5-4.4,2.9-9.1,1.4-13.8c-1.9-6-7.2-8.4-12.9-6.3
			c-2.1,0.8-3.1,2.2-3.1,4.4C979.5,187.4,979.5,189.7,979.5,192z"/>
		<path fill="#015BAB" d="M176.7,194.9c0,3.4-1,6.6-2.8,9.4c-0.8,1.2-3,1.6-4.6,2c-7.6,1.6-15.1,1.7-22.5-1.1
			c-8.4-3.2-14.5-11.7-14.9-20.6c-0.3-6.7,1.1-12.8,5.4-18c5.2-6.2,12-8.8,19.8-9.4c5.5-0.4,11,0.3,16.3,1.8
			c0.5,0.1,1.2,0.9,1.3,1.5c0.4,2.8,0.6,5.6,0.8,8.5c0,0.4-0.5,0.7-0.7,1.1c-0.4-0.3-1-0.5-1.1-0.9c-1.7-7.8-8.8-10.4-16.5-9.9
			c-9.7,0.6-16.8,7.5-18.2,17.5c-1.1,8.2,0.1,15.8,5.7,22.2c6,6.9,18,8.7,24.8,3.4c2-1.6,3.4-4.1,5-6.1c0.4-0.6,0.9-1.1,1.3-1.7
			C176.3,194.7,176.5,194.8,176.7,194.9z"/>
		<path fill="#015BAB" d="M0,166.7c0.7-3.3,1.4-6.5,2.2-9.8c0.3-1.1,0.7-1.2,1.7-0.5c1.2,0.8,2.6,1.6,3.9,1.6
			c10.9,0.1,21.8,0.1,32.7,0c1.5,0,3.1-1,4.9-1.6c-0.4,3.6-0.8,7.4-1.2,11.2c-0.2,0.1-0.4,0.1-0.5,0.2c-0.3-0.5-0.7-1.1-0.8-1.7
			c-1-4.6-2-5.1-7.2-5.8c-2.7-0.4-5.5-0.1-8.3-0.1c-1.3,0-1.9,0.6-1.9,1.9c0,12.7,0,25.4,0.1,38.1c0,3,1.2,4,4.3,4.3
			c0.1,0,0.2,0,0.2,0c0.7,0.4,1.4,0.7,2.2,1.1c-0.7,0.3-1.5,0.8-2.2,0.8c-3.7,0-7.3-0.1-11-0.1c-1.7,0-3.4,0.2-5.1,0.2
			c-0.4,0-0.8-0.4-1.2-0.6c0.4-0.4,0.7-0.9,1.2-1.1c1.7-0.6,4-0.7,4.9-1.9c1-1.2,1-3.5,1.1-5.3c0.1-11.6,0-23.3,0-34.9
			c0-1.6-0.6-2.5-2.4-2.4c-2.2,0.1-4.5,0-6.7,0c-3.9,0.1-6.9,1.7-8.6,5.4c-0.3,0.7-1,1.1-1.6,1.7C0.3,167.1,0.2,166.9,0,166.7z"/>
		<path fill="#015BAB" d="M715,180c-2.4,0-4.3,0-6.1,0c-0.4-1.9,0.5-2.2,1.8-2.3c5-0.3,5-0.3,6.6-5.1c1.6-4.9,3.8-9.6,7.4-13.4
			c3.3-3.5,7.3-5.5,12.2-4.7c1.5,0.3,3.5,1.5,4.1,2.8c0.6,1.2-0.2,3.2-0.7,4.8c-0.2,0.5-1.2,0.8-1.8,1.1c-0.3-0.6-0.8-1.2-0.9-1.9
			c-0.4-2.1-1.1-4-3.3-4.7c-2.2-0.8-4,0.3-5.3,2c-1.5,2-3,4.1-4,6.4c-1.7,3.9-2.9,8-4.6,12.7c2.9,0,5.2-0.1,7.4,0
			c0.6,0,1.2,0.6,1.9,0.9c-0.6,0.4-1.3,1.2-1.9,1.2c-1.8,0.2-3.6,0.2-5.4,0c-1.7-0.1-2.6,0.5-3,2.2c-1.6,5.9-3.1,11.8-4.8,17.6
			c-1.9,6.4-3.9,12.8-6.3,19c-1.6,4.2-5.1,6.7-9.8,7.1c-3.1,0.3-5.4-1.7-4.9-4.2c0.1-0.7,0.9-1.5,1.5-2c0.3-0.2,1.2,0.5,1.7,0.9
			c0.7,0.5,1.2,1.3,2,1.8c1.9,1.3,3.4,1.2,4.6-0.8c1.3-2.1,2.3-4.5,2.9-6.9c2.5-9.4,4.7-18.8,7-28.2
			C713.7,184.5,714.3,182.4,715,180z"/>
		<path fill="#015BAB" d="M373.3,206.3c-2.4,0-4.9,0-7.3,0c-1.6,0-3.1,0.2-4.7,0.1c-0.5,0-1-0.4-1.5-0.6c0.4-0.4,0.7-1.1,1.1-1.1
			c2.6-0.2,3-2.1,3-4.1c0-4.5,0.1-9,0-13.4c0-2.7-0.7-5.2-3.5-6.5c-2.9-1.3-5.8-1.1-8.2,0.9c-1.2,1-2.2,2.9-2.3,4.5
			c-0.3,4.9-0.1,9.9-0.1,14.8c0,2,0.6,3.5,2.9,3.8c0.4,0.1,0.8,0.7,1.2,1.1c-0.3,0.3-0.6,0.7-0.9,0.7c-4.2,0-8.5,0-12.7,0
			c-0.1-0.3-0.2-0.6-0.3-0.8c0.7-0.4,1.4-0.9,2.1-1c1.7-0.3,2.5-1.2,2.5-2.9c0-6,0.2-12-0.1-17.9c-0.1-1.4-1.4-2.7-2.4-4.4
			c2.2-1.1,4.7-2.4,7.5-3.8c0.1,1.6,0.2,3,0.4,4.8c1.2-0.6,2.1-1.1,3-1.4c2.7-0.8,5.3-2.2,8-2.2c4.9-0.1,7.7,2.9,7.8,7.8
			c0.1,4.9,0,9.7,0,14.6c0,0.7,0,1.5,0.1,2.2c0.2,1.8,0.9,3.1,3,3.3c0.6,0.1,1,0.7,1.6,1.1C373.5,206,373.4,206.1,373.3,206.3z"/>
		<path fill="#015BAB" d="M494.6,207.3c-8.5,0-14.5-6.3-14.4-15.2c0-8.7,6.7-15.6,15.1-15.6c8.3,0,14.6,6.5,14.5,15.2
			C509.6,201.2,503.6,207.2,494.6,207.3z M504.2,192.6c-0.7-2.8-1.2-5.9-2.4-8.8c-1.2-3.1-3.7-5.2-7.2-5.2c-3.3-0.1-5.6,1.8-6.9,4.8
			c-2.7,6.2-2.4,12.3,1.2,18.2c1.7,2.8,4.3,4.1,7.6,3.7c3-0.4,4.9-2.3,5.9-4.9C503.2,198,503.6,195.4,504.2,192.6z"/>
		<path fill="#015BAB" d="M640.1,203.7c-0.9,3.6-6.8,5-9.4,2.1c-1.9-2.1-3.1-1.4-4.9-0.3c-2.4,1.5-4.9,2.5-7.8,1.3
			c-2.6-1-4.3-3-4.4-5.6c-0.2-3,0.8-4.6,3.8-5.9c3.2-1.4,6.6-2.4,9.7-3.9c0.9-0.4,2-1.5,2.1-2.4c0.2-2.1,0-4.3-0.4-6.4
			c-0.5-2.4-2.5-3.6-5.1-3.4c-2.5,0.1-3.9,1.3-4.4,3.9c-0.4,2.1-2.3,3.5-4.4,3.2c-0.4-0.1-1.2-1.2-1.1-1.6
			c1.4-5.3,12.5-9.9,17.2-7.2c2.3,1.3,3.1,3.5,3.1,6.1c0,4.1-0.1,8.2-0.2,12.3c0,0.8,0,1.6,0,2.5C633.9,203.5,635,204.5,640.1,203.7
			z M628.9,197c0-0.2,0-0.9,0.1-1.7c0.2-1.4-0.5-2.1-1.8-1.6c-2.2,0.7-4.4,1.5-6.4,2.6c-2,1.1-2.3,3.3-1.4,5.3c1,2.1,3,3,5.2,2.4
			C628.3,202.9,628.8,202.1,628.9,197z"/>
		<path fill="#015BAB" d="M1088.4,203.7c-1.8,3.9-7.5,4.8-9.9,1.9c-1.3-1.6-2.4-1.5-3.9-0.5c-2.7,1.7-5.5,3-8.8,1.6
			c-2.5-1.1-3.8-2.9-4-5.7c-0.2-2.7,0.9-4.5,3.3-5.5c3.4-1.4,6.7-2.8,10.2-3.9c1.5-0.5,2.1-1.3,2.1-2.7c0-1.7,0-3.4-0.1-5.1
			c-0.3-2.7-2.1-4.3-4.7-4.5c-2.7-0.2-4.6,1.1-5.1,3.9c-0.4,2-1.5,2.8-3.3,3.1c-0.7,0.1-1.4-0.2-2.1-0.3c0.1-0.8,0-1.7,0.4-2.3
			c2.3-3.5,5.7-5.4,9.6-6.4c1.5-0.4,3.1-0.7,4.6-0.4c4.1,0.7,5.8,3.2,5.7,8c-0.1,4.4-0.3,8.8-0.4,13.2c0,0.9,0.1,1.8,0.2,2.7
			c0.4,3,2,4,5,3.2C1087.4,203.7,1087.7,203.7,1088.4,203.7z M1077.1,197.3c0-0.7,0-1.3,0-2c0.1-1.4-0.6-2-1.9-1.6
			c-2.2,0.8-4.5,1.6-6.5,2.7c-1.9,1.1-2.2,3.2-1.3,5.1c1,2,3,3,5.2,2.5C1076.2,203,1077,201.9,1077.1,197.3z"/>
		<path fill="#015BAB" d="M887,203.7c-1.9,3.9-7.1,4.8-9.9,1.8c-1.3-1.4-2.2-1.6-3.7-0.5c-2.9,1.9-5.9,3.2-9.4,1.5
			c-2.1-1-3.2-2.7-3.5-5.1c-0.2-2.5,0.3-4.5,2.7-5.6c3.5-1.5,7.1-3,10.7-4.3c1.4-0.5,2.1-1.4,2.1-2.8c0-1.8,0-3.6-0.2-5.4
			c-0.3-2.6-2.1-4.2-4.7-4.3c-2.6-0.1-4.5,1.1-5,3.7c-0.4,2.3-1.8,3.1-3.8,3.4c-1.6,0.2-2.3-0.7-1.6-2.1c0.6-1.1,1.4-2.1,2.4-2.9
			c3.9-3.1,8-5.6,13.2-4.2c2.8,0.8,4.4,2.6,4.5,5.4c0.1,4.5-0.1,9.1-0.1,13.6c0,1.5-0.1,3,0.1,4.5c0.3,3.1,1.9,4.1,4.9,3.3
			C886,203.7,886.4,203.8,887,203.7z M875.8,197.4c0-0.7-0.1-1.3,0-2c0.2-1.7-0.7-2.2-2.2-1.7c-2,0.7-4.1,1.4-6,2.4
			c-2,1.1-2.5,3.2-1.7,5.2c0.9,2.1,2.9,3.1,5.1,2.7C874.8,203.2,875.7,201.9,875.8,197.4z"/>
		<path fill="#015BAB" d="M678.2,197.1c1-7,4.3-14.1,11.6-18.7c1.6-1,3.6-1.6,5.4-1.8c5.1-0.5,8.5,3.6,7.8,9.5
			c-0.9,7.5-4.2,13.9-10.4,18.6c-2.9,2.2-6.2,3.4-9.8,2.1C679.5,205.6,678.1,203,678.2,197.1z M698.5,182.4c-0.6-0.9-1.2-3-2.4-3.4
			c-1.1-0.4-3,0.5-4.3,1.3c-1,0.5-1.7,1.7-2.3,2.7c-1.7,3.2-3.4,6.4-4.7,9.8c-1,2.7-1.7,5.6-1.9,8.4c-0.1,1.2,0.8,3.1,1.8,3.7
			c1,0.5,2.7-0.2,4.1-0.6c0.5-0.1,1-0.7,1.4-1.1C694.9,197.3,697.1,190.4,698.5,182.4z"/>
		<path fill="#015BAB" d="M966.7,206.2c-0.4,0.1-0.8,0.3-1.2,0.3c-3.8,0-7.6,0-11.4,0c-0.5,0-1-0.4-1.5-0.6c0.4-0.4,0.8-1,1.3-1.2
			c3.1-0.9,3.2-1.1,3.2-4.3c0-10.9,0-21.8,0-32.7c0-3.5,1.3-7.5-4-9.8c3.5-1.4,6.1-2.5,9.1-3.7c0.1,0.9,0.2,1.6,0.2,2.2
			c0,14.3-0.1,28.7-0.1,43c0,3.9,0,3.9,3.7,5.4c0.5,0.2,1,0.4,1.4,0.6C967.1,205.6,966.9,205.9,966.7,206.2z"/>
		<path fill="#015BAB" d="M852.1,154.2c-0.2,3.5-0.4,6.6-0.4,9.8c0,11.3,0,22.5,0,33.8c0,1.5,0.2,3,0.3,4.5c0.2,1.6,1.2,2.2,2.7,2.5
			c0.6,0.1,1.2,0.8,1.7,1.2c-0.6,0.2-1.3,0.6-1.9,0.6c-3.5,0.1-7,0-10.5,0c-0.6,0-1.1-0.1-2.5-0.3c1-0.8,1.4-1.5,2-1.5
			c2.7-0.2,3.2-2,3.2-4.2c0-6.6,0-13.3,0-19.9c0-5.4,0-10.9,0-16.3c0-2.1-0.3-4-2.2-5.2c-1-0.6-1.1-1.6,0-2.1
			C846.8,155.9,849.2,155.2,852.1,154.2z"/>
		<path fill="#015BAB" d="M236.3,157.4c2.6-1,5.2-2.1,8.4-3.3c0,1.9,0,3.4,0,4.9c-0.1,11.4-0.2,22.8-0.3,34.2c0,2.7,0.1,5.4,0.3,8
			c0.1,1.9,0.8,3.3,3.1,3.4c0.5,0,1,0.6,1.5,0.9c0,0.2-0.1,0.4-0.1,0.6c-0.6,0.1-1.2,0.3-1.8,0.3c-3.5,0-7,0-10.5,0
			c-0.6,0-1.3-0.4-1.9-0.7c0.5-0.4,1-1.1,1.6-1.1c2.4-0.3,2.8-1.9,2.8-3.9c0-6.4,0-12.8,0-19.3c0-5.2,0-10.3,0-15.5
			c0-3.1,0.5-6.3-3.3-7.9C236.2,157.9,236.2,157.7,236.3,157.4z"/>
		<path fill="#015BAB" d="M949.4,200.4c-0.3,2.2-1.9,3.5-3.6,4.6c-5,3.1-10.1,3.2-14.9-0.1c-5-3.5-6.3-8.7-5.5-14.5
			c0.8-5.8,3.4-10.5,9.1-12.9c5-2.1,10.2-1,13.3,2.7c0.6,0.8,1.2,1.7,1.5,2.7c1,3.6,0.2,4.6-3.5,4.6c-4.5,0-9,0.1-13.4,0
			c-1.8,0-2.4,0.7-2.4,2.4c-0.2,6.7,3.6,11.8,9.8,13.4c2.8,0.7,5.1-0.1,7.3-1.8c0.6-0.5,1.2-1,1.8-1.5
			C949,200.1,949.2,200.3,949.4,200.4z M931.1,185.4c3.6,0,7,0.1,10.4-0.1c0.9,0,2.4-0.6,2.5-1.2c0.3-1.1,0-2.6-0.6-3.5
			c-1.2-2-4.4-2.6-7.1-1.6C933,180.2,931,182.5,931.1,185.4z"/>
		<path fill="#015BAB" d="M656.4,206.3c-5.3,0-10,0-14.6,0c-0.1-0.2-0.2-0.3-0.3-0.5c0.5-0.4,1-1.1,1.6-1.1c2.5-0.3,3.1-2,3.1-4.1
			c0-6.6,0-13.1,0-19.7c0-5.6,0-11.2,0-16.8c0-2.1-0.4-3.8-2.2-5c-0.8-0.5-1.5-1.5-0.2-2c2.3-1,4.8-1.8,7.4-2.7c0,2.3,0,4.3,0,6.4
			c0,13.1,0,26.1,0,39.2c0,3.6,0.1,3.6,3.7,4.9C655.3,204.9,655.6,205.5,656.4,206.3z"/>
		<path fill="#015BAB" d="M336.6,200.5c-0.9,1.2-1.6,2.5-2.7,3.5c-7.4,6.6-19.1,2.8-21.3-6.9c-1.6-7.3,0.1-13.6,6.1-18.1
			c4-3,8.6-3.4,13.1-1.1c2.8,1.5,4.5,3.8,4.4,7.2c0,1.7-0.4,2.4-2.3,2.4c-4.8-0.1-9.6,0-14.3,0c-2.6,0-3,0.5-2.9,3
			c0.2,6.4,3.8,11.1,9.6,12.7c3,0.8,5.4,0,7.7-1.9c0.6-0.5,1.2-1,1.8-1.4C336.1,200.1,336.4,200.3,336.6,200.5z M317.9,185.3
			c3.8,0,7.6,0.1,11.4,0c1.6-0.1,2.5-1.4,1.8-2.9c-0.5-1.2-1.4-2.5-2.5-3.1c-3.6-1.9-9.4,0.7-10.7,4.6
			C317.8,184.3,317.9,184.8,317.9,185.3z"/>
		<path fill="#015BAB" d="M109.7,200.4c-0.3,2.1-1.9,3.4-3.5,4.5c-4.3,3-9,3.3-13.8,1c-4.7-2.3-6.6-6.5-6.9-11.4
			c-0.4-6.1,1.3-11.4,6.3-15.2c5.8-4.5,14.5-3,17.3,3.1c0.6,1.2,0.6,2.8,0.5,4.1c0,0.4-1.3,1.1-2,1.1c-4.9,0.1-9.8,0-14.8,0.1
			c-2.6,0-3,0.5-2.8,3c0.4,6.7,4.1,11.3,10.2,12.7c2.9,0.7,5.3-0.3,7.4-2.1c0.5-0.4,1-0.9,1.6-1.3
			C109.4,200,109.6,200.2,109.7,200.4z M91.1,185.3c4,0,7.9,0.1,11.8-0.1c1.8-0.1,2.1-1.8,1.5-3c-0.6-1.2-1.7-2.4-2.9-3.1
			C97.7,177,91.1,181.1,91.1,185.3z"/>
		<path fill="#015BAB" d="M391.3,207.2c-0.7,0-1.3,0.1-2,0c-4.9-0.5-7.3-3.7-6.4-8.5c0.1-0.4,0.5-0.7,0.7-1c0.4,0.3,0.9,0.6,1.2,1.1
			c1.3,1.8,2.4,3.9,4,5.5c1.5,1.5,4.6,1.4,6.3,0.2c1.9-1.2,2.5-3.3,1.8-5.1c-0.7-1.7-2.3-3.3-3.7-4.5c-1.7-1.5-3.8-2.4-5.5-3.8
			c-2.9-2.3-3.7-5.3-2.7-8.8c0.9-3.1,3.1-4.8,6.1-5.2c2.6-0.3,5.3-0.1,7.9,0.2c1.4,0.1,3.2,4.9,2.4,6.1c-0.1,0.2-1.3,0.1-1.7-0.2
			c-1-1-1.6-2.4-2.6-3.3c-2.9-2.4-6.6-1.5-7.9,1.8c-0.7,1.8-0.1,3.3,1.1,4.5c0.9,1,2.1,1.7,3.2,2.4c1.4,0.9,2.8,1.7,4.1,2.6
			c3.6,2.6,5.1,6.6,3.9,10.4c-1,3-4.7,5.5-8.7,5.7C392.2,207.3,391.8,207.3,391.3,207.2C391.3,207.3,391.3,207.2,391.3,207.2z"/>
		<path fill="#015BAB" d="M522.5,207.3c-0.4,0-0.9,0-1.3,0c-5.1-0.2-7.6-3.4-6.7-8.4c0.1-0.4,0.4-0.7,0.6-1.1
			c0.4,0.3,0.9,0.5,1.1,0.9c0.6,1,0.9,2.3,1.6,3.2c0.9,1.1,1.9,2.1,3.1,2.8c2.1,1.3,5.2,0.7,6.6-1c1.5-1.8,1.5-4.4-0.3-6.5
			c-0.9-1.1-2.2-1.9-3.4-2.8c-1.8-1.3-3.8-2.5-5.4-4c-4.3-4-2.7-11.1,2.9-13c3-1,6-0.9,9,0c1.3,0.4,3.3,5,2.5,6.1
			c-0.2,0.2-1.4,0-1.8-0.4c-1.2-1.1-2.1-2.8-3.5-3.7c-2.2-1.5-5.1-0.8-6.4,1c-1.5,2.2-1.2,4.7,1.2,6.5c1.8,1.4,3.7,2.4,5.6,3.7
			c2.6,1.7,4.7,3.7,5.1,7c0.9,6.8-4,9.1-8.8,9.7C523.6,207.3,523,207.3,522.5,207.3z"/>
		<path fill="#015BAB" d="M610.5,203.6c-0.6,0.6-1,1.3-1.7,1.8c-2.4,1.7-5.1,2.2-7.9,1.7c-3.5-0.6-5.1-2.7-5.2-6.7
			c-0.1-5.5,0-10.9,0-16.4c0-3.2,0-3.2-3.2-3.7c-0.3,0-0.5-0.2-1.3-0.5c0.8-0.5,1.3-1,1.8-1.2c2.5-0.9,4.4-2.5,5.7-4.8
			c0.3-0.5,0.9-0.8,1.4-1.2c0.2,0.5,0.5,1,0.5,1.6c0.2,3.4,0.2,3.4,3.6,3.4c1.6,0,3.1-0.1,4.7,0.1c0.6,0.1,1,0.8,1.5,1.2
			c-0.5,0.5-1,1.4-1.5,1.4c-1.9,0.2-3.9,0.1-5.8,0.1c-1.7,0-2.6,0.6-2.5,2.5c0.1,4.9,0,9.7,0,14.6c0,6.2,4.5,8.3,8.6,5.7
			c0.2-0.1,0.5-0.1,0.8-0.1C610.3,203.3,610.4,203.5,610.5,203.6z"/>
		<path fill="#015BAB" d="M291.4,179.2c2.1-1.1,4.6-2.3,7.4-3.7c0.1,1.8,0.1,3.3,0.2,5.3c1.6-1.1,2.7-2.1,4-2.7
			c1.6-0.7,3.5-1.3,5.2-1.2c1.8,0.1,2.3,1.7,1.9,3.4c-0.4,1.7-1.7,2.5-3.4,2.1c-0.9-0.2-1.8-0.7-2.7-1.1c-1.9-0.8-3.6-0.2-4.4,1.7
			c-0.5,1.1-0.7,2.4-0.7,3.7c-0.1,4.6,0,9.3,0,13.9c0,3,0.6,3.5,3.6,4c0.7,0.1,1.3,0.6,2,1c-0.7,0.3-1.3,0.8-2,0.8
			c-3.8,0.1-7.6,0.1-11.4,0c-0.5,0-1-0.4-1.5-0.6c0.4-0.4,0.8-1.2,1.3-1.2c2.4-0.3,3-1.8,3-4c0-5.5,0.2-10.9-0.1-16.3
			C293.7,182.8,292.4,181.3,291.4,179.2z"/>
		<path fill="#015BAB" d="M838.8,206.2c-4.6,0-9.2,0-13.8,0c-0.1-0.2-0.2-0.3-0.4-0.5c0.6-0.4,1.1-1,1.7-1.1c2-0.2,2.8-1.4,2.8-3.2
			c0.1-5.8,0.3-11.6,0-17.4c-0.1-1.5-1.6-3-2.6-4.7c2.4-1.1,4.9-2.4,7.7-3.7c0.1,0.8,0.2,1.3,0.2,1.9c0,7.7,0,15.4-0.1,23
			c0,2.3,0.4,4,3.1,4.2c0.5,0,0.9,0.5,1.4,0.8C838.9,205.7,838.9,206,838.8,206.2z"/>
		<path fill="#015BAB" d="M1057.4,206.3c-4.5,0-9.1,0-13.6,0c-0.1-0.2-0.2-0.3-0.3-0.5c0.5-0.4,1-1.1,1.5-1.1c2.1-0.2,2.9-1.4,3-3.3
			c0.1-5.9,0.1-11.8-0.1-17.7c0-1-1-2.1-1.8-2.9c-0.9-0.8-1.2-1.4,0-2c2.2-1.1,4.5-2.1,7.1-3.3c0,2.6,0,5,0,7.3c0,6.3,0,12.7,0,19
			c0,1.6,0.8,2.4,2.4,2.7c0.7,0.1,1.3,0.6,2,0.9C1057.6,205.8,1057.5,206,1057.4,206.3z"/>
		<path fill="#015BAB" d="M217.6,205.8c0.5-0.4,1-1,1.6-1.1c1.9-0.3,2.7-1.3,2.8-3.2c0.1-5.7,0.2-11.5,0.1-17.2c0-1.1-1-2.4-1.9-3.3
			c-0.7-0.8-1.2-1.5,0-2.1c2.2-1.1,4.5-2,6.9-3.1c0.1,0.6,0.4,1,0.4,1.5c-0.1,7.7-0.2,15.4-0.3,23.1c0,2.3,0.4,4.2,3.3,4.4
			c0.4,0,0.7,0.6,1,1c-0.3,0.3-0.6,0.8-0.9,0.8c-4.2,0.1-8.4,0-12.7,0C217.8,206.3,217.7,206,217.6,205.8z"/>
		<path fill="#015BAB" d="M583.6,175.5c-0.1,2.4-0.3,4.3-0.3,6.2c0,6,0,11.9,0,17.9c0,2.5,0.1,4.9,3.5,5.2c0.3,0,0.6,0.7,0.9,1.1
			c-0.4,0.2-0.8,0.6-1.2,0.6c-3.7,0-7.4,0-11.2,0c-0.5,0-0.9-0.5-1.3-0.8c0.4-0.4,0.8-1,1.2-1c2.4-0.1,3-1.7,3-3.6
			c0-5.7,0.1-11.5-0.1-17.2c0-1-0.9-2.2-1.7-2.9c-1-1-1-1.6,0.2-2.2C578.7,177.7,580.8,176.8,583.6,175.5z"/>
		<path fill="#015BAB" d="M374,170.9c0.6-0.4,1.2-0.8,1.7-1.2c1.1-1,2.4-1.9,3.1-3.1c1.7-2.6,0.5-5.6-2.5-6.3c-1.8-0.4-2.5-1.3-2-3
			c0.5-1.7,2-2.5,3.5-2c1.5,0.6,3.2,1.6,3.9,3c3,5.9-0.8,11.6-6.4,13.4c-0.3,0.1-0.7-0.1-1-0.1C374.2,171.3,374.1,171.1,374,170.9z"
			/>
		<path fill="#015BAB" d="M583.9,161.7c0,2.1-1.3,3.5-3.5,3.5c-2.1,0-3.6-1.4-3.7-3.4c0-2.2,1.6-3.8,3.8-3.8
			C582.6,158.1,583.9,159.5,583.9,161.7z"/>
		<path fill="#015BAB" d="M827.8,161.8c0-2.2,1.4-3.6,3.6-3.7c2,0,3.4,1.4,3.4,3.5c0,2.2-1.4,3.7-3.5,3.6
			C829.1,165.2,827.8,163.9,827.8,161.8z"/>
		<path fill="#015BAB" d="M1053.5,161.5c0,2.5-1.1,3.7-3.4,3.7c-2.1,0-3.5-1.3-3.5-3.4c0-2.4,1.3-3.7,3.7-3.7
			C1052.4,158.1,1053.4,159.3,1053.5,161.5z"/>
		<path fill="#015BAB" d="M220.7,161.7c0-2.3,1.4-3.7,3.6-3.6c2,0,3.4,1.5,3.3,3.7c0,2.1-1.4,3.5-3.5,3.5
			C221.9,165.2,220.7,164,220.7,161.7z"/>
	</g>
</g>
</svg>
