<!-- Generator: Adobe Illustrator 19.1.0, SVG Export Plug-In  -->
<svg version="1.1"
	 xmlns="http://www.w3.org/2000/svg" xmlns:xlink="http://www.w3.org/1999/xlink" xmlns:a="http://ns.adobe.com/AdobeSVGViewerExtensions/3.0/"
	 x="0px" y="0px" width="143.1px" height="28px" viewBox="0 0 143.1 28" enable-background="new 0 0 143.1 28" xml:space="preserve"
	>
<defs>
</defs>
<g>
	<g>
		<path fill="#BCBEC0" d="M49.7,28h-0.3c-1.5,0-2.8-1.2-2.8-2.8c0-1.7,1.3-3,3-3c0.8,0,1.3,0.2,1.5,0.3v0.9h-0.1
			c-0.5-0.3-0.9-0.6-1.8-0.6c-0.4,0-0.7,0.1-0.9,0.1c-0.7,0.3-1,1.2-1,2c0,1.3,0.8,2.4,2.3,2.4c0.5,0,0.9-0.3,1.3-0.5h0.1v0.6
			C50.6,27.8,50.3,27.9,49.7,28"/>
		<path fill="#BCBEC0" d="M56.7,28c-1.5,0-2.6-1.2-2.6-2.8c0-1.7,1.2-3,2.9-3c1.5,0,2.6,1.1,2.6,2.8C59.6,26.8,58.3,28,56.7,28
			 M56.9,22.7c-1,0-1.9,0.8-1.9,2.3c0,1.6,0.8,2.5,1.9,2.5c1,0,1.9-0.8,1.9-2.3C58.7,23.6,57.9,22.7,56.9,22.7"/>
		<path fill="#BCBEC0" d="M66.6,28c-0.2-0.2-1.2-0.1-1.8-0.1l-2,0v-0.1l0.2-0.4c0-0.3,0.1-0.9,0.1-1.3v-1.9c0-0.6,0-1.6-0.2-1.8
			v-0.1H64v0.1c-0.2,0.2-0.2,1.2-0.2,1.8v3.2h1c0.6,0,1.6,0,1.8-0.2h0.1L66.6,28L66.6,28z"/>
		<path fill="#BCBEC0" d="M73.5,28c-0.2-0.2-1.2-0.1-1.8-0.1l-2,0v-0.1l0.2-0.4c0-0.3,0.1-0.9,0.1-1.3v-1.9c0-0.6,0-1.6-0.2-1.8
			v-0.1h1.1v0.1c-0.2,0.2-0.2,1.2-0.2,1.8v3.2h1c0.6,0,1.6,0,1.8-0.2h0.1L73.5,28L73.5,28z"/>
		<path fill="#BCBEC0" d="M80.5,28c-0.2-0.2-1.2-0.1-1.8-0.1h-2v-0.1c0.1-0.2,0.2-1.1,0.2-1.8v-1.9c0-0.6,0-1.6-0.2-1.8v-0.1h2
			c0.6,0,1.6,0,1.8-0.1h0.1v0.9h-0.1c-0.2-0.2-1.2-0.2-1.8-0.2h-1.1v1.9h0.9c0.6,0,1.6,0,1.8-0.2h0.1v0.9h-0.1
			c-0.2-0.2-1.2-0.2-1.8-0.2h-0.9v2.1h1.1c0.6,0,1.6,0,1.8-0.2h0.1L80.5,28L80.5,28z"/>
		<path fill="#BCBEC0" d="M88.6,27v0.6L86.7,28h-0.3c-1.4,0-2.6-1.2-2.6-2.8c0-1.7,1.3-3,3.1-3c0.8,0,1.4,0.2,1.5,0.3v0.9h-0.1
			c-0.4-0.3-1-0.6-1.8-0.6c-0.4,0-0.8,0.1-0.9,0.1c-0.7,0.3-1,1.2-1,2.1c0,1.4,0.8,2.4,2.1,2.4c0.4,0,0.8-0.1,1.1-0.2V27
			c0-0.6,0-1.6-0.2-1.8v-0.1h1.1v0.1C88.6,25.5,88.6,26.4,88.6,27"/>
	</g>
	<g>
		<path fill="#BCBEC0" d="M95.9,28c-0.2-0.2-1.2-0.1-1.8-0.1h-2v-0.1c0.1-0.2,0.2-1.1,0.2-1.8v-1.9c0-0.6,0-1.6-0.2-1.8v-0.1h2
			c0.6,0,1.6,0,1.8-0.1H96v0.9h-0.1c-0.2-0.2-1.2-0.2-1.8-0.2h-1.1v1.9H94c0.6,0,1.6,0,1.8-0.2h0.1v0.9h-0.1
			c-0.2-0.2-1.2-0.2-1.8-0.2h-0.9v2.1h1.1c0.6,0,1.6,0,1.8-0.2H96L95.9,28L95.9,28z"/>
		<path fill="#BCBEC0" d="M6,8.5c-1.4,0-3,0.3-3.4,0.4v5.7c1,0,1.9,0.1,3.2,0.1c0.9,0,1.5-0.2,1.9-0.4c0.9-0.4,1.6-1.3,1.6-2.6
			C9.3,10,8.6,8.5,6,8.5 M4.7,1.5c-0.6,0-1.3,0.1-2.1,0.2v5.5h3.5c1-0.6,1.5-1.7,1.5-2.9C7.6,2.2,6.7,1.5,4.7,1.5 M9.6,14.7
			c-1.8,1.2-3.2,1.3-5.3,1.3c-0.9,0-2.7,0-4.3-0.1v-0.3c0.4-0.6,0.5-3.2,0.5-5V5.4c0-1.7,0-4.4-0.5-5V0.2c1.1,0,3.2,0,4,0
			c4.1,0,6,1.1,6,3.5c0,0.6-0.2,1.4-0.6,2L7.7,7.2c2.2,0.3,4,1.7,4,3.9C11.6,12.5,11,13.8,9.6,14.7"/>
	</g>
	<g>
		<path fill="#BCBEC0" d="M38.9,5.7l-1.6,2.8c-0.2,0.4-0.7,1.2-1,1.8v0.3c0,1.7,0,4.5,0.5,5.1V16h-3.1v-0.3c0.4-0.6,0.5-3.4,0.5-5.1
			v-0.4l-2.8-4.7c-1.2-2-2.5-4.4-3.7-5.2V0.2h3.9v0.2c0,0.2-0.1,0.3-0.1,0.7c0,0.4,0.9,2.3,3.1,5.9l1,1.6L36.4,7
			c1.6-2.8,2.9-5.2,2.9-6c0-0.2,0-0.4-0.1-0.6V0.2h3.2v0.2C41.4,1.2,40.3,3.3,38.9,5.7"/>
		<path fill="#BCBEC0" d="M58.8,5.2v7.2c0,0.9,0,2.2,0.1,3.6v0.3h-1.6V16c-0.3-0.6-1.2-1.7-2-2.7c-2.9-3.7-4.8-6-7.6-9.3v7
			c0,1.5,0.2,4.2,0.7,4.7V16h-2.9v-0.3c0.4-0.6,0.7-3,0.7-4.7V2.3c-0.9-1-1.4-1.5-1.7-1.8V0.2h3.1c0.3,0.5,1.3,1.8,2.2,2.9
			c2.8,3.6,5.1,6.2,7.6,9.2V5.2c0-1.5-0.2-4.1-0.7-4.7V0.2h3v0.3C59,1,58.8,3.4,58.8,5.2"/>
		<path fill="#BCBEC0" d="M82.8,16v-0.3c0.3-0.4,0.4-1.7,0.4-3.1c0-0.7,0-1.4,0-1.9l-0.3-7.3l-3.4,7.3c-0.9,1.8-1.9,3.8-1.9,4.9v0.2
			h-1.9v-0.2c0-0.5-1-3-1.8-4.7l-3.1-7.3l-0.6,7.2c-0.1,0.9-0.2,2.2-0.2,3.2c0,0.8,0.1,1.6,0.3,1.9V16h-2.7v-0.3
			c0.5-0.6,0.9-3.2,1.1-5L69,5.4c0.1-0.9,0.3-2.8,0.3-3.9c-0.2-0.4-0.5-0.8-0.8-1.2V0.2h3v0.2c0.3,0.9,1.7,4,2.3,5.3l3,6.9l3.3-6.9
			c0.8-1.7,1.9-3.9,2.3-4.7V0.2h2.9v0.2c-0.4,0.5-0.4,1.7-0.4,3.1c0,0.5,0,1.5,0,1.9l0.2,5.4c0,1.8,0.2,4.4,0.6,5V16H82.8z"/>
		<path fill="#BCBEC0" d="M96.6,2.5l-2.4,5.7h4.7L96.6,2.5z M101,16v-0.2c0.1-0.2,0.1-0.4,0.1-0.7c0-0.9-0.5-2.4-1.7-5.5h-5.9
			c-0.9,2.2-1.9,4.6-1.9,5.6c0,0.2,0,0.4,0.1,0.6V16h-3.1v-0.2c1-0.9,2-3.3,2.9-5.4l4.3-10.2h2l4.1,10.3c0.8,2,1.7,4.5,2.7,5.4V16
			H101z"/>
		<path fill="#BCBEC0" d="M124.4,5.9L120.9,16h-1.6l-3.5-11.5L111.6,16H110l-3.1-10.3c-0.6-1.9-1.2-4.5-2.2-5.4V0.2h3.6v0.2
			c-0.1,0.2-0.2,0.4-0.2,0.7c0,1,0.3,2.3,1.4,6.2l1.6,5.6l2.2-6c1.2-3.3,1.6-4.4,1.6-5.8c0-0.3,0-0.6-0.1-0.7V0.2h2.6v0.2
			c-0.1,0.2-0.2,0.5-0.2,0.7c0,1.3,0.3,2.2,1.5,6.3l1.7,5.5l2.5-7.4c0.5-1.5,1.1-3.5,1.1-4.2c0-0.2-0.1-0.6-0.1-0.8V0.2h3v0.2
			C126.1,1.2,125.2,3.7,124.4,5.9"/>
		<path fill="#BCBEC0" d="M19.7,8.2h-2.4V1.6c0.8-0.1,1.5-0.2,2.1-0.2c2.4,0,3.6,0.8,3.6,2.9C23,7.3,21.1,8,19.7,8.2 M22,12.6
			c0.5,0.7,1.4,1.8,2.5,2.6c1.3,0.9,2.3,0.9,2.7,0.9c0.4,0,1.3,0,1.3,0v-0.3c-0.9-0.6-2.6-1.7-4.2-3.8C22.7,9.9,22,8.8,22,8.8
			l2.3-1.5c0.5-0.7,1-1.7,1-2.6c0-3.1-2.3-4.6-6.5-4.6c-1.3,0-3.1,0.1-4.3,0.1v0.2c0.4,0.6,0.5,3.3,0.5,5v5.4c0,1.7,0,4.4-0.5,5v0.3
			h3.1v-0.3c-0.4-0.6-0.5-3.3-0.5-5V9.8l2.4-0.4l0.7,1L22,12.6z"/>
		<path fill="#BCBEC0" d="M134.3,8.2h-2.4V1.6c0.8-0.1,1.5-0.2,2.1-0.2c2.4,0,3.6,0.8,3.6,2.9C137.6,7.3,135.8,8,134.3,8.2
			 M136.6,12.6c0.5,0.7,1.4,1.8,2.5,2.6c1.3,0.9,2.3,0.9,2.7,0.9c0.4,0,1.3,0,1.3,0v-0.3c-0.9-0.6-2.6-1.7-4.2-3.8
			c-1.6-2.1-2.3-3.3-2.3-3.3l2.3-1.5c0.5-0.7,1-1.7,1-2.6c0-3.1-2.3-4.6-6.5-4.6c-1.3,0-3.1,0.1-4.3,0.1v0.2c0.4,0.6,0.5,3.3,0.5,5
			v5.4c0,1.7,0,4.4-0.5,5v0.3h3.1v-0.3c-0.4-0.6-0.4-3.3-0.4-5V9.8l2.4-0.4l0.7,1L136.6,12.6z"/>
	</g>
</g>
</svg>
