<!-- Generator: Adobe Illustrator 19.1.0, SVG Export Plug-In  -->
<svg version="1.1"
	 xmlns="http://www.w3.org/2000/svg" xmlns:xlink="http://www.w3.org/1999/xlink" xmlns:a="http://ns.adobe.com/AdobeSVGViewerExtensions/3.0/"
	 x="0px" y="0px" width="305.1px" height="84.7px" viewBox="0 0 305.1 84.7" enable-background="new 0 0 305.1 84.7"
	 xml:space="preserve">
<defs>
</defs>
<g>
	<g>
		<g>
			<circle fill="#045B97" cx="42.2" cy="42.1" r="34.8"/>
		</g>
		<g>
			<g>
				<path fill="#045B97" d="M42.2,84.7C18.9,84.7,0,65.7,0,42.4C0,19,18.9,0,42.2,0s42.2,19,42.2,42.4
					C84.3,65.7,65.4,84.7,42.2,84.7z M42.2,1.9C20,1.9,2,20.1,2,42.4c0,22.3,18,40.4,40.2,40.4s40.2-18.1,40.2-40.4
					C82.4,20.1,64.3,1.9,42.2,1.9z"/>
			</g>
		</g>
		<g>
			<g>
				<path fill="#FFFFFF" d="M20.2,52.6c-1.7,0.4-3.4,0.5-3.8,1c-0.8,0.9-1.5,2.8-1.5,2.8s3.5,4.4,7.8,6.9c4,2.4,7.8,3.8,10.1,4.6
					l1.6-2.4c-0.2-0.5-0.7-1.7-1-2.9c0-0.2-0.1-0.4-0.1-0.6c0-0.2-0.1-0.3-0.1-0.5c-0.4-0.2-0.8-0.4-1.2-0.6
					C22.1,55.7,20.5,53.2,20.2,52.6z"/>
			</g>
			<g>
				<path fill="#FFFFFF" d="M51.8,65c-4.5-0.1-11.4-0.6-17.7-3.3c0,0.1,0.1,0.4,0.1,0.5c0.3,1.5,1,2.6,1.1,2.7
					c0.1,0.1,0,0.6-0.1,0.7l-1.4,2.4c1.9,0.7,2.4,1.1,8.1,2.4c2.7,0.6,5.8,0.7,8,0.5c2.2-0.2,3.2-0.6,3.2-0.6s1.2-1.6,1-2.8
					c-0.2-1-1.1-2-1.8-2.7c0,0,0,0,0,0C52.4,64.9,51.8,65,51.8,65z"/>
			</g>
			<g>
				<path fill="#FFFFFF" d="M69.1,27.3c0,0-3.1-2.1-4.8-2.7c-1.7-0.6-4.8-1.1-5.5-1.4c0,0-1.9-0.4-2.6-0.9c-0.6-0.5-1.8-2.7-5.4-3.7
					c-2.7-0.8-2.6-0.8-4.1-0.9c-1.7-0.1-2.8,0.2-2.8,0.2s-4.3-2-5.6-2.6c-1.3-0.6-2.8-1.2-3.6-1.3c-0.7-0.1-3.7-0.6-3.7-0.6l-4,11
					c0,0-1.3-0.4-1.5-0.4c-0.2,0-2.5,5.9-2.5,5.9s0.8,1.1,1.8,1.6c1,0.5,3.2,0.6,4.4,0.9c1.2,0.3,2.4,0.7,2.4,0.7s0.6-1.9,1.5-2.4
					c0.8-0.4,2.4-1.2,3.3-1.9c0.9-0.7,1.8-1.6,1.8-1.6s3.4,1.1,3.6,1.5c0.2,0.4,0.1,1,0,1.3c-0.1,0.3-1.1,2.5-3.2,2.7
					s-4.6,0.2-4.9,0.7c-0.3,0.6-3.7,9.2-5,10.8c-1.3,1.6-4.8,7.1-6.9,7.9c-0.1,0.1-0.3,0.1-0.4,0.1c0.4,0.5,2.3,2.8,11.3,7.5
					c0.2,0.1,0.4,0.2,0.6,0.3c0-0.7,0-1.6,0.2-3.2c0.3-3.5,1.3-6.3,2.1-8.4c0.2-0.6,0.4-1.2,0.6-1.6c0.1-0.3,0.4-0.5,0.7-0.4
					c0.3,0.1,0.5,0.4,0.4,0.7c-0.1,0.5-0.3,1-0.6,1.7c-0.7,2-1.7,4.8-2,8.2c-0.2,2.1-0.2,3-0.2,3.7c6.4,2.9,12.7,3.3,17.3,3.3
					c0,0,0,0,0,0c-1.3-1.6-0.5-3.7-0.4-8.3c0,0,0.6-4.3,1.1-7.9c0.5-3.6,2-6.9,2-6.9s-1.9-2.4-2.8-3c-0.8-0.6-1.9-2.3-1.9-3.2
					c0.1-1,1-2.8,1-2.8l3.9,1.6c0,0-0.2,1.4,0.3,2.3c0.5,0.9,1.7,3.6,1.8,4.2c0.1,0.6-0.2,2.4-0.2,2.4s2.5,1.3,3.4,1.8
					c0.9,0.5,1.6,1,2.4,1.2c0.7,0.2,2.1,0.3,2.1,0.3l2.4-6.2l-1.7-1.1L69.1,27.3z"/>
			</g>
		</g>
	</g>
	<g>
		<path fill="#045B97" d="M102.3,23.1h-4.5v-3.7h13.4v3.7h-4.5v13.2h-4.5V23.1z"/>
		<path fill="#045B97" d="M113.7,18.1h4.5v4.2l-0.2,2.2c0.9-0.8,2.1-1.7,3.9-1.7c2.9,0,4.1,2.1,4.1,5.3v8h-4.5v-7.4
			c0-1.7-0.4-2.1-1.3-2.1c-0.8,0-1.3,0.4-2,1v8.5h-4.5V18.1z"/>
		<path fill="#045B97" d="M134.6,22.9c3.9,0,5.7,2.8,5.7,6.3c0,0.8-0.1,1.5-0.2,1.8h-7.4c0.4,1.7,1.6,2.2,3,2.2
			c0.9,0,1.7-0.3,2.7-0.8l1.5,2.7c-1.4,1-3.3,1.5-4.7,1.5c-3.8,0-6.7-2.5-6.7-6.8C128.4,25.5,131.5,22.9,134.6,22.9z M136.5,28.3
			c0-1.1-0.4-2-1.8-2c-1,0-1.8,0.5-2.1,2H136.5z"/>
		<path fill="#045B97" d="M149.1,19.3h4.6l2.7,7l0.9,2.8h0.1l0.9-2.8l2.6-7h4.6v16.9h-4.2v-5c0-1.7,0.4-4.3,0.6-6h-0.1l-1.4,4
			l-2.3,5.7h-1.7l-2.3-5.7l-1.4-4h-0.1c0.2,1.7,0.6,4.3,0.6,6v5h-4.1V19.3z"/>
		<path fill="#045B97" d="M175.8,27.8c-0.1-0.9-0.7-1.4-1.8-1.4c-0.9,0-1.9,0.4-3.3,1.1l-1.6-2.9c1.8-1.1,3.7-1.7,5.7-1.7
			c3.4,0,5.4,1.8,5.4,6.1v7.2h-3.6l-0.3-1.2h-0.1c-1,0.9-2.2,1.6-3.6,1.6c-2.4,0-3.9-1.9-3.9-4C168.8,29.9,170.9,28.3,175.8,27.8z
			 M174.2,33.1c0.7,0,1.1-0.4,1.6-0.9v-1.8c-2.1,0.3-2.8,1-2.8,1.7C173,32.8,173.5,33.1,174.2,33.1z"/>
		<path fill="#045B97" d="M185.1,37.7c1.2,0,1.8-0.5,2-1.3l0.2-0.6l-4.9-12.5h4.5l1.6,5c0.4,1.2,0.6,2.4,0.9,3.7h0.1
			c0.3-1.2,0.5-2.4,0.8-3.7l1.3-5h4.3l-4.4,12.8c-1.4,3.5-2.8,5.1-6,5.1c-0.9,0-1.4-0.1-2-0.3l0.8-3.4
			C184.5,37.6,184.8,37.7,185.1,37.7z"/>
		<path fill="#045B97" d="M203.4,22.9c3.3,0,6.5,2.5,6.5,6.8s-3.1,6.8-6.5,6.8s-6.5-2.5-6.5-6.8S200.1,22.9,203.4,22.9z M203.4,33
			c1.4,0,1.9-1.2,1.9-3.2s-0.5-3.2-1.9-3.2c-1.4,0-1.9,1.2-1.9,3.2S202.1,33,203.4,33z"/>
		<path fill="#045B97" d="M212.5,23.2h3.6l0.3,2.2h0.1c1-1.8,2.4-2.6,3.7-2.6c0.8,0,1.2,0.1,1.6,0.3l-0.7,3.9
			c-0.5-0.1-0.9-0.2-1.5-0.2c-0.9,0-2.1,0.6-2.7,2.2v7.2h-4.5V23.2z"/>
		<path fill="#045B97" d="M223.5,26c1.7-0.7,2.5-1.7,2.5-3.3c-0.1,0-0.2,0-0.3,0c-1.2,0-2.2-0.8-2.2-2.1c0-1.5,0.9-2.4,2.2-2.4
			c1.8,0,2.8,1.4,2.8,3.8c0,2.6-1.3,4.6-4.1,5.9L223.5,26z"/>
		<path fill="#045B97" d="M231.8,32c1.2,0.9,2.3,1.3,3.2,1.3c0.9,0,1.3-0.3,1.3-0.8c0-0.7-1.2-1-2.5-1.5c-1.5-0.6-3.3-1.7-3.3-3.9
			c0-2.6,2.1-4.2,5.2-4.2c2.1,0,3.6,0.9,4.8,1.7l-2,2.7c-0.9-0.7-1.8-1.1-2.7-1.1c-0.8,0-1.1,0.2-1.1,0.7c0,0.7,1.1,0.9,2.4,1.4
			c1.6,0.6,3.3,1.6,3.3,3.9c0,2.4-1.9,4.3-5.6,4.3c-1.7,0-3.7-0.7-5-1.8L231.8,32z"/>
		<path fill="#045B97" d="M249,19.3h11v3.7h-6.6v3.2h5.6v3.7h-5.6v6.2H249V19.3z"/>
		<path fill="#045B97" d="M262.2,23.2h4.5v7.4c0,1.7,0.4,2.1,1.3,2.1c0.8,0,1.3-0.3,1.9-1.1v-8.4h4.5v13h-3.6l-0.3-1.7h-0.1
			c-1,1.2-2.2,2-4,2c-2.9,0-4.1-2.1-4.1-5.3V23.2z"/>
		<path fill="#045B97" d="M277.6,23.2h3.6l0.3,1.6h0.1c1-1,2.3-1.9,4.1-1.9c2.9,0,4.1,2.1,4.1,5.3v8h-4.5v-7.4
			c0-1.7-0.4-2.1-1.3-2.1c-0.8,0-1.3,0.4-2,1v8.5h-4.5V23.2z"/>
		<path fill="#045B97" d="M297.8,22.9c1.4,0,2.2,0.5,3,1.3l-0.2-1.9v-4.2h4.5v18.1h-3.6l-0.3-1.2H301c-0.9,0.9-2.1,1.5-3.3,1.5
			c-3.2,0-5.3-2.6-5.3-6.8C292.5,25.5,295.1,22.9,297.8,22.9z M299,32.9c0.7,0,1.2-0.2,1.7-0.9v-4.8c-0.5-0.5-1.2-0.6-1.8-0.6
			c-0.9,0-1.8,0.8-1.8,3.1C297,32,297.8,32.9,299,32.9z"/>
		<path fill="#045B97" d="M105.7,49.2c-0.5-0.2-1-0.3-1.4-0.3c-1,0-1.6,0.7-1.6,2.2v1.4h2.5v2.4h-2.5v10.4h-3V54.8h-1.7v-2.2
			l1.7-0.1v-1.3c0-2.7,1.2-4.6,4.2-4.6c0.9,0,1.8,0.2,2.3,0.4L105.7,49.2z"/>
		<path fill="#045B97" d="M112.6,52.1c3.2,0,6.1,2.4,6.1,6.7c0,4.2-2.9,6.7-6.1,6.7c-3.2,0-6.1-2.4-6.1-6.7
			C106.5,54.5,109.4,52.1,112.6,52.1z M112.6,63c1.9,0,3-1.7,3-4.2c0-2.6-1.1-4.3-3-4.3c-1.9,0-3,1.7-3,4.3
			C109.6,61.3,110.7,63,112.6,63z"/>
		<path fill="#045B97" d="M121.9,52.4h2.5l0.2,2.3h0.1c0.9-1.7,2.3-2.6,3.6-2.6c0.7,0,1.1,0.1,1.5,0.3l-0.5,2.6
			c-0.4-0.1-0.8-0.2-1.3-0.2c-1,0-2.2,0.7-3,2.6v7.8h-3V52.4z"/>
		<path fill="#045B97" d="M137.7,48.1h5.7c3.7,0,6.5,1.3,6.5,5.3c0,3.8-2.8,5.5-6.5,5.5h-2.7v6.2h-3V48.1z M143.2,56.5
			c2.6,0,3.7-1,3.7-3.1c0-2.1-1.3-2.8-3.7-2.8h-2.4v5.9H143.2z"/>
		<path fill="#045B97" d="M153,46.8h3v4.7l-0.1,2.5c1.1-1,2.3-1.9,4.1-1.9c2.7,0,3.9,1.8,3.9,5.1v8h-3v-7.6c0-2.1-0.6-2.9-2-2.9
			c-1.1,0-1.8,0.5-2.9,1.6v8.9h-3V46.8z"/>
		<path fill="#045B97" d="M167.5,48.5c0-1,0.8-1.7,1.8-1.7s1.8,0.7,1.8,1.7c0,1-0.8,1.7-1.8,1.7S167.5,49.4,167.5,48.5z M167.8,52.4
			h3v12.8h-3V52.4z"/>
		<path fill="#045B97" d="M174.9,46.8h3V62c0,0.7,0.3,1,0.6,1c0.1,0,0.2,0,0.5-0.1l0.4,2.2c-0.4,0.2-0.9,0.3-1.6,0.3
			c-2.1,0-2.9-1.4-2.9-3.6V46.8z"/>
		<path fill="#045B97" d="M189.2,57c0-1.4-0.6-2.5-2.3-2.5c-1.3,0-2.5,0.6-3.6,1.2l-1.1-2c1.4-0.9,3.2-1.7,5.2-1.7
			c3.2,0,4.8,2,4.8,5.5v7.6h-2.4l-0.2-1.4h-0.1c-1.1,1-2.4,1.7-4,1.7c-2.2,0-3.8-1.5-3.8-3.7C181.6,59,183.9,57.6,189.2,57z
			 M186.4,63.1c1,0,1.8-0.5,2.8-1.4v-2.9c-3.5,0.4-4.6,1.4-4.6,2.6C184.6,62.6,185.3,63.1,186.4,63.1z"/>
		<path fill="#045B97" d="M200.7,52.1c1.5,0,2.4,0.5,3.4,1.4l-0.1-2.1v-4.6h3v18.4h-2.5l-0.2-1.4h-0.1c-0.9,0.9-2.2,1.7-3.6,1.7
			c-3.2,0-5.3-2.5-5.3-6.7C195.3,54.6,197.9,52.1,200.7,52.1z M201.3,63c1,0,1.8-0.4,2.7-1.4v-6c-0.9-0.8-1.7-1.1-2.6-1.1
			c-1.6,0-3,1.5-3,4.2C198.4,61.5,199.4,63,201.3,63z"/>
		<path fill="#045B97" d="M216,52.1c3.5,0,5.3,2.5,5.3,6.1c0,0.6-0.1,1.1-0.1,1.4h-8.1c0.3,2.3,1.7,3.6,3.8,3.6c1.1,0,2-0.3,3-0.9
			l1,1.9c-1.2,0.8-2.8,1.4-4.4,1.4c-3.5,0-6.3-2.5-6.3-6.7C210.2,54.6,213.1,52.1,216,52.1z M218.7,57.6c0-2-0.9-3.3-2.6-3.3
			c-1.5,0-2.8,1.1-3.1,3.3H218.7z"/>
		<path fill="#045B97" d="M224.4,46.8h3V62c0,0.7,0.3,1,0.7,1c0.1,0,0.2,0,0.5-0.1l0.4,2.2c-0.4,0.2-0.9,0.3-1.6,0.3
			c-2.1,0-2.9-1.4-2.9-3.6V46.8z"/>
		<path fill="#045B97" d="M234.7,66.2v4h-3V52.4h2.5l0.2,1.4h0.1c1.1-0.9,2.4-1.7,3.9-1.7c3.2,0,5,2.6,5,6.5c0,4.4-2.6,6.9-5.5,6.9
			c-1.1,0-2.2-0.5-3.3-1.4L234.7,66.2z M237.3,63c1.7,0,3-1.5,3-4.4c0-2.6-0.8-4.1-2.8-4.1c-0.9,0-1.8,0.5-2.8,1.4v6
			C235.7,62.7,236.6,63,237.3,63z"/>
		<path fill="#045B97" d="M246.7,46.8h3v4.7l-0.1,2.5c1.1-1,2.3-1.9,4.1-1.9c2.7,0,3.9,1.8,3.9,5.1v8h-3v-7.6c0-2.1-0.6-2.9-2-2.9
			c-1.1,0-1.8,0.5-2.9,1.6v8.9h-3V46.8z"/>
		<path fill="#045B97" d="M261.1,48.5c0-1,0.8-1.7,1.8-1.7s1.8,0.7,1.8,1.7c0,1-0.8,1.7-1.8,1.7S261.1,49.4,261.1,48.5z M261.5,52.4
			h3v12.8h-3V52.4z"/>
		<path fill="#045B97" d="M275.5,57c0-1.4-0.6-2.5-2.3-2.5c-1.3,0-2.5,0.6-3.6,1.2l-1.1-2c1.4-0.9,3.2-1.7,5.2-1.7
			c3.2,0,4.8,2,4.8,5.5v7.6h-2.4l-0.2-1.4h-0.1c-1.1,1-2.4,1.7-4,1.7c-2.2,0-3.8-1.5-3.8-3.7C268,59,270.3,57.6,275.5,57z
			 M272.7,63.1c1,0,1.8-0.5,2.8-1.4v-2.9c-3.5,0.4-4.6,1.4-4.6,2.6C270.9,62.6,271.7,63.1,272.7,63.1z"/>
	</g>
</g>
</svg>
