<!-- Generator: Adobe Illustrator 19.2.1, SVG Export Plug-In  -->
<svg version="1.1"
	 xmlns="http://www.w3.org/2000/svg" xmlns:xlink="http://www.w3.org/1999/xlink" xmlns:a="http://ns.adobe.com/AdobeSVGViewerExtensions/3.0/"
	 x="0px" y="0px" width="252.4px" height="112px" viewBox="18 0 248 80" enable-background="new 0 0 252.4 112"
	 xml:space="preserve">
<defs>
</defs>
<g>
	<defs>
		<rect id="SVGID_1_" x="22.8" y="2.7" width="75.4" height="75.1"/>
	</defs>
	<clipPath id="SVGID_3_">
		<use xlink:href="#SVGID_1_"  overflow="visible"/>
	</clipPath>
	<g clip-path="url(#SVGID_3_)">
		<path fill="#7F7D8A" d="M46.3,82.4c-0.1,0-0.2,0-0.3-0.1c-0.1-0.1-0.5-0.4-0.2-1l1,0.5c0-0.1,0-0.2-0.2-0.3
			c-0.2-0.1-0.4-0.1-0.4-0.1c0.3-0.1,1.9-1.4,10.9-12.2c11-13.2,6.5-19.9,2.6-25.7c-0.6-0.9-1.2-1.8-1.7-2.6c-1.2-2-2.5-3.7-3.8-5.3
			c-2.7-3.3-5.3-6.5-5.3-12.2c0-8.3,17.9-22.5,18.7-23.1L68.3,1C68.1,1.2,50,15.4,50,23.2c0,5.4,2.3,8.2,5,11.5
			c1.3,1.6,2.7,3.3,3.9,5.4c0.5,0.8,1.1,1.7,1.6,2.6c3.9,5.9,8.8,13.2-2.7,27.1c-4.1,4.9-7.2,8.5-9.1,10.5
			C47.3,81.9,46.7,82.4,46.3,82.4z"/>
	</g>
	<g clip-path="url(#SVGID_3_)">
		<path fill="#7F7D8A" d="M43.8,82.4c-0.1,0-0.2,0-0.3-0.1c-0.1-0.1-0.5-0.4-0.2-1l1,0.5c0-0.1,0-0.2-0.2-0.3
			c-0.2-0.1-0.4-0.1-0.4-0.1c0.3-0.1,1.9-1.4,10.9-12.2c11-13.2,6.5-19.9,2.6-25.7c-0.6-0.9-1.2-1.8-1.7-2.6c-1.2-2-2.5-3.7-3.8-5.3
			c-2.7-3.3-5.3-6.5-5.3-12.2c0-8.3,17.9-22.5,18.7-23.1L65.8,1c-0.2,0.1-18.3,14.4-18.3,22.2c0,5.4,2.3,8.2,5,11.5
			c1.3,1.6,2.7,3.3,3.9,5.4c0.5,0.8,1.1,1.7,1.6,2.6c3.9,5.9,8.8,13.2-2.7,27.1c-4.1,4.9-7.2,8.5-9.1,10.5
			C44.8,81.9,44.2,82.4,43.8,82.4z"/>
	</g>
	<g clip-path="url(#SVGID_3_)">
		<path fill="#7F7D8A" d="M41.5,82.4c-0.1,0-0.2,0-0.3-0.1c-0.1-0.1-0.5-0.4-0.2-1l1,0.5c0-0.1,0-0.2-0.2-0.3
			c-0.2-0.1-0.4-0.1-0.4-0.1c0.3-0.1,1.9-1.4,10.9-12.2c11-13.2,6.5-19.9,2.6-25.7c-0.6-0.9-1.2-1.8-1.7-2.6c-1.2-2-2.5-3.7-3.8-5.3
			c-2.7-3.3-5.3-6.5-5.3-12.2c0-8.3,17.9-22.5,18.7-23.1L63.5,1c-0.2,0.1-18.3,14.4-18.3,22.2c0,5.4,2.3,8.2,5,11.5
			c1.3,1.6,2.7,3.3,3.9,5.4c0.5,0.8,1.1,1.7,1.6,2.6c3.9,5.9,8.8,13.2-2.7,27.1C49,74.7,46,78.3,44,80.3
			C42.5,81.9,41.9,82.4,41.5,82.4z"/>
	</g>
	<g clip-path="url(#SVGID_3_)">
		<path fill="#7F7D8A" d="M39.1,82.4c-0.1,0-0.2,0-0.3-0.1c-0.1-0.1-0.5-0.4-0.2-1l1,0.5c0-0.1,0-0.2-0.2-0.3
			c-0.2-0.1-0.4-0.1-0.4-0.1c0.3-0.1,1.9-1.4,10.9-12.2c11-13.2,6.5-19.9,2.6-25.7c-0.6-0.9-1.2-1.8-1.7-2.6c-1.2-2-2.5-3.7-3.8-5.3
			c-2.7-3.3-5.3-6.5-5.3-12.2c0-8.3,17.9-22.5,18.7-23.1L61.1,1c-0.2,0.1-18.3,14.4-18.3,22.2c0,5.4,2.3,8.2,5,11.5
			c1.3,1.6,2.7,3.3,3.9,5.4c0.5,0.8,1.1,1.7,1.6,2.6c3.9,5.9,8.8,13.2-2.7,27.1c-4.1,4.9-7.2,8.5-9.1,10.5
			C40.1,81.9,39.5,82.4,39.1,82.4z"/>
	</g>
	<g clip-path="url(#SVGID_3_)">
		<path fill="#7F7D8A" d="M36.7,82.4c-0.1,0-0.2,0-0.3-0.1c-0.1-0.1-0.5-0.4-0.2-1l1,0.5c0-0.1,0-0.2-0.2-0.3
			c-0.2-0.1-0.4-0.1-0.4-0.1c0.3-0.1,1.9-1.4,10.9-12.2c11-13.2,6.5-19.9,2.6-25.7c-0.6-0.9-1.2-1.8-1.7-2.6c-1.2-2-2.5-3.7-3.8-5.3
			c-2.7-3.3-5.3-6.5-5.3-12.2c0-8.3,17.9-22.5,18.7-23.1L58.7,1c-0.2,0.1-18.3,14.4-18.3,22.2c0,5.4,2.3,8.2,5,11.5
			c1.3,1.6,2.7,3.3,3.9,5.4c0.5,0.8,1.1,1.7,1.6,2.6c3.9,5.9,8.8,13.2-2.7,27.1c-4.1,4.9-7.2,8.5-9.1,10.5
			C37.7,81.9,37.1,82.4,36.7,82.4z"/>
	</g>
	<g clip-path="url(#SVGID_3_)">
		<path fill="#7F7D8A" d="M34.2,82.4c-0.1,0-0.2,0-0.3-0.1c-0.1-0.1-0.5-0.4-0.2-1l1,0.5c0-0.1,0-0.2-0.2-0.3
			c-0.2-0.1-0.4-0.1-0.4-0.1c0.3-0.1,1.9-1.4,10.9-12.2c11-13.2,6.5-19.9,2.6-25.7c-0.6-0.9-1.2-1.8-1.7-2.6c-1.2-2-2.5-3.7-3.8-5.3
			c-2.7-3.3-5.3-6.5-5.3-12.2c0-8.3,17.9-22.5,18.7-23.1L56.2,1C56,1.2,38,15.4,38,23.2c0,5.4,2.3,8.2,5,11.5
			c1.3,1.6,2.7,3.3,3.9,5.4c0.5,0.8,1.1,1.7,1.6,2.6c3.9,5.9,8.8,13.2-2.7,27.1c-4.1,4.9-7.2,8.5-9.1,10.5
			C35.3,81.9,34.6,82.4,34.2,82.4z"/>
	</g>
	<g clip-path="url(#SVGID_3_)">
		<path fill="#7F7D8A" d="M31.9,82.4c-0.1,0-0.2,0-0.3-0.1c-0.1-0.1-0.5-0.4-0.2-1l1,0.5c0-0.1,0-0.2-0.2-0.3
			c-0.2-0.1-0.4-0.1-0.4-0.1c0.3-0.1,1.9-1.4,10.9-12.2c11-13.2,6.5-19.9,2.6-25.7c-0.6-0.9-1.2-1.8-1.7-2.6c-1.2-2-2.5-3.7-3.8-5.3
			c-2.7-3.3-5.3-6.5-5.3-12.2c0-8.3,17.9-22.5,18.7-23.1L53.9,1c-0.2,0.1-18.3,14.4-18.3,22.2c0,5.4,2.3,8.2,5,11.5
			c1.3,1.6,2.7,3.3,3.9,5.4c0.5,0.8,1.1,1.7,1.6,2.6c3.9,5.9,8.8,13.2-2.7,27.1c-4.1,4.9-7.2,8.5-9.1,10.5
			C32.9,81.9,32.3,82.4,31.9,82.4z"/>
	</g>
	<g clip-path="url(#SVGID_3_)">
		<path fill="#7F7D8A" d="M29.5,82.4c-0.1,0-0.2,0-0.3-0.1c-0.1-0.1-0.5-0.4-0.2-1l1,0.5c0-0.1,0-0.2-0.2-0.3
			c-0.2-0.1-0.4-0.1-0.4-0.1c0.3-0.1,1.9-1.4,10.9-12.2c11-13.2,6.5-19.9,2.6-25.7c-0.6-0.9-1.2-1.8-1.7-2.6c-1.2-2-2.5-3.7-3.8-5.3
			c-2.7-3.3-5.3-6.5-5.3-12.2c0-8.3,17.9-22.5,18.7-23.1L51.5,1c-0.2,0.1-18.3,14.4-18.3,22.2c0,5.4,2.3,8.2,5,11.5
			c1.3,1.6,2.7,3.3,3.9,5.4c0.5,0.8,1.1,1.7,1.6,2.6c3.9,5.9,8.8,13.2-2.7,27.1c-4.1,4.9-7.2,8.5-9.1,10.5
			C30.6,81.9,29.9,82.4,29.5,82.4z"/>
	</g>
	<g clip-path="url(#SVGID_3_)">
		<path fill="#7F7D8A" d="M26.8,82.4c-0.1,0-0.2,0-0.3-0.1c-0.1-0.1-0.5-0.4-0.2-1l1,0.5c0-0.1,0-0.2-0.2-0.3
			c-0.2-0.1-0.4-0.1-0.4-0.1c0.3-0.1,1.9-1.4,10.9-12.2c11-13.2,6.5-19.9,2.6-25.7c-0.6-0.9-1.2-1.8-1.7-2.6c-1.2-2-2.5-3.7-3.8-5.3
			c-2.7-3.3-5.3-6.5-5.3-12.2c0-8.3,17.9-22.5,18.7-23.1L48.8,1c-0.2,0.1-18.3,14.4-18.3,22.2c0,5.4,2.3,8.2,5,11.5
			c1.3,1.6,2.7,3.3,3.9,5.4c0.5,0.8,1.1,1.7,1.6,2.6c3.9,5.9,8.8,13.2-2.7,27.1c-4.1,4.9-7.2,8.5-9.1,10.5
			C27.8,81.9,27.2,82.4,26.8,82.4z"/>
	</g>
	<g clip-path="url(#SVGID_3_)">
		<path fill="#7F7D8A" d="M24.3,82.4c-0.1,0-0.2,0-0.3-0.1c-0.1-0.1-0.5-0.4-0.2-1l1,0.5c0-0.1,0-0.2-0.2-0.3
			c-0.2-0.1-0.4-0.1-0.4-0.1c0.3-0.1,1.9-1.4,10.9-12.2c11-13.2,6.5-19.9,2.6-25.7c-0.6-0.9-1.2-1.8-1.7-2.6c-1.2-2-2.5-3.7-3.8-5.3
			c-2.7-3.3-5.3-6.5-5.3-12.2c0-8.3,17.9-22.5,18.7-23.1L46.3,1c-0.2,0.1-18.3,14.4-18.3,22.2c0,5.4,2.3,8.2,5,11.5
			c1.3,1.6,2.7,3.3,3.9,5.4c0.5,0.8,1.1,1.7,1.6,2.6c3.9,5.9,8.8,13.2-2.7,27.1c-4.1,4.9-7.2,8.5-9.1,10.5
			C25.4,81.9,24.7,82.4,24.3,82.4z"/>
	</g>
	<g clip-path="url(#SVGID_3_)">
		<path fill="#7F7D8A" d="M22,82.4c-0.1,0-0.2,0-0.3-0.1c-0.1-0.1-0.5-0.4-0.2-1l1,0.5c0-0.1,0-0.2-0.2-0.3
			c-0.2-0.1-0.4-0.1-0.4-0.1c0.3-0.1,1.9-1.4,10.9-12.2c11-13.2,6.5-19.9,2.6-25.7c-0.6-0.9-1.2-1.8-1.7-2.6c-1.2-2-2.5-3.7-3.8-5.3
			c-2.7-3.3-5.3-6.5-5.3-12.2c0-8.3,17.9-22.5,18.7-23.1L44,1c-0.2,0.1-18.3,14.4-18.3,22.2c0,5.4,2.3,8.2,5,11.5
			c1.3,1.6,2.7,3.3,3.9,5.4c0.5,0.8,1.1,1.7,1.6,2.6c3.9,5.9,8.8,13.2-2.7,27.1c-4.1,4.9-7.2,8.5-9.1,10.5
			C23,81.9,22.4,82.4,22,82.4z"/>
	</g>
	<g clip-path="url(#SVGID_3_)">
		<path fill="#7F7D8A" d="M19.6,82.4c-0.1,0-0.2,0-0.3-0.1c-0.1-0.1-0.5-0.4-0.2-1l1,0.5c0-0.1,0-0.2-0.2-0.3
			c-0.2-0.1-0.4-0.1-0.4-0.1c0.3-0.1,1.9-1.4,10.9-12.2c11-13.2,6.5-19.9,2.6-25.7c-0.6-0.9-1.2-1.8-1.7-2.6c-1.2-2-2.5-3.7-3.8-5.3
			c-2.7-3.3-5.3-6.5-5.3-12.2c0-8.3,17.9-22.5,18.7-23.1L41.6,1c-0.2,0.1-18.3,14.4-18.3,22.2c0,5.4,2.3,8.2,5,11.5
			c1.3,1.6,2.7,3.3,3.9,5.4c0.5,0.8,1.1,1.7,1.6,2.6c3.9,5.9,8.8,13.2-2.7,27.1c-4.1,4.9-7.2,8.5-9.1,10.5
			C20.7,81.9,20,82.4,19.6,82.4z"/>
	</g>
	<g clip-path="url(#SVGID_3_)">
		<path fill="#7F7D8A" d="M17.2,82.4c-0.1,0-0.2,0-0.3-0.1c-0.1-0.1-0.5-0.4-0.2-1l1,0.5c0-0.1,0-0.2-0.2-0.3
			c-0.2-0.1-0.4-0.1-0.4-0.1c0.3-0.1,1.9-1.4,10.9-12.2c11-13.2,6.5-19.9,2.6-25.7c-0.6-0.9-1.2-1.8-1.7-2.6c-1.2-2-2.5-3.7-3.8-5.3
			c-2.7-3.3-5.3-6.5-5.3-12.2c0-8.3,17.9-22.5,18.7-23.1L39.2,1C39,1.2,21,15.4,21,23.2c0,5.4,2.3,8.2,5,11.5
			c1.3,1.6,2.7,3.3,3.9,5.4c0.5,0.8,1.1,1.7,1.6,2.6c3.9,5.9,8.8,13.2-2.7,27.1c-4.1,4.9-7.2,8.5-9.1,10.5
			C18.3,81.9,17.6,82.4,17.2,82.4z"/>
	</g>
	<g clip-path="url(#SVGID_3_)">
		<path fill="#7F7D8A" d="M14.7,82.4c-0.1,0-0.2,0-0.3-0.1c-0.1-0.1-0.5-0.4-0.2-1l1,0.5c0-0.1,0-0.2-0.2-0.3
			c-0.2-0.1-0.4-0.1-0.4-0.1c0.3-0.1,1.9-1.4,10.9-12.2c11-13.2,6.5-19.9,2.6-25.7c-0.6-0.9-1.2-1.8-1.7-2.6c-1.2-2-2.5-3.7-3.8-5.3
			c-2.7-3.3-5.3-6.5-5.3-12.2c0-8.3,17.9-22.5,18.7-23.1L36.7,1c-0.2,0.1-18.3,14.4-18.3,22.2c0,5.4,2.3,8.2,5,11.5
			c1.3,1.6,2.7,3.3,3.9,5.4c0.5,0.8,1.1,1.7,1.6,2.6c3.9,5.9,8.8,13.2-2.7,27.1c-4.1,4.9-7.2,8.5-9.1,10.5
			C15.8,81.9,15.2,82.4,14.7,82.4z"/>
	</g>
	<g clip-path="url(#SVGID_3_)">
		<path fill="#7F7D8A" d="M12.4,82.4c-0.1,0-0.2,0-0.3-0.1c-0.1-0.1-0.5-0.4-0.2-1l1,0.5c0-0.1,0-0.2-0.2-0.3
			c-0.2-0.1-0.4-0.1-0.4-0.1c0.3-0.1,1.9-1.4,10.9-12.2c11-13.2,6.5-19.9,2.6-25.7c-0.6-0.9-1.2-1.8-1.7-2.6c-1.2-2-2.5-3.7-3.8-5.3
			C17.6,32.1,15,29,15,23.2C15,14.9,33,0.7,33.7,0.2L34.4,1c-0.2,0.1-18.3,14.4-18.3,22.2c0,5.4,2.3,8.2,5,11.5
			c1.3,1.6,2.7,3.3,3.9,5.4c0.5,0.8,1.1,1.7,1.6,2.6c3.9,5.9,8.8,13.2-2.7,27.1c-4.1,4.9-7.2,8.5-9.1,10.5
			C13.5,81.9,12.8,82.4,12.4,82.4z"/>
	</g>
	<g clip-path="url(#SVGID_3_)">
		<path fill="#7F7D8A" d="M10,82.4c-0.1,0-0.2,0-0.3-0.1c-0.1-0.1-0.5-0.4-0.2-1l1,0.5c0-0.1,0-0.2-0.2-0.3
			c-0.2-0.1-0.4-0.1-0.4-0.1c0.3-0.1,1.9-1.4,10.9-12.2c11-13.2,6.5-19.9,2.6-25.7c-0.6-0.9-1.2-1.8-1.7-2.6c-1.2-2-2.5-3.7-3.8-5.3
			c-2.7-3.3-5.3-6.5-5.3-12.2c0-8.3,17.9-22.5,18.7-23.1L32,1c-0.2,0.1-18.3,14.4-18.3,22.2c0,5.4,2.3,8.2,5,11.5
			c1.3,1.6,2.7,3.3,3.9,5.4c0.5,0.8,1.1,1.7,1.6,2.6c3.9,5.9,8.8,13.2-2.7,27.1c-4.1,4.9-7.2,8.5-9.1,10.5
			C11.1,81.9,10.5,82.4,10,82.4z"/>
	</g>
	<g clip-path="url(#SVGID_3_)">
		<path fill="#7F7D8A" d="M7.8,82.4c-0.1,0-0.2,0-0.3-0.1c-0.1-0.1-0.5-0.4-0.2-1l1,0.5c0-0.1,0-0.2-0.2-0.3
			c-0.2-0.1-0.4-0.1-0.4-0.1c0.3-0.1,1.9-1.4,10.9-12.2c11-13.2,6.5-19.9,2.6-25.7c-0.6-0.9-1.2-1.8-1.7-2.6c-1.2-2-2.5-3.7-3.8-5.3
			c-2.7-3.3-5.3-6.5-5.3-12.2c0-8.3,17.9-22.5,18.7-23.1L29.8,1c-0.2,0.1-18.3,14.4-18.3,22.2c0,5.4,2.3,8.2,5,11.5
			c1.3,1.6,2.7,3.3,3.9,5.4c0.5,0.8,1.1,1.7,1.6,2.6c3.9,5.9,8.8,13.2-2.7,27.1c-4.1,4.9-7.2,8.5-9.1,10.5
			C8.8,81.9,8.2,82.4,7.8,82.4z"/>
	</g>
	<g clip-path="url(#SVGID_3_)">
		<path fill="#7F7D8A" d="M5.3,82.4c-0.1,0-0.2,0-0.3-0.1c-0.1-0.1-0.5-0.4-0.2-1l1,0.5c0-0.1,0-0.2-0.2-0.3
			c-0.2-0.1-0.4-0.1-0.4-0.1c0.3-0.1,1.9-1.4,10.9-12.2c11-13.2,6.5-19.9,2.6-25.7c-0.6-0.9-1.2-1.8-1.7-2.6c-1.2-2-2.5-3.7-3.8-5.3
			C10.5,32.1,8,29,8,23.2C8,14.9,25.9,0.7,26.6,0.2L27.3,1C27.1,1.2,9.1,15.4,9.1,23.2c0,5.4,2.3,8.2,5,11.5
			c1.3,1.6,2.7,3.3,3.9,5.4c0.5,0.8,1.1,1.7,1.6,2.6c3.9,5.9,8.8,13.2-2.7,27.1c-4.1,4.9-7.2,8.5-9.1,10.5
			C6.4,81.9,5.7,82.4,5.3,82.4z"/>
	</g>
	<g clip-path="url(#SVGID_3_)">
		<path fill="#7F7D8A" d="M3,82.4c-0.1,0-0.2,0-0.3-0.1c-0.1-0.1-0.5-0.4-0.2-1l1,0.5c0-0.1,0-0.2-0.2-0.3c-0.2-0.1-0.4-0.1-0.4-0.1
			c0.3-0.1,1.9-1.4,10.9-12.2c11-13.2,6.5-19.9,2.6-25.7c-0.6-0.9-1.2-1.8-1.7-2.6c-1.2-2-2.5-3.7-3.8-5.3C8.2,32.1,5.6,29,5.6,23.2
			c0-8.3,17.9-22.5,18.7-23.1L25,1C24.8,1.2,6.7,15.4,6.7,23.2c0,5.4,2.3,8.2,5,11.5c1.3,1.6,2.7,3.3,3.9,5.4
			c0.5,0.8,1.1,1.7,1.6,2.6c3.9,5.9,8.8,13.2-2.7,27.1c-4.1,4.9-7.2,8.5-9.1,10.5C4,81.9,3.4,82.4,3,82.4z"/>
	</g>
	<g clip-path="url(#SVGID_3_)">
		<path fill="#7F7D8A" d="M0.6,82.4c-0.1,0-0.2,0-0.3-0.1c-0.1-0.1-0.5-0.4-0.2-1l1,0.5c0-0.1,0-0.2-0.2-0.3
			c-0.2-0.1-0.4-0.1-0.4-0.1c0.3-0.1,1.9-1.4,10.9-12.2c11-13.2,6.5-19.9,2.6-25.7c-0.6-0.9-1.2-1.8-1.7-2.6c-1.2-2-2.5-3.7-3.8-5.3
			C5.8,32.1,3.3,29,3.3,23.2c0-8.3,17.9-22.5,18.7-23.1L22.6,1C22.4,1.2,4.4,15.4,4.4,23.2c0,5.4,2.3,8.2,5,11.5
			c1.3,1.6,2.7,3.3,3.9,5.4c0.5,0.8,1.1,1.7,1.6,2.6c3.9,5.9,8.8,13.2-2.7,27.1c-4.1,4.9-7.2,8.5-9.1,10.5C1.7,81.9,1,82.4,0.6,82.4
			z"/>
	</g>
	<g clip-path="url(#SVGID_3_)">
		<path fill="#B7B6C1" d="M35.7,81.8l-0.5-0.6c0.1-0.1,6.2-5.8,12.2-14.1c5.6-7.6,12.2-18.9,12.2-29.6c0-4.3-1.2-8.8-3.6-13.5
			c-1.9-3.8-4.6-7.6-8-11.5C42.2,6,36.4,1.6,36.3,1.6L36.8,1c0.1,0,6,4.4,11.8,11.1c3.4,3.9,6.2,7.8,8.1,11.6
			c2.5,4.8,3.7,9.5,3.7,13.8c0,4.8-1.3,10.2-3.9,15.9c-2,4.5-4.9,9.3-8.5,14.2C42,75.9,35.8,81.7,35.7,81.8z"/>
	</g>
	<g clip-path="url(#SVGID_3_)">
		<path fill="#B7B6C1" d="M37.9,81.8l-0.5-0.6c0.1-0.1,6.2-5.8,12.2-14.1c5.6-7.6,12.2-18.9,12.2-29.6c0-4.3-1.2-8.8-3.6-13.5
			c-1.9-3.8-4.6-7.6-8-11.5C44.3,6,38.5,1.6,38.4,1.6L38.9,1c0.1,0,6,4.4,11.8,11.1c3.4,3.9,6.2,7.8,8.1,11.6
			c2.5,4.8,3.7,9.5,3.7,13.8c0,4.8-1.3,10.2-3.9,15.9c-2,4.5-4.9,9.3-8.5,14.2C44.1,75.9,37.9,81.7,37.9,81.8z"/>
	</g>
	<g clip-path="url(#SVGID_3_)">
		<path fill="#B7B6C1" d="M40.3,81.8l-0.5-0.6c0.1-0.1,6.2-5.8,12.2-14.1c5.6-7.6,12.2-18.9,12.2-29.6c0-4.3-1.2-8.8-3.6-13.5
			c-1.9-3.8-4.6-7.6-8-11.5C46.7,6,40.9,1.6,40.8,1.6L41.3,1c0.1,0,6,4.4,11.8,11.1c3.4,3.9,6.2,7.8,8.1,11.6
			c2.5,4.8,3.7,9.5,3.7,13.8c0,4.8-1.3,10.2-3.9,15.9c-2,4.5-4.9,9.3-8.5,14.2C46.5,75.9,40.3,81.7,40.3,81.8z"/>
	</g>
	<g clip-path="url(#SVGID_3_)">
		<path fill="#B7B6C1" d="M42.4,81.8l-0.5-0.6c0.1-0.1,6.2-5.8,12.2-14.1c5.6-7.6,12.2-18.9,12.2-29.6c0-4.3-1.2-8.8-3.6-13.5
			c-1.9-3.8-4.6-7.6-8-11.5C48.9,6,43,1.6,43,1.6L43.5,1c0.1,0,6,4.4,11.8,11.1c3.4,3.9,6.2,7.8,8.1,11.6c2.5,4.8,3.7,9.5,3.7,13.8
			c0,4.8-1.3,10.2-3.9,15.9c-2,4.5-4.9,9.3-8.5,14.2C48.7,75.9,42.5,81.7,42.4,81.8z"/>
	</g>
	<g clip-path="url(#SVGID_3_)">
		<path fill="#B7B6C1" d="M44.7,81.8l-0.5-0.6c0.1-0.1,6.2-5.8,12.2-14.1c5.6-7.6,12.2-18.9,12.2-29.6c0-4.3-1.2-8.8-3.6-13.5
			c-1.9-3.8-4.6-7.6-8-11.5C51.1,6,45.3,1.6,45.2,1.6L45.7,1c0.1,0,6,4.4,11.8,11.1c3.4,3.9,6.2,7.8,8.1,11.6
			c2.5,4.8,3.7,9.5,3.7,13.8c0,4.8-1.3,10.2-3.9,15.9c-2,4.5-4.9,9.3-8.5,14.2C50.9,75.9,44.7,81.7,44.7,81.8z"/>
	</g>
	<g clip-path="url(#SVGID_3_)">
		<path fill="#B7B6C1" d="M47,81.8l-0.5-0.6c0.1-0.1,6.2-5.8,12.2-14.1c5.6-7.6,12.2-18.9,12.2-29.6c0-4.3-1.2-8.8-3.6-13.5
			c-1.9-3.8-4.6-7.6-8-11.5C53.5,6,47.6,1.6,47.6,1.6L48.1,1c0.1,0,6,4.4,11.8,11.1c3.4,3.9,6.2,7.8,8.1,11.6
			c2.5,4.8,3.7,9.5,3.7,13.8c0,4.8-1.3,10.2-3.9,15.9c-2,4.5-4.9,9.3-8.5,14.2C53.3,75.9,47.1,81.7,47,81.8z"/>
	</g>
	<g clip-path="url(#SVGID_3_)">
		<path fill="#B7B6C1" d="M49.2,81.8l-0.5-0.6c0.1-0.1,6.2-5.8,12.2-14.1c5.6-7.6,12.2-18.9,12.2-29.6c0-4.3-1.2-8.8-3.6-13.5
			c-1.9-3.8-4.6-7.6-8-11.5C55.7,6,49.8,1.6,49.8,1.6L50.2,1c0.1,0,6,4.4,11.8,11.1c3.4,3.9,6.2,7.8,8.1,11.6
			c2.5,4.8,3.7,9.5,3.7,13.8c0,4.8-1.3,10.2-3.9,15.9c-2,4.5-4.9,9.3-8.5,14.2C55.4,75.9,49.3,81.7,49.2,81.8z"/>
	</g>
	<g clip-path="url(#SVGID_3_)">
		<path fill="#B7B6C1" d="M51.5,81.8l-0.5-0.6c0.1-0.1,6.2-5.8,12.2-14.1c5.6-7.6,12.2-18.9,12.2-29.6c0-4.3-1.2-8.8-3.6-13.5
			c-1.9-3.8-4.6-7.6-8-11.5C57.9,6,52.1,1.6,52,1.6L52.5,1c0.1,0,6,4.4,11.8,11.1c3.4,3.9,6.2,7.8,8.1,11.6
			c2.5,4.8,3.7,9.5,3.7,13.8c0,4.8-1.3,10.2-3.9,15.9c-2,4.5-4.9,9.3-8.5,14.2C57.7,75.9,51.5,81.7,51.5,81.8z"/>
	</g>
	<g clip-path="url(#SVGID_3_)">
		<path fill="#B7B6C1" d="M53.8,81.8l-0.5-0.6c0.1-0.1,6.2-5.8,12.2-14.1c5.6-7.6,12.2-18.9,12.2-29.6c0-4.3-1.2-8.8-3.6-13.5
			c-1.9-3.8-4.6-7.6-8-11.5C60.2,6,54.4,1.6,54.3,1.6L54.8,1c0.1,0,6,4.4,11.8,11.1c3.4,3.9,6.2,7.8,8.1,11.6
			c2.5,4.8,3.7,9.5,3.7,13.8c0,4.8-1.3,10.2-3.9,15.9c-2,4.5-4.9,9.3-8.5,14.2C60,75.9,53.8,81.7,53.8,81.8z"/>
	</g>
	<g clip-path="url(#SVGID_3_)">
		<path fill="#B7B6C1" d="M55.9,81.8l-0.5-0.6c0.1-0.1,6.2-5.8,12.2-14.1c5.6-7.6,12.2-18.9,12.2-29.6c0-4.3-1.2-8.8-3.6-13.5
			c-1.9-3.8-4.6-7.6-8-11.5C62.4,6,56.5,1.6,56.5,1.6L56.9,1c0.1,0,6,4.4,11.8,11.1c3.4,3.9,6.2,7.8,8.1,11.6
			c2.5,4.8,3.7,9.5,3.7,13.8c0,4.8-1.3,10.2-3.9,15.9c-2,4.5-4.9,9.3-8.5,14.2C62.2,75.9,56,81.7,55.9,81.8z"/>
	</g>
	<g clip-path="url(#SVGID_3_)">
		<path fill="#B7B6C1" d="M58.1,81.8l-0.5-0.6c0.1-0.1,6.2-5.8,12.2-14.1c5.6-7.6,12.2-18.9,12.2-29.6c0-4.3-1.2-8.8-3.6-13.5
			c-1.9-3.8-4.6-7.6-8-11.5C64.5,6,58.7,1.6,58.6,1.6L59.1,1c0.1,0,6,4.4,11.8,11.1c3.4,3.9,6.2,7.8,8.1,11.6
			c2.5,4.8,3.7,9.5,3.7,13.8c0,4.8-1.3,10.2-3.9,15.9c-2,4.5-4.9,9.3-8.5,14.2C64.3,75.9,58.1,81.7,58.1,81.8z"/>
	</g>
	<g clip-path="url(#SVGID_3_)">
		<path fill="#B7B6C1" d="M60.5,81.8l-0.5-0.6c0.1-0.1,6.2-5.8,12.2-14.1c5.6-7.6,12.2-18.9,12.2-29.6c0-4.3-1.2-8.8-3.6-13.5
			c-1.9-3.8-4.6-7.6-8-11.5C66.9,6,61.1,1.6,61,1.6L61.5,1c0.1,0,6,4.4,11.8,11.1c3.4,3.9,6.2,7.8,8.1,11.6
			c2.5,4.8,3.7,9.5,3.7,13.8c0,4.8-1.3,10.2-3.9,15.9c-2,4.5-4.9,9.3-8.5,14.2C66.7,75.9,60.5,81.7,60.5,81.8z"/>
	</g>
	<g clip-path="url(#SVGID_3_)">
		<path fill="#B7B6C1" d="M62.8,81.8l-0.5-0.6c0.1-0.1,6.2-5.8,12.2-14.1c5.6-7.6,12.2-18.9,12.2-29.6c0-4.3-1.2-8.8-3.6-13.5
			c-1.9-3.8-4.6-7.6-8-11.5C69.2,6,63.4,1.6,63.3,1.6L63.8,1c0.1,0,6,4.4,11.8,11.1c3.4,3.9,6.2,7.8,8.1,11.6
			c2.5,4.8,3.7,9.5,3.7,13.8c0,4.8-1.3,10.2-3.9,15.9c-2,4.5-4.9,9.3-8.5,14.2C69,75.9,62.8,81.7,62.8,81.8z"/>
	</g>
	<g clip-path="url(#SVGID_3_)">
		<path fill="#B7B6C1" d="M65,81.8l-0.5-0.6c0.1-0.1,6.2-5.8,12.2-14.1c5.6-7.6,12.2-18.9,12.2-29.6c0-4.3-1.2-8.8-3.6-13.5
			c-1.9-3.8-4.6-7.6-8-11.5C71.4,6,65.6,1.6,65.5,1.6L66,1c0.1,0,6,4.4,11.8,11.1c3.4,3.9,6.2,7.8,8.1,11.6
			c2.5,4.8,3.7,9.5,3.7,13.8c0,4.8-1.3,10.2-3.9,15.9c-2,4.5-4.9,9.3-8.5,14.2C71.2,75.9,65,81.7,65,81.8z"/>
	</g>
	<g clip-path="url(#SVGID_3_)">
		<path fill="#B7B6C1" d="M67.5,81.8l-0.5-0.6c0.1-0.1,6.2-5.8,12.2-14.1c5.6-7.6,12.2-18.9,12.2-29.6c0-4.3-1.2-8.8-3.6-13.5
			c-1.9-3.8-4.6-7.6-8-11.5C73.9,6,68.1,1.6,68,1.6L68.5,1c0.1,0,6,4.4,11.8,11.1c3.4,3.9,6.2,7.8,8.1,11.6
			c2.5,4.8,3.7,9.5,3.7,13.8c0,4.8-1.3,10.2-3.9,15.9c-2,4.5-4.9,9.3-8.5,14.2C73.7,75.9,67.5,81.7,67.5,81.8z"/>
	</g>
	<g clip-path="url(#SVGID_3_)">
		<path fill="#B7B6C1" d="M69.6,81.8l-0.5-0.6c0.1-0.1,6.2-5.8,12.2-14.1c5.6-7.6,12.2-18.9,12.2-29.6c0-4.3-1.2-8.8-3.6-13.5
			c-1.9-3.8-4.6-7.6-8-11.5C76.1,6,70.2,1.6,70.2,1.6L70.6,1c0.1,0,6,4.4,11.8,11.1c3.4,3.9,6.2,7.8,8.1,11.6
			c2.5,4.8,3.7,9.5,3.7,13.8c0,4.8-1.3,10.2-3.9,15.9c-2,4.5-4.9,9.3-8.5,14.2C75.8,75.9,69.7,81.7,69.6,81.8z"/>
	</g>
	<g clip-path="url(#SVGID_3_)">
		<path fill="#B7B6C1" d="M70.9,80.8l-0.5-0.6c0.1-0.1,6.2-5.8,12.2-14.1c5.6-7.6,12.2-18.9,12.2-29.6c0-4.3-1.2-8.8-3.6-13.5
			c-1.9-3.8-4.6-7.6-8-11.5C77.3,5,71.5,0.7,71.4,0.6L71.9,0c0.1,0,6,4.4,11.8,11.1c3.4,3.9,6.2,7.8,8.1,11.6
			c2.5,4.8,3.7,9.5,3.7,13.8c0,4.8-1.3,10.2-3.9,15.9c-2,4.5-4.9,9.3-8.5,14.2C77.1,75,70.9,80.8,70.9,80.8z"/>
	</g>
	<g clip-path="url(#SVGID_3_)">
		
			<rect x="34.6" y="39.3" transform="matrix(0.4594 -0.8883 0.8883 0.4594 7.2508 91.3842)" fill="#82808E" width="88.1" height="0.8"/>
	</g>
	<g clip-path="url(#SVGID_3_)">
		
			<rect x="37.2" y="42.3" transform="matrix(0.4597 -0.888 0.888 0.4597 5.0263 93.6298)" fill="#82808E" width="84.6" height="0.8"/>
	</g>
	<g clip-path="url(#SVGID_3_)">
		
			<rect x="38.8" y="43.6" transform="matrix(0.4597 -0.888 0.888 0.4597 4.7845 95.7749)" fill="#82808E" width="84.6" height="0.8"/>
	</g>
	<g clip-path="url(#SVGID_3_)">
		
			<rect x="38.8" y="47.9" transform="matrix(0.4597 -0.888 0.888 0.4597 0.9635 98.0994)" fill="#82808E" width="84.6" height="0.8"/>
	</g>
	<g clip-path="url(#SVGID_3_)">
		
			<rect x="39.3" y="51.2" transform="matrix(0.4597 -0.888 0.888 0.4597 -1.7667 100.3689)" fill="#82808E" width="84.6" height="0.8"/>
	</g>
	<g clip-path="url(#SVGID_3_)">
		
			<rect x="40" y="54.3" transform="matrix(0.4597 -0.888 0.888 0.4597 -4.1262 102.6423)" fill="#82808E" width="84.6" height="0.8"/>
	</g>
	<g clip-path="url(#SVGID_3_)">
		
			<rect x="40" y="58.7" transform="matrix(0.4597 -0.888 0.888 0.4597 -7.9961 104.9966)" fill="#82808E" width="84.6" height="0.8"/>
	</g>
	<g clip-path="url(#SVGID_3_)">
		
			<rect x="44.1" y="55" transform="matrix(0.4597 -0.888 0.888 0.4597 -2.4914 106.681)" fill="#82808E" width="84.6" height="0.8"/>
	</g>
	<g clip-path="url(#SVGID_3_)">
		
			<rect x="45.1" y="57.5" transform="matrix(0.4597 -0.888 0.888 0.4597 -4.1841 108.8414)" fill="#82808E" width="84.6" height="0.8"/>
	</g>
	<g clip-path="url(#SVGID_3_)">
		
			<rect x="46.7" y="58.7" transform="matrix(0.4597 -0.888 0.888 0.4597 -4.426 110.9865)" fill="#82808E" width="84.6" height="0.8"/>
	</g>
	<g clip-path="url(#SVGID_3_)">
		
			<rect x="46.7" y="63" transform="matrix(0.4597 -0.888 0.888 0.4597 -8.2469 113.311)" fill="#82808E" width="84.6" height="0.8"/>
	</g>
	<g clip-path="url(#SVGID_3_)">
		
			<rect x="47.2" y="66.4" transform="matrix(0.4597 -0.888 0.888 0.4597 -10.9771 115.5805)" fill="#82808E" width="84.6" height="0.8"/>
	</g>
	<g clip-path="url(#SVGID_3_)">
		
			<rect x="47.9" y="69.5" transform="matrix(0.4597 -0.888 0.888 0.4597 -13.3366 117.8538)" fill="#82808E" width="84.6" height="0.8"/>
	</g>
	<g clip-path="url(#SVGID_3_)">
		
			<rect x="47.9" y="73.8" transform="matrix(0.4597 -0.888 0.888 0.4597 -17.2066 120.2082)" fill="#82808E" width="84.6" height="0.8"/>
	</g>
</g>
<g>
	<g>
		<path fill="#7F7D8A" d="M108.5,50.1c1.1,1.2,2.7,2,4.3,2c2.1,0,3.3-1,3.3-2.6c0-1.6-1.2-2.1-2.6-2.8l-2.3-1
			c-1.5-0.6-3.2-1.8-3.2-4.1c0-2.4,2.1-4.2,5-4.2c1.9,0,3.5,0.8,4.6,1.9l-1.1,1.3c-1-0.9-2.1-1.5-3.6-1.5c-1.8,0-3,0.9-3,2.3
			c0,1.5,1.4,2.1,2.6,2.6l2.3,1c1.8,0.8,3.2,1.9,3.2,4.2c0,2.5-2.1,4.5-5.4,4.5c-2.2,0-4.1-0.9-5.5-2.3L108.5,50.1z"/>
		<path fill="#7F7D8A" d="M120.8,41.9h2V49c0,2.2,0.6,3.1,2.2,3.1c1.2,0,2-0.6,3.1-2v-8.3h2v11.7h-1.6l-0.2-1.8h-0.1
			c-1.1,1.3-2.2,2.1-3.8,2.1c-2.5,0-3.6-1.6-3.6-4.6V41.9z"/>
		<path fill="#7F7D8A" d="M134,41.9h1.6l0.2,2.1h0.1c0.8-1.5,2-2.4,3.3-2.4c0.5,0,0.9,0.1,1.2,0.2l-0.4,1.7
			c-0.4-0.1-0.6-0.2-1.1-0.2c-1,0-2.2,0.7-3,2.7v7.5h-2V41.9z"/>
		<path fill="#7F7D8A" d="M147.6,38.1c-0.4-0.2-0.9-0.3-1.3-0.3c-1.1,0-1.6,0.8-1.6,2.3v1.8h2.5v1.6h-2.5v10.1h-2V43.5h-1.6V42
			l1.6-0.1V40c0-2.4,1.1-3.9,3.4-3.9c0.7,0,1.4,0.2,1.9,0.4L147.6,38.1z"/>
		<path fill="#7F7D8A" d="M155.5,46.2c0-1.5-0.5-2.9-2.4-2.9c-1.4,0-2.6,0.6-3.5,1.2l-0.8-1.4c1.1-0.7,2.7-1.5,4.6-1.5
			c2.9,0,4.1,1.9,4.1,4.8v7.2h-1.6l-0.2-1.4h0c-1.1,0.9-2.4,1.7-3.9,1.7c-2,0-3.4-1.2-3.4-3.3C148.3,48,150.5,46.7,155.5,46.2z
			 M152.3,52.3c1.1,0,2.1-0.6,3.2-1.6v-3.2c-3.9,0.5-5.2,1.4-5.2,2.9C150.3,51.7,151.1,52.3,152.3,52.3z"/>
		<path fill="#7F7D8A" d="M165.9,41.6c1.5,0,2.6,0.6,3.4,1.4l-1,1.3c-0.7-0.6-1.4-1-2.4-1c-2.1,0-3.6,1.8-3.6,4.5
			c0,2.7,1.5,4.5,3.6,4.5c1.1,0,2-0.6,2.7-1.2l0.9,1.3c-1.1,0.9-2.4,1.5-3.8,1.5c-3.1,0-5.5-2.2-5.5-6.1
			C160.3,43.8,162.9,41.6,165.9,41.6z"/>
		<path fill="#7F7D8A" d="M176,41.6c3,0,4.7,2.1,4.7,5.5c0,0.4,0,0.8-0.1,1.1h-7.9c0.1,2.5,1.7,4.1,3.9,4.1c1.1,0,2-0.4,2.9-0.9
			l0.7,1.3c-1,0.6-2.3,1.2-3.8,1.2c-3.1,0-5.6-2.3-5.6-6.1S173.3,41.6,176,41.6z M178.9,46.9c0-2.4-1.1-3.7-2.9-3.7
			c-1.6,0-3.1,1.3-3.4,3.7H178.9z"/>
		<path fill="#7F7D8A" d="M188.5,37.8h3.9c4.8,0,7.4,2.8,7.4,7.8c0,5-2.6,7.9-7.3,7.9h-4V37.8z M192.3,51.9c3.7,0,5.5-2.3,5.5-6.3
			c0-4-1.8-6.2-5.5-6.2h-1.8v12.5H192.3z"/>
		<path fill="#7F7D8A" d="M207.4,41.6c3,0,4.7,2.1,4.7,5.5c0,0.4,0,0.8-0.1,1.1h-7.9c0.1,2.5,1.7,4.1,3.9,4.1c1.1,0,2-0.4,2.9-0.9
			l0.7,1.3c-1,0.6-2.3,1.2-3.8,1.2c-3.1,0-5.6-2.3-5.6-6.1S204.8,41.6,207.4,41.6z M210.4,46.9c0-2.4-1.1-3.7-2.9-3.7
			c-1.6,0-3.1,1.3-3.4,3.7H210.4z"/>
		<path fill="#7F7D8A" d="M214.6,50.9c1,0.8,2,1.4,3.4,1.4c1.5,0,2.3-0.8,2.3-1.8c0-1.2-1.4-1.7-2.7-2.2c-1.7-0.6-3.5-1.4-3.5-3.4
			c0-1.9,1.5-3.3,4-3.3c1.5,0,2.7,0.6,3.6,1.3l-0.9,1.2c-0.8-0.6-1.6-1-2.7-1c-1.5,0-2.1,0.8-2.1,1.7c0,1.1,1.3,1.5,2.6,2
			c1.7,0.6,3.6,1.3,3.6,3.5c0,1.9-1.5,3.5-4.3,3.5c-1.7,0-3.2-0.7-4.3-1.6L214.6,50.9z"/>
		<path fill="#7F7D8A" d="M224.7,38.2c0-0.8,0.6-1.3,1.4-1.3c0.8,0,1.4,0.5,1.4,1.3c0,0.7-0.6,1.3-1.4,1.3
			C225.3,39.5,224.7,39,224.7,38.2z M225,41.9h2v11.7h-2V41.9z"/>
		<path fill="#7F7D8A" d="M231.7,53.2L231.7,53.2c-0.6-0.5-1-1.1-1-2c0-1,0.7-1.8,1.3-2.2v-0.1c-0.8-0.6-1.5-1.8-1.5-3.1
			c0-2.5,2-4.2,4.4-4.2c0.6,0,1.2,0.1,1.7,0.3h4.1v1.5h-2.4c0.6,0.5,1,1.4,1,2.4c0,2.5-1.9,4.1-4.3,4.1c-0.6,0-1.2-0.1-1.8-0.4
			c-0.4,0.4-0.7,0.7-0.7,1.4c0,0.7,0.5,1.3,2.1,1.3h2.3c2.7,0,4.1,0.8,4.1,2.8c0,2.2-2.3,4-5.9,4c-2.9,0-4.8-1.1-4.8-3.1
			C230,54.8,230.7,53.9,231.7,53.2z M235.1,57.6c2.2,0,3.7-1.2,3.7-2.4c0-1.1-0.8-1.4-2.4-1.4h-2c-0.5,0-1,0-1.5-0.2
			c-0.8,0.6-1.2,1.3-1.2,2C231.8,56.8,233,57.6,235.1,57.6z M237.3,45.8c0-1.7-1.1-2.7-2.5-2.7s-2.5,1-2.5,2.7s1.1,2.8,2.5,2.8
			C236.2,48.5,237.3,47.5,237.3,45.8z"/>
		<path fill="#7F7D8A" d="M243,41.9h1.6l0.2,1.7h0.1c1.1-1.1,2.3-2,3.9-2c2.4,0,3.6,1.6,3.6,4.6v7.4h-2v-7.1c0-2.2-0.7-3.1-2.2-3.1
			c-1.2,0-2,0.6-3.2,1.8v8.4h-2V41.9z"/>
		<path fill="#7F7D8A" d="M115.5,73.8h-4.8l-1,3.7h-3.6l4.9-15.6h4.2l4.9,15.6h-3.7L115.5,73.8z M114.8,71.1l-0.4-1.4
			c-0.4-1.6-0.8-3.4-1.3-5H113c-0.4,1.7-0.8,3.5-1.2,5l-0.4,1.4H114.8z"/>
		<path fill="#7F7D8A" d="M122.1,74c1.1,0.8,2.1,1.2,3.1,1.2c1.1,0,1.5-0.4,1.5-1c0-0.8-1.2-1.2-2.4-1.6c-1.4-0.6-3.1-1.5-3.1-3.5
			c0-2.2,1.8-3.7,4.6-3.7c1.8,0,3.2,0.7,4.2,1.5l-1.6,2.1c-0.9-0.6-1.7-1-2.5-1c-0.9,0-1.3,0.3-1.3,0.9c0,0.8,1.1,1.1,2.3,1.5
			c1.5,0.6,3.2,1.4,3.2,3.6c0,2.2-1.7,3.8-4.9,3.8c-1.6,0-3.4-0.7-4.6-1.7L122.1,74z"/>
		<path fill="#7F7D8A" d="M132.7,74c1.1,0.8,2.1,1.2,3.1,1.2c1.1,0,1.5-0.4,1.5-1c0-0.8-1.2-1.2-2.4-1.6c-1.4-0.6-3.1-1.5-3.1-3.5
			c0-2.2,1.8-3.7,4.6-3.7c1.8,0,3.2,0.7,4.2,1.5l-1.6,2.1c-0.9-0.6-1.7-1-2.5-1c-0.9,0-1.3,0.3-1.3,0.9c0,0.8,1.1,1.1,2.3,1.5
			c1.5,0.6,3.2,1.4,3.2,3.6c0,2.2-1.7,3.8-4.9,3.8c-1.6,0-3.4-0.7-4.6-1.7L132.7,74z"/>
		<path fill="#7F7D8A" d="M148,65.4c3,0,5.8,2.3,5.8,6.2c0,4-2.8,6.2-5.8,6.2c-3,0-5.8-2.3-5.8-6.2C142.1,67.6,144.9,65.4,148,65.4z
			 M148,75c1.4,0,2.2-1.3,2.2-3.4c0-2.1-0.7-3.4-2.2-3.4c-1.5,0-2.2,1.3-2.2,3.4C145.8,73.7,146.5,75,148,75z"/>
		<path fill="#7F7D8A" d="M161.7,65.4c1.5,0,2.7,0.6,3.5,1.4l-1.6,2.2c-0.6-0.5-1.1-0.7-1.7-0.7c-1.7,0-2.8,1.3-2.8,3.4
			c0,2.1,1.1,3.4,2.7,3.4c0.9,0,1.6-0.4,2.1-0.9l1.4,2.2c-1.2,1-2.7,1.5-4,1.5c-3.3,0-5.9-2.3-5.9-6.2
			C155.5,67.6,158.4,65.4,161.7,65.4z"/>
		<path fill="#7F7D8A" d="M167.1,62.1c0-1.1,0.9-1.8,2-1.8c1.2,0,2,0.7,2,1.8s-0.8,1.8-2,1.8C167.9,63.9,167.1,63.1,167.1,62.1z
			 M167.4,65.7h3.5v11.9h-3.5V65.7z"/>
		<path fill="#7F7D8A" d="M180.3,69.9c-0.1-1.1-0.6-1.7-1.9-1.7c-1,0-2,0.4-3.2,1.1l-1.2-2.3c1.5-0.9,3.2-1.6,5.1-1.6
			c3,0,4.7,1.7,4.7,5.4v6.8h-2.9l-0.3-1.2h-0.1c-1,0.9-2.1,1.5-3.5,1.5c-2.2,0-3.5-1.6-3.5-3.6C173.6,71.8,175.6,70.4,180.3,69.9z
			 M178.3,75.1c0.8,0,1.3-0.4,2-1V72c-2.5,0.3-3.3,1.1-3.3,2C176.9,74.8,177.4,75.1,178.3,75.1z"/>
		<path fill="#7F7D8A" d="M187.3,68.4h-1.6v-2.6l1.8-0.1l0.4-3.2h2.9v3.2h2.9v2.8h-2.9v4.8c0,1.3,0.6,1.9,1.5,1.9
			c0.4,0,0.8-0.1,1.1-0.2l0.6,2.6c-0.6,0.2-1.5,0.4-2.6,0.4c-3,0-4.1-1.8-4.1-4.6V68.4z"/>
		<path fill="#7F7D8A" d="M195.7,62.1c0-1.1,0.9-1.8,2-1.8c1.2,0,2,0.7,2,1.8s-0.8,1.8-2,1.8C196.6,63.9,195.7,63.1,195.7,62.1z
			 M196,65.7h3.5v11.9H196V65.7z"/>
		<path fill="#7F7D8A" d="M207.7,65.4c3,0,5.8,2.3,5.8,6.2c0,4-2.8,6.2-5.8,6.2c-3,0-5.8-2.3-5.8-6.2
			C201.9,67.6,204.7,65.4,207.7,65.4z M207.7,75c1.4,0,2.2-1.3,2.2-3.4c0-2.1-0.7-3.4-2.2-3.4c-1.5,0-2.2,1.3-2.2,3.4
			C205.5,73.7,206.3,75,207.7,75z"/>
		<path fill="#7F7D8A" d="M215.9,65.7h2.9l0.2,1.5h0.1c1-1,2.2-1.8,3.8-1.8c2.6,0,3.7,1.8,3.7,4.8v7.4h-3.5v-6.9
			c0-1.7-0.5-2.3-1.5-2.3c-0.9,0-1.4,0.4-2.2,1.2v8h-3.5V65.7z"/>
	</g>
</g>
</svg>
