<!-- Generator: Adobe Illustrator 19.2.1, SVG Export Plug-In  -->
<svg version="1.1"
	 xmlns="http://www.w3.org/2000/svg" xmlns:xlink="http://www.w3.org/1999/xlink" xmlns:a="http://ns.adobe.com/AdobeSVGViewerExtensions/3.0/"
	 x="0px" y="0px" width="123.6px" height="25px" viewBox="0 0 123.6 25" enable-background="new 0 0 123.6 25" xml:space="preserve"
	>
<defs>
</defs>
<g>
	<path fill="#144983" d="M32.4,5.7c0.5,0.2,0.8,0.2,1.5,0.2c1.7,0,2.8-0.9,2.8-2.5c0-1.3-0.7-2.9-2.8-2.9h-1.5V5.7z M32.4,9.6
		c0,1.5,0.3,1.9,1.3,1.9v0.3h-4.2v-0.3c0.8,0,1.3-0.3,1.3-1.8V2.2c0-1.4-0.3-1.9-1.3-1.9V0h4.3c3.2,0,4.5,1.7,4.5,3.4
		c0,2-1.5,3-4.1,3c-0.5,0-0.9,0-1.8-0.1V9.6z"/>
	<path fill="#144983" d="M42.6,7c0.1-1.6-1-2.3-1.9-2.3c-1.2,0-1.9,0.9-2,2.3H42.6z M38.7,7.3c0,3.3,1.9,4.1,2.9,4.1
		c1,0,1.5-0.4,2.6-1.5v0.5c-0.9,1.1-1.7,1.6-3,1.6c-2.3,0-3.9-1.6-3.9-3.8c0-2.2,1.6-3.9,3.6-3.9c1.7,0,3.2,1.4,3.1,3H38.7z"/>
	<path fill="#144983" d="M51.9,10.2c0,0.9,0.2,1.2,1.2,1.2v0.3h-3.9v-0.3c1,0,1.2-0.2,1.2-0.9V6.7c0-1.2-0.8-1.7-1.6-1.7
		c-0.7,0-1.4,0.5-2.1,1.4V10c0,1.1,0.1,1.4,1.2,1.4v0.3h-3.8v-0.3c1,0,1.2-0.1,1.2-1.4V5.9c0-0.9-0.2-1.1-1.2-1.1V4.5l2.3-0.2h0.3
		v1.5c0.9-1,1.7-1.5,2.6-1.5c1.2,0,2.5,0.9,2.5,2.6V10.2z"/>
	<path fill="#144983" d="M60.4,10.2c0,0.9,0.2,1.2,1.2,1.2v0.3h-3.9v-0.3c1,0,1.2-0.2,1.2-0.9V6.7c0-1.2-0.8-1.7-1.6-1.7
		c-0.7,0-1.3,0.5-2.1,1.4V10c0,1.1,0.1,1.4,1.2,1.4v0.3h-3.8v-0.3c1,0,1.2-0.1,1.2-1.4V5.9c0-0.9-0.2-1.1-1.2-1.1V4.5L55,4.3h0.3
		v1.5c0.9-1,1.7-1.5,2.6-1.5c1.2,0,2.5,0.9,2.5,2.6V10.2z"/>
	<path fill="#144983" d="M79.4,0.3c-1,0-1.4,0.7-1.3,1.8l0.6,7.3c0.1,1.4,0.4,1.9,1.5,2v0.3h-4.2v-0.3c1-0.2,1.3-0.6,1.2-1.8
		l-0.6-7.6h0l-4,9.7h-0.3l-3.9-9.7h0l-0.7,7.3c-0.1,1.2,0.3,1.9,1.5,2.1v0.3h-3.6v-0.3c1.2-0.2,1.4-0.9,1.5-2.2l0.7-8.1
		c-0.5-0.5-0.9-0.7-1.5-0.8V0h3l3.7,9.3L76.6,0h2.8V0.3z"/>
	<path fill="#144983" d="M86.8,10.4c0,0.8,0.3,1,1.2,1v0.3l-2.6,0.1v-1.3h0c-0.7,0.9-1.6,1.4-2.5,1.4c-1.4,0-2.4-1.1-2.4-2.4V5.8
		c0-0.7-0.2-1-1.3-1V4.5l2.3-0.2h0.3v5.2c0,1,0.7,1.6,1.6,1.6c0.7,0,1.3-0.4,1.9-1.2V6c0-1-0.2-1.1-1.4-1.2V4.5l2.5-0.2h0.3V10.4z"
		/>
	<path fill="#144983" d="M93,6.5c-0.1-1.2-0.9-1.8-1.8-1.8c-0.7,0-1.2,0.4-1.2,1c0,1.8,3.8,1.4,3.8,4.1c0,1.2-1,2.2-2.3,2.2
		c-0.8,0-1.5-0.5-1.8-0.5c-0.3,0-0.5,0.2-0.5,0.5h-0.3V9.5h0.3c0.3,1.5,1.4,2.1,2.3,2.1c0.7,0,1.3-0.5,1.3-1.3c0-2-3.8-1.5-3.8-3.9
		c0-1.1,1-2.1,2.2-2.1c0.8,0,1,0.3,1.5,0.3c0.2,0,0.3-0.1,0.4-0.3h0.3v2.2H93z"/>
	<path fill="#144983" d="M99.7,7c0.1-1.6-1-2.3-1.9-2.3c-1.2,0-1.9,0.9-2,2.3H99.7z M95.8,7.3c0,3.3,1.9,4.1,2.9,4.1
		c1,0,1.5-0.4,2.6-1.5v0.5c-0.9,1.1-1.7,1.6-3,1.6c-2.3,0-3.9-1.6-3.9-3.8c0-2.2,1.6-3.9,3.6-3.9c1.7,0,3.2,1.4,3.1,3H95.8z"/>
	<path fill="#144983" d="M108.6,10.4c0,0.8,0.3,1,1.2,1v0.3l-2.6,0.1v-1.3h0c-0.7,0.9-1.6,1.4-2.5,1.4c-1.4,0-2.4-1.1-2.4-2.4V5.8
		c0-0.7-0.2-1-1.3-1V4.5l2.3-0.2h0.3v5.2c0,1,0.7,1.6,1.6,1.6c0.7,0,1.3-0.4,1.9-1.2V6c0-1-0.2-1.1-1.4-1.2V4.5l2.5-0.2h0.3V10.4z"
		/>
	<path fill="#144983" d="M122.4,10.4c0,0.7,0.2,1,1.2,1v0.3h-3.8v-0.3c1,0,1.2-0.2,1.2-1.4V6.6c0-0.9-0.6-1.5-1.6-1.5
		c-0.8,0-1.4,0.4-2,1.4v3.9c0,0.8,0.2,1.1,1.2,1.1v0.3h-3.8v-0.3c1,0,1.2-0.1,1.2-1.4V6.7c0-1.1-0.8-1.6-1.5-1.6
		c-0.8,0-1.6,0.6-2.1,1.4v4c0,0.7,0.3,1,1.2,1v0.3h-3.8v-0.3c0.9,0,1.2-0.1,1.2-1.2V5.9c0-0.8-0.3-1.1-1-1.1h-0.5V4.5l2.5-0.2h0.3
		v1.5h0c0.6-0.9,1.6-1.5,2.6-1.5c1,0,1.9,0.5,2.3,1.6c0.8-1.1,1.7-1.6,2.7-1.6c1,0,2.5,0.6,2.5,2.5V10.4z"/>
	<path fill="#144983" d="M61.1,16.1c0-0.5-0.3-0.5-0.4-0.5c-0.5,0-0.9,1-0.9,1.6c0,0.3,0,0.7,0.4,0.7C60.7,17.9,61.1,17,61.1,16.1
		 M59.3,17.1c0-0.7,0.6-1.6,1.4-1.6c0.7,0,0.8,0.5,0.8,0.9c0,0.6-0.4,1.7-1.4,1.7C59.5,18,59.3,17.5,59.3,17.1"/>
	<path fill="#144983" d="M63.9,15.6l-0.1,0.1h-0.7c-0.2,1.2-0.6,2.8-0.9,3.6H62l0.7-3.6h-0.5l0-0.2h0.5c0.3-1.1,1.1-1.2,1.4-1.2
		c0.1,0,0.4,0,0.4,0.1l-0.1,0.3l-0.1,0.1c-0.1-0.1-0.2-0.3-0.4-0.3c-0.3,0-0.5,0.2-0.6,0.8l-0.1,0.2h0.7L63.9,15.6z"/>
	<path fill="#144983" d="M30.5,16.5c0,0.7,0.2,1.3,0.9,1.3c0.7,0,1.1-0.5,1.1-1.3v-1.4c0-0.1,0-0.2,0-0.3c0-0.2-0.2-0.3-0.4-0.3
		v-0.1h1.2v0.1c-0.2,0-0.4,0.1-0.4,0.3c0,0.1,0,0.2,0,0.3v1.4c0,1.1-0.7,1.5-1.3,1.5c-1.1,0-1.4-0.5-1.4-1.5V15c0-0.5,0-0.4-0.4-0.5
		v-0.1h1.4v0.1c-0.5,0.1-0.4,0-0.4,0.5V16.5z"/>
	<path fill="#144983" d="M36.1,18c-0.6-0.8-1.3-1.5-1.9-2.3v1.8c0,0.1,0,0.2,0,0.2c0,0.1,0.2,0.2,0.4,0.2V18h-1v-0.1
		c0.2,0,0.3-0.1,0.3-0.2c0-0.1,0-0.1,0-0.2v-1.9c-0.1-0.1-0.2-0.3-0.5-0.3v-0.1h0.7c0.6,0.7,1.2,1.5,1.8,2.2h0v-1.6
		c0-0.1,0-0.2,0-0.2c0-0.1-0.2-0.2-0.4-0.2v-0.1h1v0.1c-0.2,0-0.3,0.1-0.3,0.2c0,0.1,0,0.1,0,0.2V18H36.1z"/>
	<path fill="#144983" d="M38,17.5c0,0.4,0,0.4,0.3,0.4V18h-1.1v-0.1c0.4,0,0.3,0,0.3-0.4v-1.8c0-0.4,0-0.4-0.3-0.4v-0.1h1.1v0.1
		c-0.4,0-0.3,0-0.3,0.4V17.5z"/>
	<path fill="#144983" d="M40.1,15.2c-0.2,0-0.4,0.1-0.2,0.5c0.2,0.5,0.4,1.2,0.6,1.8c0.3-0.6,0.5-1.2,0.7-1.8c0.1-0.3,0-0.4-0.3-0.4
		v-0.1h0.9v0.1c-0.1,0-0.2,0-0.3,0.2c-0.3,0.8-0.7,1.6-1,2.5h-0.2c-0.2-0.7-0.5-1.5-0.8-2.2c-0.1-0.4-0.3-0.6-0.5-0.6v-0.1h1.1V15.2
		z"/>
	<path fill="#144983" d="M42.4,17.8c0.4,0,0.3,0,0.3-0.4v-1.8c0-0.4,0-0.4-0.3-0.4v-0.1h1.8v0.6h-0.1c0-0.3-0.1-0.5-0.4-0.5h-0.5
		v1.1h0.3c0.3,0,0.4-0.1,0.4-0.3h0.1v0.9h-0.1c0-0.2-0.1-0.4-0.4-0.4h-0.3v0.9c0,0.3,0.2,0.4,0.5,0.4c0.6,0,0.6-0.2,0.7-0.6h0.1
		L44.3,18h-2V17.8z"/>
	<path fill="#144983" d="M45.8,16.6h0.3c0.3,0,0.5-0.3,0.5-0.7c0-0.4-0.2-0.6-0.5-0.6h-0.3V16.6z M45.1,15.1h1.2
		c0.4,0,0.8,0.2,0.8,0.7c0,0.4-0.3,0.7-0.6,0.8l0.4,0.6c0.2,0.3,0.4,0.6,0.6,0.7V18H47c-0.2,0-0.4-0.4-0.8-1.2h-0.4v0.7
		c0,0.4,0,0.4,0.3,0.4V18h-1.1v-0.1c0.4,0,0.3,0,0.3-0.4v-1.8c0-0.4,0-0.4-0.3-0.4V15.1z"/>
	<path fill="#144983" d="M49.4,15.7c0-0.3-0.2-0.5-0.5-0.5c-0.2,0-0.4,0.1-0.4,0.4c0,0.3,0.3,0.5,0.7,0.8c0.4,0.3,0.6,0.5,0.6,0.9
		c0,0.5-0.5,0.7-1,0.7c-0.3,0-0.5,0-0.7-0.1c0,0,0,0,0-0.1v-0.6h0.1c0,0.4,0.3,0.6,0.6,0.6c0.3,0,0.5-0.2,0.5-0.5
		c0-0.3-0.1-0.5-0.7-0.9c-0.2-0.1-0.5-0.3-0.5-0.7c0-0.4,0.4-0.6,0.9-0.6c0.2,0,0.4,0,0.6,0.1c0,0,0,0,0,0v0.5H49.4z"/>
	<path fill="#144983" d="M51,17.5c0,0.4,0,0.4,0.3,0.4V18h-1.1v-0.1c0.4,0,0.3,0,0.3-0.4v-1.8c0-0.4,0-0.4-0.3-0.4v-0.1h1.1v0.1
		c-0.4,0-0.3,0-0.3,0.4V17.5z"/>
	<path fill="#144983" d="M53.4,17.5c0,0.4,0,0.4,0.3,0.4V18h-1.1v-0.1c0.4,0,0.3,0,0.3-0.4v-2.2h-0.4c-0.3,0-0.4,0.2-0.6,0.5H52
		l0.1-0.6h2.2l0.1,0.6h-0.1c-0.1-0.3-0.2-0.5-0.6-0.5h-0.4V17.5z"/>
	<path fill="#144983" d="M55.6,17.8c0.4,0,0.3,0,0.3-0.4v-0.6l-0.6-1.2c-0.1-0.3-0.2-0.4-0.4-0.4v-0.1h1v0.1c-0.3,0-0.3,0.2-0.2,0.4
		l0.5,1l0.6-1c0.1-0.2,0-0.4-0.2-0.4v-0.1h0.8v0.1c-0.1,0-0.2,0.1-0.3,0.2l-0.7,1.2c0,0.1,0,0.2,0,0.3v0.5c0,0.4,0,0.4,0.3,0.4V18
		h-1.1V17.8z"/>
	<path fill="#144983" d="M32,21.8c0-0.5-0.3-0.5-0.4-0.5c-0.5,0-0.9,1-0.9,1.6c0,0.3,0,0.7,0.4,0.7C31.7,23.6,32,22.7,32,21.8
		 M30.2,22.8c0-0.7,0.6-1.6,1.4-1.6c0.7,0,0.8,0.5,0.8,0.9c0,0.6-0.4,1.7-1.4,1.7C30.4,23.8,30.2,23.3,30.2,22.8"/>
	<path fill="#144983" d="M34.8,21.3l-0.1,0.1h-0.7c-0.2,1.2-0.6,2.8-0.9,3.6h-0.2l0.7-3.6h-0.5l0-0.2h0.5c0.3-1.1,1.1-1.2,1.4-1.2
		c0.1,0,0.4,0,0.4,0.1l-0.1,0.3l-0.1,0.1c-0.1-0.1-0.2-0.3-0.4-0.3c-0.3,0-0.5,0.2-0.6,0.8l-0.1,0.2h0.7L34.8,21.3z"/>
	<path fill="#144983" d="M103.5,15.2L103.5,15.2l0,2.1c0,0.1,0,0.2,0,0.3c0,0.2,0.2,0.3,0.4,0.3V18h-1.1v-0.1c0.2,0,0.4-0.1,0.4-0.3
		c0-0.1,0-0.2,0-0.3V15c-0.1-0.2-0.3-0.4-0.6-0.4v-0.1h1l1.4,2.8l1.5-2.8h0.8v0.1c-0.4,0-0.5,0.2-0.5,0.5v2.3c0,0.5,0,0.4,0.4,0.5
		V18h-1.4v-0.1c0.5-0.1,0.4,0,0.4-0.5v-2.1h0L105,18h-0.1L103.5,15.2z"/>
	<path fill="#144983" d="M108.6,16.8c0,0.6,0.2,1,0.7,1c0.5,0,0.8-0.4,0.8-1v-1.1c0-0.1,0-0.2,0-0.2c0-0.1-0.2-0.2-0.3-0.2v-0.1h0.9
		v0.1c-0.2,0-0.3,0.1-0.3,0.2c0,0.1,0,0.1,0,0.2v1.1c0,0.9-0.5,1.2-1.1,1.2c-0.8,0-1.1-0.4-1.1-1.2v-1.2c0-0.4,0-0.4-0.3-0.4v-0.1
		h1.1v0.1c-0.4,0-0.3,0-0.3,0.4V16.8z"/>
	<path fill="#144983" d="M112.8,15.7c0-0.3-0.2-0.5-0.5-0.5c-0.2,0-0.4,0.1-0.4,0.4c0,0.3,0.3,0.4,0.7,0.8c0.4,0.3,0.6,0.5,0.6,0.9
		c0,0.5-0.5,0.7-1,0.7c-0.3,0-0.5,0-0.7-0.1c0,0,0,0,0-0.1v-0.6h0.1c0,0.4,0.3,0.6,0.6,0.6c0.3,0,0.5-0.2,0.5-0.5
		c0-0.3-0.1-0.5-0.7-0.9c-0.2-0.1-0.5-0.3-0.5-0.7c0-0.4,0.4-0.6,0.9-0.6c0.2,0,0.4,0,0.6,0.1c0,0,0,0,0,0v0.5H112.8z"/>
	<path fill="#144983" d="M113.8,17.9c0.4,0,0.3,0,0.3-0.4v-1.8c0-0.4,0-0.4-0.3-0.4v-0.1h1.8v0.6h-0.1c0-0.3-0.1-0.5-0.4-0.5h-0.5
		v1.1h0.3c0.3,0,0.4-0.1,0.4-0.3h0.1v0.9h-0.1c0-0.2-0.1-0.4-0.4-0.4h-0.3v0.9c0,0.3,0.2,0.4,0.5,0.4c0.6,0,0.6-0.2,0.7-0.6h0.1
		l-0.1,0.7h-2V17.9z"/>
	<path fill="#144983" d="M117.1,16.8c0,0.6,0.2,1,0.7,1c0.5,0,0.8-0.4,0.8-1v-1.1c0-0.1,0-0.2,0-0.2c0-0.1-0.2-0.2-0.3-0.2v-0.1h0.9
		v0.1c-0.2,0-0.3,0.1-0.3,0.2c0,0.1,0,0.1,0,0.2v1.1c0,0.9-0.5,1.2-1.1,1.2c-0.8,0-1.1-0.4-1.1-1.2v-1.2c0-0.4,0-0.4-0.3-0.4v-0.1
		h1.1v0.1c-0.4,0-0.3,0-0.3,0.4V16.8z"/>
	<path fill="#144983" d="M120.4,15.8L120.4,15.8l0,1.6c0,0.1,0,0.2,0,0.2c0,0.1,0.2,0.2,0.3,0.2V18h-0.9v-0.1c0.2,0,0.3-0.1,0.3-0.2
		c0-0.1,0-0.1,0-0.2v-1.8c-0.1-0.2-0.3-0.3-0.5-0.3v-0.1h0.8l1.1,2.2l1.2-2.2h0.7v0.1c-0.3,0-0.4,0.2-0.4,0.4v1.8
		c0,0.4,0,0.4,0.3,0.4V18h-1.1v-0.1c0.4,0,0.3,0,0.3-0.4v-1.7h0l-1.1,2.2h-0.1L120.4,15.8z"/>
	<path fill="#144983" d="M38.6,22.3L38,20.7h0l-0.6,1.7H38.6z M37.4,22.5l-0.2,0.7c-0.1,0.2,0,0.4,0.3,0.4v0.1h-0.9v-0.1
		c0.1,0,0.3-0.1,0.4-0.3c0.2-0.4,0.8-2.1,1.2-3.2h0.3c0.3,1,0.9,2.6,1,3c0.1,0.3,0.2,0.4,0.4,0.4v0.1h-1.2v-0.1
		c0.3,0,0.4-0.2,0.3-0.4l-0.2-0.7H37.4z"/>
	<path fill="#144983" d="M41.2,22.3h0.3c0.3,0,0.5-0.3,0.5-0.7c0-0.4-0.2-0.6-0.5-0.6h-0.3V22.3z M40.5,20.9h1.2
		c0.4,0,0.8,0.2,0.8,0.7c0,0.4-0.3,0.7-0.6,0.8l0.4,0.6c0.2,0.3,0.4,0.6,0.6,0.7v0.1h-0.4c-0.2,0-0.4-0.4-0.8-1.2h-0.4v0.7
		c0,0.4,0,0.4,0.3,0.4v0.1h-1.1v-0.1c0.4,0,0.3,0,0.3-0.4v-1.8c0-0.4,0-0.4-0.3-0.4V20.9z"/>
	<path fill="#144983" d="M46,23l-0.1,0.5c0,0.1-0.1,0.1-0.2,0.1c-0.2,0.1-0.4,0.1-0.8,0.1c-0.8,0-1.6-0.4-1.6-1.5
		c0-0.6,0.5-1.4,1.6-1.4c0.4,0,0.6,0.1,0.8,0.1c0.1,0,0.2,0.1,0.2,0.2v0.5h-0.1c0-0.3-0.2-0.7-0.9-0.7c-0.7,0-1.1,0.5-1.1,1.3
		c0,0.8,0.4,1.4,1.2,1.4c0.5,0,0.8-0.3,0.9-0.6H46z"/>
	<path fill="#144983" d="M47.4,23.2c0,0.4,0,0.4,0.3,0.4v0.1h-1.1v-0.1c0.4,0,0.3,0,0.3-0.4v-1.8c0-0.4,0-0.4-0.3-0.4v-0.1h1.1V21
		c-0.4,0-0.3,0-0.3,0.4v0.7h1.4v-0.7c0-0.4,0-0.4-0.3-0.4v-0.1h1.1V21c-0.4,0-0.3,0-0.3,0.4v1.8c0,0.4,0,0.4,0.3,0.4v0.1h-1.1v-0.1
		c0.4,0,0.3,0,0.3-0.4v-0.9h-1.4V23.2z"/>
	<path fill="#144983" d="M51.8,22.6l-0.4-1.3h0l-0.5,1.3H51.8z M50.8,22.8l-0.2,0.5c-0.1,0.2,0,0.3,0.2,0.3v0.1h-0.7v-0.1
		c0.1,0,0.2-0.1,0.3-0.2c0.2-0.4,0.6-1.7,1-2.6h0.2c0.3,0.8,0.7,2,0.8,2.4c0.1,0.2,0.2,0.4,0.3,0.4v0.1h-0.9v-0.1
		c0.2,0,0.3-0.1,0.2-0.3l-0.2-0.5H50.8z"/>
	<path fill="#144983" d="M53.3,23.6c0.4,0,0.3,0,0.3-0.4v-1.8c0-0.4,0-0.3-0.3-0.4v-0.1h1.8v0.6H55c0-0.3-0.1-0.5-0.4-0.5H54v1.1
		h0.3c0.2,0,0.4-0.1,0.4-0.3h0.1v0.9h-0.1c0-0.2-0.1-0.4-0.4-0.4H54v0.9c0,0.3,0.2,0.4,0.5,0.4c0.6,0,0.6-0.2,0.7-0.6h0.1l-0.1,0.7
		h-2V23.6z"/>
	<path fill="#144983" d="M58.4,22.3c0-1-0.5-1.3-1-1.3c-0.7,0-1,0.6-1,1.2c0,1,0.5,1.5,1,1.5C58.2,23.6,58.4,22.9,58.4,22.3
		 M56,22.3c0-0.9,0.7-1.5,1.5-1.5c0.9,0,1.4,0.8,1.4,1.4c0,0.8-0.6,1.5-1.5,1.5C56.6,23.7,56,23.1,56,22.3"/>
	<path fill="#144983" d="M59.6,23.6c0.4,0,0.3,0,0.3-0.4v-1.8c0-0.4,0-0.3-0.3-0.4v-0.1h1.1V21c-0.4,0-0.3,0-0.3,0.4v1.9
		c0,0.3,0.2,0.3,0.5,0.3c0.6,0,0.6-0.2,0.7-0.6h0.1l-0.1,0.7h-2V23.6z"/>
	<path fill="#144983" d="M64.7,22.3c0-1-0.5-1.3-1-1.3c-0.7,0-1,0.6-1,1.2c0,1,0.5,1.5,1,1.5C64.5,23.6,64.7,22.9,64.7,22.3
		 M62.3,22.3c0-0.9,0.7-1.5,1.5-1.5c0.9,0,1.4,0.8,1.4,1.4c0,0.8-0.6,1.5-1.5,1.5C62.9,23.7,62.3,23.1,62.3,22.3"/>
	<path fill="#144983" d="M65.9,22.3c0-0.6,0.5-1.4,1.6-1.4c0.4,0,0.6,0.1,0.8,0.1c0.1,0,0.2,0.1,0.2,0.2v0.5h-0.1
		c0-0.3-0.2-0.7-0.8-0.7c-0.8,0-1.1,0.6-1.1,1.3c0,0.6,0.3,1.4,1.1,1.4c0.5,0,0.5-0.2,0.5-0.5v-0.2c0-0.4,0-0.4-0.4-0.4v-0.1h1.2
		v0.1c-0.4,0-0.3,0-0.3,0.4v0.7c-0.3,0.1-0.6,0.2-1,0.2C66.6,23.7,65.9,23.3,65.9,22.3"/>
	<path fill="#144983" d="M70,23.6c0.4,0,0.3,0,0.3-0.4v-0.6l-0.6-1.2c-0.1-0.3-0.2-0.4-0.4-0.4v-0.1h1V21c-0.3,0-0.3,0.2-0.2,0.4
		l0.5,1l0.6-1c0.1-0.2,0-0.4-0.2-0.4v-0.1h0.8V21c-0.1,0-0.2,0.1-0.3,0.2l-0.7,1.2c0,0.1,0,0.2,0,0.3v0.5c0,0.4,0,0.4,0.3,0.4v0.1
		H70V23.6z"/>
	<path fill="#144983" d="M75.1,21.4c-0.8,0-1,1.1-1,1.5c0,0.2,0,0.5,0.2,0.5c0.2,0,0.9-0.7,1.2-2H75.1z M75.5,23.2
		c-0.1,0.2,0,0.3,0.2,0.2l0.2-0.1l0,0.1l-0.8,0.5c-0.1,0-0.1-0.1-0.1-0.2c0-0.1,0-0.2,0.1-0.4l0.2-0.6l0,0c-0.4,0.6-0.9,1.2-1.3,1.2
		c-0.3,0-0.3-0.4-0.3-0.6c0-1,0.7-2,1.9-2H76L75.5,23.2z"/>
	<path fill="#144983" d="M77.2,21.7c0-0.1,0-0.2-0.1-0.2c0,0-0.1,0-0.1,0l-0.2,0.1l0-0.1l0.9-0.4c0.1,0,0.1,0.1,0.1,0.2l-0.2,0.9
		l0,0c0.3-0.5,0.9-1.1,1.4-1.1c0.3,0,0.4,0.1,0.3,0.6l-0.4,1.4c0,0.2,0,0.2,0,0.2c0,0,0.1,0,0.1,0l0.2-0.1l0,0.1l-0.8,0.5
		c-0.1,0-0.1-0.1-0.1-0.2c0-0.1,0-0.2,0.1-0.4l0.3-1.3c0.1-0.2,0.1-0.5-0.1-0.5c-0.4,0-1.1,0.8-1.3,1.9l-0.1,0.4h-0.4L77.2,21.7z"/>
	<path fill="#144983" d="M81.4,21.4c-0.8,0-1,1.1-1,1.5c0,0.2,0,0.5,0.2,0.5c0.2,0,1-0.7,1.2-2H81.4z M82.6,20l-0.7,3.1
		c-0.1,0.2,0,0.3,0.2,0.2l0.2-0.1l0,0.1l-0.8,0.5c-0.1,0-0.1-0.1-0.1-0.2c0-0.1,0-0.2,0.1-0.4l0.2-0.6l0,0c-0.4,0.6-0.9,1.2-1.3,1.2
		c-0.3,0-0.3-0.4-0.3-0.6c0-1,0.6-2,1.9-2l0.2-0.6c0-0.1,0-0.1,0-0.2c0-0.1-0.1-0.1-0.2-0.1l-0.3,0l0-0.1L82.6,20z"/>
	<path fill="#144983" d="M86.7,22.4l-0.5-1.7h0l-0.6,1.7H86.7z M85.5,22.6l-0.2,0.7c-0.1,0.2,0,0.4,0.3,0.4v0.1h-0.9v-0.1
		c0.1,0,0.3-0.1,0.4-0.3c0.2-0.4,0.8-2.1,1.2-3.2h0.3c0.3,1,0.9,2.6,1,3c0.1,0.3,0.2,0.4,0.4,0.4v0.1h-1.2v-0.1
		c0.3,0,0.3-0.2,0.3-0.4l-0.2-0.7H85.5z"/>
	<path fill="#144983" d="M91.1,23.8c-0.6-0.8-1.3-1.5-1.9-2.3v1.8c0,0.1,0,0.2,0,0.2c0,0.1,0.2,0.2,0.4,0.2v0.1h-1v-0.1
		c0.2,0,0.3-0.1,0.3-0.2c0-0.1,0-0.1,0-0.2v-1.9c-0.1-0.1-0.2-0.3-0.5-0.3V21h0.7c0.6,0.7,1.2,1.5,1.8,2.2h0v-1.6c0-0.1,0-0.2,0-0.2
		c0-0.1-0.2-0.2-0.4-0.2V21h1v0.1c-0.2,0-0.3,0.1-0.3,0.2c0,0.1,0,0.1,0,0.2v2.3H91.1z"/>
	<path fill="#144983" d="M93.4,23.3c0,0.4,0,0.4,0.3,0.4v0.1h-1.1v-0.1c0.4,0,0.3,0,0.3-0.4v-2.2h-0.4c-0.3,0-0.4,0.2-0.6,0.5H92
		l0.1-0.6h2.2l0.1,0.6h-0.1c-0.1-0.3-0.2-0.5-0.6-0.5h-0.4V23.3z"/>
	<path fill="#144983" d="M95.7,23.3c0,0.4,0,0.4,0.3,0.4v0.1H95v-0.1c0.4,0,0.3,0,0.3-0.4v-1.8c0-0.4,0-0.4-0.3-0.4V21H96v0.1
		c-0.4,0-0.3,0-0.3,0.4v0.7h1.4v-0.7c0-0.4,0-0.4-0.3-0.4V21h1.1v0.1c-0.4,0-0.3,0-0.3,0.4v1.8c0,0.4,0,0.4,0.3,0.4v0.1h-1.1v-0.1
		c0.4,0,0.3,0,0.3-0.4v-0.9h-1.4V23.3z"/>
	<path fill="#144983" d="M99.2,22.4h0.3c0.3,0,0.5-0.3,0.5-0.7c0-0.4-0.2-0.6-0.5-0.6h-0.3V22.4z M98.5,21h1.2
		c0.4,0,0.8,0.2,0.8,0.7c0,0.4-0.3,0.7-0.6,0.8l0.4,0.6c0.2,0.3,0.4,0.6,0.6,0.7v0.1h-0.4c-0.2,0-0.4-0.4-0.8-1.2h-0.4v0.7
		c0,0.4,0,0.4,0.3,0.4v0.1h-1.1v-0.1c0.4,0,0.3,0,0.3-0.4v-1.8c0-0.4,0-0.4-0.3-0.4V21z"/>
	<path fill="#144983" d="M103.8,22.4c0-1-0.5-1.3-1-1.3c-0.7,0-1,0.6-1,1.2c0,1,0.5,1.5,1,1.5C103.6,23.7,103.8,23,103.8,22.4
		 M101.4,22.4c0-0.9,0.7-1.5,1.5-1.5c0.9,0,1.4,0.8,1.4,1.4c0,0.8-0.6,1.5-1.5,1.5C102,23.8,101.4,23.2,101.4,22.4"/>
	<path fill="#144983" d="M105.7,23.3c0,0.4,0,0.4,0.3,0.4v0.1H105v-0.1c0.4,0,0.3,0,0.3-0.4v-1.8c0-0.4,0-0.4-0.3-0.4V21h1
		c0.7,0,1,0.3,1,0.7c0,0.6-0.5,0.9-1.1,0.9v-0.1c0.5,0,0.7-0.3,0.7-0.7c0-0.4-0.2-0.7-0.7-0.7h-0.2V23.3z"/>
	<path fill="#144983" d="M110.1,22.4c0-1-0.5-1.3-1-1.3c-0.7,0-1,0.6-1,1.2c0,1,0.5,1.5,1,1.5C109.9,23.7,110.1,23,110.1,22.4
		 M107.7,22.4c0-0.9,0.7-1.5,1.5-1.5c0.9,0,1.4,0.8,1.4,1.4c0,0.8-0.6,1.5-1.5,1.5C108.3,23.8,107.7,23.2,107.7,22.4"/>
	<path fill="#144983" d="M111.3,23.7c0.4,0,0.3,0,0.3-0.4v-1.8c0-0.4,0-0.4-0.3-0.4V21h1.1v0.1c-0.4,0-0.3,0-0.3,0.4v1.9
		c0,0.3,0.2,0.3,0.5,0.3c0.6,0,0.6-0.2,0.7-0.6h0.1l-0.1,0.7h-2V23.7z"/>
	<path fill="#144983" d="M116.4,22.4c0-1-0.5-1.3-1-1.3c-0.7,0-1,0.6-1,1.2c0,1,0.5,1.5,1,1.5C116.2,23.7,116.4,23,116.4,22.4
		 M114,22.4c0-0.9,0.7-1.5,1.5-1.5c0.9,0,1.4,0.8,1.4,1.4c0,0.8-0.6,1.5-1.5,1.5C114.6,23.8,114,23.2,114,22.4"/>
	<path fill="#144983" d="M117.6,22.4c0-0.6,0.5-1.4,1.6-1.4c0.4,0,0.6,0.1,0.8,0.1c0.1,0,0.2,0.1,0.2,0.2v0.5H120
		c0-0.3-0.2-0.7-0.8-0.7c-0.8,0-1.1,0.6-1.1,1.3c0,0.6,0.3,1.4,1.1,1.4c0.5,0,0.5-0.2,0.5-0.5v-0.2c0-0.4,0-0.4-0.4-0.4v-0.1h1.2
		v0.1c-0.4,0-0.3,0-0.3,0.4v0.7c-0.3,0.1-0.6,0.2-1,0.2C118.3,23.8,117.6,23.4,117.6,22.4"/>
	<path fill="#144983" d="M121.7,23.7c0.4,0,0.3,0,0.3-0.4v-0.6l-0.6-1.2c-0.1-0.3-0.2-0.4-0.4-0.4V21h1v0.1c-0.3,0-0.3,0.2-0.2,0.4
		l0.5,1l0.5-1c0.1-0.2,0-0.4-0.2-0.4V21h0.8v0.1c-0.1,0-0.2,0.1-0.3,0.2l-0.7,1.2c0,0.1,0,0.2,0,0.3v0.5c0,0.4,0,0.4,0.3,0.4v0.1
		h-1.1V23.7z"/>
	<path fill="#144983" d="M67.1,17.3c0,0.5,0,0.4,0.4,0.5V18h-1.4v-0.1c0.5-0.1,0.4,0,0.4-0.5V15c0-0.5,0-0.4-0.4-0.5v-0.1h1.3
		c0.8,0,1.3,0.3,1.3,0.9c0,0.7-0.7,1.1-1.4,1.1v-0.1c0.6,0,0.9-0.4,0.9-0.9c0-0.6-0.3-0.8-0.8-0.8h-0.3V17.3z"/>
	<path fill="#144983" d="M69.5,17.8c0.4,0,0.3,0,0.3-0.4v-1.8c0-0.4,0-0.4-0.3-0.4v-0.1h1.8v0.6h-0.1c0-0.3-0.1-0.5-0.4-0.5h-0.5
		v1.1h0.3c0.3,0,0.4-0.1,0.4-0.3H71v0.9h-0.1c0-0.2-0.1-0.4-0.4-0.4h-0.3v0.9c0,0.3,0.2,0.4,0.5,0.4c0.6,0,0.6-0.2,0.7-0.6h0.1
		L71.4,18h-2V17.8z"/>
	<path fill="#144983" d="M74.7,18c-0.6-0.8-1.3-1.5-1.9-2.3v1.8c0,0.1,0,0.2,0,0.2c0,0.1,0.2,0.2,0.4,0.2V18h-1v-0.1
		c0.2,0,0.3-0.1,0.3-0.2c0-0.1,0-0.1,0-0.2v-1.9c-0.1-0.1-0.2-0.3-0.5-0.3v-0.1h0.7c0.6,0.7,1.2,1.5,1.8,2.2h0v-1.6
		c0-0.1,0-0.2,0-0.2c0-0.1-0.2-0.2-0.4-0.2v-0.1h1v0.1c-0.2,0-0.3,0.1-0.3,0.2c0,0.1,0,0.1,0,0.2V18H74.7z"/>
	<path fill="#144983" d="M78.2,18c-0.6-0.8-1.3-1.5-1.9-2.3v1.8c0,0.1,0,0.2,0,0.2c0,0.1,0.2,0.2,0.4,0.2V18h-1v-0.1
		c0.2,0,0.3-0.1,0.3-0.2c0-0.1,0-0.1,0-0.2v-1.9c-0.1-0.1-0.2-0.3-0.5-0.3v-0.1h0.7c0.6,0.7,1.2,1.5,1.8,2.2h0v-1.6
		c0-0.1,0-0.2,0-0.2c0-0.1-0.2-0.2-0.4-0.2v-0.1h1v0.1c-0.2,0-0.3,0.1-0.3,0.2c0,0.1,0,0.1,0,0.2V18H78.2z"/>
	<path fill="#144983" d="M80.7,15.7c0-0.3-0.2-0.5-0.5-0.5c-0.2,0-0.4,0.1-0.4,0.4c0,0.3,0.3,0.5,0.7,0.8c0.4,0.3,0.6,0.5,0.6,0.9
		c0,0.5-0.5,0.7-1,0.7c-0.3,0-0.5,0-0.7-0.1c0,0,0,0,0-0.1v-0.6h0.1c0,0.4,0.3,0.6,0.6,0.6c0.3,0,0.5-0.2,0.5-0.5
		c0-0.3-0.1-0.5-0.7-0.9c-0.2-0.1-0.5-0.3-0.5-0.7c0-0.4,0.4-0.6,0.9-0.6c0.2,0,0.4,0,0.6,0.1c0,0,0,0,0,0v0.5H80.7z"/>
	<path fill="#144983" d="M82.3,17.8c0.4,0,0.3,0,0.3-0.4v-0.6l-0.6-1.2c-0.1-0.3-0.2-0.4-0.4-0.4v-0.1h1v0.1c-0.3,0-0.3,0.2-0.2,0.4
		l0.5,1l0.5-1c0.1-0.2,0-0.4-0.2-0.4v-0.1h0.8v0.1c-0.1,0-0.2,0.1-0.3,0.2l-0.7,1.2c0,0.1,0,0.2,0,0.3v0.5c0,0.4,0,0.4,0.3,0.4V18
		h-1.1V17.8z"/>
	<path fill="#144983" d="M84.7,17.8c0.4,0,0.3,0,0.3-0.4v-1.8c0-0.4,0-0.4-0.3-0.4v-0.1h1.1v0.1c-0.4,0-0.3,0-0.3,0.4v1.9
		c0,0.3,0.2,0.3,0.5,0.3c0.6,0,0.6-0.2,0.7-0.6h0.1L86.7,18h-2V17.8z"/>
	<path fill="#144983" d="M87.9,15.2c-0.2,0-0.4,0.1-0.2,0.5c0.2,0.5,0.4,1.2,0.6,1.8c0.3-0.6,0.5-1.2,0.7-1.8c0.1-0.3,0-0.4-0.3-0.4
		v-0.1h0.9v0.1c-0.1,0-0.2,0-0.3,0.2c-0.3,0.8-0.7,1.6-1,2.5H88c-0.2-0.7-0.5-1.5-0.8-2.2c-0.1-0.4-0.3-0.6-0.5-0.6v-0.1h1.1V15.2z"
		/>
	<path fill="#144983" d="M91.1,16.9l-0.4-1.3h0l-0.5,1.3H91.1z M90.2,17L90,17.6c-0.1,0.2,0,0.3,0.2,0.3V18h-0.7v-0.1
		c0.1,0,0.2-0.1,0.3-0.2c0.2-0.4,0.6-1.7,1-2.6h0.2c0.3,0.8,0.7,2,0.8,2.4c0.1,0.2,0.2,0.4,0.3,0.4V18h-0.9v-0.1
		c0.3,0,0.3-0.1,0.2-0.3L91.2,17H90.2z"/>
	<path fill="#144983" d="M95.2,18c-0.6-0.8-1.3-1.5-1.9-2.3v1.8c0,0.1,0,0.2,0,0.2c0,0.1,0.2,0.2,0.4,0.2V18h-1v-0.1
		c0.2,0,0.3-0.1,0.3-0.2c0-0.1,0-0.1,0-0.2v-1.9c-0.1-0.1-0.2-0.3-0.5-0.3v-0.1h0.7c0.6,0.7,1.2,1.5,1.8,2.2h0v-1.6
		c0-0.1,0-0.2,0-0.2c0-0.1-0.2-0.2-0.4-0.2v-0.1h1v0.1c-0.2,0-0.3,0.1-0.3,0.2c0,0.1,0,0.1,0,0.2V18H95.2z"/>
	<path fill="#144983" d="M97,17.5c0,0.4,0,0.4,0.3,0.4V18h-1.1v-0.1c0.4,0,0.3,0,0.3-0.4v-1.8c0-0.4,0-0.4-0.3-0.4v-0.1h1.1v0.1
		c-0.4,0-0.3,0-0.3,0.4V17.5z"/>
	<path fill="#144983" d="M99.6,16.9l-0.4-1.3h0l-0.5,1.3H99.6z M98.6,17l-0.2,0.5c-0.1,0.2,0,0.3,0.2,0.3V18h-0.7v-0.1
		c0.1,0,0.2-0.1,0.3-0.2c0.2-0.4,0.6-1.7,1-2.6h0.2c0.3,0.8,0.7,2,0.8,2.4c0.1,0.2,0.2,0.4,0.3,0.4V18h-0.9v-0.1
		c0.3,0,0.3-0.1,0.2-0.3L99.6,17H98.6z"/>
	<path fill="#FFFFFF" d="M0,0.1h21.8V11c-0.1,8.9-10.1,13.6-11.4,13.5C9.2,24.5,0,19.9,0,10.9C0,10.8,0,0.1,0,0.1"/>
	<path fill="#FFFFFF" d="M0.5,0.6h20.8V11c-0.1,8.5-9.6,12.9-10.8,12.9c-1.2,0-10-4.4-10-12.9C0.5,10.8,0.5,0.6,0.5,0.6"/>
	<path fill="#AA2D3E" d="M0.5,7c0,0,0-6.3,0-6.3h20.8V7H0.5"/>
	<path fill="none" stroke="#AA2D3E" stroke-width="0.145" stroke-miterlimit="3.864" d="M0.5,7c0,0,0-6.3,0-6.3h20.8V7H0.5z"/>
	<path fill="#145183" d="M1.7,16.2c0.8,1.7,1.8,3,3.2,4.2l6.1-6.1l5.8,6c1.2-1.1,2.4-2.4,3.2-4l-9-8.7L1.7,16.2L1.7,16.2"/>
	<path fill="none" stroke="#145183" stroke-width="0.144" stroke-miterlimit="3.864" d="M1.7,16.2c0.8,1.7,1.8,3,3.2,4.2l6.1-6.1
		l5.8,6c1.2-1.1,2.4-2.4,3.2-4l-9-8.7L1.7,16.2L1.7,16.2z"/>
	<line fill="none" stroke="#145183" stroke-width="0.145" stroke-miterlimit="3.864" x1="0.5" y1="7" x2="21.3" y2="7"/>
	<path fill="#FFFFFF" d="M16.1,2.2h0.6c0.4-0.1,0.6-0.3,1-0.3c0.3,0,0.5,0.2,0.7,0.2c0.2,0,0.5-0.2,0.8-0.2c0.3,0,0.5,0.2,0.7,0.3
		c0.2,0.1,0.4,0.1,0.7,0.1c0,0.2,0,0.3,0,0.5c0,0.2,0.2,0.1,0.2,0.4c0,0.3-0.3,0.2-0.3,0.3l0,1c0,0.1,0.3,0.1,0.3,0.3
		c0,0.3-0.3,0.2-0.3,0.4c0,0.2,0,0.5,0,0.5c-0.6,0-4.2,0-4.3,0c0-0.4,0.1-0.4,0.1-0.5c0-0.1-0.3-0.2-0.3-0.5c0-0.2,0.2-0.2,0.2-0.3
		v-1c0-0.1-0.3-0.2-0.3-0.4c0-0.2,0.3-0.2,0.3-0.4C16.1,2.5,16.1,2.3,16.1,2.2"/>
	<path fill="none" stroke="#145183" stroke-width="0.145" stroke-miterlimit="3.864" d="M18.3,2.1v3 M16.6,2.2c0,0,0,2.3,0,2.8
		c0,0,3.4,0,3.5,0c0-0.6,0-2.9,0-2.9 M16.1,2.2h0.6c0.4-0.1,0.6-0.3,1-0.3c0.3,0,0.5,0.2,0.7,0.2c0.2,0,0.5-0.2,0.8-0.2
		c0.3,0,0.5,0.2,0.7,0.3c0.2,0.1,0.4,0.1,0.7,0.1c0,0.2,0,0.3,0,0.5c0,0.2,0.2,0.1,0.2,0.4c0,0.3-0.3,0.2-0.3,0.3l0,1
		c0,0.1,0.3,0.1,0.3,0.3c0,0.3-0.3,0.2-0.3,0.4c0,0.2,0,0.5,0,0.5c-0.6,0-4.2,0-4.3,0c0-0.4,0.1-0.4,0.1-0.5c0-0.1-0.3-0.2-0.3-0.5
		c0-0.2,0.2-0.2,0.2-0.3v-1c0-0.1-0.3-0.2-0.3-0.4c0-0.2,0.3-0.2,0.3-0.4C16.1,2.5,16.1,2.3,16.1,2.2z"/>
	<path fill="#145183" d="M18.4,4.7c0.1,0,0.4,0.1,0.7,0.2c0.3,0.1,0.7,0,1,0.1c0.1,0-1.7,0-1.7,0C18.4,4.7,18.4,4.7,18.4,4.7"/>
	<path fill="none" stroke="#145183" stroke-width="0.145" stroke-miterlimit="3.864" d="M18.4,4.7c0.1,0,0.4,0.1,0.7,0.2
		c0.3,0.1,0.7,0,1,0.1c0.1,0-1.7,0-1.7,0C18.4,4.7,18.4,4.7,18.4,4.7z"/>
	<path fill="#145183" d="M18.1,5.2c0-0.1,0.1-0.1,0.2-0.1c0.1,0,0.2,0.1,0.2,0.1c0,0.1-0.1,0.1-0.2,0.1C18.2,5.3,18.1,5.2,18.1,5.2"
		/>
	<ellipse fill="none" stroke="#145183" stroke-width="0.145" stroke-miterlimit="3.864" cx="18.3" cy="5.2" rx="0.2" ry="0.1"/>
	<path fill="#145183" d="M18.2,4.7c-0.1,0-0.4,0.1-0.7,0.2c-0.3,0.1-0.7,0-1,0.1c-0.1,0,1.7,0,1.7,0C18.2,4.7,18.2,4.7,18.2,4.7"/>
	<path fill="none" stroke="#145183" stroke-width="0.145" stroke-miterlimit="3.864" d="M18.2,4.7c-0.1,0-0.4,0.1-0.7,0.2
		c-0.3,0.1-0.7,0-1,0.1c-0.1,0,1.7,0,1.7,0C18.2,4.7,18.2,4.7,18.2,4.7z"/>
	<path fill="#FFFFFF" d="M6.7,6c0.1,0.2,0.2,0.4,0.5,0.4c0.5,0,1-0.4,1.3-0.6c0.2-0.2,0.5-0.3,0.5-0.7l0,0.1c0,0,0.4-0.4,1.4-0.1
		c0.3,0.1,1.4,0.7,1.7,0.8c0.2,0.1,1,0.6,2.1,0.4c0,0,1.8-0.2,1.4-2.1c-0.3-1.3-0.2-1.4-0.1-1.8c0,0-1.1-0.3-1.1,1.2
		c-0.5,0-1,0.4-0.7,1.3c0.2-0.2,0.4-0.5,0.6-0.5c0.2,0,0.4,0.3,0.4,0.4c0,0.5-0.4,0.7-1,0.6c-0.3,0-0.6-0.4-1-0.7
		c0.1,0,0.1-0.3,0.1-0.4c0-0.2-0.2-0.3-0.3-0.4c0-0.1,0.1-0.2,0.1-0.3c0-0.2-0.3-0.2-0.4-0.2c0-0.1,0,0,0-0.1c0-0.3,0-0.4-0.5-0.4
		c0-0.3,0-0.4-0.2-0.5l-0.4-0.1c-0.3,0,0-0.1-0.2-0.4c-0.2-0.2-0.6,0-0.6,0c0-0.2-0.1-0.3-0.4-0.3c-0.1,0-0.3,0-0.4,0.1L9.5,2
		C9.3,2,9.2,1.8,9,1.8S8.6,2,8.5,2.1C8.4,2,8.4,1.9,8.1,1.9C8,1.9,8,2,7.9,2.1C7.8,2.3,7.8,2.4,7.6,2.5L7.5,2.4c0,0,0,0,0,0
		C7.1,2.5,6.4,4.2,6.4,4.5c0,0.3,0.3,0.2,0.3,0.5c0,0.2-0.3,0.4-0.3,0.5C6.4,5.8,6.6,6,6.9,6L6.7,6"/>
	<path fill="none" stroke="#145183" stroke-width="0.144" stroke-miterlimit="3.864" d="M6.7,6c0.1,0.2,0.2,0.4,0.5,0.4
		c0.5,0,1-0.4,1.3-0.6c0.2-0.2,0.5-0.3,0.5-0.7l0,0.1c0,0,0.4-0.4,1.4-0.1c0.3,0.1,1.4,0.7,1.7,0.8c0.2,0.1,1,0.6,2.1,0.4
		c0,0,1.8-0.2,1.4-2.1c-0.3-1.3-0.2-1.4-0.1-1.8c0,0-1.1-0.3-1.1,1.2c-0.5,0-1,0.4-0.7,1.3c0.2-0.2,0.4-0.5,0.6-0.5
		c0.2,0,0.4,0.3,0.4,0.4c0,0.5-0.4,0.7-1,0.6c-0.3,0-0.6-0.4-1-0.7c0.1,0,0.1-0.3,0.1-0.4c0-0.2-0.2-0.3-0.3-0.4
		c0-0.1,0.1-0.2,0.1-0.3c0-0.2-0.3-0.2-0.4-0.2c0-0.1,0,0,0-0.1c0-0.3,0-0.4-0.5-0.4c0-0.3,0-0.4-0.2-0.5l-0.4-0.1
		c-0.3,0,0-0.1-0.2-0.4c-0.2-0.2-0.6,0-0.6,0c0-0.2-0.1-0.3-0.4-0.3c-0.1,0-0.3,0-0.4,0.1L9.5,2C9.3,2,9.2,1.8,9,1.8S8.6,2,8.5,2.1
		C8.4,2,8.4,1.9,8.1,1.9C8,1.9,8,2,7.9,2.1C7.8,2.3,7.8,2.4,7.6,2.5L7.5,2.4c0,0,0,0,0,0C7.1,2.5,6.4,4.2,6.4,4.5
		c0,0.3,0.3,0.2,0.3,0.5c0,0.2-0.3,0.4-0.3,0.5C6.4,5.8,6.6,6,6.9,6L6.7,6z"/>
	<path fill="#145183" d="M7.5,4.6c0,0,0.4,0.1,0.4,0.2c0,0.1-0.2,0.2-0.4,0.4H7.3c0.1-0.2,0-0.1,0-0.4C7.3,4.6,7.4,4.6,7.5,4.6"/>
	<path fill="none" stroke="#145183" stroke-width="0.145" stroke-miterlimit="3.864" d="M8.8,4C9,3.9,8.9,3.6,9.2,3.6
		c0.3,0,0.4,0.2,0.6,0.2c0.2,0,0.3-0.2,0.5-0.2c0.2,0,0.5,0.3,0.4,0.6c0,0,0.7-0.2,0.7,0.5C12,4.6,11.9,5.1,12,5.3
		c0.1,0.2,0.4,0,0.4,0.5 M7.5,4.6c0,0,0.4,0.1,0.4,0.2c0,0.1-0.2,0.2-0.4,0.4H7.3c0.1-0.2,0-0.1,0-0.4C7.3,4.6,7.4,4.6,7.5,4.6z"/>
	<path fill="#FFFFFF" d="M1.3,2.2h0.6c0.4-0.1,0.6-0.3,1-0.3c0.3,0,0.5,0.2,0.7,0.2c0.2,0,0.5-0.2,0.8-0.2c0.3,0,0.5,0.2,0.7,0.3
		c0.2,0.1,0.4,0.1,0.7,0.1c0,0.2,0,0.3,0,0.5C5.8,2.9,6,2.8,6,3.1c0,0.3-0.3,0.2-0.3,0.3l0,1C5.7,4.6,6,4.6,6,4.8
		C6,5.1,5.7,5,5.7,5.2c0,0.2,0,0.5,0,0.5c-0.6,0-4.1,0-4.3,0c0-0.4,0-0.3,0-0.5c0-0.1-0.3-0.2-0.3-0.5c0-0.2,0.2-0.2,0.2-0.3v-1
		C1.3,3.2,1,3.2,1,3c0-0.2,0.3-0.2,0.3-0.4C1.3,2.6,1.3,2.3,1.3,2.2"/>
	<path fill="none" stroke="#145183" stroke-width="0.145" stroke-miterlimit="3.864" d="M3.5,2.1v3 M1.8,2.3c0,0,0,2.3,0,2.8
		c0,0,3.4,0,3.5,0c0-0.6,0-2.9,0-2.9 M1.3,2.2h0.6c0.4-0.1,0.6-0.3,1-0.3c0.3,0,0.5,0.2,0.7,0.2c0.2,0,0.5-0.2,0.8-0.2
		c0.3,0,0.5,0.2,0.7,0.3c0.2,0.1,0.4,0.1,0.7,0.1c0,0.2,0,0.3,0,0.5C5.8,2.9,6,2.8,6,3.1c0,0.3-0.3,0.2-0.3,0.3l0,1
		C5.7,4.6,6,4.6,6,4.8C6,5.1,5.7,5,5.7,5.2c0,0.2,0,0.5,0,0.5c-0.6,0-4.1,0-4.3,0c0-0.4,0-0.3,0-0.5c0-0.1-0.3-0.2-0.3-0.5
		c0-0.2,0.2-0.2,0.2-0.3v-1C1.3,3.2,1,3.2,1,3c0-0.2,0.3-0.2,0.3-0.4C1.3,2.6,1.3,2.3,1.3,2.2z"/>
	<path fill="#145183" d="M3.6,4.7c0.1,0,0.4,0.1,0.7,0.2C4.6,5,5,5,5.2,5c0.1,0-1.7,0-1.7,0C3.6,4.7,3.6,4.7,3.6,4.7"/>
	<path fill="none" stroke="#145183" stroke-width="0.145" stroke-miterlimit="3.864" d="M3.6,4.7c0.1,0,0.4,0.1,0.7,0.2
		C4.6,5,5,5,5.2,5c0.1,0-1.7,0-1.7,0C3.6,4.7,3.6,4.7,3.6,4.7z"/>
	<path fill="#145183" d="M3.3,5.2C3.3,5.1,3.4,5,3.5,5c0.1,0,0.2,0.1,0.2,0.1c0,0.1-0.1,0.1-0.2,0.1C3.4,5.3,3.3,5.3,3.3,5.2"/>
	<ellipse fill="none" stroke="#145183" stroke-width="0.145" stroke-miterlimit="3.864" cx="3.5" cy="5.2" rx="0.2" ry="0.1"/>
	<path fill="#145183" d="M3.4,4.7C3.3,4.7,3,4.8,2.7,4.9C2.4,5,2,5,1.8,5C1.7,5,3.4,5,3.4,5C3.4,4.7,3.4,4.7,3.4,4.7"/>
	<path fill="none" stroke="#145183" stroke-width="0.145" stroke-miterlimit="3.864" d="M3.4,4.7C3.3,4.7,3,4.8,2.7,4.9
		C2.4,5,2,5,1.8,5C1.7,5,3.4,5,3.4,5C3.4,4.7,3.4,4.7,3.4,4.7z"/>
	<path fill="#FFFFFF" d="M4.1,15.5c0-1,0.8-1.7,1.8-1.7s1.8,0.8,1.8,1.7c0,1-0.8,1.7-1.8,1.7S4.1,16.5,4.1,15.5"/>
	<ellipse fill="none" stroke="#145183" stroke-width="0.145" stroke-miterlimit="3.864" cx="5.9" cy="15.5" rx="1.8" ry="1.7"/>
	<path fill="#FFFFFF" d="M9.1,11.3c0-1,0.8-1.7,1.8-1.7s1.8,0.8,1.8,1.7c0,1-0.8,1.7-1.8,1.7S9.1,12.3,9.1,11.3"/>
	<ellipse fill="none" stroke="#145183" stroke-width="0.144" stroke-miterlimit="3.864" cx="10.9" cy="11.3" rx="1.8" ry="1.7"/>
	<path fill="#FFFFFF" d="M13.8,15.5c0-1,0.8-1.7,1.8-1.7c1,0,1.8,0.8,1.8,1.7c0,1-0.8,1.7-1.8,1.7C14.6,17.3,13.8,16.5,13.8,15.5"/>
	<path fill="none" stroke="#145183" stroke-width="0.145" stroke-miterlimit="3.864" d="M6.8,5.9c0.4,0,0.6,0,0.8-0.1
		c0.2-0.1,0.6-0.3,0.6-0.5 M8.9,5.2c0,0,0-0.1,0-0.1c0-0.1-0.3,0-0.4,0C8.5,5,8.7,4.9,8.6,4.9c0.2-0.1,0.8-0.3,0.6-0.5
		C9,4.3,8.9,4.1,8.8,4C8.7,3.8,8.5,3.7,8.3,3.7c-0.2,0-0.6,0.4-0.7,0.5C7.7,4.1,8,3.8,8,3.6c0-0.5-0.4-0.9-0.5-1.3 M12.7,4.8
		c-0.5-0.5-0.9-1.1-0.9-1.1C11.6,3.6,11,2.5,9.5,2.4c-0.4,0-1.8,0.1-1.8,0.5 M13.8,15.5c0-1,0.8-1.7,1.8-1.7c1,0,1.8,0.8,1.8,1.7
		c0,1-0.8,1.7-1.8,1.7C14.6,17.3,13.8,16.5,13.8,15.5z"/>
	<path fill="none" stroke="#145183" stroke-width="0.286" stroke-miterlimit="3.864" d="M0.5,0.6h20.8V11
		c-0.1,8.5-9.6,12.9-10.8,12.9c-1.2,0-10-4.4-10-12.9C0.5,10.8,0.5,0.6,0.5,0.6z"/>
</g>
</svg>
