<!-- Generator: Adobe Illustrator 19.2.1, SVG Export Plug-In  -->
<svg version="1.1"
	 xmlns="http://www.w3.org/2000/svg" xmlns:xlink="http://www.w3.org/1999/xlink" xmlns:a="http://ns.adobe.com/AdobeSVGViewerExtensions/3.0/"
	 x="0px" y="0px" width="707.5px" height="238.9px" viewBox="0 0 707.5 238.9" enable-background="new 0 0 707.5 238.9"
	 xml:space="preserve">
<defs>
</defs>
<g>
	<path d="M198.7,218.2c-1.4,2.4-3.5,2.1-5.4,2.7c-1.8,0.5-2.6-3.3-4.4-0.6c-0.2,0.3-2.4-1-3.7-1.1c-2-0.1-4,0-6,0.3
		c-1.2,0.2-2.2,1-3.4,1.1c-1.5,0.2-3,0-4.8,0c0.6-1.2,0.9-1.9,1.4-2.8c-0.8-0.2-1.5-0.3-2.3-0.5c-1-4.3-2.1-8.7-3.3-13.4
		c0.1-0.1,0.5-0.6,1-1.1c-1-1-1.9-1.9-2.7-2.7c-1.2-12.1-5.8-23.4-9.3-35c-0.1,2-0.2,3.9-0.2,5.9c0,2.1-0.8,4.6,0.2,6
		c1.3,1.9-0.1,3.6,0.7,5.4c0.8,1.7,0.5,3.9,0.6,5.9c0.1,2.1,0,4.1,0,6.2s0,4.1,0,6.2c0,2.3,0,4.6,0,6.9c0,2.1,0,4.1,0,6.2
		c0,2,0,4.1,0,6.5c-6.4,0-12.7,0-19.7,0c-0.4-0.3-1.3-1.2-2.3-2.1c0.7-1.1,1.1-1.9,1.7-2.9c-0.3-0.6-0.8-1.4-1.3-2.2
		c0.6-1,1.2-2.1,1.9-3.4c-0.6-0.7-1.2-1.5-1.7-2.2c0.5-0.6,1-1.1,1.8-2c-2.7-2.1-0.5-5.1-1.4-7.7c2.5-1.6-2.2-3.2-0.3-4.1
		c2.5-1.3-0.7-2.8,0.6-4c1.7-1.5-0.6-2.8-0.5-3.7c0.2-1.5,2.2-2.5,0.2-4.4c-0.6-0.6-0.1-2.4-0.4-3.9c-0.7-3.2-0.2-6.6-0.2-10
		c0-7.7,0.2-15.4-0.1-23.1c-0.1-2.4,1.7-4.4,0.8-7.1c-0.4-1,1.5-2.8,2.3-4.2c-0.9-0.9-1.8-1.8-2.4-2.4c1.3-4.6-2.1-9,0-13.5
		c8.9,0,17.8,0,27.1,0c3.9,7.4,2.9,16.6,7.8,24.1c0.1,2.5,0.3,5.3,1.3,8.3c0.9,2.6,0.8,5.7,1.7,8.5c0.8,2.5,1.6,5.2,1.5,7.8
		c-0.1,3.1,1.1,5.6,2.5,8.2c1.9-3.5-0.7-7.6,1.6-10.9c0.1-0.2,0.4-0.4,0.5-0.5c-1-1.1-2-2.1-3-3.2c3.3-0.7-1.8-3.7,1.4-4.4
		c-0.6-1.5-1.3-3-2.1-4.9c1.5-1.1,2.7-2,3.9-2.8c-0.7-0.7-1-1-1.8-1.8c1.1-0.5,2-0.9,2.9-1.3c-0.8-1.4-1.6-2.8-2.3-4.3
		c-0.6-1.4-1.9-3.5-1.4-4.1c1.5-1.9-1.3-2.2-0.9-3.8c0.5-1.7,0.2-3.6,0.1-5.4c-0.2-2.4-0.7-4.7-1.2-7.6c2.3-3.2,5.3-2.8,8.6-0.5
		c4.2-1.9,8.4-2.8,12.7,0.3c0,2.4,0.1,4.7,0,7c-0.8,11.4,1.1,22.7,1.5,34.1c0.1,2.1-0.7,4.2-1.2,7.1c0.2,0.8,1.1,2.3,1.2,3.9
		c0.2,6.9,0.1,13.9,0,20.8c0,2.2,0.8,4.6-1.4,6.3c2.4,1.7,1.2,4.2,1.4,6.3c0.2,2.3,0,4.6,0,6.9C198.7,213.9,198.7,216.2,198.7,218.2
		z M141.9,126.8c0,0.4,0.1,0.9,0.1,1.3c0.9-0.2,1.7-0.4,2.6-0.6c0-0.3-0.1-0.5-0.1-0.8C143.6,126.8,142.8,126.8,141.9,126.8z"/>
	<path d="M354.5,117.5c9.5,0,18.4,0,27.4,0c2,8,4,15.9,6.1,24.1c-0.6,0.6-1.6,1.7-2.9,3.1c5.4-0.3,5.1,4.5,6,7.2
		c2,5.6,2.7,11.7,3.9,17.7c0.8,0,1.5,0,2.2,0c-0.4-1.9-1-3.7-1-5.5c-0.1-8,0-15.9-0.1-23.9c0-5.6,0.2-11.1-1.5-16.6
		c-0.6-1.8-0.1-4-0.1-6.1c3.2,0,6,0,8.7,0c0.4,1,0.8,1.8,1.1,2.8c0.7,0,1.4,0,2.5,0c-0.6-1-1-1.7-1.6-2.6c3.4,0,6.7,0,10.5,0
		c0.1,1.6,0.3,3.6,0.3,5.5c0,14.9-0.1,29.8,0.1,44.7c0,3.7-0.8,7.4,1.3,11.1c0.4,0.7-1,3,0.1,4.8c0.5,0.9-2,2.5-0.1,4
		c-3.8,1.2,1.8,4.5-1.3,5.9c3.2,1.9-1.2,5.3,1.5,7.3c-2.3,2.1,0.2,4.8-1.2,7.5c-1.5,2.8-0.3,6.9-0.3,10.6c-9.4,0-18.3,0-27.3,0
		c-0.7-3.4-0.9-6.9-2.1-10c-2-5.2-1.5-10.9-3.7-16.2c-2.1-5-3.1-10.5-4.9-15.7c-1.4-3.8-1.8-8-3.1-12c-0.5,10.5-1.4,21,1.4,31.6
		c-1.8,1.2-3.4,2.2-5.3,3.4c1.7,0.3,3.1,0.6,4.6,0.9c1.2,2.8-1.2,5.5,0,8.6c1.1,2.6,0.2,6,0.2,9.3c-7.2,0-14,0-21.6,0
		c0-3,0-6.3,0-9.6c0-3.6,0-7.2,0-10.8c0-3.3,0-6.7,0-10c0-3.3,0-6.7,0-10c0-3.6,0-7.2,0-10.8c0-3.3,0-6.7,0-10c0-3.3-0.7-6.9,0.2-10
		c0.9-3.2-0.4-5.9-0.2-8.8c0.2-3.6,0-7.2,0-10.8C354.5,124.8,354.5,121.4,354.5,117.5z M367.3,126.8c-0.4,4.5-0.4,4.5,3.8,5.7
		c0-1.4,0-2.8,0-3.9C369.7,128,368.5,127.4,367.3,126.8z M400.8,148.4c3.8,3.9,3.8,3.9,7.6,0C405.8,148.4,403.4,148.4,400.8,148.4z
		 M371.7,155.7c-0.3-1.4-0.4-2-0.5-2.6c-2.3-0.9-4.1-0.4-5.4,1.5c-0.2,0.2,0,0.7,0,1.1C367.5,155.7,369.2,155.7,371.7,155.7z
		 M374.7,137.5c1.5-0.2,2.9-0.4,5.2-0.7c-2.4-1-3.8-1.5-5.3-2.2C374.6,135.5,374.7,136.2,374.7,137.5z M366.5,214.2
		c0-0.4-0.1-0.9-0.1-1.3c-0.9,0.2-1.7,0.4-2.6,0.6c0,0.3,0.1,0.5,0.1,0.8C364.8,214.2,365.7,214.2,366.5,214.2z M371.2,166.4
		c-0.1-0.4-0.1-0.9-0.2-1.3c-0.8,0.2-1.7,0.4-2.5,0.6c0,0.2,0.1,0.5,0.1,0.7C369.5,166.4,370.3,166.4,371.2,166.4z"/>
	<path d="M618.2,178.2c-5.1-3.4-10.1-2-15.3-2.4c0,14.5,0,28.6,0,43.4c-1.7-0.6-2.9-1-4.3-1.4c-0.1,0.1-0.4,0.7-0.8,0.7
		c-5.8,0.1-11.7,0-18,0c-2.8-2.2,1.8-5,0.1-8.2c-1.5-2.8-0.3-7-0.3-10.6c0-3.3,0-6.7,0-10c0-3.3,0-6.7,0-10c0-3.6,0-7.2,0-10.8
		c0-3.3,0-6.7,0-10s0-6.7,0-10s0-6.7,0-10c0-3.6,0-7.2,0-10.8c0-3.3,0-6.7,0-10.1c0.7-0.7,1.4-1.4,2.4-2.3c14.1,0,28.4-0.1,42.8,0
		c8.1,0.1,12.9,5.1,15.1,13.1c2.2,7.8,0.6,15.5,1.5,23c-1.1,1.1-2,2-2.7,2.7c0.5,1.7,0.9,3.2,1.4,5c-2.5,2.2-4.9,4.3-7,6
		c2,2,4.4,4.4,5.8,5.8c3.1,13.6,3.4,16.2,0.5,28.7c-0.9,0.3-1.8,0.6-2.8,1c2.8,1.4,4.7,3.6,4.5,6.4c-0.3,4.6,1.8,7.8,5.1,11.3
		c-8.5,0-16.4,0-24.5,0c-2.6-2.5-3.8-5.8-3.7-9.8C618.4,198.8,618.2,188.5,618.2,178.2z M593.6,140.2c1.2-1.4,2.5-2.9,3.8-4.4
		c-0.3-0.2-0.9-0.9-1.5-1.4c-0.8,0.6-1.3,1-1.9,1.4c-0.7,0.4-1.5,0.6-2.4,1C592.5,138.4,593.1,139.4,593.6,140.2
		c-1.1,0.3-2.1,0.5-1.6,0.4c0.1,0.7,0.4,1.9,0.6,3.1c0.3-0.2,0.5-0.3,0.8-0.5C593.5,142.3,593.5,141.4,593.6,140.2z M609,121.9
		c-1.2,1-2.3,2-3.4,3c1.8,1.8,3.1,3.2,4.6,4.7c0.9,0,2.2,0,7.2,1.8c-1-1.2-1.4-1.8-1.6-1.7c-0.7,0.1-1.4,0.4-2.2,0.7
		c0.9,0.3,1.9,0.5,0-0.7c-1.2-1.2-2.3-2.3-3.7-3.7c1.6-0.7,2.7-1.2,3.6-1.6c-0.8-2.2-4.2,0.8-4.6-3.6c0,0.4,0,0.9,0.1,1.3
		c1-0.2,2-0.4,3-0.6c0-0.3-0.1-0.7-0.1-1C610.9,120.6,609.9,120.6,609,121.9z M618,155.3c0-6.5,0-12.9,0-18.9
		c-0.8-0.8-1.3-1.3-2.1-2.1c-4.2,0.1-8.7-0.2-12.9,0.1c0,8,0,15.4,0,23.1C608.1,157.1,613.1,158.5,618,155.3z M626,201.5
		c-3.4-0.7-3.2-4-6.6-2.7C620.6,200.5,621.3,202.6,626,201.5z M626,146c1.1-0.5,2.2-1,3.2-1.5c-0.2-0.4-0.4-0.7-0.6-1.1
		c-1.9,0.1-3.8,0.2-6.7,0.4C624.3,145.1,625.6,145.8,626,146z M602,130.8c0.3,0,1.3,0,2.5,0c-0.2-1.1-0.3-1.7-0.7-3.9
		C602.8,128.9,602.4,130,602,130.8z M587.4,202.5c0,0.3,0,0.5,0,0.8c1,0,2.1,0,3.1,0c0-0.3,0-0.5,0-0.8
		C589.4,202.5,588.4,202.5,587.4,202.5z M630.3,205c0-0.4-0.1-0.9-0.1-1.3c-0.9,0.2-1.7,0.4-2.6,0.6c0,0.3,0.1,0.5,0.1,0.8
		C628.6,205,629.4,205,630.3,205z M588.9,206.4c0-0.3,0-0.5,0-0.8c-1,0-2.1,0-3.1,0c0,0.3,0,0.5,0,0.8
		C586.9,206.4,587.9,206.4,588.9,206.4z"/>
	<path d="M27.2,218.8c-6.9,1.2-13.9-1.4-20.4,1.9c-0.7-0.7-1.4-1.4-2-1.9c-0.7-5.1-2.2-10-1.8-14.8c2.8-33.7,0.7-67.4,1.4-101.1
		c0-0.2,0.3-0.4,0.7-0.9c14.9,0,30-0.3,45.1,0.1c6.5,0.2,12.8,2.3,16.2,8.7c1.6,3,2.8,6.1,2.8,9.6c-0.1,13.1,0,26.2,0,39.6
		c-2,2.5-4.1,5.2-6.2,7.8c-3.1,0.7-5.9,1.5-8.8,1.9c-3.2,0.4-6.5,0.9-9.7,0.7c-2.3-0.2-4.4,1.4-7.2-0.4c-2.2-1.4-6-0.3-9.8-0.3
		c0.4,1.4,0.7,2.7,1.1,4.2c0,0-0.6,0.3-0.6,0.7C27.8,189.2,27.5,203.7,27.2,218.8z M46.5,134.6c2.4-4.1,1.3-8.4-1.2-12.6
		c-5.3-2-7.3-2.1-17.7-1c0,10.4,0,20.9,0,31.6c6,0,11.8,0,17.7,0c0.6-1.1,1.2-2.4,2.2-4.2C47,144.3,48.5,139.5,46.5,134.6z"/>
	<path d="M127.2,117.3c2.7,4.4,2.7,4.4,0.6,8.4c3.2,2.7,0.3,6.3,2.3,9.9c-11.5,0-22.1,0-33,0c2.6,6.3,0.6,12.3,1.6,18.5
		c8.1,3.5,16.8,0.8,25.6,2c0,5.8,0,11.8,0,18.4c-7-0.7-14,1-20.9-1.2c-0.5,0.5-1.2,1.3-1.9,2c0.2,2.6,1.5,4.9,0.1,7.6
		c-3.5,7.1-3.3,7.2-3,17.7c10.6,0,21.3,0,32.1,0c0,6.4,0,12.2,0,18c-0.6,0.6-1.2,1.2-2,2c-12.2,0-24.8,0-37.3,0
		c-1.1,1.6-2.1,3.1-3.5,5.2c0-1.8,0-3,0-4.8c-4.2,0-8.2,0-12.6,0c0-6.7,0-12.8,0-18.9c0-14.6,0.5-29.3-0.1-43.9
		c-0.6-13.2-2-26.4-1.2-40.1c0.9-1.5,3-3.2,4.7-2c2.2,1.6,4.4-0.1,5.4,0.5c2.3,1.4,4.5,0.7,6.6,0.8
		C102.8,117.4,114.9,117.3,127.2,117.3z M111,214.2c0.4,0,0.9,0,1.3-0.1c-0.2-0.9-0.4-1.7-0.6-2.6c-0.3,0-0.5,0.1-0.8,0.1
		C111,212.5,111,213.3,111,214.2z"/>
	<path d="M510.2,218.9c0.5-0.7,0.8-1.1,0.9-1.4c1.1-5.4,2.5-10.8,3.6-16.2c0.8-4,1.6-8,2.8-11.9c0.6-1.9,0.1-4,0.5-6
		c0.3-1.9,1.4-3.7,1.4-5.5c0-8,4.1-15.3,3.2-23.4c1.9-2.6,1.2-5.7,1.6-8.6c0.4-2.5,1.7-4.9,2.6-7.4c-2.8-3,0.5-5.7,0.6-8.6
		c0.2-4.7,1.9-9.3,2.9-14c6.3,0,12.1,0,18.6,0c0.7,2,1.4,4,2.2,6.3c0.6-1.9,1.1-3.5,2.1-6.9c1.5,3.8,2.8,5.8,3.1,8
		c0.4,2.9,1.1,5.8,1.3,8.6c0.3,3,2,5.6,1.9,8.6c-0.2,3,2.2,5.4,1.7,8.6c-0.3,1.7,1.1,3.6,1.4,5.5c0.6,4.2-1.1,7.9-2.9,11.8
		c1,0.1,1.7,0.1,2.4,0.2c0.4-1,0.7-1.9,1-2.8c0.4,0.2,1,0.4,1,0.6c0.4,5.6,2.4,10.9,3.5,16.4c1.1,5.3,1.4,10.9,4,16
		c1.1,2.2,0.2,5.4,0.2,8.8c-1-0.8-1.6-1.2-2.3-1.8c-0.8,1.8-1.7,3.6-2.9,6.2c1.9-0.8,2.8-1.4,3.8-1.6c0.7-0.2,1.5,0,2.7,0
		c0.7,3.4,1.4,6.9,2.2,10.5c-6.9,0.9-13.3-0.6-20.3,1.1c-0.4-0.6-1.4-2-3.3-4.5c-0.5-2.6,1.4-7.4-2.1-11.5c-4,0-8.3,0-12.8,0
		c-0.3,0.7-0.5,1.7-0.9,2.5c-0.2,0.4-0.7,0.7-1.1,1.2c0.1,4.4,0.6,9-3.1,12.4C524.9,218.1,517.9,219.6,510.2,218.9z M547.7,185
		c-0.7-4.8-1.3-8.9-1.9-13.1c-0.7-4.3-1.5-8.6-2.3-13.5c-1.8,9.2-3.5,17.8-5.2,26.6C541.2,185,544,185,547.7,185z M563.1,206.8
		c0.3,0,0.5,0,0.8,0c0-2.1,0-4.1,0-6.2c-0.3,0-0.5,0-0.8,0C563.1,202.6,563.1,204.7,563.1,206.8z M561.4,197.3
		c0.4-0.1,0.9-0.1,1.3-0.2c-0.2-0.8-0.4-1.7-0.6-2.5c-0.2,0-0.5,0.1-0.7,0.1C561.4,195.6,561.4,196.4,561.4,197.3z M558.3,212.7
		c0.4-0.1,0.9-0.1,1.3-0.2c-0.2-0.8-0.4-1.7-0.6-2.5c-0.2,0-0.5,0.1-0.7,0.1C558.3,211,558.3,211.8,558.3,212.7z"/>
	<path d="M293.7,162.5c-0.4-0.8-0.8-1.7-1.2-2.5c0.7-0.8,1.2-1.3,1.8-2c-0.4-0.3-1-0.7-1.1-1c-0.1-6.9,0-13.7,0-20.8
		c0.5-0.9,1.1-2.2,1.8-3.6c0.5,1.1,1,2.2,1.5,3.1c0.6,0,1.1,0,2.5,0c-0.7-1-1-1.6-1.5-2.3c0.5-0.9,1.1-1.9,1.6-2.9
		c-0.2-0.3-0.5-0.6-0.7-0.8c-0.8,0.5-1.7,0.9-3,1.7c-0.8-0.7-1.7-1.5-2.7-2.3c0-3.7,0-7.5,0-11.5c17.7,0,35.4,0,53.7,0
		c0.1,2.7,0.1,5.7,0.2,8.6c0,3,0,6.1,0,9.4c-10.2,0-20.2,0-30.5,0c0,6,0,11.9,0,18c0.8,0.4,2,1.1,3.4,1.8c4-1.8,8.1-1.8,12,0.7
		c0.8-0.7,1.3-1.2,1.9-1.7c2.7,3,6.2,0.7,9.7,1.7c0,5.2,0,10.7,0,16.3c-8.9,1.3-17.7,2.7-28.1,1.7c1.2,1.4,1.7,2,2.2,2.6
		c-0.4,0.4-1.1,0.9-1,1.1c1.1,3.2-1.3,6.2-0.4,9.3c0.2,0.7,0.9,1.2,1.4,1.9c-1,0.5-2,0.9-3,1.4c0.5,0.6,1,1.1,1.5,1.7
		c-0.5,0.5-0.9,1.1-1.5,1.7c1,0.4,1.9,0.7,3.1,1.1c0,1.6,0,3.4,0,5.3c10.7,0,21.2,0,31.4,0c0.9,1,1.7,1.7,2.4,2.5
		c0,0.4,0.3,1.2,0.1,1.4c-2.5,2.5-1.7,4.8,0.8,8c-1.4,0.7-2.8,1.4-4.3,2.1c1,1.3,1.4,1.8,2.1,2.8c-0.8,0.4-1.6,0.8-2.5,1.2
		c0.2,0.3,0.4,0.6,0.5,0.9c-2.8,0-5.6,0-8.3,0c-2.6,0-5.1-0.1-7.7,0c-2.3,0.1-4.6,0.6-6.8,0.8c-2.7,0.3-5.5,0.5-8.2,0.6
		c-2.8,0.1-5.7,0.1-8.5,0c-2.5-0.1-5-0.2-7.5-0.4c-0.8-0.1-5.4,0-6.5,0.4c0-8.1,0.2-16,0-23.9c-0.3-9.9-1-19.8-1.4-29.7
		C292.8,165.7,293.4,164.3,293.7,162.5z M310,196.2c0,0.5,0.1,0.9,0.1,1.4c1.3-0.2,2.7-0.4,4-0.6c0-0.3-0.1-0.5-0.1-0.8
		C312.7,196.2,311.4,196.2,310,196.2z M299.2,211.7c0,0.5,0.1,0.9,0.1,1.4c1.3-0.2,2.7-0.4,4-0.6c0-0.3-0.1-0.5-0.1-0.8
		C301.9,211.7,300.6,211.7,299.2,211.7z M334.4,167c0,0.3,0,0.5,0,0.8c1,0,2.1,0,3.1,0c0-0.3,0-0.5,0-0.8
		C336.5,167,335.5,167,334.4,167z"/>
	<path d="M488.7,28.5c3.4,4.2,8.1,7.2,13,10.4c7.5,4.9,14.1,11.1,20.5,16.3c0.6,3.6,2,6.1,0.5,8.8c2.9,2.7,1.2,6.2,1.5,9.4
		c0.3,3.1,0.1,6.2,0.1,9.4c1,0.5,2,1,3.1,1.5c-2.6,2.6-5.2,5.2-7.9,7.9c1,0.3,1.8,0.6,2.7,0.9c0.5,1.8,1,3.6,1.5,5.4
		c-0.9,0.5-2.2,1.1-3.8,2c-0.2-1.8-0.4-3.7-0.6-5.8c-0.5,0.1-0.9,0.1-1.2,0.3c-3.9,3.6-8.7,5.2-13.9,5.5c-3.8,0.2-7.7,0.1-11.6,0
		C476,100,468.1,85.8,470.5,73c2.7-1.7-1.5-2.5-0.5-4.3c0.7-1.2,0.1-3,0.1-4.9c6,0,12,0,17.9,0c0.7,1.3,2,2.5,2.1,3.7
		c0.3,4.3,0.1,8.7,0.1,13.9c1,0.7,2.5,1.7,5.1,3.4c0.5,0,2.8,0,5.1,0c1-1,2.1-2.1,2.6-2.6c4.2-7.3,1.3-13.5-0.6-19.3
		c-6.3-4.2-12-8.3-18-12c-4.1-2.5-7.4-5.5-9.7-9.8c-1.6-3-3.2-5.9-3.2-9.5c0-5.6,0-11.3,0-16.9c2.9-2.5,3-6.9,7-8.7
		c3.3-1.4,6-4,9.1-6c3.9,0.5,8.1-1.1,13.5,2.5c0.8-0.3,0.5-0.9,0.3-0.8c-0.7,0.1-1.4,0.4-2.2,0.7c0.9,0.3,1.9,0.5,1.9,0.2
		c0.5-3.9,3.2-2.2,5.9-1.6c5.7,1.1,9.7,4.6,13.3,8.9c3.1,6.5,1.8,13.6,2.1,21.2c-3.1,0-6.1-0.2-9.1,0.1c-2.9,0.3-6.2-1.4-9,1.9
		c-1-5.3,0-10.3-0.6-15.2c-3.5-2.7-7.5-2.2-11.5-2.1c-1.5,2.6-2.7,5.2-2.4,8.3C490.2,25.1,489.2,26.5,488.7,28.5
		c0,0.1,0-0.3-0.1-0.8c-1.5,0.2-3,0.4-4.5,0.6c0,0.3,0.1,0.7,0.1,1C485.7,29.2,487.2,29.2,488.7,28.5z M477,72.4
		c1.3-0.7,2.6-1.5,4-2.3c-1.2-1-2.1-1.8-3.6-3c-0.9,1.5-1.5,2.5-2.2,3.6C475.4,70.9,475.9,71.4,477,72.4z M517.7,93.5
		c0.1-2.1,0.1-3.3,0.3-4.4c0.2-0.9,0.8-1.6,1.2-2.4c-0.3-0.2-0.6-0.4-0.8-0.6c-1.2,0.9-2.3,1.7-3.3,2.4
		C516,90.2,516.6,91.4,517.7,93.5z M485.5,14.1c1.9-0.3,3.3-0.4,5.7-0.8c-1.4-1.8-2.3-2.9-3.2-4.1C487.2,10.7,486.5,12.1,485.5,14.1
		z M512.9,65c0-3.2,0-4.8,0-6.5c-1.1,0.2-1.8,0.3-2.8,0.5c0.6,0.8,1.1,1.2,1.4,1.7C511.9,61.6,512.1,62.5,512.9,65z"/>
	<path d="M671.5,148.1c0.7,0.1,1.1,0.1,2.2,0.2c0,2.4,0,4.8,0,7.8c2.8-2.9,3.3-5.2,3.5-8.5c0.3-3.5,1.4-7,2.1-10.4
		c0.3-1.4,0.7-2.8,1-4.2c0.7-0.2,1.4-0.4,2.3-0.6c-3.3-5.5,0.5-10.7,0.5-16.2c2.4-0.5,5.3-1.9,7.3-1.2c2.9,1.1,5.5,0.4,8.2,0.6
		c2.8,0.3,5.6,0.1,8.8,0.1c-1,3.3-2.1,6.3-2.8,9.4c-1.5,6.3-2.4,12.8-5.7,18.5c-1.3,2.2,0.9,5.3-2.1,6.9c-0.2,8.4-4.8,15.5-6.7,23.5
		c-1.6,7.1-4.4,13.9-4.2,21.4c0.2,7.7,0.1,15.4,0.1,23.7c-2.5-0.2-4.9,0.9-6.9-1.3c-5,3.6-10.6-0.7-16.5,1.6
		c0.5-1.7,0.8-2.7,1.3-4.5c-0.5-0.9-1.3-2.5-1.7-3.4c0.3-3.2,0.4-5.8,0.8-8.4c0.3-2.6-1.2-5.7,1.3-7.7c-2.7-4-0.4-8.5-1.5-12.5
		c-1.1-3.8-2.8-7.4-4.3-11.1c1-0.4,1.9-0.7,4.1-1.5c-4.3,0.1-5.1-2.7-5.7-4.5c-1.9-5.4-3.2-11-4.8-16.5c-0.6-2.1-0.8-4.3-1.6-6.3
		c-2.2-6.1-3.4-12.5-4.6-18.9c-0.4-1.9-1.2-3.6-2.1-6c2.5-1.3,4.8-2.6,7-3.8c2.4-1.3,4.8,2.6,7.5-0.4c1.4,1.3,2.8,2.5,4.7,4.2
		c0.9-1.6,1.5-2.6,2.2-3.8c2.6,8.9,3.6,18,6.4,26.7C672.5,143,671.6,145.5,671.5,148.1z M681.8,153.9c-1.2-1.1-2-1.9-3.9-3.8
		c0.5,2.6,0.7,3.4,0.9,4.4C679.9,154.3,680.5,154.2,681.8,153.9z M670.4,164.9c-0.1-0.4-0.1-0.9-0.2-1.3c-0.8,0.2-1.7,0.4-2.5,0.6
		c0,0.2,0.1,0.5,0.1,0.7C668.7,164.9,669.6,164.9,670.4,164.9z"/>
	<path d="M423.6,17c1.7-0.9,1.8-0.6,2-0.6c2.7,0.3,5.5,0.6,8.8,0.9c0.7,3.1,0.2,6.6,0.3,10.1c0.1,3.6,0,7.2,0,10.8
		c0,3.3,0.1,6.7,0,10c-0.1,3.4,0.8,6.9-1.2,10c2.5,3.2,0.8,6.9,1.1,10.3c0.3,3.6,0.1,7.2,0.1,10.8c0,3.3,0,6.7,0,10
		c0,3.5,0,7.1,0,10.8c-3.7,0-6.9,0-9.8,0c-1.3-1.8-2.5-3.3-3.7-4.8c-1.1-1.5-2.2-3-3.3-4.6c-3.7,1.8-0.3,3.3-0.2,5
		c-0.8,1.4-1.6,3.1-2.4,4.6c-0.8-0.2-1.6-0.2-1.7-0.4c-2.9-9.4-5.2-19-6.9-28.8c-0.8-4.7-2.8-9.2-3.4-15.8c-2,6.5-0.4,11.1-0.2,15.7
		c0.1,1.9,0.9,4.3,0.1,5.6c-1.8,2.7-1.6,6-0.7,8c2.2,5,0.7,9.9,1.4,15.2c-5.7,0-11.2,0-17.1,0c0-3.5,0.6-7.2-0.2-10.6
		c-0.8-3.4,0.4-6.4,0.2-9.6c-0.2-3.3-0.4-6.7,0.1-10c0.5-3.2-1.5-6.1-0.3-9.6c1-3.3,0.2-7.1,0.2-10.7c0-3.6,0-7.2,0-10.8
		c0-3.3,0-6.7,0-10c0-3.6,0-7.2,0-11c0.7-0.6,1.4-1.3,2.6-2.2c0.7,1.1,1.6,2.3,2.4,3.5c1-0.9,1.5-1.4,2-1.8c0.6,0.5,1.1,0.9,1.6,1.4
		c1-1,1.9-1.9,2.8-2.8c0.8,0.5,1.5,1,2.6,1.6c0.8-0.6,1.5-1.2,1.9-1.4c1.8,0.6,3.3,1.1,4.9,1.6c1,3.1,2.1,6.5,3.5,10.8
		c-0.3,0.3-1.3,1.3-2.3,2.3c0.5,0.1,1.2,0.2,2,0.4c1.1,2.3,2.6,4.5,2.4,7.4c-0.1,1.5,1,3.1,1.4,4.8c0.6,2.3,1,4.7,1.6,7.1
		c0.5,2.1,0.8,4.3,1.6,6.3c0.5,1.5,1.6,2.7,2.2,3.7c2.3-2.3,4.3-4.2,6-5.9c-0.3-0.2-1.6-0.8-3-1.5c-0.4,0.8-0.9,1.8-1.4,3
		c-1.4-2.9-2.8-5.7-4.4-8.8c2-0.4,3.6-0.7,6.9-1.4c-3.2-0.6-4.6-0.8-6.2-1.1c0-7.9,0-15.8,0-23.2C420.3,19.4,422.5,17.6,423.6,17
		c-1.2,2.5-1.1,3.5-1.1,4.3c1.2,0.4,2.1,0.7,3,1c-0.6,0.7-1.1,1.2-1.9,2.1c1.9,0,2.3,3.8,4.8,1.2c-0.5-0.6-1-1.1-1.4-1.6
		c0.5-0.6,0.9-1.1,1.6-1.9C426.5,20.8,424.5,19.6,423.6,17z M400.2,50.7c3,0,5.5,0,9.3,0c-2.9-1.4-4.7-2.2-6.3-3
		c-1,1-1.8,1.8-0.5,6.1c-1.3-1.3-2-2.1-3.2-3.3c-0.1,1.4-0.2,2.4-0.3,3.6C400.5,54,401.2,53.9,400.2,50.7z M427,29
		c0-0.3,0-0.5,0-0.8c-1,0-2.1,0-3.1,0c0,0.3,0,0.5,0,0.8C424.9,29,425.9,29,427,29z M432.9,49.2c0-0.4-0.1-0.9-0.1-1.3
		c-0.9,0.2-1.7,0.4-2.6,0.6c0,0.3,0.1,0.5,0.1,0.8C431.1,49.2,432,49.2,432.9,49.2z M409.7,47.6c0-0.4-0.1-0.9-0.1-1.3
		c-0.9,0.2-1.7,0.4-2.6,0.6c0,0.3,0.1,0.5,0.1,0.8C408,47.6,408.9,47.6,409.7,47.6z"/>
	<path d="M95.4,83.4c10.5,0,20.3,0,30.5,0c0.5,2.9,0.8,5.9-0.1,8.8c-0.9,2.8,2,5.3,0.7,6.9c-2.9,3-4.7-0.8-7.3,1
		c-1.8,1.2-5,0.3-7.5,0.3c-2.5,0.1-4.5-1.6-7.1-1.8c-2.5-0.2-4.8,2.9-7.2,0.2c-2.1,1.7-4.3-0.1-6.4,0c-2.6,0.1-5.1,0-7.7,0
		c-2.5,0-5.1,0-7.8,0c0-7.7,0-15.1,0.1-22.5c0-0.6,0.9-1.1,1.5-1.7c-2.9-4.4-1.4-9.3-1.6-14c-0.1-1.3,1.2-2.7,1.2-4
		c0-1.3-1.2-2.6-1.2-3.9c-0.2-3.8-0.2-7.7,0-11.6c0-1.1,0.8-2.2,1.2-3.4c-0.3-0.4-0.8-0.9-1-1.1c0.4-3,1.1-5.6,1.2-8.3
		c0.1-8.2,0.1-16.4,0.1-25.1C88,3.2,99,3,110,3.3c3.4,0.1,6.2-0.9,9.2-3c1.8,1.1,3.8,2.3,5.7,3.4c-0.4,2.8-3.3,4.8-0.6,7.9
		c1.1,1.3,0.2,4.3,0.2,6.5c-0.6,0.6-1.2,1.2-1.3,1.3c-3,0.3-5.7,0.3-8.2,0.8c-3.2,0.7-5.7-1.5-8.6-1.6c-3,0-6.1,0-8.9,0
		c-0.5,3.3-1,6.2-1.6,10c1.3,1.6,2.2,4.2-0.8,6.9c1.8,1.7,3.4,3.1,5,4.7c1.8-0.7,3.6-3.1,5.5-0.1c2-2.4,4.7-1.2,7.1-1.4
		c2.3-0.2,4.6,0,6.7,0c0.7,0.7,1.3,1.3,2.1,2.1c0,4.6,0,9.4,0,14.7c-7.9,0-16,0-23.5,0c-1.1,1.1-1.6,1.6-2.5,2.5
		C95.4,66.2,95.4,74.8,95.4,83.4z"/>
	<path d="M373,19.2c3,4.4,5.2,9.1,4.7,14.9c-0.4,5.4-0.1,10.8-0.1,16.3c-1.9,2.5-3.9,5.1-6,7.9c1.1,0.8,2.4,1.7,4.1,2.9
		c0.3,1.2,0.8,3,1.4,5.1c-1.1,0.2-2.5,0.4-4,0.6c0.3,0.5,0.4,1.1,0.7,1.2c1.8,0.6,3.6,1,5.1,1.4c0,4.6,0,8.4,0,12.2
		c-1.4,0.2-2.6,0.3-4.6,0.5c0.6,1.6,1.2,3.1,1.8,4.7c-0.4,0.5-0.8,1.1-1.3,1.8c0.1,0.2,0.2,0.9,0.4,0.9c3.3,0.3,4.1,2.4,3.8,5.9
		c1.4,1.1,3.2,2.5,6,4.6c-8.2,0-15.1,0-22.3,0c-3.6-7.7-1.9-16.3-2.1-24.8c-0.1-3.9-0.4-7.9-3.9-10c-1.9-1.2-5.2-0.2-8.2-0.2
		c-1.3,11.7,0.4,23.2,1.7,35c-6.6,0-12.6,0-18.8,0c0-28.1,0-56,0-84.6c3.5,0.2,7,0.2,10.4,0.7c3.1,0.4,6.1,1.4,9.7,2.2
		C356.6,16.3,360.5,16.4,373,19.2z M356.9,49.4c2.6-3.8,2.6-3.8,1.9-16.4c-2.5-0.7-5.1-1.5-7.7-2.2c-1.3,1.1-2.5,2.2-3.6,3.2
		c-1.2-1.2-2.1-2.1-3-3c-0.7,0.7-1.4,1.5-2.3,2.3c2.1,1,4.1,2.1,6.2,3.1c-2.1,2.1,3,3.8,0.3,5.8c1.6,1.8,1.6,3.5-0.1,5.1
		C351,50.6,354.2,49.2,356.9,49.4z M372.6,69.5c-0.3,0-0.5,0-0.8,0c0,2.6,0,5.1,0,7.7c0.3,0,0.5,0,0.8,0
		C372.6,74.6,372.6,72.1,372.6,69.5z M361.8,24.4c-2.9,1.3-4.4,1.9-4.8,2.1c0.3,0.8,0.7,1.9,1.3,3.5
		C359.5,28.1,360.2,26.9,361.8,24.4z M355.8,51.2c-0.4,0.1-0.9,0.1-1.3,0.2c0.2,0.8,0.4,1.7,0.6,2.5c0.2,0,0.5-0.1,0.7-0.1
		C355.8,52.9,355.8,52.1,355.8,51.2z"/>
	<path d="M460.9,134c0,4.1,0,7.4,0,10.7c0,3.1,0,6.2,0,9.2c0,3.3,0,6.7,0,10c0,3.1,0,6.2,0,9.2c0,3.3,0,6.7,0,10
		c0,3.1-0.1,6.2,0,9.2c0.1,3.1-0.7,6.3,1.2,9.2c-2.3,2.7-0.9,5.8-1.1,8.8c-0.2,3.3-0.1,6.6-0.1,10.2c-7-0.3-13.8,1-20-2.4
		c0.4-0.4,0.7-0.7,1.6-1.6c-1.3-0.6-2.5-1.3-3.7-1.9c0.5-4.3,1.2-7.7,1.3-11.2c0.1-3.3-0.6-6.6-0.8-9.9c-0.1-3.3-0.2-6.7,0-10
		c0.3-3.4-1.3-7.1,1.1-9.7c-2.1-4.8-0.6-9.7-1.2-14.6c1.6-0.2,3-0.5,4.4-0.7c0-0.2,0.1-0.4,0.1-0.7c-1.2-0.2-2.4-0.5-4.2-0.8
		c-0.6-3.4-0.1-7.2-0.2-10.9c-0.1-3.8,0-7.6,0-11.1c-3.4-3.4-6.6,2.9-9.7-0.5c-3,1.6-5.9,2.4-8.4-0.7c-0.7-5.4-1.4-10.7-2.2-16.6
		c5.1,0,9.6-0.1,14.2,0c12.5,0.3,24.9-2.6,37.4-1.5c1.6,0.1,3.3,0.5,5.7,0.9c0.1-0.1,1.1-0.6,1.9-1.1c0.5,0.4,0.9,0.6,0.9,0.7
		c0,5.8,0,11.7,0,17.8C473.4,134,467.5,134,460.9,134z M430,123.9c0,0.3,0,0.5,0,0.8c1,0,2.1,0,3.1,0c0-0.3,0-0.5,0-0.8
		C432.1,123.9,431.1,123.9,430,123.9z"/>
	<path d="M271.2,219.1c-2.6,0-4.6,0-6.6,0c-2.1,0-4.1,0-6.2,0c-1.7,0-3.6-0.6-4.8,1.4c-1.6-2.2-3.2,0.7-5.2-0.1c0-2.3,0-4.7,0-7.1
		c0.9-0.3,1.8-0.6,3.3-1.2c-1.4-0.5-2.2-0.7-3.3-1.1c0-25.3,0-50.6,0-75.9c-5.9-3.2-11.3,2.3-17.2,0.2c-2.3-5.7-1.3-11.7-1.6-18
		c7.9,0,15.3-0.1,22.7,0.1c1.4,0,2.7,0.9,4.1,1.2c0.7,0.2,1.6,0.5,2.2,0.2c5.5-2.9,11.4-0.9,17.1-1.5c0.9-0.1,1.7-0.8,2.6-1.3
		c2.2,2.7,4.6,1,7.2-0.4c0.8,0.7,1.5,1.3,2.3,2c1.6,4.2-1.2,9,1.7,12.9c-0.7,1.3-1.3,2.6-2,3.8c-0.6-0.5-1.1-1-1.7-1.5
		c-4.9,2.8-10.3,1-15.9,1.8c-1.2,9.2,2.1,18.3,1.5,27.6c-0.6,9.2-0.1,18.5-0.1,27.7C271.2,199.3,271.2,208.8,271.2,219.1z
		 M265.6,123.2c-4.8,0.9-8.8,1.6-12.7,2.3C257,126.3,261.3,127.6,265.6,123.2z M266.3,132.5c0-0.5,0-0.9,0-1.4
		c-1.4,0.2-2.8,0.4-4.1,0.6c0,0.3,0,0.5,0.1,0.8C263.5,132.5,264.9,132.5,266.3,132.5z M271.5,120.7c0,0.5,0,0.9,0,1.4
		c1.4-0.2,2.8-0.4,4.1-0.6c0-0.3,0-0.5-0.1-0.8C274.2,120.7,272.8,120.7,271.5,120.7z M236,119.1c0,0.4,0,0.9,0.1,1.3
		c0.9-0.2,1.7-0.4,2.6-0.6c0-0.3-0.1-0.5-0.1-0.8C237.7,119.1,236.8,119.1,236,119.1z M243.4,120.8c0,0.3,0,0.5,0,0.8
		c1,0,2.1,0,3.1,0c0-0.3,0-0.5,0-0.8C245.5,120.8,244.5,120.8,243.4,120.8z M278.9,125.4c0,0.3,0,0.5,0,0.8c1,0,2.1,0,3.1,0
		c0-0.3,0-0.5,0-0.8C281,125.4,279.9,125.4,278.9,125.4z M277.6,128.4c0.1,0.4,0.1,0.9,0.2,1.3c0.8-0.2,1.7-0.4,2.5-0.6
		c0-0.2-0.1-0.5-0.1-0.7C279.3,128.4,278.5,128.4,277.6,128.4z"/>
	<path d="M180.2,69.6c5.8,0,11.1,0,17.1,0c-0.7,6.3,0.5,12.2,2.4,17.7c3.5,0.9,6.2,1.4,8.2-1.7c0-4.5,0-9.1,0-14.1
		c-2.6-2.1-5.2-5.4-8.5-6.4c-4.5-1.3-7.3-4.8-10.9-7.1c-3-1.9-4.5-6.2-6.7-9.4c0.3-0.4,0.7-0.7,1.3-1.4c-0.8-1.6-2.4-3.4-2.4-5
		c0-1,0.9-1.9-0.4-2.7c2.9-2.9,0.3-6.8,1.9-9.9c1-1.9,1.5-4.2,2.8-5.7c3.2-3.8,7.5-6.3,12.5-6.8c2.9-0.3,6,0.7,8.6-1.6
		c4.2,1,8.8,1.2,12.3,3.8c5.1,3.8,9.1,8.6,8.1,15.9c-0.4,3-0.1,6.1-0.1,9.4c-6.1,0-11.9,0-18.3,0c0-3.7,0-7.6,0-11
		c-3.3-3.6-6.1-3.4-9.2-0.6c0,2.6,0,5.4,0,8.1c0.3,4.5,4.7,5.2,7.4,7.5c2.1,1.8,5,2.8,7.3,4.5c2.4,1.7,4.7,3.7,6.8,5.8
		c2,2.1,3.6,4.5,5.8,7.2c0,7.6,0,15.7,0,24.8c-2.1,2.7-4.8,5.9-6.7,8.3c-6.5,4-13.1,1.9-19.9,4.1c-2.3-0.7-5.8-1.6-9.1-2.8
		c-7.5-2.7-9.5-9.2-10.3-16.1C179.8,79.6,180.2,75,180.2,69.6z"/>
	<path d="M147.5,100.1c-6.9,0-13.2,0-19.6,0c1.5-6.8,3.7-13.3,4.3-19.9c0.6-7.1,3.1-13.8,3.9-20.9c0.7-6.6,3-13.2,3.9-19.8
		c0.9-6.8,3.7-13.3,3.3-20.1c1.3-2,3.6-3.4,5.2-2.1c1.7,1.3,2.2,0.3,3.5,0c1.2-0.3,2.6,1.3,3.9,1.3c2.1,0,4.2-0.7,6.7-1.2
		c0.4,0.4,1.2,1.1,1.7,1.6c1.2,7.2,1.4,14.5,3.8,21c2.5,6.8,2.4,13.9,3.8,20.7c1.3,6.7,3,13.4,3.5,20.1c0.5,7,4.9,13.5,3.2,20.1
		c-2.1,0.4-4.7,1.4-5,0.9c-1.4-2.3-3.6,0.5-5.4-1.2c-1-1-3.9-0.2-6.2-0.2c-0.8-3.9-1.5-7.7-2.4-12c-2.7,0-6,0-9.7,0
		C146.4,91.3,148.5,96.3,147.5,100.1z M155.4,52.9c-0.9,6.3-4.6,12.6-2.4,19.6c0.6-0.5,1.1-0.9,1.7-1.4c0.7,0.4,1.3,0.8,2.9,1.9
		C156.8,65.6,156.1,59.3,155.4,52.9z M164.8,51.4c0,0.3,0,0.5,0,0.8c1,0,2.1,0,3.1,0c0-0.3,0-0.5,0-0.8
		C166.8,51.4,165.8,51.4,164.8,51.4z"/>
	<path d="M323.4,32.5c-8.2,0-16.1,0-24.2,0c0,4.6,0,8.9,0,13.3c0.6,0.6,1.3,1.3,1.9,1.9c3.2,1,6.8-1.3,9.5,1.7
		c2.7-3,6.3-0.8,9.7-1.7c0,4.6,0,8.9,0,13.7c-0.3,0.3-1.1,0.9-2.4,2c-5.2,0-11,0-16.8,0c-1,7.1-3,13.9-1.8,21.3c7.8,0,15.7,0,23.5,0
		c0.8,1.5,1.5,2.8,2.2,4.2c-0.3,0.6-1.1,1.3-1.1,2.1c0,0.9,0.8,1.7,1.2,2.6c-2.3,1.5-0.9,4-1.6,6.8c-7.1,0-14.5,0-21.9,0
		c-3.3,0-6.7-0.1-10,0.1c-1.6,0.1-3.2,0.8-5.3,1.4c-1.4-0.8-3.3-1.9-4.9-2.8c-0.4-0.8-0.8-1.2-0.8-1.6c-0.4-10.6,2.6-21.1,1.5-31.7
		c-0.2-1.9-2.1-3.8,0-5.7c-2.1-1.2-0.3-3.4-1.2-5.2c-1-1.8-0.3-4.5-0.3-6.8c0-2.1,0-4.1,0-6.2c0-2.3,0-4.6,0-6.9c0-2.3,0-4.6,0-6.9
		s0-4.6,0-6.9c0-1.2,0-2.4,0-4.4c2.8,0.6,5.7,2.3,7.1,1.4c2.3-1.4,4.4-0.7,6.6-0.9c2.5-0.2,5.1-0.1,7.7-0.1c2.3,0,5.3,0.9,6.8-0.2
		c2.1-1.5,4,0.2,6.1-1.1c1.6-1.1,4.5-0.2,6.6-0.2c0.7,0.7,1.2,1.2,2,2C323.4,22.1,323.4,26.9,323.4,32.5z"/>
	<path d="M584,23.2c0.6-2.6,1.4-5.1,2.1-7.5c5.7,0,11,0,16.7,0c-0.1,1.1-0.2,2-0.4,3.1c-0.9-0.8-1.4-1.3-2-1.8
		c-0.7,1.3-1.3,2.6-2,3.8c0.5,1.1,1.1,2.4,2.1,4.3c0.5-2,0.8-3.5,1.3-5.8c5.4,7.8,3.8,16.9,7.4,24.8c-1.7,0.3-3.1,0.6-4.6,0.9
		c0.1,0.4,0,0.9,0.2,1c1.8,1.3,3.6,2.5,5.3,3.7c0.5,5.5,1.1,10.7,3.2,15.8c1.1,2.7,0.4,5.8,0.9,8.8c1.5,7.9,4.5,15.6,3.7,24.7
		c-1.1-0.9-1.7-1.3-2.5-2c-5,4.4-10.1-0.4-16,0.2c0.6-3.6-0.4-6.9-1-10.5c-0.3,0-1.5,0-2.8,0c-0.3-0.9-0.7-1.6-0.6-2.2
		c0.4-1.6,1-3.2,1.6-5.2c-0.8-0.3-1.7-0.5-2.5-0.7c-1,2.8-1.8,5.2-2.6,7.6c-1.4,0.2-2.6,0.3-4.1,0.5c0,2.8,0,5.6,0,8.4
		c-1.1,0.4-2,0.7-3,1.1c0.4,0.7,0.7,1.4,1.2,2.4c-6,0-11.8,0-17.6,0c1.3-8,2.4-16.3,3.9-24.5c1.5-8.1,3.2-16.1,4.9-24.1
		c0.9-0.3,1.8-0.7,3.1-1.1c-1.3-0.6-2.3-1.1-3-1.4c1.6-8,3.1-15.8,4.7-24C582.4,23.3,583.3,23.2,584,23.2c0.4,1.1,0.6,2.1,0.5,1.6
		c0.7-0.1,1.9-0.4,3.1-0.6c-0.2-0.3-0.3-0.5-0.5-0.8C586.1,23.3,585.2,23.2,584,23.2z M596.3,70.7c-0.4-3.2-1.1-6.1-1.1-8.9
		c0-2.9-0.6-5.3-2.7-7.5c-0.7,5-1.4,9.8-2.2,15.2c1.4,0,2.4-0.2,3.3,0C594.6,69.8,595.4,70.3,596.3,70.7z M597,43.2
		c4.5,0.3,3.6-3.9,5.7-5.5c-2.9-1.6-5.8-3.5-10.2-1c1.8,1.2,2.8,1.9,4,2.6C596.6,40.6,596.8,42,597,43.2z M593.8,45.6
		c-2,0.6-4.7,1.4-2.3,4.2C592.3,48.3,593,46.9,593.8,45.6z M599.8,66c1.2-0.6,2.2-1.2,4.5-2.5c-2.7,0-3.6,0-4.5,0
		C599.8,64.5,599.8,65.2,599.8,66z M594,33.3c-4.1-1.8-3.6,0.1-3.3,2.1C591.8,34.6,592.8,34,594,33.3z M609.1,92.8
		c1.3-0.2,2-0.4,3-0.6c-1.2-0.8-2.2-1.4-3-2C609.1,90.8,609.1,91.4,609.1,92.8z M573.6,93.6c1.1-0.5,2.1-1,3.2-1.5
		c-0.2-0.2-0.4-0.5-0.5-0.7c-0.8,0-1.7,0-2.7,0C573.6,92.3,573.6,93,573.6,93.6z M591.7,30.7c0-0.4-0.1-0.9-0.1-1.3
		c-0.9,0.2-1.7,0.4-2.6,0.6c0,0.3,0.1,0.5,0.1,0.8C590,30.7,590.9,30.7,591.7,30.7z M604.1,95.4c-0.1-0.4-0.1-0.9-0.2-1.3
		c-0.8,0.2-1.7,0.4-2.5,0.6c0,0.2,0.1,0.5,0.1,0.7C602.4,95.4,603.2,95.4,604.1,95.4z M581.5,55.3c0.4,0,0.9-0.1,1.3-0.1
		c-0.2-0.9-0.4-1.7-0.6-2.6c-0.3,0-0.5,0.1-0.8,0.1C581.5,53.6,581.5,54.5,581.5,55.3z M590.5,38.3c0-0.3,0-0.5,0-0.8
		c-1,0-2.1,0-3.1,0c0,0.3,0,0.5,0,0.8C588.4,38.3,589.4,38.3,590.5,38.3z"/>
	<path d="M683.1,60c0,7.7,0,14.5,0,21.6c7.5,0,14.9,0,22,0c1,1,1.7,1.7,2.3,2.3c0,3.4,0,6.7,0,10.6c-1.4-0.5-2.5-0.9-3.7-1.4
		c-2.3,1.4-5,2-7.8-0.5c-0.9,1.3-1.8,2.7-3,4.5c-8.9,0-18.3,0-28.1,0c0-5.4,0-10.9,0-16.4c0.9-0.3,1.8-0.6,3.3-1.1
		c-1.4-0.5-2.2-0.8-3.6-1.2c0-3.8,0-7.9,0-11.9c0-14.1,0.1-28.2,0-42.4c0-3.1-0.6-6.2-1-9.8c0.3-0.3,1-1,1.4-1.4
		c10.3,0,20.2,0,30.2,0c0.4,0,0.7,0.7,1.1,1c2.2-2.8,5.2-1,7.7-1.6c0.8,0.8,1.6,1.6,2.3,2.3c0,4.1,0,8.2,0,12.5
		c-0.6,0.5-1.4,1.2-2.1,1.8c-2.1-0.8-4.2-1.6-6.4-2.4c-4.2,2.1-8.9,2.4-14.3,1.8c-0.2,0.2-0.9,0.8-1.6,1.5c2.7,4.6,0.4,9.8,1.7,15.1
		c3-0.3,6.1-1.4,8.8-0.7c3.2,0.8,5.7,0.3,9.5,0c-0.3-0.3,0.4,0.3,1.2,1.1c0,4.7,0,9.5,0,14.6C696.5,60,690.1,60,683.1,60z
		 M702.6,90.9c0.3-4.7,0.3-4.7-4.3-5.9c0.7,1,1.5,1.6,1.6,2.3c0.2,1.1,0.1,2.3,0.1,3.5C701.2,90.9,701.9,90.9,702.6,90.9z M692,20.5
		c-1.3,0-2.8,0-3.7,0c1.2,1.1,2.5,2.4,3.7,3.6C692,23.3,692,22.1,692,20.5z M701,17.3c-2.8,0-4.1,0-5.8,0c0.2,1.2,0.4,2,0.5,2.7
		C697.3,19.3,698.5,18.6,701,17.3z M672.2,82.2c0,0.3,0,0.5,0,0.8c1,0,2.1,0,3.1,0c0-0.3,0-0.5,0-0.8
		C674.3,82.2,673.2,82.2,672.2,82.2z M698,54.1c-0.3,0-0.5,0-0.8,0c0,1,0,2.1,0,3.1c0.3,0,0.5,0,0.8,0C698,56.1,698,55.1,698,54.1z"
		/>
	<path d="M218.1,224.5c-0.6-1.6-0.9-2.5-1.2-3.7c-4.2,0-8.5,0-13.5,0c0-2.2,0-4.2,0-6.1c0-19.5,0-39,0-58.5c0-2.6-0.5-5.3,1.2-7.7
		c-2.2-2.7-0.9-5.8-1.1-8.8c-0.2-2.8,0.1-5.6-0.1-8.5c-0.1-1.4-0.7-2.7-1.1-4.3c1.9-1.7,1.7-3.8-0.1-5.7c0.7-1.4,1.4-2.7,2-3.9
		c2.1-2.1,3.3,2.4,6,0.5c1.7-1.2,4.9-0.5,7.4-0.5c2.3-0.1,4.6,0,6.8,0c1.3,3.2,3.9,6,1.2,9.7c-0.7,1,2.4,3.2-0.3,4.7
		c3.2,4.5-1.3,8.7-0.4,13.3c0.9,4.7,0.2,9.7,0.2,14.6c0,0.2-0.3,0.4-0.4,0.6c-0.9,0.3-1.8,0.6-3.2,1.1c1.4,0.5,2.3,0.8,3.6,1.2
		c0,1.8,0,3.8,0,5.8c0,1.9-0.4,4,1.4,5.5c-2.8,1.4,1.8,3.5-0.6,5.5c-1.1,0.9-0.8,3.7-0.8,5.7c0,1.9-1.1,4.2,0.8,5.1
		c-0.3,2-1.3,3.9-0.8,5.1c1.9,4.4,1.5,8.7,0.6,13.1c-0.4,2-0.6,4-0.7,6c-0.1,2,0,4,0,5.9C221.2,221,221.2,221,218.1,224.5z
		 M220,162.8c-0.2,0.3,0.2,0,0.2-0.4c0-0.7-0.3-1.3-0.5-2c-0.9,0.2-1.5,0.3-1.8,0.3C218.6,161.4,219.3,162.2,220,162.8z"/>
	<path d="M505.6,218.3c-0.8,0.8-1.3,1.3-2,2c-4.4-3.3-9.5,0.7-14.7-0.7c-0.2,0.2-1,0.7-2.5,1.9c-0.6-1.4-1.1-2.6-2.2-4.9
		c0-2.4,0-6.7,0-11.1c1.4-0.2,2.6-0.3,3.8-0.4c0.2-0.2,0.4-0.4,0.6-0.6c-1.5-0.8-2.9-1.7-4.4-2.6c0-11.6,0-23.1,0-35.2
		c1.3,0.4,2.5,0.8,4.1,1.3c0.1-0.5,0.3-1.4,0.5-2.6c-1.6,0-2.8,0-4.4,0c0-16,0-31.8,0-47.6c0.4-0.4,1-1,1.7-1.7c6.1,0,12.5,0,19,0
		c0.3,0.7,0.5,1.7,0.9,2.5c0.2,0.4,0.7,0.7,1.1,1.1c-0.3,0.4-0.7,0.7-1.1,1.2c1.7,2.5,1.2,5.4,1.1,8.3c-0.1,3.2-0.3,6.5-0.6,9.7
		c-0.2,2.4-0.3,4.7,0.7,6.9c-2.9,2.4-1.2,5.7-1.5,8.6c-0.3,3.3-0.1,6.7-0.1,10c0,3.1-1.1,6.8,0.3,9.1c2,3.3,1,6.4,1.2,9.5
		c0.1,2.6-3.1,5.2-0.1,7.9c-2.6,2.6-1,5.8-1.3,8.7c-0.3,3.3-0.1,6.7-0.1,10C505.6,212.5,505.6,215.5,505.6,218.3z M488.3,175.9
		c0-2,0-4.1,0-6.1c-0.2,0-0.4,0-0.6,0c-0.6,2-1.2,4.1-1.8,6.2C486.9,175.9,487.4,175.9,488.3,175.9z M499.8,176.6c0,0.3,0,1.3,0,2.5
		c1.1-0.2,1.7-0.3,3.9-0.7C501.7,177.5,500.7,177,499.8,176.6z M490,201.9c-0.1-0.4-0.1-0.9-0.2-1.3c-0.8,0.2-1.7,0.4-2.5,0.6
		c0,0.2,0.1,0.5,0.1,0.7C488.3,201.9,489.1,201.9,490,201.9z"/>
	<path d="M244.5,34.1c-3.6-3-7.6-1-11.3-1.8c-0.4,1.1-0.7,2-1,2.9c-0.4-0.1-0.9-0.2-1-0.4c-1-2.5-2-4.9-1.7-7.8
		c0.3-3,0.1-6.1,0.1-10c2.5,0,4.9,0,7.4,0c2.8,0,5.6,0,8.5,0c2.6,0,5.1,0,7.7,0c2.6,0,5.2,0.4,7.7-0.1c2.5-0.5,4.5,2.1,7.3,0.3
		c1.8-1.2,5.1,1,7.3-2.2c0,6,0,11.5,0,17.3c-4.2,0-8.5,0-13.5,0c0,5.3,0,10.3,0,15.4c0,4.9,0,9.8,0,14.6c0,5.1-0.1,10.3,0,15.4
		c0.2,4.7-0.9,9.5,1,14.5c-0.1,0.1-0.5,0.6-1,1.2c0.5,0.5,1,1.1,1.7,1.9c-0.8,1.6-1.6,3.3-2.3,4.9c-5.9,0-11.8,0-17.6,0
		c-0.2-0.7-0.4-1.1-0.4-1.6c0-13.6,0-27.2,0-40.6c1.1-1.1,2-2,3.2-3.2c-1.1-0.6-2.2-1.1-3.9-2c1.2-1.4,1.7-2,2.3-2.7
		C242.6,44.9,242.9,39.5,244.5,34.1z M250.9,49.2c0-0.5-0.1-0.9-0.1-1.4c-1.3,0.2-2.7,0.4-4,0.6c0,0.3,0.1,0.5,0.1,0.8
		C248.2,49.2,249.5,49.2,250.9,49.2z M249.3,31.2c-0.4,0.1-0.9,0.1-1.3,0.2c0.2,0.8,0.4,1.7,0.6,2.5c0.2,0,0.5-0.1,0.7-0.1
		C249.3,32.9,249.3,32,249.3,31.2z"/>
	<path d="M627.6,97c0-3.5,0-6.8,0-10.7c2.1,0.4,4.1,0.7,6.3,1.1c-1.4-2.7-2.7-5.2-4.3-8.4c0.3,0.1-0.4-0.1-1.8-0.5
		c0.2-0.6,0.4-1.2,0.8-2.1c-0.3-0.6-0.8-1.6-1.5-2.9c1.3-1.1,2.5-2,4.1-3.2c-1.4-0.5-2.3-0.8-3.7-1.3c0-3.4,0-6.9,0-10.4
		c0-3.6-0.8-7.5,0.2-10.7c1.1-3.3-0.9-5.8-0.4-8.8c0.6-3.5,0.1-7.1,0.1-10.4c-1.3-1.3-2.4-2.4-3.2-3.2c-3.8,1.6-7.4,3.1-11.9,5
		c-0.1-3.3-0.3-5.8-0.3-8.2c0-2.5,0-5.1,0-8.4c0.9,0.6,1.4,0.9,2,1.3c0.2,0,0.6,0,0.9-0.2c1.9-1.3,3.4-1.2,5.4,0.2
		c0.9,0.6,3-1,4.5-1c1.9,0,3.7,0.7,6.3,1.2c0.4-0.2,1.4-0.8,2.7-1.6c0.7,0.6,1.4,1.2,1.6,1.3c7.5-2.6,15.3,0.6,22.5-2.1
		c0.3,0.3,0.9,0.9,1.6,1.6c0,4,0,8.3,0,12.9c-4.6,1.8-10.4-1.5-15.3,2.3c0.7,4-0.9,7.9,1.5,11.7c0.8,1.3,1,4.1-1.2,5.5
		c0.6,1,1.1,2,1.7,2.9c-0.8,0.8-1.3,1.4-1.8,1.9c2.7,2.1,1.8,4.3,0.1,6.3c0.5,1.9,1.4,3.8,1.4,5.6c0.1,11,0.1,22,0.1,33.3
		C639.9,97,634.1,97,627.6,97z M651.4,20.9c-0.3,0.3-0.5,0.5-0.8,0.8c0.1,0.9,0.1,1.8,0.2,3.1c1.1-0.1,1.9-0.1,2.9-0.2
		c-0.9-1.4-1.6-2.5-2.6-3c-1.9-2.4-4.2-1.1-6.4-1.2c-0.7,1.2-1.4,2.3-2.8,4.6C645.6,23.6,648.1,22.7,651.4,20.9z M631.7,37.1
		c0-1.5,0-3.1,0-4.7c-1,0.2-1.7,0.3-2.1,0.3c0.1,1.7,0.1,3.1,0.2,4.4C630.3,37.1,630.8,37.1,631.7,37.1z M617.4,20.5
		c0.4,0.8,0.9,1.9,1.3,2.7c1.3-1,2-1.6,3.3-2.7C619.7,20.5,618.2,20.5,617.4,20.5z M640.2,51.8c0,0.2,0,1.2,0,2.4
		c1.1-0.2,1.7-0.3,2-0.4C641.5,53.2,640.8,52.4,640.2,51.8z M636.5,41.5c0-0.5-0.1-0.9-0.1-1.4c-1.3,0.2-2.7,0.4-4,0.6
		c0,0.3,0.1,0.5,0.1,0.8C633.8,41.5,635.1,41.5,636.5,41.5z M635.5,28.1c0,0.4,0.1,0.9,0.1,1.3c0.9-0.2,1.7-0.4,2.6-0.6
		c0-0.3-0.1-0.5-0.1-0.8C637.2,28.1,636.3,28.1,635.5,28.1z M638.3,22.1c0,0.3,0,0.5,0,0.8c1,0,2.1,0,3.1,0c0-0.3,0-0.5,0-0.8
		C640.3,22.1,639.3,22.1,638.3,22.1z M639.5,92.9c-0.4,0-0.9,0.1-1.3,0.1c0.2,0.9,0.4,1.7,0.6,2.6c0.3,0,0.5-0.1,0.8-0.1
		C639.5,94.6,639.5,93.8,639.5,92.9z"/>
	<path d="M563,30.2c-3.4,3.1-4.4,5.2-4.5,7.3c-0.1,2.3,0.5,4.6,1.1,6.9c0.5,2-1.9,3.8-0.4,6.2c-0.5,0.1-1.3,0.4-2.4,0.7
		c0,1.1,0,2.3,0,3.9c0.5,0.2,1.4,0.5,2.6,0.9c0,8.3,0,16.7,0,25.3c-0.8,0.4-1.8,0.8-3.1,1.5c1.2,0.4,2.1,0.8,2.5,0.9
		c0.1,1.5,0.3,2.8,0.5,5.1c-2.6,2-2.9,6.4-4.9,9.8c-4.3,0-8.6,0-12.9,0c0-4.7,0-9.1,0-14.4c2.5,1.6,4.5,2.8,6.4,4
		c1.5-1.7-0.3-1.8-0.4-2.3c1.1-1.6,2.2-3.2,4.1-5.8c-4.1,1.4-6.9,2.3-9.7,3.3c-1.4-10-1.1-19.9,0.8-23.9c-0.5-0.5-1-1.1-1.4-1.6
		c0.5-0.5,1-1.1,1.3-1.4c-0.6-3.3-1.1-6.4-1.7-9.4c1.5-0.7,2.6-1.2,3.8-1.7c-1.1-2.2-2.1-4.1-3.6-7c0-2.2,0-5.5,0-8.7
		c-2.9,0.8-5.6,1.4-8.8,2.3c-0.5-0.7-1.3-1.9-2.2-3c-0.9,0.9-1.5,1.3-2.4,2.2c0-4.1,0-7.9,0-12.3c0.9-0.7,2.2-1.8,4.2-3.4
		c2.2,0.6,5.7-1.6,8.5,1.3c2.8-2.8,6.2-1.2,9.3-1.4c3.2-0.2,6.6,0,9.8,0.5c3,0.4,6,1.3,9.2,2.1c0.1-0.3,0.3-1,0.6-2.3
		c1-0.1,2.4-0.3,3.7-0.4c0.6,2.1,1.2,3.9,1.8,5.8c-2.7,2.4-0.2,6-1.5,9.5c-2.1-0.4-4.9-2-6.4-1.1C564.4,30.9,562.2,30.6,563,30.2
		c2-3.4,1.2-6,0.4-8.5c0-0.1-0.5,0-0.8-0.1c-1.9-1.5-1.9-1.5-4.5-0.1c1.7,0,3.2,0,4.5,0.1c-0.2,2-0.5,3.9-0.8,5.9
		C562.9,28.1,564.4,28.7,563,30.2z M547.4,62.7c1.1-0.5,2.1-1,3.2-1.5c-0.2-0.2-0.4-0.5-0.5-0.7c-0.8,0-1.7,0-2.7,0
		C547.4,61.4,547.4,62.1,547.4,62.7z M543.1,38.1c4.1,0.2,4.1,0.2,3.6-1.8C546,36.6,545,37.1,543.1,38.1z M548.5,52.8
		c-0.4,0-0.9,0.1-1.3,0.1c0.2,0.9,0.4,1.7,0.6,2.6c0.3,0,0.5-0.1,0.8-0.1C548.5,54.5,548.5,53.7,548.5,52.8z M547.5,46.6
		c0.1,0.4,0.1,0.9,0.2,1.3c0.8-0.2,1.7-0.4,2.5-0.6c0-0.2-0.1-0.5-0.1-0.7C549.2,46.6,548.4,46.6,547.5,46.6z"/>
	<path d="M4.6,238.9c0-1.4,0-2.7,0-4.1c0.3,0,0.5-0.1,0.8-0.1c0.2,1.3,0.4,2.7,0.6,4C5.5,238.8,5.1,238.9,4.6,238.9z"/>
	<path d="M422.1,100.1c-1.4,0-2.7,0-4.1,0c0-0.3-0.1-0.5-0.1-0.8c1.3-0.2,2.7-0.4,4-0.6C422,99.2,422.1,99.6,422.1,100.1z"/>
	<path d="M286.7,106.1c0-0.8,0-1.5,0-2.5c1,0,1.8,0,4.5,0C288.9,105,287.9,105.5,286.7,106.1z"/>
	<path d="M0,188c0-0.9,0-1.7,0-2.6c0.3,0,0.5-0.1,0.8-0.1c0.2,0.9,0.4,1.7,0.6,2.6C0.9,187.9,0.4,187.9,0,188z"/>
	<path d="M657.9,174.4c0,1,0,2.1,0,3.1c-0.3,0-0.5,0-0.8,0c0-1,0-2.1,0-3.1C657.4,174.4,657.7,174.4,657.9,174.4z"/>
	<path d="M700.3,196c0-1,0-2.1,0-3.1c0.3,0,0.5,0,0.8,0c0,1,0,2.1,0,3.1C700.9,196,700.6,196,700.3,196z"/>
	<path d="M219.9,223.7c0.1,1,0.2,2,0.3,2.9c-0.3,0-0.7,0.1-1,0.1c-0.2-1-0.4-2-0.6-3C219.1,223.7,219.5,223.7,219.9,223.7z"/>
	<path d="M70.4,227.1c0,0.9,0,1.7,0,2.6c-0.2,0-0.5,0.1-0.7,0.1c-0.2-0.8-0.4-1.7-0.6-2.5C69.5,227.2,70,227.1,70.4,227.1z"/>
	<path d="M305.4,228.6c0.9,0,1.7,0,2.6,0c0,0.3,0.1,0.5,0.1,0.8c-0.9,0.2-1.7,0.4-2.6,0.6C305.5,229.5,305.4,229.1,305.4,228.6z"/>
	<path d="M74,233.2c0.9,0,1.7,0,2.6,0c0,0.2,0.1,0.5,0.1,0.7c-0.8,0.2-1.7,0.4-2.5,0.6C74.1,234.1,74.1,233.7,74,233.2z"/>
	<path d="M190.7,109.8c0,0.9,0,1.7,0,2.6c-0.2,0-0.5,0.1-0.7,0.1c-0.2-0.8-0.4-1.7-0.6-2.5C189.8,109.9,190.3,109.9,190.7,109.8z"/>
	<path d="M117.2,112.4c0-0.9,0-1.7,0-2.6c0.2,0,0.5-0.1,0.7-0.1c0.2,0.8,0.4,1.7,0.6,2.5C118.1,112.3,117.7,112.4,117.2,112.4z"/>
</g>
</svg>
