<!-- Generator: Adobe Illustrator 19.1.0, SVG Export Plug-In  -->
<svg version="1.1"
	 xmlns="http://www.w3.org/2000/svg" xmlns:xlink="http://www.w3.org/1999/xlink" xmlns:a="http://ns.adobe.com/AdobeSVGViewerExtensions/3.0/"
	 x="0px" y="0px" width="242.1px" height="44.9px" viewBox="0 0 242.1 44.9" enable-background="new 0 0 242.1 44.9"
	 xml:space="preserve">
<defs>
</defs>
<g>
	<g>
		<path fill="#333333" d="M29.4,8c0.1-0.3,0.1-0.5,0.2-0.7s0.2-0.5,0.4-0.6C31.6,5.1,31.5,3,31.5,1c0-0.7-0.3-0.9-1-0.9
			c-3.7,0-7.3,0-11,0c-0.1,0-0.3,0-0.4,0c1.7,0.9,3.3,1.7,5,2.6c2.1,1.1,3.9,2.6,5,4.8C29,7.6,29.2,7.7,29.4,8z"/>
		<path fill="#333333" d="M35.4,23.5c0,0.4,0,0.7,0,0.9c0,1-0.6,1.6-1.5,1.6c-1.4,0-2.8-0.1-4.2,0.2c-1,0.2-1.5-0.8-1-1.7
			c0.1-0.2,0.2-0.4,0.3-0.6c-0.1,0-0.2-0.1-0.2-0.1c-1.1,1.9-2.2,3.7-3.4,5.7c0.8-0.2,1-0.5,1.3-1.2c0.2-0.5,0.6-1,0.9-1.4
			c0.4-0.4,0.8-0.4,1.2,0c0.9,0.7,1.9,1.3,2.2,2.5c0,0,0.1,0,0.2,0c0-0.2,0.1-0.5,0.1-0.7c-0.1-2-0.1-2,1.9-1.8h0.1
			c0.9,0.1,1.6-0.3,2-1C36,25.2,36.1,24.4,35.4,23.5z"/>
		<path fill="#333333" d="M30.9,17.5c0.1,0,0.1,0,0.2-0.1c0-0.3-0.1-0.6,0-0.8c0.1-0.4,0.4-0.8,0.6-1.2c0.3-0.4,0.9-0.8,0.9-1.1
			c-0.2-0.7-0.5-1.4-1.2-1.7c0,0.6,0.3,1.3,0,1.6c-0.8,0.8-0.5,1.9-0.8,2.8C30.6,17.1,30.8,17.4,30.9,17.5z"/>
		<path fill="#333333" d="M7,23c0.4,0.4,0.5,0.8,0.8,0.9c0.4,0.2,0.9,0.3,1.3,0.3c0.1,0,0.4-0.5,0.4-0.7c-0.1-0.2-0.4-0.4-0.6-0.5
			c-0.4-0.1-0.8-0.1-1.1-0.1C7.6,22.9,7.3,22.9,7,23z"/>
		<path fill="#333333" d="M24.6,28c-0.8-0.3-1.6,0.4-1.8,1.5C23.4,28.9,23.9,28.5,24.6,28z"/>
		<path fill="#333333" d="M0,0c4.7,0,9.3,0,14.1,0c-0.2,0.3-0.5,0.5-0.6,0.8c-0.1,0.4-0.2,0.8-0.2,1.2c0.1,0.9,0.2,1.8,0.3,2.8
			c0,0.3-0.3,0.6-0.5,0.8c-1.6,1.2-2.4,3.4-1.7,5.3c0.5,1.5,1.4,2.8,2.7,3.8c0.6,0.5,0.9,1.2,1.3,1.8c0.1,0.2,0.1,0.4,0.3,0.6
			c0.5,0.6,0.4,1.1-0.3,1.6c-0.9,0.6-0.8,1.8,0.1,2.5c0.8,0.6,1.7,1.2,2.5,1.8c1.1,0.8,1.2,1.4,0.8,2.7c-0.9,2.7-1,5.4,0.2,8
			c0.2,0.4,0.2,0.8,0.4,1.2c0.1,0.4,0.3,0.7,0.6,1c0.6,0.6,1.3,0.5,1.6-0.3c0.3-0.7,0.7-0.8,1.4-0.6c0.6,0.2,1.4,0.1,2,0.1
			s1.3-0.1,1.9,0s1.2,0,1.7-0.6c-0.2-0.3-0.5-0.5-0.6-0.8c-0.2-0.3-0.4-0.8-0.3-1s0.6-0.3,1-0.4c0.3-0.1,0.7,0,1,0
			c0.2-0.1,0.6-0.2,0.6-0.4c0-0.2-0.2-0.5-0.4-0.6c-1.4-0.8-2.7-0.6-3.8,0.6c-0.2,0.2-0.5,0.4-0.8,0.5c0.4-0.6,0.7-1.2,1.1-1.8
			c0.1-0.1,0.3-0.2,0.4-0.2c1.4,0.4,2.7-0.1,4.1-0.4c0.1,0,0.2,0,0.3,0c0,0.7,0,1.4-0.1,2.1c-0.1,0.3-0.4,0.6-0.7,0.8
			c-0.8,0.5-0.8,0.7-0.2,1.3c0.3,0.3,0.7,0.6,1,0.8c0.8,0.7,1.2,1.5,1.2,2.6c0,2-1.1,3.2-2.7,4.1c-0.3,0.2-0.8,0.2-1.2,0.2
			c-1-0.1-1.9-0.4-2.9-0.5c-1.7-0.2-2.6,0.7-2.3,2.4c0,0.2,0.1,0.4,0.2,0.7c-0.8-0.1-1.5,0-2.1-0.2c-1.1-0.4-2.2-0.9-3.2-1.4
			c-1.2-0.6-2.4-1.4-3.7-2c-0.6-0.3-1.1-0.6-0.9-1.5c0.1-0.5-0.3-1.2-0.7-1.6c-0.9-1.2-1.7-2.4-2.2-3.8c0-0.1-0.1-0.2-0.1-0.3
			c0-0.4,0.1-0.8,0.1-1.2c0.4,0.1,0.8,0.2,1.2,0.4c0.3,0.1,0.7,0.2,1,0.4c0.1-0.4,0.4-0.8,0.3-1.1c-0.6-2.3-0.1-4.5,0-6.8
			c0.1-2.2,0-4.5-1.1-6.5c-0.3-0.5-0.8-1-1.2-1.3s-0.8-0.1-0.9,0.6c-0.1,0.4-0.2,0.9-0.5,1.3c-0.4,0.6-0.6,1.3-0.3,2
			c0.1,0.1,0,0.3,0,0.7c-0.3-0.2-0.5-0.3-0.7-0.5c-0.4-0.4-0.8-0.6-1.3-0.3c-0.6,0.3-0.8,0-0.9-0.5s-0.1-1.1-0.2-1.6
			c-0.2-0.8-0.6-0.9-1.2-0.3c-0.2,0.2-0.4,0.5-0.6,0.7C3.8,19,4,17.8,4.6,17.2C5,16.5,6,15.7,7.4,15.8c0.2,0,0.4-0.2,0.7-0.3
			c-0.2-0.2-0.3-0.4-0.5-0.5s-0.5-0.1-0.7-0.1c-1.9,0.1-4.1,2.4-4,4.3c0,0.7,0.2,1.3,0.4,1.9c0.6,2,1.2,4.1,2.7,5.7
			c0.3,0.3,0.6,0.7,1,1c0.8,0.6,1.9,0.4,2.6-0.5c0.2-0.2,0.5-0.3,0.8-0.4c0,0.3,0.1,0.6,0,0.9c-0.5,1.4-1.9,2.2-3.3,1.4
			c-0.7-0.4-1-0.2-1.2,0.6c-0.4,1.5-0.9,3-1.3,4.5c-0.2,0.7-0.6,1-1.3,0.9c-0.3,0-0.6,0.1-0.9,0.2c0.2,0.3,0.3,0.7,0.5,0.9
			c2.4,1.7,4.9,3.3,7.3,5c1.4,0.9,2.7,2,4,3c0.2,0.1,0.3,0.3,0.5,0.5c-0.3,0-0.5,0.1-0.7,0.1c-4.4,0-8.7,0-13.1,0
			c-0.3,0-0.5,0-0.8-0.1C0,29.7,0,14.9,0,0z"/>
		<path fill="#333333" d="M29.4,8C29.2,7.7,29,7.6,29,7.4c-1-2.2-2.9-3.6-5-4.8c-1.6-0.9-3.3-1.7-5-2.6c0.1,0,0.2,0,0.4,0
			c3.7,0,7.3,0,11,0c0.7,0,1,0.2,1,0.9c0,2,0.2,4.1-1.5,5.7c-0.2,0.2-0.3,0.4-0.4,0.6C29.5,7.5,29.5,7.7,29.4,8z"/>
		<path fill="#333333" d="M27.3,18.9c0,0,0.2,0.2,0.4,0.3c-0.3,0.8-0.6,1.5-0.9,2.3c-0.1,0-0.2-0.1-0.3-0.1c0.1-0.2,0.1-0.4,0.2-0.7
			c-0.6-0.4-2.1-0.5-1.1-1.9c-1.1-0.7-1.8,0.2-2.8,0.8c0-0.5-0.1-0.9,0-1.2c0.2-0.4,0.4-0.8,0.7-1.2c0.8-1,1.7-2,2.6-3
			c0.6-0.7,1.2-1.1,2.2-0.7c0.3,0.1,0.7,0.2,1,0.3c1.1,0.4,1.4,1.6,0.6,2.5c-0.5,0.6-1,1.2-1.6,1.8C28.1,18.4,27.7,18.6,27.3,18.9z
			 M26.6,17.4c-0.7-0.4-1.2-0.2-1.6,0.2c-0.1,0.1-0.1,0.2-0.1,0.3s0.2,0.2,0.3,0.1C25.7,17.8,26.1,17.6,26.6,17.4z"/>
		<path fill="#333333" d="M35.4,23.5c0.6,1,0.5,1.8,0.1,2.5c-0.5,0.7-1.2,1-2,1h-0.1c-2-0.3-2.1-0.2-1.9,1.8c0,0.2-0.1,0.5-0.1,0.7
			c-0.1,0-0.2,0-0.2,0c-0.3-1.2-1.4-1.8-2.2-2.5c-0.4-0.4-0.9-0.4-1.2,0c-0.4,0.4-0.7,0.9-0.9,1.4c-0.3,0.7-0.5,1-1.3,1.2
			c1.2-1.9,2.3-3.8,3.4-5.7c0.1,0,0.2,0.1,0.2,0.1c-0.1,0.2-0.2,0.4-0.3,0.6c-0.5,0.9,0.1,1.9,1,1.7c1.4-0.3,2.8-0.2,4.2-0.2
			c1,0,1.5-0.7,1.5-1.6C35.4,24.1,35.4,23.9,35.4,23.5z"/>
		<path fill="#333333" d="M30.9,17.5c-0.1-0.2-0.3-0.4-0.2-0.5c0.3-0.9,0-1.9,0.8-2.8c0.3-0.3,0-1,0-1.6c0.7,0.3,1,1,1.2,1.7
			c0.1,0.3-0.6,0.7-0.9,1.1c-0.2,0.4-0.5,0.7-0.6,1.2c-0.1,0.3,0,0.6,0,0.8C31,17.5,31,17.5,30.9,17.5z"/>
		<path fill="#333333" d="M7,23c0.3-0.1,0.6-0.1,0.8-0.1c0.3,0,0.7,0,1,0.1s0.6,0.3,0.6,0.5S9.2,24.2,9,24.2c-0.4,0-0.9-0.1-1.3-0.3
			C7.5,23.7,7.3,23.4,7,23z"/>
		<path fill="#333333" d="M24.6,28c-0.6,0.5-1.2,1-1.8,1.5C22.9,28.4,23.7,27.7,24.6,28z"/>
	</g>
	<g>
		<g>
			<path fill="#333333" d="M157.3,25.6c0,6.4,0,12.7,0,19c-1.5,0-3,0-4.5,0c0-14.4,0-28.8,0-43.2c1.5,0,3,0,4.5,0c0,6.5,0,13,0,19.6
				c1.3,0,2.4,0,3.7,0c0-6.5,0-13,0-19.6c1.5,0,3,0,4.5,0c0,14.4,0,28.8,0,43.2c-1.5,0-2.9,0-4.5,0c0-6.3,0-12.6,0-19
				C159.7,25.6,158.5,25.6,157.3,25.6z"/>
			<path fill="#333333" d="M214.6,1.4c2.5,0,4.9-0.1,7.3,0c2.6,0.1,4.4,2,4.8,4.8c0.1,0.6,0.1,1.3,0.1,1.9c0,3.3,0,6.5,0,9.8
				c0,3.2-0.2,3.7-2.4,5.9c0.3,0.2,0.6,0.5,0.9,0.7c1.2,1.1,1.6,2.5,1.6,4c0,3.4,0,6.7,0,10.1c0,1.6,0.1,3.2,0.7,4.7
				c0.1,0.4,0,0.9,0,1.3c-1,0-2,0-3.1,0c-0.7,0-1-0.6-1.3-1.2c-0.6-1.3-0.7-2.6-0.7-4c0-3.8,0-7.5,0-11.3c0-0.5-0.1-0.9-0.3-1.4
				c-0.2-0.5-0.6-0.9-1.2-0.9c-0.6-0.1-1.3,0-2,0c0,6.3,0,12.5,0,18.8c-1.5,0-3,0-4.5,0C214.6,30.2,214.6,15.8,214.6,1.4z
				 M219.2,21.4c0.7,0,1.2,0,1.8,0c0.6,0,1-0.4,1.2-0.9c0.1-0.5,0.2-1,0.2-1.6c0-3.5,0-7,0-10.5c0-0.4,0-0.8-0.1-1.2
				c-0.1-0.5-0.3-1.1-0.9-1.2c-0.7-0.1-1.5,0-2.2,0C219.2,11.2,219.2,16.2,219.2,21.4z"/>
			<path fill="#333333" d="M193,1.4c1.4,14.4,2.9,28.8,4.3,43.3c-1,0-2,0-2.9,0c-0.6,0-1.3,0.2-1.6-0.1c-0.3-0.3-0.2-1.1-0.2-1.6
				c-0.1-2.2-0.3-4.3-0.4-6.5c-1.2,0-2.4,0-3.6,0c-0.1,0.9-0.2,1.8-0.3,2.8c-0.1,1.6-0.3,3.3-0.4,4.9c0,0.4-0.1,0.7-0.6,0.6
				c-1.1,0-2.2,0-3.5,0c1.5-14.5,2.9-28.9,4.4-43.3C189.7,1.4,191.3,1.4,193,1.4z M190.6,13.1c0,0-0.1,0-0.1,0
				c-0.5,6.2-1.1,12.3-1.6,18.5c1,0,1.9,0,2.9,0C191.4,25.4,191,19.3,190.6,13.1z"/>
			<path fill="#333333" d="M174.4,5.9c0,4.8,0,9.5,0,14.3c1.4,0,2.8,0,4.2,0c0,1.5,0,3,0,4.5c-1.4,0-2.7,0-4.1,0
				c0,5.2,0,10.3,0,15.5c2,0,3.9,0,5.9,0c0,1.5,0,3,0,4.5c-3.5,0-6.9,0-10.4,0c0-14.4,0-28.8,0-43.2c3.5,0,6.9,0,10.4,0
				c0,1.5,0,2.9,0,4.5C178.4,5.9,176.4,5.9,174.4,5.9z"/>
			<path fill="#333333" d="M231.7,1.4c3.5,0,6.9,0,10.4,0c0,1.5,0,2.9,0,4.5c-2,0-3.9,0-5.9,0c0,4.8,0,9.5,0,14.3c1.4,0,2.8,0,4.2,0
				c0,1.5,0,3,0,4.5c-1.4,0-2.8,0-4.2,0c0,5.2,0,10.3,0,15.5c2,0,3.9,0,5.9,0c0,1.5,0,3,0,4.5c-3.4,0-6.9,0-10.4,0
				C231.7,30.2,231.7,15.9,231.7,1.4z"/>
			<path fill="#333333" d="M145.1,6c0,12.9,0,25.8,0,38.6c-1.5,0-3,0-4.5,0c0-12.9,0-25.7,0-38.6c-1.4,0-2.7,0-4,0
				c0-1.6,0-3.1,0-4.6c4.1,0,8.2,0,12.3,0c0,1.5,0,3,0,4.6C147.6,6,146.4,6,145.1,6z"/>
			<path fill="#333333" d="M207,44.7c-1.6,0-3,0-4.5,0c0-12.9,0-25.7,0-38.6c-1.4,0-2.7,0-4,0c0-1.6,0-3.1,0-4.7c4.1,0,8.2,0,12.3,0
				c0,1.5,0,3,0,4.6c-1.2,0-2.5,0-3.7,0C207,18.9,207,31.8,207,44.7z"/>
		</g>
		<g>
			<g>
				<path fill="#333333" d="M91.3,44.1c0-14.5,0-29,0-43.5c0.1,0,0.1,0,0.2,0c2.4,0,4.8,0,7.2,0.1c2.6,0.1,4.4,1.7,5,4.3
					c0.2,1,0.4,2,0.4,3.1c0,9.6,0,19.2,0,28.8c0,1.3-0.2,2.6-0.6,3.9c-0.8,2.2-2.5,3.4-4.8,3.5c-2.3,0.1-4.6,0-7,0
					C91.4,44.2,91.4,44.2,91.3,44.1z M95.9,5.2c0,11.5,0,22.9,0,34.3c0.8,0,1.5,0,2.2,0c0.6,0,1-0.4,1.1-0.9
					c0.1-0.6,0.3-1.1,0.3-1.7c0-9.7,0-19.4,0-29c0-0.5-0.1-1-0.2-1.5c-0.2-0.7-0.6-1.1-1.3-1.1C97.3,5.2,96.6,5.2,95.9,5.2z"/>
				<path fill="#333333" d="M75.3,44.2c0-14.6,0-29.1,0-43.6c0.1,0,0.1,0,0.2,0c2.4,0,4.9,0,7.3,0.1c2.3,0.1,4.1,1.8,4.6,4.2
					c0.2,0.7,0.3,1.5,0.3,2.3c0,3.8,0,7.5,0,11.3c0,2-0.7,3.5-2.5,4.7c0.2,0.2,0.4,0.3,0.6,0.5c1.2,0.9,1.8,2.2,1.9,3.6
					c0.1,0.6,0.1,1.2,0.1,1.7c0,3.6,0,7.3,0,10.9c0,1,0.2,2,0.6,3c0.1,0.4,0.1,0.9,0.1,1.4c-1.1,0-2.1,0-3.2,0
					c-0.6,0-0.9-0.5-1.2-0.9c-0.5-0.9-0.7-1.9-0.8-2.9c-0.1-1.3-0.1-2.5-0.1-3.8c0-3.1,0-6.2,0-9.3c0-0.4-0.1-0.9-0.3-1.3
					c-0.3-0.6-0.7-0.9-1.4-0.9c-0.6,0-1.1,0-1.7,0c0,0.2,0,0.4,0,0.6c0,5.9,0,11.9,0,17.8c0,0.5-0.1,0.6-0.6,0.6c-1.2,0-2.3,0-3.5,0
					C75.7,44.2,75.5,44.2,75.3,44.2z M79.9,20.7c0.6,0,1.1,0,1.7,0c0.7,0,1.2-0.3,1.4-1c0.1-0.5,0.2-1,0.2-1.4c0-3.6,0-7.3,0-10.9
					c0-0.4,0-0.7-0.1-1.1c-0.1-0.5-0.4-1-0.9-1c-0.7-0.1-1.5,0-2.2,0C79.9,10.4,79.9,15.6,79.9,20.7z"/>
				<path fill="#333333" d="M72.1,22.4c0,5,0,10,0,15.1c0,2.1-0.7,4.1-2.3,5.6c-3,2.8-7.7,2-9.7-1.7c-0.7-1.2-1-2.5-1-3.9
					c0-10.1,0-20.1,0-30.2c0-2.4,0.9-4.5,2.8-6c2.9-2.3,7-1.4,9,1.8c0.8,1.3,1.2,2.7,1.2,4.2C72.1,12.4,72.1,17.4,72.1,22.4z
					 M67.5,22.4c0-5.1,0-10.2,0-15.3c0-0.2,0-0.3,0-0.5c-0.1-1-0.8-1.7-1.7-1.8c-1-0.1-1.8,0.5-2,1.5c-0.1,0.3-0.1,0.5-0.1,0.8
					c0,10.2,0,20.3,0,30.5c0,0.1,0,0.2,0,0.4c0,0.9,0.5,1.5,1.2,1.8c1.4,0.5,2.6-0.4,2.6-1.9C67.5,32.7,67.5,27.6,67.5,22.4z"/>
				<path fill="#333333" d="M125.6,13.9c-1.4,0-2.7,0-4.1,0c0-0.2,0-0.4,0-0.5c0-2,0-4,0-6c0-0.4,0-0.8-0.1-1.2
					c-0.2-0.9-0.8-1.5-1.5-1.5c-1-0.1-1.9,0.4-2.1,1.3c-0.2,0.6-0.2,1.4-0.2,2c0,4,1.3,7.5,2.9,11.1c1.5,3.3,3,6.6,4,10
					c0.8,2.5,1.4,4.9,1.3,7.5c0,1.5-0.2,2.9-0.8,4.3c-1.2,2.8-3.8,4.2-6.7,3.8c-2.9-0.4-4.7-2.3-5.3-5.4c-0.1-0.8-0.2-1.6-0.2-2.4
					c0-1.7,0-3.3,0-5c0-0.2,0-0.3,0-0.5c0.7,0,1.4,0,2,0c0.7,0,1.3,0,2.1,0c0,0.2,0,0.4,0,0.6c0,2,0,3.9,0,5.9
					c0,0.4,0.1,0.8,0.2,1.2c0.3,1,1,1.4,2,1.4c1,0,1.8-0.5,2-1.5c0.2-0.9,0.2-1.8,0.2-2.7c-0.1-3.2-1.1-6.3-2.3-9.2
					c-1.2-2.9-2.5-5.7-3.7-8.6c-1-2.5-1.9-5.2-2.2-7.9c-0.3-2.3-0.2-4.7,0.8-6.9c1.4-3.2,5.3-4.6,8.4-3c1.7,0.9,2.5,2.3,2.9,4.1
					c0.2,0.9,0.3,1.8,0.3,2.7c0,1.9,0,3.9,0,5.8C125.6,13.5,125.6,13.6,125.6,13.9z"/>
				<path fill="#333333" d="M51,19.7c1.5,0,3,0,4.4,0c0,1.5,0,2.9,0,4.4c-1.5,0-3,0-4.5,0c0,6.7,0,13.3,0,20c-1.5,0-3,0-4.5,0
					c0-14.5,0-29,0-43.5c3.4,0,6.7,0,10.1,0c0,0.7,0,1.3,0,2c0,0.7,0,1.4,0,2.1c0,0.4-0.1,0.4-0.4,0.4c-1.6,0-3.1,0-4.7,0
					c-0.1,0-0.3,0-0.4,0C51,10,51,14.8,51,19.7z"/>
			</g>
			<path fill="#333333" d="M106.8,0.6c0.9,0,1.9,0,2.8,0c0.9,0,0.9,0,0.9,0.9c0,2,0,4,0,6c0,1.3-0.4,2.5-1.4,3.4
				c-0.6,0.6-1.3,0.8-2.2,0.8c0-0.4,0-0.7,0-1.1c0-0.1,0.1-0.2,0.2-0.2c0.9-0.2,1.2-0.9,1.4-1.6c0.1-0.5,0.1-1,0.2-1.5
				c-0.6,0-1.1,0-1.7,0C106.8,4.9,106.8,2.8,106.8,0.6z"/>
		</g>
	</g>
</g>
</svg>
