<?xml version="1.0" encoding="utf-8"?>
<!-- Generator: Adobe Illustrator 19.1.0, SVG Export Plug-In . SVG Version: 6.00 Build 0)  -->
<svg version="1.1" id="Layer_1" xmlns="http://www.w3.org/2000/svg" xmlns:xlink="http://www.w3.org/1999/xlink" x="0px" y="0px"
	 viewBox="-752 237.8 153.3 127.2" style="enable-background:new -752 237.8 153.3 127.2;" xml:space="preserve">
<style type="text/css">
	.st0{fill:#000CA0;}
</style>
<g>
	<g>
		<path class="st0" d="M-747.6,261.7h-4.3v-23.5h10.5v3.8h-6.2v6.5h5.8v3.8h-5.8V261.7z"/>
		<path class="st0" d="M-727.8,261.7l-1.4-5.9h-6.1l-1.4,5.9h-4.3l5.8-23.6h5.9l5.8,23.6H-727.8z M-730,251.9l-1.3-5.5
			c-0.1-0.3-0.2-1.2-0.5-2.5c-0.3-1.3-0.4-2.2-0.5-2.7c-0.1,0.9-0.3,1.9-0.5,3c-0.2,1.1-0.8,3.6-1.7,7.6h4.5V251.9z"/>
		<path class="st0" d="M-720.6,261.7v-23.5h4.1v23.5H-720.6z"/>
		<path class="st0" d="M-707.1,252.5v9.2h-4.4v-23.5h5.7c2.4,0,4.2,0.6,5.4,1.7c1.2,1.1,1.7,2.9,1.7,5.3c0,3-1,5-3,6.2l4.5,10.3
			h-4.7l-3.7-9.2C-705.6,252.5-707.1,252.5-707.1,252.5z M-707.1,248.8h1.1c1,0,1.8-0.3,2.2-0.9c0.5-0.6,0.7-1.5,0.7-2.6
			c0-1.2-0.2-2.1-0.7-2.6s-1.2-0.7-2.2-0.7h-1.1V248.8z"/>
		<path class="st0" d="M-686.6,261.7l-4.5-20h-0.2c0.2,1.5,0.3,3,0.3,4.2v15.8h-4v-23.5h6.7l4,18.5h0.1l4-18.5h6.8v23.5h-4.2v-16
			c0-1.3,0.1-2.7,0.2-4.1h-0.1l-4.5,20h-4.6V261.7z"/>
		<path class="st0" d="M-653,249.9c0,3.9-0.7,6.9-2.2,9s-3.5,3.1-6.3,3.1c-2.7,0-4.8-1-6.3-3.1s-2.2-5.1-2.2-9c0-3.9,0.7-6.9,2.2-9
			c1.6-2.1,3.7-3.1,6.4-3.1c2.7,0,4.8,1,6.2,3.1C-653.7,243-653,246-653,249.9z M-665.4,249.9c0,2.7,0.3,4.7,1,6.1
			c0.7,1.4,1.7,2.1,3,2.1c2.6,0,4-2.7,4-8.2s-1.3-8.2-3.9-8.2c-1.3,0-2.3,0.7-3,2.1C-665,245.2-665.4,247.2-665.4,249.9z"/>
		<path class="st0" d="M-635.1,238.2v15.2c0,2.8-0.6,4.9-1.9,6.4s-3.1,2.2-5.5,2.2c-2.3,0-4.1-0.7-5.3-2.2s-1.8-3.6-1.8-6.5v-15.1
			h4.3v15.5c0,3,1,4.5,3,4.5c0.9,0,1.6-0.4,2.1-1.1c0.5-0.7,0.8-1.8,0.8-3.3v-15.6H-635.1z"/>
		<path class="st0" d="M-614.5,261.7h-5.3l-7.3-17h-0.2c0.3,1.3,0.4,2.7,0.4,4.2v12.9h-4.1v-23.6h5.4l7.2,16.9h0.2
			c-0.2-1.1-0.3-2.5-0.3-4v-12.9h4V261.7z"/>
		<path class="st0" d="M-603.2,261.7h-4.4V242h-4.4v-3.8h13.4v3.8h-4.5v19.7H-603.2z"/>
		<path class="st0" d="M-714.5,314.4h-9.6l-4-21.7c-0.6-3-1.1-6.5-1.3-10.5l-0.2,2.1l-1.3,8.5l-3.9,21.6h-9.7L-752,273h7.6l3.7,23.4
			c0.4,2.3,0.8,6,1.4,11c0.5-5.1,0.9-8.7,1.3-10.8l4.4-23.5h8l4.4,23.5c0.6,3.5,1,7.1,1.4,10.9c0.7-5.6,1.1-9.3,1.4-11.1l3.6-23.4
			h7.6L-714.5,314.4z"/>
		<path class="st0" d="M-684.2,314.4l-2.4-10.4h-10.8l-2.4,10.4h-7.7l10.3-41.6h10.4l10.3,41.6H-684.2z M-688,297.1l-2.2-9.6
			c-0.1-0.6-0.4-2.1-0.9-4.4c-0.5-2.4-0.7-3.9-0.8-4.7c-0.2,1.6-0.6,3.4-0.9,5.4c-0.4,2-1.4,6.4-2.9,13.4h7.7V297.1z"/>
		<path class="st0" d="M-662.1,314.4h-7.7v-34.6h-7.9V273h23.5v6.8h-7.9V314.4z"/>
		<path class="st0" d="M-631.1,314.4h-18.7V273h18.7v6.7h-11v9.9h10.2v6.7h-10.2v11.5h11C-631.1,307.8-631.1,314.4-631.1,314.4z"/>
		<path class="st0" d="M-617.4,298.3v16.1h-7.7V273h10.1c4.3,0,7.4,1,9.4,3s3,5.1,3,9.3c0,5.2-1.8,8.9-5.3,11l8,18.1h-8.2l-6.5-16.1
			H-617.4z M-617.4,291.7h2c1.8,0,3.1-0.5,3.9-1.5s1.2-2.6,1.2-4.6c0-2.1-0.4-3.6-1.3-4.5c-0.8-0.9-2.1-1.3-3.9-1.3h-1.9V291.7z"/>
		<path class="st0" d="M-716.6,364.5h-9l-3.8-20.2c-0.6-2.8-1-6-1.2-9.8l-0.2,2l-1.1,7.9l-3.7,20.1h-9l-7-38.6h7l3.5,21.8
			c0.3,2.2,0.8,5.6,1.3,10.3c0.4-4.7,0.9-8.1,1.2-10.1l4.1-21.9h7.4l4.1,21.9c0.5,3.3,1,6.6,1.3,10.2c0.6-5.2,1.1-8.6,1.3-10.3
			l3.4-21.8h7.1L-716.6,364.5z"/>
		<path class="st0" d="M-679.2,345.1c0,6.4-1.2,11.3-3.6,14.7c-2.4,3.4-5.8,5.1-10.3,5.1s-7.9-1.7-10.3-5.1
			c-2.4-3.4-3.6-8.4-3.6-14.8s1.2-11.3,3.6-14.7c2.4-3.4,5.8-5.1,10.3-5.1c4.4,0,7.9,1.7,10.2,5.1
			C-680.4,333.9-679.2,338.8-679.2,345.1z M-699.6,345.1c0,4.4,0.6,7.7,1.7,10.1c1.1,2.3,2.7,3.5,4.9,3.5c4.3,0,6.5-4.5,6.5-13.5
			s-2.3-13.6-6.5-13.6c-2.2,0-3.8,1.1-4.9,3.4C-699.1,337.4-699.6,340.7-699.6,345.1z"/>
		<path class="st0" d="M-666.4,349.5v15h-7.2v-38.6h9.4c4,0,6.9,0.9,8.8,2.8c1.9,1.9,2.8,4.8,2.8,8.6c0,4.9-1.6,8.3-4.9,10.2
			l7.4,16.9h-7.7l-6.1-15h-2.5V349.5z M-666.4,343.3h1.8c1.7,0,2.9-0.5,3.6-1.4c0.7-1,1.1-2.4,1.1-4.3c0-2-0.4-3.4-1.2-4.2
			c-0.8-0.8-2-1.3-3.6-1.3h-1.8L-666.4,343.3L-666.4,343.3z"/>
		<path class="st0" d="M-622.6,364.5h-7.7l-6.3-16.5l-2.9,2.9v13.6h-7.2v-38.6h7.2V345l2.5-5.8l6.6-13.4h7.7l-8.9,16.7L-622.6,364.5
			z"/>
		<path class="st0" d="M-601.6,353.9c0,3.6-0.9,6.4-2.7,8.3c-1.8,1.9-4.4,2.9-7.9,2.9c-3.4,0-6.2-0.7-8.6-2V356
			c2.9,1.9,5.5,2.8,7.9,2.8c1.4,0,2.4-0.4,3.1-1.1c0.7-0.8,1-1.8,1-3.1c0-1.3-0.4-2.5-1.2-3.5c-0.8-1.1-2.2-2.2-4.1-3.5
			c-1.7-1.1-2.9-2.2-3.8-3.3c-0.9-1-1.5-2.2-2-3.5c-0.5-1.3-0.7-2.8-0.7-4.5c0-3.3,0.9-5.9,2.8-7.9c1.8-1.9,4.3-2.9,7.4-2.9
			c3,0,5.8,0.8,8.5,2.5l-2.4,5.8c-0.8-0.5-1.7-0.9-2.7-1.3c-0.9-0.4-1.9-0.6-3-0.6c-1.2,0-2.1,0.4-2.7,1.1c-0.6,0.8-0.9,1.8-0.9,3.1
			c0,1.3,0.4,2.4,1.1,3.4s2.1,2.1,3.9,3.3c2.5,1.7,4.3,3.4,5.3,5.2S-601.6,351.6-601.6,353.9z"/>
	</g>
</g>
</svg>
