<!-- Generator: Adobe Illustrator 21.0.0, SVG Export Plug-In  -->
<svg version="1.1"
	 xmlns="http://www.w3.org/2000/svg" xmlns:xlink="http://www.w3.org/1999/xlink" xmlns:a="http://ns.adobe.com/AdobeSVGViewerExtensions/3.0/"
	 x="0px" y="0px" width="103.7px" height="150px" viewBox="0 0 103.7 150" style="enable-background:new 0 0 103.7 150;"
	 xml:space="preserve">
<style type="text/css">
	.st0{fill:#FFFFFF;}
	.st1{fill:none;stroke:#929497;stroke-width:0.25;stroke-miterlimit:10;}
	.st2{fill:#355599;}
	.st3{fill:#009944;}
	.st4{fill:#D0D2D3;}
	.st5{fill:#BDBBBB;}
	.st6{fill:#D13239;}
	.st7{fill:#A93439;}
	.st8{fill:#00A19B;}
	.st9{fill:#FF5000;}
	.st10{fill:#006241;}
	.st11{fill:#D4451D;}
	.st12{fill:#007166;}
	.st13{fill:#004E59;}
</style>
<defs>
</defs>
<g>
	
		<image style="overflow:visible;opacity:0.35;" width="432" height="625" xlink:href="F9081243A5C74637.png"  transform="matrix(0.24 0 0 0.24 0 0)">
	</image>
	<g>
		<g>
			<g>
				<rect x="20.6" y="51.1" class="st0" width="62.2" height="81.6"/>
				<rect x="20.6" y="51.1" class="st1" width="62.2" height="81.6"/>
			</g>
			<g>
				<g>
					<polygon class="st2" points="88.3,103.9 51.7,92.8 15.1,103.9 15.1,13.2 88.3,13.2 					"/>
				</g>
			</g>
			<g>
				<g>
					<path class="st0" d="M59.3,61.1h-2.3l0-0.9H46.5l0,0.9h-2.3c0,0,0,2.5,1.5,3.8c0.6,0.5,1.2,0.9,1.8,1.2
						c0.8,2.1,2.2,3.3,3.5,4.5c0.2,0.2,0.3,0.2,0.4,0.4c-0.6,0.6,0.7,2.6-1.8,4.5h4.4c-2.6-1.9-1.2-3.9-1.8-4.5
						c0.1-0.1,0.3-0.2,0.4-0.4c1.4-1.2,2.7-2.4,3.5-4.6c0.6-0.3,1.2-0.7,1.8-1.2C59.3,63.6,59.3,61.1,59.3,61.1z M46.3,64.1
						c-0.7-0.7-1-1.5-1.1-2h1.4c0.1,0.9,0.2,1.8,0.4,2.5C46.7,64.5,46.5,64.3,46.3,64.1z M57.1,64.1c-0.2,0.2-0.4,0.3-0.6,0.5
						c0.2-0.7,0.3-1.5,0.4-2.5h1.3C58.1,62.6,57.8,63.5,57.1,64.1z"/>
					<path class="st0" d="M56,80.5v-4.3h-8.5v4.3H56z M54.1,79.4h-4.7v-2h4.7L54.1,79.4z"/>
				</g>
			</g>
			<g>
				<path class="st0" d="M47.1,28.5c0,0.4,0,0.7-0.1,1.1c-0.6,0-1.1,0-1.8,0s-1.3,0-1.9,0l-0.1-0.9c1.7-1.5,2.5-2.2,2.5-3
					c0-0.5-0.3-0.7-0.8-0.7c-0.4,0-0.8,0.1-1.3,0.5l-0.3-1c0.5-0.3,1.2-0.6,1.8-0.6c1,0,1.8,0.6,1.8,1.6c0,0.7-0.4,1.3-0.9,1.9
					c-0.3,0.3-0.7,0.8-1.1,1.1C45.6,28.6,46.5,28.6,47.1,28.5z"/>
				<path class="st0" d="M52.3,26.8c0,1.7-0.8,3-2.2,3c-1.4,0-2.1-1.3-2.1-2.8c0-1.7,0.8-3,2.2-3C51.5,24,52.3,25.2,52.3,26.8z
					 M51.1,26.9c0-1.3-0.4-1.9-1-1.9c-0.6,0-1,0.8-1,1.9c0,1.3,0.4,1.9,0.9,1.9C50.7,28.8,51.1,28,51.1,26.9z"/>
				<path class="st0" d="M55.4,24.1c0,0.2,0,0.7,0,1v3.5c0,0.3,0,0.8,0,1h-1.3c0-0.3,0-1.2,0-1.6v-2.7l-1.1,0.3l-0.2-1
					c0.6-0.2,1.1-0.3,1.5-0.5L55,24L55.4,24.1z"/>
				<path class="st0" d="M58.3,24.1c0.7,0,1.2,0,1.9,0l0.1,0.6c-0.1,0.2-0.3,0.7-0.4,1l-1.4,2.9c-0.1,0.2-0.4,0.9-0.5,1.1l-1.3-0.1
					c0.2-0.3,0.5-1,0.7-1.4l1.4-3h-0.9c-0.6,0-1,0-1.5,0c0-0.2,0.1-0.9,0.1-1.1C57.2,24.1,57.5,24.1,58.3,24.1z"/>
			</g>
			<g>
				<path class="st0" d="M24.6,40.6c-0.5,0-1.1,0-1.7,0c-0.6,0-1.3,0-1.9,0c0-0.4,0.1-1.4,0.1-2v-1.8c0-0.5,0-1.6-0.1-2
					c0.5,0,1.1,0,1.8,0c0.6,0,1.2,0,1.7,0c0,0.3-0.1,0.6-0.1,1c-0.4,0-0.9,0-1.4,0c-0.2,0-0.5,0-0.7,0c0,0.1,0,0.3,0,0.4v0.8l1.8,0
					c0,0.3,0,0.6,0,1l-1.8,0v1c0,0.1,0,0.3,0,0.4c0.2,0,0.5,0,0.7,0c0.6,0,1.1,0,1.6,0C24.6,39.8,24.6,40.2,24.6,40.6z"/>
				<path class="st0" d="M25.4,40.5l2-2.8l-0.8-1.1c-0.3-0.4-0.8-1.2-1.1-1.6l1.4-0.1l1.3,2l0.4-0.7l0.8-1.3h1.4L29,37.7l0.8,1.1
					c0.3,0.5,0.8,1.2,1.2,1.8l-1.4,0.1l-1.4-2.1l-0.4,0.7c-0.2,0.4-0.6,1-0.9,1.4H25.4z"/>
				<path class="st0" d="M36.1,40.1c-0.5,0.4-1.1,0.5-1.8,0.5c-1.7,0-2.9-1.3-2.9-2.8c0-1.8,1.3-3.1,3.1-3.1c0.6,0,1.3,0.2,1.7,0.5
					l-0.2,1.1c-0.4-0.3-0.9-0.5-1.4-0.5c-1.1,0-1.8,0.8-1.8,1.9c0,1.2,0.8,1.9,1.8,1.9c0.7,0,1.2-0.3,1.7-0.7L36.1,40.1z"/>
				<path class="st0" d="M40.9,40.6c-0.5,0-1.1,0-1.7,0c-0.6,0-1.3,0-1.9,0c0-0.4,0.1-1.4,0.1-2v-1.8c0-0.5,0-1.6-0.1-2
					c0.5,0,1.1,0,1.8,0c0.6,0,1.2,0,1.7,0c0,0.3-0.1,0.6-0.1,1c-0.4,0-0.9,0-1.4,0c-0.2,0-0.5,0-0.7,0c0,0.1,0,0.3,0,0.4v0.8l1.8,0
					c0,0.3,0,0.6,0,1l-1.8,0v1c0,0.1,0,0.3,0,0.4c0.2,0,0.5,0,0.7,0c0.6,0,1.1,0,1.6,0C40.9,39.8,40.9,40.2,40.9,40.6z"/>
				<path class="st0" d="M45.7,40.6c-0.5,0-1.1,0-1.8,0c-0.6,0-1.3,0-1.8,0c0-0.4,0.1-1.4,0.1-2v-1.8c0-0.5,0-1.5-0.1-1.9
					c0.3,0,1.1,0,1.4,0c0,0.2,0,0.9,0,1.2v3c0,0.1,0,0.3,0,0.4c0.2,0,0.4,0,0.6,0c0.6,0,1.1,0,1.7,0C45.7,39.8,45.7,40.2,45.7,40.6z
					"/>
				<path class="st0" d="M50.2,40.6c-0.5,0-1.1,0-1.8,0c-0.6,0-1.3,0-1.8,0c0-0.4,0.1-1.4,0.1-2v-1.8c0-0.5,0-1.5-0.1-1.9
					c0.3,0,1.1,0,1.4,0c0,0.2,0,0.9,0,1.2v3c0,0.1,0,0.3,0,0.4c0.2,0,0.4,0,0.6,0c0.6,0,1.1,0,1.7,0C50.3,39.8,50.3,40.2,50.2,40.6z
					"/>
				<path class="st0" d="M54.9,40.6c-0.5,0-1.1,0-1.7,0c-0.6,0-1.3,0-1.9,0c0-0.4,0.1-1.4,0.1-2v-1.8c0-0.5,0-1.6-0.1-2
					c0.5,0,1.1,0,1.8,0c0.6,0,1.2,0,1.7,0c0,0.3-0.1,0.6-0.1,1c-0.4,0-0.9,0-1.4,0c-0.2,0-0.5,0-0.7,0c0,0.1,0,0.3,0,0.4v0.8l1.8,0
					c0,0.3,0,0.6,0,1l-1.8,0v1c0,0.1,0,0.3,0,0.4c0.2,0,0.5,0,0.7,0c0.6,0,1.1,0,1.6,0C54.9,39.8,54.9,40.2,54.9,40.6z"/>
				<path class="st0" d="M56.1,38.6l0-1.9c0-0.5,0-1.5,0-1.9l0.8-0.1l3,3.6v-1.6c0-0.5,0-1.5-0.1-1.9c0.3,0,1.1,0,1.3,0
					c0,0.2,0,0.9,0,1.2l0,3.4c0,0.3,0,1,0,1.2l-0.8,0.1l-3-3.6v2.3c0,0.3,0,0.9,0,1.2H56C56,40.1,56.1,39.1,56.1,38.6z"/>
				<path class="st0" d="M66.9,40.1c-0.5,0.4-1.1,0.5-1.8,0.5c-1.7,0-2.9-1.3-2.9-2.8c0-1.8,1.3-3.1,3.1-3.1c0.6,0,1.3,0.2,1.7,0.5
					l-0.2,1.1c-0.4-0.3-0.9-0.5-1.4-0.5c-1.1,0-1.8,0.8-1.8,1.9c0,1.2,0.8,1.9,1.8,1.9c0.7,0,1.2-0.3,1.7-0.7L66.9,40.1z"/>
				<path class="st0" d="M71.8,40.6c-0.5,0-1.1,0-1.7,0c-0.6,0-1.3,0-1.9,0c0-0.4,0.1-1.4,0.1-2v-1.8c0-0.5,0-1.6-0.1-2
					c0.5,0,1.1,0,1.8,0c0.6,0,1.2,0,1.7,0c0,0.3-0.1,0.6-0.1,1c-0.4,0-0.9,0-1.4,0c-0.2,0-0.5,0-0.7,0c0,0.1,0,0.3,0,0.4v0.8l1.8,0
					c0,0.3,0,0.6,0,1l-1.8,0v1c0,0.1,0,0.3,0,0.4c0.2,0,0.5,0,0.7,0c0.6,0,1.1,0,1.6,0C71.8,39.8,71.8,40.2,71.8,40.6z"/>
				<path class="st0" d="M74.6,40.5c0-0.4,0.1-1.4,0.1-1.9v-1.8c0-0.5,0-1.5-0.1-1.9c0.3,0,1.1,0,1.4,0c0,0.2,0,0.9,0,1.2v3.3
					c0,0.3,0,0.9,0,1.2H74.6z"/>
				<path class="st0" d="M77.5,38.6l0-1.9c0-0.5,0-1.5,0-1.9l0.8-0.1l3,3.6v-1.6c0-0.5,0-1.5-0.1-1.9c0.3,0,1.1,0,1.3,0
					c0,0.2,0,0.9,0,1.2l0,3.4c0,0.3,0,1,0,1.2l-0.8,0.1l-3-3.6v2.3c0,0.3,0,0.9,0,1.2h-1.3C77.5,40.1,77.5,39.1,77.5,38.6z"/>
				<path class="st0" d="M28.9,51.6c-0.5,0-1.1,0-1.7,0c-0.6,0-1.3,0-1.9,0c0-0.4,0.1-1.4,0.1-2v-1.8c0-0.5,0-1.6-0.1-2
					c0.5,0,1.1,0,1.8,0c0.6,0,1.2,0,1.7,0c0,0.3-0.1,0.6-0.1,1c-0.4,0-0.9,0-1.4,0c-0.2,0-0.5,0-0.7,0c0,0.1,0,0.3,0,0.4v0.8l1.8,0
					c0,0.3,0,0.6,0,1l-1.8,0v1c0,0.1,0,0.3,0,0.4c0.2,0,0.5,0,0.7,0c0.6,0,1.1,0,1.6,0C28.9,50.8,28.9,51.2,28.9,51.6z"/>
				<path class="st0" d="M29.7,51.5l2-2.8l-0.8-1.1c-0.3-0.4-0.8-1.2-1.1-1.6l1.4-0.1l1.3,2l0.4-0.7l0.8-1.3h1.4l-1.9,2.8l0.8,1.1
					c0.3,0.5,0.8,1.2,1.2,1.8l-1.4,0.1l-1.4-2.1L32,50.2c-0.2,0.4-0.6,1-0.9,1.4H29.7z"/>
				<path class="st0" d="M39.8,51.5c0-0.4,0.1-1.3,0.1-1.9v-0.5h-2.4v1.2c0,0.3,0,0.9,0,1.2h-1.4c0-0.4,0.1-1.4,0.1-1.9v-1.8
					c0-0.5,0-1.5-0.1-1.9c0.3,0,1.1,0,1.4,0c0,0.2,0,0.9,0,1.2v1.1h2.4v-0.3c0-0.5,0-1.5-0.1-1.9c0.3,0,1.1,0,1.4,0
					c0,0.2,0,0.9,0,1.2v3.3c0,0.3,0,0.9,0,1.2H39.8z"/>
				<path class="st0" d="M42.7,51.5c0-0.4,0.1-1.4,0.1-1.9v-1.8c0-0.5,0-1.5-0.1-1.9c0.3,0,1.1,0,1.4,0c0,0.2,0,0.9,0,1.2v3.3
					c0,0.3,0,0.9,0,1.2H42.7z"/>
				<path class="st0" d="M45.5,51.5c0-0.4,0.1-1.4,0.1-1.9v-1.8c0-0.5,0-1.5-0.1-1.9c0.3,0,1.2,0,1.9,0c1.5,0,2.1,0.8,2.1,1.4
					c0,0.6-0.4,1-0.9,1.2c0.8,0.2,1.2,0.7,1.2,1.4c0,0.9-0.7,1.6-2.2,1.6H45.5z M47.3,48.2c0.6,0,1-0.3,1-0.7c0-0.4-0.3-0.7-1-0.7
					c-0.2,0-0.4,0-0.5,0v1.4C46.9,48.2,47.2,48.2,47.3,48.2z M47.5,50.6c0.6,0,1-0.2,1-0.8c0-0.4-0.4-0.8-1.2-0.8
					c-0.2,0-0.4,0-0.5,0v1.5C47,50.6,47.3,50.6,47.5,50.6z"/>
				<path class="st0" d="M50.9,51.5c0-0.4,0.1-1.4,0.1-1.9v-1.8c0-0.5,0-1.5-0.1-1.9c0.3,0,1.1,0,1.4,0c0,0.2,0,0.9,0,1.2v3.3
					c0,0.3,0,0.9,0,1.2H50.9z"/>
				<path class="st0" d="M58.1,47c-0.6,0-1.1,0-1.7,0c0,0.2,0,0.4,0,0.5v2.9c0,0.3,0,0.9,0,1.2H55c0-0.4,0.1-1.4,0.1-1.9v-1.4
					c0-0.3,0-0.8,0-1.2c-0.7,0-1.2,0-1.8,0c0-0.3,0-0.7,0-1.1c0.8,0,1.5,0,2.4,0c0.9,0,1.7,0,2.5,0C58.1,46.2,58.1,46.5,58.1,47z"/>
				<path class="st0" d="M59.1,51.5c0-0.4,0.1-1.4,0.1-1.9v-1.8c0-0.5,0-1.5-0.1-1.9c0.3,0,1.1,0,1.4,0c0,0.2,0,0.9,0,1.2v3.3
					c0,0.3,0,0.9,0,1.2H59.1z"/>
				<path class="st0" d="M61.7,48.9c0-1.8,1.2-3.1,2.9-3.1c1.7,0,2.8,1.3,2.8,2.8c0,1.8-1.2,3.1-2.9,3.1
					C62.8,51.7,61.7,50.4,61.7,48.9z M66.1,48.7c0-1.2-0.7-2-1.6-2c-1,0-1.6,0.9-1.6,1.9c0,1.2,0.7,2,1.6,2
					C65.5,50.7,66.1,49.8,66.1,48.7z"/>
				<path class="st0" d="M68.6,49.6l0-1.9c0-0.5,0-1.5,0-1.9l0.8-0.1l3,3.6v-1.6c0-0.5,0-1.5-0.1-1.9c0.3,0,1.1,0,1.3,0
					c0,0.2,0,0.9,0,1.2l0,3.4c0,0.3,0,1,0,1.2l-0.8,0.1l-3-3.6v2.3c0,0.3,0,0.9,0,1.2h-1.3C68.5,51.1,68.6,50.1,68.6,49.6z"/>
				<path class="st0" d="M76.6,51.7c-0.6,0-1.3-0.2-1.8-0.5l0-1.2c0.4,0.3,1.1,0.6,1.7,0.6c0.5,0,0.7-0.2,0.7-0.6
					c0-0.9-2.4-1-2.4-2.5c0-1.1,0.8-1.7,1.9-1.7c0.6,0,1.2,0.2,1.5,0.4l-0.3,1c-0.3-0.2-0.8-0.4-1.2-0.4c-0.4,0-0.7,0.2-0.7,0.6
					c0,0.8,2.4,0.9,2.4,2.5C78.6,51,77.8,51.7,76.6,51.7z"/>
			</g>
			<g>
				<g>
					<path class="st3" d="M39.7,107.2l0.3-0.6c0.1-0.3,0.5-0.4,0.8-0.3c0.1,0,0.2,0.1,0.3,0.2l-0.1-0.3c0,0,0-0.1,0-0.1
						c-0.2-0.3-0.6-0.6-1.1-0.6c-0.6,0-1,0.3-1.2,0.7l-1.6,3.8l0.8,1.9L39.7,107.2z"/>
					<g>
						<path class="st4" d="M45,117.2c0-0.1,0.1-0.1,0.1-0.2L45,117.2z"/>
						<path class="st4" d="M45,115.8l0.1,0.2C45.1,116,45,115.9,45,115.8z"/>
						<path class="st5" d="M45.1,116l-0.1-0.2l-4.1-9.4c-0.1-0.1-0.1-0.2-0.3-0.2c-0.3-0.1-0.6,0-0.8,0.3l-0.3,0.6l4.6,10.7l0,0
							c0.1,0.1,0.1,0.3,0.1,0.5c0,0.2,0,0.4-0.1,0.5h0l0.7-1.6l0.1-0.2c0.1-0.2,0.1-0.3,0.1-0.5C45.2,116.3,45.1,116.2,45.1,116z"/>
					</g>
					<path class="st5" d="M36.2,106.5c-0.1-0.1-0.1-0.2-0.3-0.2c-0.3-0.1-0.6,0-0.8,0.3l-0.3,0.6l6.7,15.8l0.9-1.6L36.2,106.5z"/>
					<polygon class="st3" points="36.5,110.9 32,121.3 32.8,123.2 37.3,112.8 					"/>
					<path class="st6" d="M43.9,118.9L43.9,118.9l-0.6-1.4l-3.6,8.4l-0.3,0.6c-0.1,0.3-0.5,0.4-0.8,0.3c-0.1,0-0.2-0.1-0.3-0.2h0
						l0.1,0.3c0,0,0,0.1,0,0.1c0.2,0.3,0.6,0.6,1.1,0.6c0.6,0,1-0.3,1.2-0.7l3.1-7.1c0-0.1,0.1-0.3,0.1-0.5
						C44,119.2,43.9,119,43.9,118.9z"/>
					<path class="st7" d="M44.3,118.9c0.1-0.1,0.1-0.3,0.1-0.5c0-0.2,0-0.3-0.1-0.5l0,0l-0.6-1.4l-0.4,1l0.6,1.4h0
						c0.1,0.1,0.1,0.3,0.1,0.5c0,0.2,0,0.3-0.1,0.5L44.3,118.9L44.3,118.9z"/>
					<path class="st8" d="M34.9,107.2l0.3-0.6c0.1-0.3,0.5-0.4,0.8-0.3c0.1,0,0.2,0.1,0.3,0.2l-0.1-0.3c0,0,0-0.1,0-0.1
						c-0.2-0.3-0.6-0.6-1.1-0.6c-0.6,0-1,0.3-1.2,0.7l-1.7,3.9l0.8,1.9L34.9,107.2z"/>
					<path class="st5" d="M28.6,111.3c-0.2-0.4-0.6-0.5-1-0.4c-0.1,0-0.2,0.1-0.2,0.2c-0.2,0.2-0.3,0.5-0.1,0.8l2,4.7l0.8-1.9
						L28.6,111.3z"/>
					<path class="st3" d="M31.7,122.2l-1.9,4.4c-0.2,0.4,0,0.8,0.4,1c0.1,0,0.2,0.1,0.3,0.1c0.3,0,0.6-0.2,0.7-0.4l1.3-3.1
						L31.7,122.2z"/>
					<path class="st5" d="M30.9,116.6l-0.8,1.9l3.5,8.3c0.1,0.1,0.1,0.2,0.3,0.2c0.3,0.1,0.6,0,0.8-0.3l0.3-0.6L30.9,116.6z"/>
					<polygon class="st9" points="41.3,110.9 36.8,121.3 37.6,123.2 42.1,112.8 					"/>
					<path class="st9" d="M36.5,122.2l-1.6,3.7l-0.3,0.6c-0.1,0.3-0.5,0.4-0.8,0.3c-0.1,0-0.2-0.1-0.3-0.2l0,0l0.1,0.3
						c0,0,0,0.1,0,0.1c0.2,0.3,0.6,0.6,1.1,0.6c0.6,0,1-0.3,1.2-0.7l1.2-2.9L36.5,122.2z"/>
					<path class="st5" d="M35.7,116.6l-0.8,1.9l3.5,8.2c0.1,0.1,0.1,0.2,0.3,0.2c0.3,0.1,0.6,0,0.8-0.3l0.3-0.6L35.7,116.6z"/>
					<path class="st8" d="M31.7,111l-4.4,10.3c-0.2,0.4,0,0.8,0.4,1c0.1,0,0.2,0.1,0.3,0.1c0.3,0,0.6-0.2,0.7-0.4l3.8-9L31.7,111z"
						/>
					<polygon class="st10" points="36.1,111.9 36.9,113.8 37.3,112.8 36.5,110.9 					"/>
					<g>
						<polygon class="st11" points="40.9,111.9 41.7,113.8 42.1,112.8 41.3,110.9 						"/>
					</g>
					<path class="st7" d="M44.3,118.9c0.1-0.1,0.1-0.3,0.1-0.5c0-0.2,0-0.3-0.1-0.5l0,0l-0.6-1.4l-0.4,1l0.6,1.4h0
						c0.1,0.1,0.1,0.3,0.1,0.5c0,0.2,0,0.3-0.1,0.5L44.3,118.9L44.3,118.9z"/>
					<polygon class="st10" points="31.2,123.2 32,125.1 32.5,124.1 31.7,122.2 					"/>
					<polygon class="st11" points="36,123.2 36.8,125.1 37.3,124.1 36.5,122.2 					"/>
					<polygon class="st12" points="31.3,111.9 32.1,113.8 32.5,112.8 31.7,111 					"/>
					<path class="st5" d="M31.2,106c-0.2-0.4-0.6-0.5-1-0.4c-0.1,0-0.2,0.1-0.2,0.2c-0.2,0.2-0.3,0.5-0.1,0.8l4.2,10l0.8-1.9
						L31.2,106z"/>
					<g>
						<g>
							<path class="st13" d="M53,113.1h-0.8l-0.4-1h-1.4l-0.4,1h-0.8l1.5-3.8h0.8L53,113.1z M51.2,110.1L51.2,110.1l-0.5,1.4h1
								L51.2,110.1z"/>
							<path class="st13" d="M57.7,113.1H57v-1.5c0-0.4-0.2-0.6-0.5-0.6c-0.2,0-0.4,0.1-0.5,0.2c0,0.1,0,0.1,0,0.2v1.7h-0.7v-1.5
								c0-0.4-0.2-0.6-0.5-0.6c-0.2,0-0.4,0.1-0.5,0.3v1.9h-0.7v-2.7h0.7v0.3h0c0.1-0.1,0.4-0.4,0.8-0.4c0.4,0,0.6,0.1,0.8,0.4
								c0.1-0.2,0.4-0.4,0.9-0.4c0.6,0,1,0.3,1,1.1V113.1z"/>
							<path class="st13" d="M59.5,110.3c0.8,0,1.2,0.4,1.2,1.4v0.3H59c0,0.4,0.3,0.6,0.7,0.6c0.4,0,0.7-0.2,0.8-0.3l0.2,0.5
								c-0.1,0.1-0.4,0.4-1.1,0.4c-0.8,0-1.4-0.5-1.4-1.4C58.2,110.8,58.8,110.3,59.5,110.3z M59,111.4H60c0-0.3-0.2-0.5-0.5-0.5
								C59.2,110.9,59,111.1,59,111.4z"/>
							<path class="st13" d="M63,111c0,0-0.1,0-0.1,0c-0.4,0-0.6,0.2-0.7,0.4v1.7h-0.7v-2.7h0.7v0.4h0c0.1-0.2,0.3-0.5,0.9-0.5V111z
								"/>
							<path class="st13" d="M64.2,109.7L64.2,109.7c0,0.2-0.1,0.4-0.4,0.4c-0.2,0-0.4-0.1-0.4-0.3v0c0-0.2,0.1-0.3,0.4-0.3
								C64.1,109.4,64.2,109.5,64.2,109.7z M64.2,113.1h-0.7v-2.7h0.7V113.1z"/>
							<path class="st13" d="M57.6,115.2L57.6,115.2c0,0.2-0.1,0.4-0.4,0.4c-0.2,0-0.4-0.1-0.4-0.3v0c0-0.2,0.1-0.3,0.4-0.3
								C57.4,114.8,57.6,115,57.6,115.2z M57.6,118.6h-0.7v-2.7h0.7V118.6z"/>
							<path class="st13" d="M66.8,111.1c-0.1-0.1-0.3-0.2-0.5-0.2c-0.4,0-0.8,0.2-0.8,0.8c0,0.5,0.3,0.8,0.8,0.8
								c0.3,0,0.5-0.1,0.6-0.2l0.2,0.5c-0.2,0.1-0.4,0.3-0.9,0.3c-0.8,0-1.4-0.4-1.4-1.4c0-1,0.7-1.4,1.5-1.4c0.5,0,0.7,0.1,0.9,0.2
								L66.8,111.1z"/>
							<path class="st13" d="M70.2,113.1c0,0-0.2,0.1-0.4,0.1c-0.3,0-0.5-0.1-0.6-0.3c-0.1,0.2-0.4,0.3-0.8,0.3
								c-0.6,0-0.9-0.3-0.9-0.8c0-0.6,0.5-0.9,1.2-0.9c0.2,0,0.4,0,0.4,0v0c0-0.4-0.2-0.5-0.6-0.5c-0.4,0-0.6,0.2-0.7,0.3l-0.3-0.5
								c0.2-0.2,0.5-0.4,1.1-0.4c0.8,0,1.2,0.4,1.2,1.2v0.8c0,0.2,0.1,0.3,0.2,0.3c0.1,0,0.1,0,0.1,0V113.1z M69.1,112.4L69.1,112.4
								V112c0,0-0.2,0-0.3,0c-0.4,0-0.6,0.1-0.6,0.3c0,0.2,0.1,0.3,0.4,0.3C68.8,112.6,69,112.5,69.1,112.4z"/>
							<path class="st13" d="M71.3,110.7L71.3,110.7c0.1-0.1,0.4-0.4,0.9-0.4c0.6,0,1,0.3,1,1.1v1.7h-0.7v-1.5
								c0-0.4-0.2-0.6-0.5-0.6c-0.3,0-0.5,0.2-0.5,0.3v1.9h-0.7v-2.7h0.7V110.7z"/>
							<path class="st13" d="M53,118.6h-0.8l-0.4-1h-1.4l-0.4,1h-0.8l1.5-3.8h0.8L53,118.6z M51.2,115.6L51.2,115.6l-0.5,1.4h1
								L51.2,115.6z"/>
							<path class="st13" d="M54.6,118.5c0,0-0.2,0.1-0.4,0.1c-0.5,0-0.8-0.2-0.8-0.9v-3.1h0.7v3c0,0.3,0.1,0.3,0.3,0.3
								c0.1,0,0.1,0,0.1,0V118.5z"/>
							<path class="st13" d="M56.3,118.5c0,0-0.2,0.1-0.4,0.1c-0.5,0-0.8-0.2-0.8-0.9v-3.1h0.7v3c0,0.3,0.1,0.3,0.3,0.3
								c0.1,0,0.1,0,0.1,0V118.5z"/>
							<path class="st13" d="M60.9,118.5c0,0-0.2,0.1-0.4,0.1c-0.3,0-0.5-0.1-0.6-0.3c-0.1,0.2-0.4,0.3-0.8,0.3
								c-0.6,0-0.9-0.3-0.9-0.8c0-0.6,0.5-0.9,1.2-0.9c0.2,0,0.4,0,0.4,0v0c0-0.4-0.2-0.5-0.6-0.5c-0.4,0-0.6,0.2-0.7,0.3l-0.3-0.5
								c0.2-0.2,0.5-0.4,1.1-0.4c0.8,0,1.2,0.4,1.2,1.2v0.8c0,0.2,0.1,0.3,0.2,0.3c0.1,0,0.1,0,0.1,0V118.5z M59.8,117.8L59.8,117.8
								v-0.4c0,0-0.2,0-0.3,0c-0.4,0-0.6,0.1-0.6,0.3c0,0.2,0.1,0.3,0.4,0.3C59.6,118,59.8,117.9,59.8,117.8z"/>
							<path class="st13" d="M62.1,116.1L62.1,116.1c0.1-0.1,0.4-0.4,0.9-0.4c0.6,0,1,0.3,1,1.1v1.7h-0.7V117c0-0.4-0.2-0.6-0.5-0.6
								c-0.3,0-0.5,0.2-0.5,0.3v1.9h-0.7v-2.7h0.7V116.1z"/>
							<path class="st13" d="M66.6,116.6c-0.1-0.1-0.3-0.2-0.5-0.2c-0.4,0-0.8,0.2-0.8,0.8c0,0.5,0.3,0.8,0.8,0.8
								c0.3,0,0.5-0.1,0.6-0.2l0.2,0.5c-0.2,0.1-0.4,0.3-0.9,0.3c-0.8,0-1.4-0.4-1.4-1.4c0-1,0.7-1.4,1.5-1.4c0.5,0,0.7,0.1,0.9,0.2
								L66.6,116.6z"/>
							<path class="st13" d="M68.3,115.8c0.8,0,1.2,0.4,1.2,1.4v0.3h-1.7c0,0.4,0.3,0.6,0.7,0.6c0.4,0,0.7-0.2,0.8-0.3l0.2,0.5
								c-0.1,0.1-0.4,0.4-1.1,0.4c-0.8,0-1.4-0.5-1.4-1.4C67,116.3,67.6,115.8,68.3,115.8z M67.8,116.9h1.1c0-0.3-0.2-0.5-0.5-0.5
								C68,116.4,67.8,116.6,67.8,116.9z"/>
							<path class="st13" d="M53.3,124h-0.7v-2.6h0l-0.9,1.5H51l-0.9-1.5h0v2.6h-0.8v-3.8h0.9l1.1,1.7h0l1.1-1.7h0.9V124z"/>
							<path class="st13" d="M56.5,124h-0.7v-0.3h0c-0.1,0.1-0.3,0.4-0.9,0.4c-0.6,0-1-0.3-1-1.1v-1.7h0.7v1.5
								c0,0.4,0.2,0.6,0.5,0.6c0.3,0,0.5-0.2,0.5-0.3v-1.9h0.7V124z"/>
							<path class="st13" d="M58.9,122.1c-0.1-0.1-0.4-0.2-0.7-0.2c-0.3,0-0.4,0.1-0.4,0.2c0,0.1,0.1,0.2,0.4,0.3l0.2,0.1
								c0.5,0.2,0.8,0.4,0.8,0.8c0,0.5-0.4,0.9-1.1,0.9c-0.6,0-0.9-0.2-1-0.3l0.2-0.6c0.1,0.1,0.4,0.3,0.7,0.3
								c0.3,0,0.4-0.1,0.4-0.2c0-0.1-0.1-0.2-0.4-0.3l-0.2-0.1c-0.5-0.1-0.8-0.4-0.8-0.8c0-0.5,0.5-0.8,1.1-0.8
								c0.5,0,0.8,0.2,0.9,0.3L58.9,122.1z"/>
							<path class="st13" d="M60.9,121.3c0.8,0,1.2,0.4,1.2,1.4v0.3h-1.7c0,0.4,0.3,0.6,0.7,0.6c0.4,0,0.7-0.2,0.8-0.3l0.2,0.5
								c-0.1,0.1-0.4,0.4-1.1,0.4c-0.8,0-1.4-0.5-1.4-1.4C59.6,121.7,60.2,121.3,60.9,121.3z M60.3,122.4h1.1c0-0.3-0.2-0.5-0.5-0.5
								C60.6,121.9,60.3,122.1,60.3,122.4z"/>
							<path class="st13" d="M65.1,124h-0.7v-0.3h0c-0.1,0.1-0.3,0.4-0.9,0.4c-0.6,0-1-0.3-1-1.1v-1.7h0.7v1.5
								c0,0.4,0.2,0.6,0.5,0.6c0.3,0,0.5-0.2,0.5-0.3v-1.9h0.7V124z"/>
							<path class="st13" d="M70,124h-0.7v-1.5c0-0.4-0.2-0.6-0.5-0.6c-0.2,0-0.4,0.1-0.5,0.2c0,0.1,0,0.1,0,0.2v1.7h-0.7v-1.5
								c0-0.4-0.2-0.6-0.5-0.6c-0.2,0-0.4,0.1-0.5,0.3v1.9h-0.7v-2.7h0.7v0.3h0c0.1-0.1,0.4-0.4,0.8-0.4c0.4,0,0.6,0.1,0.8,0.4
								c0.1-0.2,0.4-0.4,0.9-0.4c0.6,0,1,0.3,1,1.1V124z"/>
							<path class="st13" d="M72.3,122.1c-0.1-0.1-0.4-0.2-0.7-0.2c-0.3,0-0.4,0.1-0.4,0.2c0,0.1,0.1,0.2,0.4,0.3l0.2,0.1
								c0.5,0.2,0.8,0.4,0.8,0.8c0,0.5-0.4,0.9-1.1,0.9c-0.6,0-0.9-0.2-1-0.3l0.2-0.6c0.1,0.1,0.4,0.3,0.7,0.3
								c0.3,0,0.4-0.1,0.4-0.2c0-0.1-0.1-0.2-0.4-0.3l-0.2-0.1c-0.5-0.1-0.8-0.4-0.8-0.8c0-0.5,0.5-0.8,1.1-0.8
								c0.5,0,0.8,0.2,0.9,0.3L72.3,122.1z"/>
							<g>
								<path class="st13" d="M72.7,118.6c-0.7,0-1.4-0.4-1.4-1.4c0-1,0.6-1.4,1.4-1.4c0.7,0,1.4,0.4,1.4,1.4
									C74.1,118.2,73.4,118.6,72.7,118.6z M72.7,116.4c-0.3,0-0.6,0.2-0.6,0.8c0,0.5,0.3,0.8,0.6,0.8c0.4,0,0.6-0.2,0.6-0.8
									C73.3,116.7,73.1,116.4,72.7,116.4z"/>
								<path class="st13" d="M76.2,115.3c0,0-0.1,0-0.2,0c-0.3,0-0.4,0.1-0.4,0.4v0.2h0.7v0.6h-0.7v2.1h-0.7v-2.1h-0.3v-0.6h0.3
									v-0.1c0-0.7,0.4-1.1,1.1-1.1c0.2,0,0.3,0,0.4,0V115.3z"/>
							</g>
						</g>
					</g>
				</g>
			</g>
		</g>
	</g>
</g>
</svg>