<!-- Generator: Adobe Illustrator 21.0.0, SVG Export Plug-In  -->
<svg version="1.1"
	 xmlns="http://www.w3.org/2000/svg" xmlns:xlink="http://www.w3.org/1999/xlink" xmlns:a="http://ns.adobe.com/AdobeSVGViewerExtensions/3.0/"
	 x="0px" y="0px" width="103.7px" height="150px" viewBox="0 0 103.7 150" style="enable-background:new 0 0 103.7 150;"
	 xml:space="preserve">
<style type="text/css">
	.st0{fill:#FFFFFF;}
	.st1{fill:none;stroke:#929497;stroke-width:0.25;stroke-miterlimit:10;}
	.st2{fill:#355599;}
	.st3{fill:#009944;}
	.st4{fill:#D0D2D3;}
	.st5{fill:#BDBBBB;}
	.st6{fill:#D13239;}
	.st7{fill:#A93439;}
	.st8{fill:#00A19B;}
	.st9{fill:#FF5000;}
	.st10{fill:#006241;}
	.st11{fill:#D4451D;}
	.st12{fill:#007166;}
	.st13{fill:#004E59;}
</style>
<defs>
</defs>
<g>
	
		<image style="overflow:visible;opacity:0.35;" width="432" height="625" xlink:href="D378FBFF1EDB6A51.png"  transform="matrix(0.24 0 0 0.24 0 0)">
	</image>
	<g>
		<g>
			<g>
				<rect x="20.5" y="51.1" class="st0" width="62.2" height="81.6"/>
				<rect x="20.5" y="51.1" class="st1" width="62.2" height="81.6"/>
			</g>
			<g>
				<g>
					<polygon class="st2" points="88.2,103.9 51.6,92.8 15,103.9 15,13.2 88.2,13.2 					"/>
				</g>
			</g>
			<g>
				<g>
					<path class="st0" d="M59.2,61.1h-2.3l0-0.9H46.4l0,0.9h-2.3c0,0,0,2.5,1.5,3.8c0.6,0.5,1.2,0.9,1.8,1.2
						c0.8,2.1,2.2,3.3,3.5,4.5c0.2,0.2,0.3,0.2,0.4,0.4c-0.6,0.6,0.7,2.6-1.8,4.5h4.4c-2.6-1.9-1.2-3.9-1.8-4.5
						c0.1-0.1,0.3-0.2,0.4-0.4c1.4-1.2,2.7-2.4,3.5-4.6c0.6-0.3,1.2-0.7,1.8-1.2C59.3,63.6,59.2,61.1,59.2,61.1z M46.2,64.1
						c-0.7-0.7-1-1.5-1.1-2h1.4c0.1,0.9,0.2,1.8,0.4,2.5C46.7,64.5,46.4,64.3,46.2,64.1z M57,64.1c-0.2,0.2-0.4,0.3-0.6,0.5
						c0.2-0.7,0.3-1.5,0.4-2.5h1.3C58,62.6,57.8,63.5,57,64.1z"/>
					<path class="st0" d="M55.9,80.5v-4.3h-8.5v4.3H55.9z M54,79.4h-4.7v-2H54L54,79.4z"/>
				</g>
			</g>
			<g>
				<path class="st0" d="M47.1,27.5c0,0.4,0,0.7-0.1,1.1c-0.6,0-1.1,0-1.8,0s-1.3,0-1.9,0l-0.1-0.9c1.7-1.5,2.5-2.2,2.5-3
					c0-0.5-0.3-0.7-0.8-0.7c-0.4,0-0.8,0.1-1.3,0.5l-0.3-1c0.5-0.3,1.2-0.6,1.8-0.6c1,0,1.8,0.6,1.8,1.6c0,0.7-0.4,1.3-0.9,1.9
					c-0.3,0.3-0.7,0.8-1.1,1.1C45.6,27.6,46.4,27.6,47.1,27.5z"/>
				<path class="st0" d="M52.2,25.8c0,1.7-0.8,3-2.2,3c-1.4,0-2.1-1.3-2.1-2.8c0-1.7,0.8-3,2.2-3C51.5,23,52.2,24.2,52.2,25.8z
					 M51,25.9c0-1.3-0.4-1.9-1-1.9c-0.6,0-1,0.8-1,1.9c0,1.3,0.4,1.9,0.9,1.9C50.6,27.8,51,27,51,25.9z"/>
				<path class="st0" d="M55.3,23.1c0,0.2,0,0.7,0,1v3.5c0,0.3,0,0.8,0,1H54c0-0.3,0-1.2,0-1.6v-2.7L53,24.6l-0.2-1
					c0.6-0.2,1.1-0.3,1.5-0.5l0.6-0.2L55.3,23.1z"/>
				<path class="st0" d="M58.3,23.1c0.7,0,1.2,0,1.9,0l0.1,0.6c-0.1,0.2-0.3,0.7-0.4,1l-1.4,2.9c-0.1,0.2-0.4,0.9-0.5,1.1l-1.3-0.1
					c0.2-0.3,0.5-1,0.7-1.4l1.4-3h-0.9c-0.6,0-1,0-1.5,0c0-0.2,0.1-0.9,0.1-1.1C57.1,23.1,57.4,23.1,58.3,23.1z"/>
			</g>
			<g>
				<path class="st0" d="M24.2,37.6l0.2-1.8c0.1-0.5,0.2-1.5,0.2-2l0.8-0.1c0.1,0.3,0.4,0.8,0.5,1.2l1.2,2.7l1.2-2.7
					c0.1-0.3,0.4-0.8,0.5-1.1h0.8c0,0.5,0.2,1.5,0.2,2l0.2,1.8c0.1,0.5,0.2,1.5,0.3,1.9l-1.3,0.1c0-0.2-0.1-0.9-0.1-1.2l-0.3-2.1
					c-0.4,0.9-1.3,3-1.4,3.3l-0.6,0l-1.4-3.3l-0.2,2c0,0.3-0.1,0.9-0.1,1.2h-1.3C24,39.1,24.2,38.1,24.2,37.6z"/>
				<path class="st0" d="M36.6,35v2c0,0.9-0.2,1.5-0.7,1.9c-0.4,0.4-1.1,0.7-1.9,0.7c-1.4,0-2.4-0.8-2.4-2.2v-1.7
					c0-0.5,0-1.5-0.1-1.9c0.3,0,1.1,0,1.4,0c0,0.2,0,0.9,0,1.2v2.2c0,1,0.5,1.4,1.2,1.4c0.7,0,1.1-0.4,1.1-1.2v-1.5
					c0-0.5,0-1.5-0.1-1.9c0.3,0,1.1,0,1.4,0C36.6,34.1,36.6,34.7,36.6,35z"/>
				<path class="st0" d="M39.5,39.7c-0.6,0-1.3-0.2-1.8-0.5l0-1.2c0.4,0.3,1.1,0.6,1.7,0.6c0.5,0,0.7-0.2,0.7-0.6
					c0-0.9-2.4-1-2.4-2.5c0-1.1,0.8-1.7,1.9-1.7c0.6,0,1.2,0.2,1.5,0.4l-0.3,1c-0.3-0.2-0.8-0.4-1.2-0.4c-0.4,0-0.7,0.2-0.7,0.6
					c0,0.8,2.4,0.9,2.4,2.5C41.5,39,40.7,39.7,39.5,39.7z"/>
				<path class="st0" d="M46.3,39.6c-0.5,0-1.1,0-1.7,0c-0.6,0-1.3,0-1.9,0c0-0.4,0.1-1.4,0.1-2v-1.8c0-0.5,0-1.6-0.1-2
					c0.5,0,1.1,0,1.8,0c0.6,0,1.2,0,1.7,0c0,0.3-0.1,0.6-0.1,1c-0.4,0-0.9,0-1.4,0c-0.2,0-0.5,0-0.7,0c0,0.1,0,0.3,0,0.4v0.8l1.8,0
					c0,0.3,0,0.6,0,1l-1.8,0v1c0,0.1,0,0.3,0,0.4c0.2,0,0.5,0,0.7,0c0.6,0,1.1,0,1.6,0C46.3,38.8,46.3,39.2,46.3,39.6z"/>
				<path class="st0" d="M50.2,35.4c0.3-0.7,0.5-1.1,0.6-1.6l0.9-0.1l1.8,4.1c0.2,0.5,0.5,1.1,0.8,1.6L53,39.6l-0.6-1.3h-2.1
					c-0.1,0.3-0.4,1-0.5,1.2h-1.4L50.2,35.4z M50.6,37.4h1.5l-0.7-1.9L50.6,37.4z"/>
				<path class="st0" d="M60.9,38c-0.2,0.7-0.4,1.1-0.5,1.6l-0.8,0.1L58.2,36l-0.8,2.2c-0.2,0.5-0.3,0.9-0.5,1.4h-0.8l-1.4-4.1
					c-0.2-0.5-0.4-1.1-0.6-1.6l1.4-0.1l1.1,3.8l0.8-2.4c0.1-0.3,0.3-1,0.4-1.3l0.8-0.1l1.3,3.8l0.7-2.4l0.4-1.3h1.3L60.9,38z"/>
				<path class="st0" d="M64,35.4c0.3-0.7,0.5-1.1,0.6-1.6l0.9-0.1l1.8,4.1c0.2,0.5,0.5,1.1,0.8,1.6l-1.4,0.1l-0.6-1.3H64
					c-0.1,0.3-0.4,1-0.5,1.2h-1.4L64,35.4z M64.3,37.4h1.5l-0.7-1.9L64.3,37.4z"/>
				<path class="st0" d="M72.1,39.6l-1.2-2l-0.1,0h-0.5v0.8c0,0.3,0,0.9,0,1.2h-1.4c0-0.4,0.1-1.4,0.1-1.9v-1.8c0-0.5,0-1.5-0.1-1.9
					c0.3,0,1.4,0,1.7,0c1.6,0,2.5,0.7,2.4,1.7c0,0.8-0.4,1.3-1.1,1.7l0.9,1.3c0.2,0.3,0.5,0.7,0.7,0.9L72.1,39.6z M70.9,36.7
					c0.6,0,1-0.4,1-0.9c0-0.5-0.3-0.9-1.1-0.9c-0.2,0-0.4,0-0.5,0v1.8H70.9z"/>
				<path class="st0" d="M76.4,39.5h-1.9c0-0.4,0.1-1.4,0.1-1.9v-1.8c0-0.5,0-1.5-0.1-1.9c0.3,0,0.9,0,1.8,0c2.1,0,3.2,1.1,3.2,2.7
					C79.5,38.4,78.3,39.5,76.4,39.5z M76.4,34.9c-0.2,0-0.4,0-0.5,0c0,0.1,0,0.3,0,0.4v2.8c0,0.1,0,0.2,0,0.4c0.2,0,0.3,0,0.5,0
					c1.3,0,1.8-0.8,1.8-1.9C78.2,35.6,77.5,34.9,76.4,34.9z"/>
				<path class="st0" d="M33.9,50.6l-1.2-2l-0.1,0H32v0.8c0,0.3,0,0.9,0,1.2h-1.4c0-0.4,0.1-1.4,0.1-1.9v-1.8c0-0.5,0-1.5-0.1-1.9
					c0.3,0,1.4,0,1.7,0c1.6,0,2.5,0.7,2.4,1.7c0,0.8-0.4,1.3-1.1,1.7l0.9,1.3c0.2,0.3,0.5,0.7,0.7,0.9L33.9,50.6z M32.6,47.7
					c0.6,0,1-0.4,1-0.9c0-0.5-0.3-0.9-1.1-0.9c-0.2,0-0.4,0-0.5,0v1.8H32.6z"/>
				<path class="st0" d="M39.9,50.6c-0.5,0-1.1,0-1.7,0c-0.6,0-1.3,0-1.9,0c0-0.4,0.1-1.4,0.1-2v-1.8c0-0.5,0-1.6-0.1-2
					c0.5,0,1.1,0,1.8,0c0.6,0,1.2,0,1.7,0c0,0.3-0.1,0.6-0.1,1c-0.4,0-0.9,0-1.4,0c-0.2,0-0.5,0-0.7,0c0,0.1,0,0.3,0,0.4v0.8l1.8,0
					c0,0.3,0,0.6,0,1l-1.8,0v1c0,0.1,0,0.3,0,0.4c0.2,0,0.5,0,0.7,0c0.6,0,1.1,0,1.6,0C39.9,49.8,39.9,50.2,39.9,50.6z"/>
				<path class="st0" d="M45.4,50.1c-0.5,0.4-1.1,0.5-1.8,0.5c-1.7,0-2.9-1.3-2.9-2.8c0-1.8,1.3-3.1,3.1-3.1c0.6,0,1.3,0.2,1.7,0.5
					l-0.2,1.1c-0.4-0.3-0.9-0.5-1.4-0.5c-1.1,0-1.8,0.8-1.8,1.9c0,1.2,0.8,1.9,1.8,1.9c0.7,0,1.2-0.3,1.7-0.7L45.4,50.1z"/>
				<path class="st0" d="M46.6,50.5c0-0.4,0.1-1.4,0.1-1.9v-1.8c0-0.5,0-1.5-0.1-1.9c0.3,0,1.1,0,1.4,0c0,0.2,0,0.9,0,1.2v3.3
					c0,0.3,0,0.9,0,1.2H46.6z"/>
				<path class="st0" d="M50.8,49.4c0,0.3,0,0.9,0,1.2h-1.4c0-0.4,0.1-1.4,0.1-1.9v-1.8c0-0.5,0-1.5-0.1-1.9c0.3,0,1.3,0,1.8,0
					c1.6,0,2.3,0.8,2.3,1.8c0,1.1-0.8,2-2.5,2c-0.1,0-0.2,0-0.3,0V49.4z M51.3,45.9c-0.2,0-0.3,0-0.5,0v1.8c0.1,0,0.2,0,0.3,0
					c0.7,0,1.2-0.3,1.2-1C52.3,46.2,52,45.9,51.3,45.9z"/>
				<path class="st0" d="M54.5,50.5c0-0.4,0.1-1.4,0.1-1.9v-1.8c0-0.5,0-1.5-0.1-1.9c0.3,0,1.1,0,1.4,0c0,0.2,0,0.9,0,1.2v3.3
					c0,0.3,0,0.9,0,1.2H54.5z"/>
				<path class="st0" d="M61,50.6c-0.5,0-1.1,0-1.7,0c-0.6,0-1.3,0-1.9,0c0-0.4,0.1-1.4,0.1-2v-1.8c0-0.5,0-1.6-0.1-2
					c0.5,0,1.1,0,1.8,0c0.6,0,1.2,0,1.7,0c0,0.3-0.1,0.6-0.1,1c-0.4,0-0.9,0-1.4,0c-0.2,0-0.5,0-0.7,0c0,0.1,0,0.3,0,0.4v0.8l1.8,0
					c0,0.3,0,0.6,0,1l-1.8,0v1c0,0.1,0,0.3,0,0.4c0.2,0,0.5,0,0.7,0c0.6,0,1.1,0,1.6,0C61,49.8,61,50.2,61,50.6z"/>
				<path class="st0" d="M62.2,48.6l0-1.9c0-0.5,0-1.5,0-1.9l0.8-0.1l3,3.6v-1.6c0-0.5,0-1.5-0.1-1.9c0.3,0,1.1,0,1.3,0
					c0,0.2,0,0.9,0,1.2l0,3.4c0,0.3,0,1,0,1.2l-0.8,0.1l-3-3.6v2.3c0,0.3,0,0.9,0,1.2h-1.3C62.2,50.1,62.2,49.1,62.2,48.6z"/>
				<path class="st0" d="M73,46c-0.6,0-1.1,0-1.7,0c0,0.2,0,0.4,0,0.5v2.9c0,0.3,0,0.9,0,1.2h-1.4c0-0.4,0.1-1.4,0.1-1.9v-1.4
					c0-0.3,0-0.8,0-1.2c-0.7,0-1.2,0-1.8,0c0-0.3,0-0.7,0-1.1c0.8,0,1.5,0,2.4,0c0.9,0,1.7,0,2.5,0C73.1,45.2,73,45.5,73,46z"/>
			</g>
			<g>
				<g>
					<path class="st3" d="M39.6,107.2l0.3-0.6c0.1-0.3,0.5-0.4,0.8-0.3c0.1,0,0.2,0.1,0.3,0.2l-0.1-0.3c0,0,0-0.1,0-0.1
						c-0.2-0.3-0.6-0.6-1.1-0.6c-0.6,0-1,0.3-1.2,0.7l-1.6,3.8l0.8,1.9L39.6,107.2z"/>
					<g>
						<path class="st4" d="M44.9,117.2c0-0.1,0.1-0.1,0.1-0.2L44.9,117.2z"/>
						<path class="st4" d="M44.9,115.8L45,116C45,116,45,115.9,44.9,115.8z"/>
						<path class="st5" d="M45,116l-0.1-0.2l-4.1-9.4c-0.1-0.1-0.1-0.2-0.3-0.2c-0.3-0.1-0.6,0-0.8,0.3l-0.3,0.6l4.6,10.7l0,0
							c0.1,0.1,0.1,0.3,0.1,0.5c0,0.2,0,0.4-0.1,0.5h0l0.7-1.6L45,117c0.1-0.2,0.1-0.3,0.1-0.5C45.1,116.3,45.1,116.2,45,116z"/>
					</g>
					<path class="st5" d="M36.1,106.5c-0.1-0.1-0.1-0.2-0.3-0.2c-0.3-0.1-0.6,0-0.8,0.3l-0.3,0.6l6.7,15.8l0.9-1.6L36.1,106.5z"/>
					<polygon class="st3" points="36.4,110.9 32,121.3 32.8,123.2 37.2,112.8 					"/>
					<path class="st6" d="M43.8,118.9L43.8,118.9l-0.6-1.4l-3.6,8.4l-0.3,0.6c-0.1,0.3-0.5,0.4-0.8,0.3c-0.1,0-0.2-0.1-0.3-0.2h0
						l0.1,0.3c0,0,0,0.1,0,0.1c0.2,0.3,0.6,0.6,1.1,0.6c0.6,0,1-0.3,1.2-0.7l3.1-7.1c0-0.1,0.1-0.3,0.1-0.5
						C43.9,119.2,43.9,119,43.8,118.9z"/>
					<path class="st7" d="M44.2,118.9c0.1-0.1,0.1-0.3,0.1-0.5c0-0.2,0-0.3-0.1-0.5l0,0l-0.6-1.4l-0.4,1l0.6,1.4h0
						c0.1,0.1,0.1,0.3,0.1,0.5c0,0.2,0,0.3-0.1,0.5L44.2,118.9L44.2,118.9z"/>
					<path class="st8" d="M34.8,107.2l0.3-0.6c0.1-0.3,0.5-0.4,0.8-0.3c0.1,0,0.2,0.1,0.3,0.2l-0.1-0.3c0,0,0-0.1,0-0.1
						c-0.2-0.3-0.6-0.6-1.1-0.6c-0.6,0-1,0.3-1.2,0.7l-1.7,3.9l0.8,1.9L34.8,107.2z"/>
					<path class="st5" d="M28.6,111.3c-0.2-0.4-0.6-0.5-1-0.4c-0.1,0-0.2,0.1-0.2,0.2c-0.2,0.2-0.3,0.5-0.1,0.8l2,4.7l0.8-1.9
						L28.6,111.3z"/>
					<path class="st3" d="M31.6,122.2l-1.9,4.4c-0.2,0.4,0,0.8,0.4,1c0.1,0,0.2,0.1,0.3,0.1c0.3,0,0.6-0.2,0.7-0.4l1.3-3.1
						L31.6,122.2z"/>
					<path class="st5" d="M30.8,116.6l-0.8,1.9l3.5,8.3c0.1,0.1,0.1,0.2,0.3,0.2c0.3,0.1,0.6,0,0.8-0.3l0.3-0.6L30.8,116.6z"/>
					<polygon class="st9" points="41.2,110.9 36.8,121.3 37.6,123.2 42,112.8 					"/>
					<path class="st9" d="M36.4,122.2l-1.6,3.7l-0.3,0.6c-0.1,0.3-0.5,0.4-0.8,0.3c-0.1,0-0.2-0.1-0.3-0.2l0,0l0.1,0.3
						c0,0,0,0.1,0,0.1c0.2,0.3,0.6,0.6,1.1,0.6c0.6,0,1-0.3,1.2-0.7l1.2-2.9L36.4,122.2z"/>
					<path class="st5" d="M35.6,116.6l-0.8,1.9l3.5,8.2c0.1,0.1,0.1,0.2,0.3,0.2c0.3,0.1,0.6,0,0.8-0.3l0.3-0.6L35.6,116.6z"/>
					<path class="st8" d="M31.6,111l-4.4,10.3c-0.2,0.4,0,0.8,0.4,1c0.1,0,0.2,0.1,0.3,0.1c0.3,0,0.6-0.2,0.7-0.4l3.8-9L31.6,111z"
						/>
					<polygon class="st10" points="36,111.9 36.8,113.8 37.2,112.8 36.4,110.9 					"/>
					<g>
						<polygon class="st11" points="40.8,111.9 41.6,113.8 42,112.8 41.2,110.9 						"/>
					</g>
					<path class="st7" d="M44.2,118.9c0.1-0.1,0.1-0.3,0.1-0.5c0-0.2,0-0.3-0.1-0.5l0,0l-0.6-1.4l-0.4,1l0.6,1.4h0
						c0.1,0.1,0.1,0.3,0.1,0.5c0,0.2,0,0.3-0.1,0.5L44.2,118.9L44.2,118.9z"/>
					<polygon class="st10" points="31.2,123.2 32,125.1 32.4,124.1 31.6,122.2 					"/>
					<polygon class="st11" points="36,123.2 36.8,125.1 37.2,124.1 36.4,122.2 					"/>
					<polygon class="st12" points="31.2,111.9 32,113.8 32.4,112.8 31.6,111 					"/>
					<path class="st5" d="M31.1,106c-0.2-0.4-0.6-0.5-1-0.4c-0.1,0-0.2,0.1-0.2,0.2c-0.2,0.2-0.3,0.5-0.1,0.8l4.2,10l0.8-1.9
						L31.1,106z"/>
					<g>
						<g>
							<path class="st13" d="M53,113.1h-0.8l-0.4-1h-1.4l-0.4,1h-0.8l1.5-3.8h0.8L53,113.1z M51.1,110.1L51.1,110.1l-0.5,1.4h1
								L51.1,110.1z"/>
							<path class="st13" d="M57.6,113.1h-0.7v-1.5c0-0.4-0.2-0.6-0.5-0.6c-0.2,0-0.4,0.1-0.5,0.2c0,0.1,0,0.1,0,0.2v1.7h-0.7v-1.5
								c0-0.4-0.2-0.6-0.5-0.6c-0.2,0-0.4,0.1-0.5,0.3v1.9h-0.7v-2.7h0.7v0.3h0c0.1-0.1,0.4-0.4,0.8-0.4c0.4,0,0.6,0.1,0.8,0.4
								c0.1-0.2,0.4-0.4,0.9-0.4c0.6,0,1,0.3,1,1.1V113.1z"/>
							<path class="st13" d="M59.4,110.3c0.8,0,1.2,0.4,1.2,1.4v0.3h-1.7c0,0.4,0.3,0.6,0.7,0.6c0.4,0,0.7-0.2,0.8-0.3l0.2,0.5
								c-0.1,0.1-0.4,0.4-1.1,0.4c-0.8,0-1.4-0.5-1.4-1.4C58.1,110.8,58.7,110.3,59.4,110.3z M58.9,111.4H60c0-0.3-0.2-0.5-0.5-0.5
								C59.2,110.9,58.9,111.1,58.9,111.4z"/>
							<path class="st13" d="M62.9,111c0,0-0.1,0-0.1,0c-0.4,0-0.6,0.2-0.7,0.4v1.7h-0.7v-2.7H62v0.4h0c0.1-0.2,0.3-0.5,0.9-0.5V111
								z"/>
							<path class="st13" d="M64.1,109.7L64.1,109.7c0,0.2-0.1,0.4-0.4,0.4c-0.2,0-0.4-0.1-0.4-0.3v0c0-0.2,0.1-0.3,0.4-0.3
								C64,109.4,64.1,109.5,64.1,109.7z M64.1,113.1h-0.7v-2.7h0.7V113.1z"/>
							<path class="st13" d="M57.5,115.2L57.5,115.2c0,0.2-0.1,0.4-0.4,0.4c-0.2,0-0.4-0.1-0.4-0.3v0c0-0.2,0.1-0.3,0.4-0.3
								C57.4,114.8,57.5,115,57.5,115.2z M57.5,118.6h-0.7v-2.7h0.7V118.6z"/>
							<path class="st13" d="M66.7,111.1c-0.1-0.1-0.3-0.2-0.5-0.2c-0.4,0-0.8,0.2-0.8,0.8c0,0.5,0.3,0.8,0.8,0.8
								c0.3,0,0.5-0.1,0.6-0.2l0.2,0.5c-0.2,0.1-0.4,0.3-0.9,0.3c-0.8,0-1.4-0.4-1.4-1.4c0-1,0.7-1.4,1.5-1.4c0.5,0,0.7,0.1,0.9,0.2
								L66.7,111.1z"/>
							<path class="st13" d="M70.1,113.1c0,0-0.2,0.1-0.4,0.1c-0.3,0-0.5-0.1-0.6-0.3c-0.1,0.2-0.4,0.3-0.8,0.3
								c-0.6,0-0.9-0.3-0.9-0.8c0-0.6,0.5-0.9,1.2-0.9c0.2,0,0.4,0,0.4,0v0c0-0.4-0.2-0.5-0.6-0.5c-0.4,0-0.6,0.2-0.7,0.3l-0.3-0.5
								c0.2-0.2,0.5-0.4,1.1-0.4c0.8,0,1.2,0.4,1.2,1.2v0.8c0,0.2,0.1,0.3,0.2,0.3c0.1,0,0.1,0,0.1,0V113.1z M69,112.4L69,112.4V112
								c0,0-0.2,0-0.3,0c-0.4,0-0.6,0.1-0.6,0.3c0,0.2,0.1,0.3,0.4,0.3C68.8,112.6,68.9,112.5,69,112.4z"/>
							<path class="st13" d="M71.2,110.7L71.2,110.7c0.1-0.1,0.4-0.4,0.9-0.4c0.6,0,1,0.3,1,1.1v1.7h-0.7v-1.5
								c0-0.4-0.2-0.6-0.5-0.6c-0.3,0-0.5,0.2-0.5,0.3v1.9h-0.7v-2.7h0.7V110.7z"/>
							<path class="st13" d="M53,118.6h-0.8l-0.4-1h-1.4l-0.4,1h-0.8l1.5-3.8h0.8L53,118.6z M51.1,115.6L51.1,115.6l-0.5,1.4h1
								L51.1,115.6z"/>
							<path class="st13" d="M54.5,118.5c0,0-0.2,0.1-0.4,0.1c-0.5,0-0.8-0.2-0.8-0.9v-3.1h0.7v3c0,0.3,0.1,0.3,0.3,0.3
								c0.1,0,0.1,0,0.1,0V118.5z"/>
							<path class="st13" d="M56.2,118.5c0,0-0.2,0.1-0.4,0.1c-0.5,0-0.8-0.2-0.8-0.9v-3.1h0.7v3c0,0.3,0.1,0.3,0.3,0.3
								c0.1,0,0.1,0,0.1,0V118.5z"/>
							<path class="st13" d="M60.8,118.5c0,0-0.2,0.1-0.4,0.1c-0.3,0-0.5-0.1-0.6-0.3c-0.1,0.2-0.4,0.3-0.8,0.3
								c-0.6,0-0.9-0.3-0.9-0.8c0-0.6,0.5-0.9,1.2-0.9c0.2,0,0.4,0,0.4,0v0c0-0.4-0.2-0.5-0.6-0.5c-0.4,0-0.6,0.2-0.7,0.3l-0.3-0.5
								c0.2-0.2,0.5-0.4,1.1-0.4c0.8,0,1.2,0.4,1.2,1.2v0.8c0,0.2,0.1,0.3,0.2,0.3c0.1,0,0.1,0,0.1,0V118.5z M59.8,117.8L59.8,117.8
								v-0.4c0,0-0.2,0-0.3,0c-0.4,0-0.6,0.1-0.6,0.3c0,0.2,0.1,0.3,0.4,0.3C59.5,118,59.7,117.9,59.8,117.8z"/>
							<path class="st13" d="M62.1,116.1L62.1,116.1c0.1-0.1,0.4-0.4,0.9-0.4c0.6,0,1,0.3,1,1.1v1.7h-0.7V117c0-0.4-0.2-0.6-0.5-0.6
								c-0.3,0-0.5,0.2-0.5,0.3v1.9h-0.7v-2.7h0.7V116.1z"/>
							<path class="st13" d="M66.5,116.6c-0.1-0.1-0.3-0.2-0.5-0.2c-0.4,0-0.8,0.2-0.8,0.8c0,0.5,0.3,0.8,0.8,0.8
								c0.3,0,0.5-0.1,0.6-0.2l0.2,0.5c-0.2,0.1-0.4,0.3-0.9,0.3c-0.8,0-1.4-0.4-1.4-1.4c0-1,0.7-1.4,1.5-1.4c0.5,0,0.7,0.1,0.9,0.2
								L66.5,116.6z"/>
							<path class="st13" d="M68.3,115.8c0.8,0,1.2,0.4,1.2,1.4v0.3h-1.7c0,0.4,0.3,0.6,0.7,0.6c0.4,0,0.7-0.2,0.8-0.3l0.2,0.5
								c-0.1,0.1-0.4,0.4-1.1,0.4c-0.8,0-1.4-0.5-1.4-1.4C67,116.3,67.5,115.8,68.3,115.8z M67.7,116.9h1.1c0-0.3-0.2-0.5-0.5-0.5
								C68,116.4,67.7,116.6,67.7,116.9z"/>
							<path class="st13" d="M53.2,124h-0.7v-2.6h0l-0.9,1.5h-0.6l-0.9-1.5h0v2.6h-0.8v-3.8h0.9l1.1,1.7h0l1.1-1.7h0.9V124z"/>
							<path class="st13" d="M56.4,124h-0.7v-0.3h0c-0.1,0.1-0.3,0.4-0.9,0.4c-0.6,0-1-0.3-1-1.1v-1.7h0.7v1.5
								c0,0.4,0.2,0.6,0.5,0.6c0.3,0,0.5-0.2,0.5-0.3v-1.9h0.7V124z"/>
							<path class="st13" d="M58.8,122.1c-0.1-0.1-0.4-0.2-0.7-0.2c-0.3,0-0.4,0.1-0.4,0.2c0,0.1,0.1,0.2,0.4,0.3l0.2,0.1
								c0.5,0.2,0.8,0.4,0.8,0.8c0,0.5-0.4,0.9-1.1,0.9c-0.6,0-0.9-0.2-1-0.3l0.2-0.6c0.1,0.1,0.4,0.3,0.7,0.3
								c0.3,0,0.4-0.1,0.4-0.2c0-0.1-0.1-0.2-0.4-0.3l-0.2-0.1c-0.5-0.1-0.8-0.4-0.8-0.8c0-0.5,0.5-0.8,1.1-0.8
								c0.5,0,0.8,0.2,0.9,0.3L58.8,122.1z"/>
							<path class="st13" d="M60.8,121.3c0.8,0,1.2,0.4,1.2,1.4v0.3h-1.7c0,0.4,0.3,0.6,0.7,0.6c0.4,0,0.7-0.2,0.8-0.3l0.2,0.5
								c-0.1,0.1-0.4,0.4-1.1,0.4c-0.8,0-1.4-0.5-1.4-1.4C59.5,121.7,60.1,121.3,60.8,121.3z M60.2,122.4h1.1c0-0.3-0.2-0.5-0.5-0.5
								C60.5,121.9,60.3,122.1,60.2,122.4z"/>
							<path class="st13" d="M65,124h-0.7v-0.3h0c-0.1,0.1-0.3,0.4-0.9,0.4c-0.6,0-1-0.3-1-1.1v-1.7h0.7v1.5c0,0.4,0.2,0.6,0.5,0.6
								c0.3,0,0.5-0.2,0.5-0.3v-1.9H65V124z"/>
							<path class="st13" d="M69.9,124h-0.7v-1.5c0-0.4-0.2-0.6-0.5-0.6c-0.2,0-0.4,0.1-0.5,0.2c0,0.1,0,0.1,0,0.2v1.7h-0.7v-1.5
								c0-0.4-0.2-0.6-0.5-0.6c-0.2,0-0.4,0.1-0.5,0.3v1.9h-0.7v-2.7h0.7v0.3h0c0.1-0.1,0.4-0.4,0.8-0.4c0.4,0,0.6,0.1,0.8,0.4
								c0.1-0.2,0.4-0.4,0.9-0.4c0.6,0,1,0.3,1,1.1V124z"/>
							<path class="st13" d="M72.2,122.1c-0.1-0.1-0.4-0.2-0.7-0.2c-0.3,0-0.4,0.1-0.4,0.2c0,0.1,0.1,0.2,0.4,0.3l0.2,0.1
								c0.5,0.2,0.8,0.4,0.8,0.8c0,0.5-0.4,0.9-1.1,0.9c-0.6,0-0.9-0.2-1-0.3l0.2-0.6c0.1,0.1,0.4,0.3,0.7,0.3
								c0.3,0,0.4-0.1,0.4-0.2c0-0.1-0.1-0.2-0.4-0.3l-0.2-0.1c-0.5-0.1-0.8-0.4-0.8-0.8c0-0.5,0.5-0.8,1.1-0.8
								c0.5,0,0.8,0.2,0.9,0.3L72.2,122.1z"/>
							<g>
								<path class="st13" d="M72.6,118.6c-0.7,0-1.4-0.4-1.4-1.4c0-1,0.6-1.4,1.4-1.4c0.7,0,1.4,0.4,1.4,1.4
									C74,118.2,73.4,118.6,72.6,118.6z M72.6,116.4c-0.3,0-0.6,0.2-0.6,0.8c0,0.5,0.3,0.8,0.6,0.8c0.4,0,0.6-0.2,0.6-0.8
									C73.2,116.7,73,116.4,72.6,116.4z"/>
								<path class="st13" d="M76.1,115.3c0,0-0.1,0-0.2,0c-0.3,0-0.4,0.1-0.4,0.4v0.2h0.7v0.6h-0.7v2.1h-0.7v-2.1h-0.3v-0.6h0.3
									v-0.1c0-0.7,0.4-1.1,1.1-1.1c0.2,0,0.3,0,0.4,0V115.3z"/>
							</g>
						</g>
					</g>
				</g>
			</g>
		</g>
	</g>
</g>
</svg>