<!-- Generator: Adobe Illustrator 21.0.0, SVG Export Plug-In  -->
<svg version="1.1"
	 xmlns="http://www.w3.org/2000/svg" xmlns:xlink="http://www.w3.org/1999/xlink" xmlns:a="http://ns.adobe.com/AdobeSVGViewerExtensions/3.0/"
	 x="0px" y="0px" width="103.7px" height="150px" viewBox="0 0 103.7 150" style="enable-background:new 0 0 103.7 150;"
	 xml:space="preserve">
<style type="text/css">
	.st0{fill:#FFFFFF;}
	.st1{fill:none;stroke:#929497;stroke-width:0.25;stroke-miterlimit:10;}
	.st2{fill:#355599;}
	.st3{fill:#009944;}
	.st4{fill:#D0D2D3;}
	.st5{fill:#BDBBBB;}
	.st6{fill:#D13239;}
	.st7{fill:#A93439;}
	.st8{fill:#00A19B;}
	.st9{fill:#FF5000;}
	.st10{fill:#006241;}
	.st11{fill:#D4451D;}
	.st12{fill:#007166;}
	.st13{fill:#004E59;}
</style>
<defs>
</defs>
<g>
	
		<image style="overflow:visible;opacity:0.35;" width="432" height="625" xlink:href="7320AF206DC60611.png"  transform="matrix(0.24 0 0 0.24 0 0)">
	</image>
	<g>
		<g>
			<g>
				<rect x="20.5" y="51" class="st0" width="62.2" height="81.6"/>
				<rect x="20.5" y="51" class="st1" width="62.2" height="81.6"/>
			</g>
			<g>
				<g>
					<polygon class="st2" points="88.2,103.8 51.6,92.6 15,103.8 15,13 88.2,13 					"/>
				</g>
			</g>
			<g>
				<path class="st0" d="M46.9,28.4c0,0.4,0,0.7-0.1,1.1c-0.6,0-1.1,0-1.8,0s-1.3,0-1.9,0L43,28.6c1.7-1.5,2.5-2.2,2.5-3
					c0-0.5-0.3-0.7-0.8-0.7c-0.4,0-0.8,0.1-1.3,0.5l-0.3-1c0.5-0.3,1.2-0.6,1.8-0.6c1,0,1.8,0.6,1.8,1.6c0,0.7-0.4,1.3-0.9,1.9
					c-0.3,0.3-0.7,0.8-1.1,1.1C45.4,28.4,46.3,28.4,46.9,28.4z"/>
				<path class="st0" d="M52.1,26.6c0,1.7-0.8,3-2.2,3c-1.4,0-2.1-1.3-2.1-2.8c0-1.7,0.8-3,2.2-3C51.3,23.8,52.1,25.1,52.1,26.6z
					 M50.8,26.7c0-1.3-0.4-1.9-1-1.9c-0.6,0-1,0.8-1,1.9c0,1.3,0.4,1.9,0.9,1.9C50.5,28.6,50.8,27.9,50.8,26.7z"/>
				<path class="st0" d="M55.2,23.9c0,0.2,0,0.7,0,1v3.5c0,0.3,0,0.8,0,1h-1.3c0-0.3,0-1.2,0-1.6v-2.7l-1.1,0.3l-0.2-1
					c0.6-0.2,1.1-0.3,1.5-0.5l0.6-0.2L55.2,23.9z"/>
				<path class="st0" d="M57.5,26.4c0.3-0.3,0.7-0.5,1.2-0.5c1,0,1.7,0.8,1.7,1.7c0,1.1-0.8,2-2,2c-1.3,0-2-0.9-2-2.3
					c0-1.9,1.1-3.3,3.4-3.5l0.2,1C58.5,24.9,57.8,25.5,57.5,26.4z M58.3,26.7c-0.4,0-0.8,0.4-0.8,0.9c0,0.6,0.4,1,0.8,1
					c0.5,0,0.8-0.4,0.8-1C59.1,27,58.8,26.7,58.3,26.7z"/>
			</g>
			<g>
				<path class="st0" d="M24.2,38.4l0.2-1.8c0.1-0.5,0.2-1.5,0.2-2l0.8-0.1c0.1,0.3,0.4,0.8,0.5,1.2l1.2,2.7l1.2-2.7
					c0.1-0.3,0.4-0.8,0.5-1.1h0.8c0,0.5,0.2,1.5,0.2,2l0.2,1.8c0.1,0.5,0.2,1.5,0.3,1.9l-1.3,0.1c0-0.2-0.1-0.9-0.1-1.2l-0.3-2.1
					c-0.4,0.9-1.3,3-1.4,3.3l-0.6,0l-1.4-3.3l-0.2,2c0,0.3-0.1,0.9-0.1,1.2h-1.3C24,39.9,24.2,39,24.2,38.4z"/>
				<path class="st0" d="M36.6,35.9v2c0,0.9-0.2,1.5-0.7,1.9c-0.4,0.4-1.1,0.7-1.9,0.7c-1.4,0-2.4-0.8-2.4-2.2v-1.7
					c0-0.5,0-1.5-0.1-1.9c0.3,0,1.1,0,1.4,0c0,0.2,0,0.9,0,1.2v2.2c0,1,0.5,1.4,1.2,1.4c0.7,0,1.1-0.4,1.1-1.2v-1.5
					c0-0.5,0-1.5-0.1-1.9c0.3,0,1.1,0,1.4,0C36.6,34.9,36.6,35.6,36.6,35.9z"/>
				<path class="st0" d="M39.5,40.5c-0.6,0-1.3-0.2-1.8-0.5l0-1.2c0.4,0.3,1.1,0.6,1.7,0.6c0.5,0,0.7-0.2,0.7-0.6
					c0-0.9-2.4-1-2.4-2.5c0-1.1,0.8-1.7,1.9-1.7c0.6,0,1.2,0.2,1.5,0.4l-0.3,1c-0.3-0.2-0.8-0.4-1.2-0.4c-0.4,0-0.7,0.2-0.7,0.6
					c0,0.8,2.4,0.9,2.4,2.5C41.5,39.8,40.7,40.5,39.5,40.5z"/>
				<path class="st0" d="M46.3,40.4c-0.5,0-1.1,0-1.7,0c-0.6,0-1.3,0-1.9,0c0-0.4,0.1-1.4,0.1-2v-1.8c0-0.5,0-1.6-0.1-2
					c0.5,0,1.1,0,1.8,0c0.6,0,1.2,0,1.7,0c0,0.3-0.1,0.6-0.1,1c-0.4,0-0.9,0-1.4,0c-0.2,0-0.5,0-0.7,0c0,0.1,0,0.3,0,0.4V37l1.8,0
					c0,0.3,0,0.6,0,1l-1.8,0v1c0,0.1,0,0.3,0,0.4c0.2,0,0.5,0,0.7,0c0.6,0,1.1,0,1.6,0C46.3,39.7,46.3,40,46.3,40.4z"/>
				<path class="st0" d="M50.2,36.3c0.3-0.7,0.5-1.1,0.6-1.6l0.9-0.1l1.8,4.1c0.2,0.5,0.5,1.1,0.8,1.6L53,40.4l-0.6-1.3h-2.1
					c-0.1,0.3-0.4,1-0.5,1.2h-1.4L50.2,36.3z M50.6,38.3h1.5l-0.7-1.9L50.6,38.3z"/>
				<path class="st0" d="M60.9,38.8c-0.2,0.7-0.4,1.1-0.5,1.6l-0.8,0.1l-1.3-3.7L57.5,39c-0.2,0.5-0.3,0.9-0.5,1.4h-0.8l-1.4-4.1
					c-0.2-0.5-0.4-1.1-0.6-1.6l1.4-0.1l1.1,3.8l0.8-2.4c0.1-0.3,0.3-1,0.4-1.3l0.8-0.1l1.3,3.8l0.7-2.4l0.4-1.3h1.3L60.9,38.8z"/>
				<path class="st0" d="M64,36.3c0.3-0.7,0.5-1.1,0.6-1.6l0.9-0.1l1.8,4.1c0.2,0.5,0.5,1.1,0.8,1.6l-1.4,0.1l-0.6-1.3H64
					c-0.1,0.3-0.4,1-0.5,1.2h-1.4L64,36.3z M64.3,38.3h1.5l-0.7-1.9L64.3,38.3z"/>
				<path class="st0" d="M72.1,40.4l-1.2-2l-0.1,0h-0.5v0.8c0,0.3,0,0.9,0,1.2h-1.4C69,40,69,39,69,38.4v-1.8c0-0.5,0-1.5-0.1-1.9
					c0.3,0,1.4,0,1.7,0c1.6,0,2.5,0.7,2.4,1.7c0,0.8-0.4,1.3-1.1,1.7l0.9,1.3c0.2,0.3,0.5,0.7,0.7,0.9L72.1,40.4z M70.9,37.5
					c0.6,0,1-0.4,1-0.9c0-0.5-0.3-0.9-1.1-0.9c-0.2,0-0.4,0-0.5,0v1.8H70.9z"/>
				<path class="st0" d="M76.4,40.4h-1.9c0-0.4,0.1-1.4,0.1-1.9v-1.8c0-0.5,0-1.5-0.1-1.9c0.3,0,0.9,0,1.8,0c2.1,0,3.2,1.1,3.2,2.7
					C79.5,39.2,78.3,40.4,76.4,40.4z M76.4,35.7c-0.2,0-0.4,0-0.5,0c0,0.1,0,0.3,0,0.4V39c0,0.1,0,0.2,0,0.4c0.2,0,0.3,0,0.5,0
					c1.3,0,1.8-0.8,1.8-1.9C78.2,36.4,77.5,35.7,76.4,35.7z"/>
				<path class="st0" d="M33.9,51.4l-1.2-2l-0.1,0H32v0.8c0,0.3,0,0.9,0,1.2h-1.4c0-0.4,0.1-1.4,0.1-1.9v-1.8c0-0.5,0-1.5-0.1-1.9
					c0.3,0,1.4,0,1.7,0c1.6,0,2.5,0.7,2.4,1.7c0,0.8-0.4,1.3-1.1,1.7l0.9,1.3c0.2,0.3,0.5,0.7,0.7,0.9L33.9,51.4z M32.6,48.5
					c0.6,0,1-0.4,1-0.9c0-0.5-0.3-0.9-1.1-0.9c-0.2,0-0.4,0-0.5,0v1.8H32.6z"/>
				<path class="st0" d="M39.9,51.4c-0.5,0-1.1,0-1.7,0c-0.6,0-1.3,0-1.9,0c0-0.4,0.1-1.4,0.1-2v-1.8c0-0.5,0-1.6-0.1-2
					c0.5,0,1.1,0,1.8,0c0.6,0,1.2,0,1.7,0c0,0.3-0.1,0.6-0.1,1c-0.4,0-0.9,0-1.4,0c-0.2,0-0.5,0-0.7,0c0,0.1,0,0.3,0,0.4V48l1.8,0
					c0,0.3,0,0.6,0,1l-1.8,0v1c0,0.1,0,0.3,0,0.4c0.2,0,0.5,0,0.7,0c0.6,0,1.1,0,1.6,0C39.9,50.7,39.9,51,39.9,51.4z"/>
				<path class="st0" d="M45.4,51c-0.5,0.4-1.1,0.5-1.8,0.5c-1.7,0-2.9-1.3-2.9-2.8c0-1.8,1.3-3.1,3.1-3.1c0.6,0,1.3,0.2,1.7,0.5
					l-0.2,1.1c-0.4-0.3-0.9-0.5-1.4-0.5c-1.1,0-1.8,0.8-1.8,1.9c0,1.2,0.8,1.9,1.8,1.9c0.7,0,1.2-0.3,1.7-0.7L45.4,51z"/>
				<path class="st0" d="M46.6,51.4c0-0.4,0.1-1.4,0.1-1.9v-1.8c0-0.5,0-1.5-0.1-1.9c0.3,0,1.1,0,1.4,0c0,0.2,0,0.9,0,1.2v3.3
					c0,0.3,0,0.9,0,1.2H46.6z"/>
				<path class="st0" d="M50.8,50.2c0,0.3,0,0.9,0,1.2h-1.4c0-0.4,0.1-1.4,0.1-1.9v-1.8c0-0.5,0-1.5-0.1-1.9c0.3,0,1.3,0,1.8,0
					c1.6,0,2.3,0.8,2.3,1.8c0,1.1-0.8,2-2.5,2c-0.1,0-0.2,0-0.3,0V50.2z M51.3,46.7c-0.2,0-0.3,0-0.5,0v1.8c0.1,0,0.2,0,0.3,0
					c0.7,0,1.2-0.3,1.2-1C52.3,47,52,46.7,51.3,46.7z"/>
				<path class="st0" d="M54.5,51.4c0-0.4,0.1-1.4,0.1-1.9v-1.8c0-0.5,0-1.5-0.1-1.9c0.3,0,1.1,0,1.4,0c0,0.2,0,0.9,0,1.2v3.3
					c0,0.3,0,0.9,0,1.2H54.5z"/>
				<path class="st0" d="M61,51.4c-0.5,0-1.1,0-1.7,0c-0.6,0-1.3,0-1.9,0c0-0.4,0.1-1.4,0.1-2v-1.8c0-0.5,0-1.6-0.1-2
					c0.5,0,1.1,0,1.8,0c0.6,0,1.2,0,1.7,0c0,0.3-0.1,0.6-0.1,1c-0.4,0-0.9,0-1.4,0c-0.2,0-0.5,0-0.7,0c0,0.1,0,0.3,0,0.4V48l1.8,0
					c0,0.3,0,0.6,0,1l-1.8,0v1c0,0.1,0,0.3,0,0.4c0.2,0,0.5,0,0.7,0c0.6,0,1.1,0,1.6,0C61,50.7,61,51,61,51.4z"/>
				<path class="st0" d="M62.2,49.4l0-1.9c0-0.5,0-1.5,0-1.9l0.8-0.1l3,3.6v-1.6c0-0.5,0-1.5-0.1-1.9c0.3,0,1.1,0,1.3,0
					c0,0.2,0,0.9,0,1.2l0,3.4c0,0.3,0,1,0,1.2l-0.8,0.1l-3-3.6v2.3c0,0.3,0,0.9,0,1.2h-1.3C62.2,51,62.2,50,62.2,49.4z"/>
				<path class="st0" d="M73,46.8c-0.6,0-1.1,0-1.7,0c0,0.2,0,0.4,0,0.5v2.9c0,0.3,0,0.9,0,1.2h-1.4C70,51,70,50,70,49.4V48
					c0-0.3,0-0.8,0-1.2c-0.7,0-1.2,0-1.8,0c0-0.3,0-0.7,0-1.1c0.8,0,1.5,0,2.4,0c0.9,0,1.7,0,2.5,0C73.1,46,73,46.4,73,46.8z"/>
			</g>
			<g>
				<g>
					<path class="st3" d="M39.6,107l0.3-0.6c0.1-0.3,0.5-0.4,0.8-0.3c0.1,0,0.2,0.1,0.3,0.2l-0.1-0.3c0,0,0-0.1,0-0.1
						c-0.2-0.3-0.6-0.6-1.1-0.6c-0.6,0-1,0.3-1.2,0.7l-1.6,3.8l0.8,1.9L39.6,107z"/>
					<g>
						<path class="st4" d="M44.9,117.1c0-0.1,0.1-0.1,0.1-0.2L44.9,117.1z"/>
						<path class="st4" d="M44.9,115.7l0.1,0.2C45,115.8,45,115.7,44.9,115.7z"/>
						<path class="st5" d="M45,115.9l-0.1-0.2l-4.1-9.4c-0.1-0.1-0.1-0.2-0.3-0.2c-0.3-0.1-0.6,0-0.8,0.3l-0.3,0.6l4.6,10.7l0,0
							c0.1,0.1,0.1,0.3,0.1,0.5c0,0.2,0,0.4-0.1,0.5h0l0.7-1.6l0.1-0.2c0.1-0.2,0.1-0.3,0.1-0.5C45.1,116.2,45.1,116,45,115.9z"/>
					</g>
					<path class="st5" d="M36.1,106.3c-0.1-0.1-0.1-0.2-0.3-0.2c-0.3-0.1-0.6,0-0.8,0.3l-0.3,0.6l6.7,15.8l0.9-1.6L36.1,106.3z"/>
					<polygon class="st3" points="36.4,110.8 32,121.1 32.8,123 37.2,112.6 					"/>
					<path class="st6" d="M43.8,118.8L43.8,118.8l-0.6-1.4l-3.6,8.4l-0.3,0.6c-0.1,0.3-0.5,0.4-0.8,0.3c-0.1,0-0.2-0.1-0.3-0.2h0
						l0.1,0.3c0,0,0,0.1,0,0.1c0.2,0.3,0.6,0.6,1.1,0.6c0.6,0,1-0.3,1.2-0.7l3.1-7.1c0-0.1,0.1-0.3,0.1-0.5
						C43.9,119,43.9,118.9,43.8,118.8z"/>
					<path class="st7" d="M44.2,118.7c0.1-0.1,0.1-0.3,0.1-0.5c0-0.2,0-0.3-0.1-0.5l0,0l-0.6-1.4l-0.4,1l0.6,1.4h0
						c0.1,0.1,0.1,0.3,0.1,0.5c0,0.2,0,0.3-0.1,0.5L44.2,118.7L44.2,118.7z"/>
					<path class="st8" d="M34.8,107l0.3-0.6c0.1-0.3,0.5-0.4,0.8-0.3c0.1,0,0.2,0.1,0.3,0.2L36,106c0,0,0-0.1,0-0.1
						c-0.2-0.3-0.6-0.6-1.1-0.6c-0.6,0-1,0.3-1.2,0.7l-1.7,3.9l0.8,1.9L34.8,107z"/>
					<path class="st5" d="M28.6,111.1c-0.2-0.4-0.6-0.5-1-0.4c-0.1,0-0.2,0.1-0.2,0.2c-0.2,0.2-0.3,0.5-0.1,0.8l2,4.7l0.8-1.9
						L28.6,111.1z"/>
					<path class="st3" d="M31.6,122l-1.9,4.4c-0.2,0.4,0,0.8,0.4,1c0.1,0,0.2,0.1,0.3,0.1c0.3,0,0.6-0.2,0.7-0.4l1.3-3.1L31.6,122z"
						/>
					<path class="st5" d="M30.8,116.4l-0.8,1.9l3.5,8.3c0.1,0.1,0.1,0.2,0.3,0.2c0.3,0.1,0.6,0,0.8-0.3l0.3-0.6L30.8,116.4z"/>
					<polygon class="st9" points="41.2,110.8 36.8,121.2 37.6,123 42,112.6 					"/>
					<path class="st9" d="M36.4,122.1l-1.6,3.7l-0.3,0.6c-0.1,0.3-0.5,0.4-0.8,0.3c-0.1,0-0.2-0.1-0.3-0.2l0,0l0.1,0.3
						c0,0,0,0.1,0,0.1c0.2,0.3,0.6,0.6,1.1,0.6c0.6,0,1-0.3,1.2-0.7l1.2-2.9L36.4,122.1z"/>
					<path class="st5" d="M35.6,116.4l-0.8,1.9l3.5,8.2c0.1,0.1,0.1,0.2,0.3,0.2c0.3,0.1,0.6,0,0.8-0.3l0.3-0.6L35.6,116.4z"/>
					<path class="st8" d="M31.6,110.8l-4.4,10.3c-0.2,0.4,0,0.8,0.4,1c0.1,0,0.2,0.1,0.3,0.1c0.3,0,0.6-0.2,0.7-0.4l3.8-9
						L31.6,110.8z"/>
					<polygon class="st10" points="36,111.8 36.8,113.6 37.2,112.6 36.4,110.8 					"/>
					<g>
						<polygon class="st11" points="40.8,111.7 41.6,113.6 42,112.6 41.2,110.8 						"/>
					</g>
					<path class="st7" d="M44.2,118.7c0.1-0.1,0.1-0.3,0.1-0.5c0-0.2,0-0.3-0.1-0.5l0,0l-0.6-1.4l-0.4,1l0.6,1.4h0
						c0.1,0.1,0.1,0.3,0.1,0.5c0,0.2,0,0.3-0.1,0.5L44.2,118.7L44.2,118.7z"/>
					<polygon class="st10" points="31.2,123 32,124.9 32.4,123.9 31.6,122 					"/>
					<polygon class="st11" points="36,123 36.8,124.9 37.2,123.9 36.4,122.1 					"/>
					<polygon class="st12" points="31.2,111.8 32,113.7 32.4,112.7 31.6,110.8 					"/>
					<path class="st5" d="M31.1,105.8c-0.2-0.4-0.6-0.5-1-0.4c-0.1,0-0.2,0.1-0.2,0.2c-0.2,0.2-0.3,0.5-0.1,0.8l4.2,10l0.8-1.9
						L31.1,105.8z"/>
					<g>
						<g>
							<path class="st13" d="M53,112.9h-0.8l-0.4-1h-1.4l-0.4,1h-0.8l1.5-3.8h0.8L53,112.9z M51.1,109.9L51.1,109.9l-0.5,1.4h1
								L51.1,109.9z"/>
							<path class="st13" d="M57.6,112.9h-0.7v-1.5c0-0.4-0.2-0.6-0.5-0.6c-0.2,0-0.4,0.1-0.5,0.2c0,0.1,0,0.1,0,0.2v1.7h-0.7v-1.5
								c0-0.4-0.2-0.6-0.5-0.6c-0.2,0-0.4,0.1-0.5,0.3v1.9h-0.7v-2.7h0.7v0.3h0c0.1-0.1,0.4-0.4,0.8-0.4c0.4,0,0.6,0.1,0.8,0.4
								c0.1-0.2,0.4-0.4,0.9-0.4c0.6,0,1,0.3,1,1.1V112.9z"/>
							<path class="st13" d="M59.4,110.1c0.8,0,1.2,0.4,1.2,1.4v0.3h-1.7c0,0.4,0.3,0.6,0.7,0.6c0.4,0,0.7-0.2,0.8-0.3l0.2,0.5
								c-0.1,0.1-0.4,0.4-1.1,0.4c-0.8,0-1.4-0.5-1.4-1.4C58.1,110.6,58.7,110.1,59.4,110.1z M58.9,111.3H60c0-0.3-0.2-0.5-0.5-0.5
								C59.2,110.8,58.9,111,58.9,111.3z"/>
							<path class="st13" d="M62.9,110.8c0,0-0.1,0-0.1,0c-0.4,0-0.6,0.2-0.7,0.4v1.7h-0.7v-2.7H62v0.4h0c0.1-0.2,0.3-0.5,0.9-0.5
								V110.8z"/>
							<path class="st13" d="M64.1,109.6L64.1,109.6c0,0.2-0.1,0.4-0.4,0.4c-0.2,0-0.4-0.1-0.4-0.3v0c0-0.2,0.1-0.3,0.4-0.3
								C64,109.2,64.1,109.3,64.1,109.6z M64.1,112.9h-0.7v-2.7h0.7V112.9z"/>
							<path class="st13" d="M57.5,115L57.5,115c0,0.2-0.1,0.4-0.4,0.4c-0.2,0-0.4-0.1-0.4-0.3v0c0-0.2,0.1-0.3,0.4-0.3
								C57.4,114.7,57.5,114.8,57.5,115z M57.5,118.4h-0.7v-2.7h0.7V118.4z"/>
							<path class="st13" d="M66.7,111c-0.1-0.1-0.3-0.2-0.5-0.2c-0.4,0-0.8,0.2-0.8,0.8c0,0.5,0.3,0.8,0.8,0.8
								c0.3,0,0.5-0.1,0.6-0.2l0.2,0.5c-0.2,0.1-0.4,0.3-0.9,0.3c-0.8,0-1.4-0.4-1.4-1.4c0-1,0.7-1.4,1.5-1.4c0.5,0,0.7,0.1,0.9,0.2
								L66.7,111z"/>
							<path class="st13" d="M70.1,112.9c0,0-0.2,0.1-0.4,0.1c-0.3,0-0.5-0.1-0.6-0.3c-0.1,0.2-0.4,0.3-0.8,0.3
								c-0.6,0-0.9-0.3-0.9-0.8c0-0.6,0.5-0.9,1.2-0.9c0.2,0,0.4,0,0.4,0v0c0-0.4-0.2-0.5-0.6-0.5c-0.4,0-0.6,0.2-0.7,0.3l-0.3-0.5
								c0.2-0.2,0.5-0.4,1.1-0.4c0.8,0,1.2,0.4,1.2,1.2v0.8c0,0.2,0.1,0.3,0.2,0.3c0.1,0,0.1,0,0.1,0V112.9z M69,112.2L69,112.2
								v-0.4c0,0-0.2,0-0.3,0c-0.4,0-0.6,0.1-0.6,0.3c0,0.2,0.1,0.3,0.4,0.3C68.8,112.4,68.9,112.3,69,112.2z"/>
							<path class="st13" d="M71.2,110.5L71.2,110.5c0.1-0.1,0.4-0.4,0.9-0.4c0.6,0,1,0.3,1,1.1v1.7h-0.7v-1.5
								c0-0.4-0.2-0.6-0.5-0.6c-0.3,0-0.5,0.2-0.5,0.3v1.9h-0.7v-2.7h0.7V110.5z"/>
							<path class="st13" d="M53,118.4h-0.8l-0.4-1h-1.4l-0.4,1h-0.8l1.5-3.8h0.8L53,118.4z M51.1,115.4L51.1,115.4l-0.5,1.4h1
								L51.1,115.4z"/>
							<path class="st13" d="M54.5,118.4c0,0-0.2,0.1-0.4,0.1c-0.5,0-0.8-0.2-0.8-0.9v-3.1h0.7v3c0,0.3,0.1,0.3,0.3,0.3
								c0.1,0,0.1,0,0.1,0V118.4z"/>
							<path class="st13" d="M56.2,118.4c0,0-0.2,0.1-0.4,0.1c-0.5,0-0.8-0.2-0.8-0.9v-3.1h0.7v3c0,0.3,0.1,0.3,0.3,0.3
								c0.1,0,0.1,0,0.1,0V118.4z"/>
							<path class="st13" d="M60.8,118.4c0,0-0.2,0.1-0.4,0.1c-0.3,0-0.5-0.1-0.6-0.3c-0.1,0.2-0.4,0.3-0.8,0.3
								c-0.6,0-0.9-0.3-0.9-0.8c0-0.6,0.5-0.9,1.2-0.9c0.2,0,0.4,0,0.4,0v0c0-0.4-0.2-0.5-0.6-0.5c-0.4,0-0.6,0.2-0.7,0.3l-0.3-0.5
								c0.2-0.2,0.5-0.4,1.1-0.4c0.8,0,1.2,0.4,1.2,1.2v0.8c0,0.2,0.1,0.3,0.2,0.3c0.1,0,0.1,0,0.1,0V118.4z M59.8,117.7L59.8,117.7
								v-0.4c0,0-0.2,0-0.3,0c-0.4,0-0.6,0.1-0.6,0.3c0,0.2,0.1,0.3,0.4,0.3C59.5,117.9,59.7,117.8,59.8,117.7z"/>
							<path class="st13" d="M62.1,116L62.1,116c0.1-0.1,0.4-0.4,0.9-0.4c0.6,0,1,0.3,1,1.1v1.7h-0.7v-1.5c0-0.4-0.2-0.6-0.5-0.6
								c-0.3,0-0.5,0.2-0.5,0.3v1.9h-0.7v-2.7h0.7V116z"/>
							<path class="st13" d="M66.5,116.4c-0.1-0.1-0.3-0.2-0.5-0.2c-0.4,0-0.8,0.2-0.8,0.8c0,0.5,0.3,0.8,0.8,0.8
								c0.3,0,0.5-0.1,0.6-0.2l0.2,0.5c-0.2,0.1-0.4,0.3-0.9,0.3c-0.8,0-1.4-0.4-1.4-1.4c0-1,0.7-1.4,1.5-1.4c0.5,0,0.7,0.1,0.9,0.2
								L66.5,116.4z"/>
							<path class="st13" d="M68.3,115.6c0.8,0,1.2,0.4,1.2,1.4v0.3h-1.7c0,0.4,0.3,0.6,0.7,0.6c0.4,0,0.7-0.2,0.8-0.3l0.2,0.5
								c-0.1,0.1-0.4,0.4-1.1,0.4c-0.8,0-1.4-0.5-1.4-1.4C67,116.1,67.5,115.6,68.3,115.6z M67.7,116.8h1.1c0-0.3-0.2-0.5-0.5-0.5
								C68,116.2,67.7,116.4,67.7,116.8z"/>
							<path class="st13" d="M53.2,123.9h-0.7v-2.6h0l-0.9,1.5h-0.6l-0.9-1.5h0v2.6h-0.8v-3.8h0.9l1.1,1.7h0l1.1-1.7h0.9V123.9z"/>
							<path class="st13" d="M56.4,123.9h-0.7v-0.3h0c-0.1,0.1-0.3,0.4-0.9,0.4c-0.6,0-1-0.3-1-1.1v-1.7h0.7v1.5
								c0,0.4,0.2,0.6,0.5,0.6c0.3,0,0.5-0.2,0.5-0.3v-1.9h0.7V123.9z"/>
							<path class="st13" d="M58.8,121.9c-0.1-0.1-0.4-0.2-0.7-0.2c-0.3,0-0.4,0.1-0.4,0.2c0,0.1,0.1,0.2,0.4,0.3l0.2,0.1
								c0.5,0.2,0.8,0.4,0.8,0.8c0,0.5-0.4,0.9-1.1,0.9c-0.6,0-0.9-0.2-1-0.3l0.2-0.6c0.1,0.1,0.4,0.3,0.7,0.3
								c0.3,0,0.4-0.1,0.4-0.2c0-0.1-0.1-0.2-0.4-0.3l-0.2-0.1c-0.5-0.1-0.8-0.4-0.8-0.8c0-0.5,0.5-0.8,1.1-0.8
								c0.5,0,0.8,0.2,0.9,0.3L58.8,121.9z"/>
							<path class="st13" d="M60.8,121.1c0.8,0,1.2,0.4,1.2,1.4v0.3h-1.7c0,0.4,0.3,0.6,0.7,0.6c0.4,0,0.7-0.2,0.8-0.3l0.2,0.5
								c-0.1,0.1-0.4,0.4-1.1,0.4c-0.8,0-1.4-0.5-1.4-1.4C59.5,121.6,60.1,121.1,60.8,121.1z M60.2,122.2h1.1c0-0.3-0.2-0.5-0.5-0.5
								C60.5,121.7,60.3,121.9,60.2,122.2z"/>
							<path class="st13" d="M65,123.9h-0.7v-0.3h0c-0.1,0.1-0.3,0.4-0.9,0.4c-0.6,0-1-0.3-1-1.1v-1.7h0.7v1.5
								c0,0.4,0.2,0.6,0.5,0.6c0.3,0,0.5-0.2,0.5-0.3v-1.9H65V123.9z"/>
							<path class="st13" d="M69.9,123.9h-0.7v-1.5c0-0.4-0.2-0.6-0.5-0.6c-0.2,0-0.4,0.1-0.5,0.2c0,0.1,0,0.1,0,0.2v1.7h-0.7v-1.5
								c0-0.4-0.2-0.6-0.5-0.6c-0.2,0-0.4,0.1-0.5,0.3v1.9h-0.7v-2.7h0.7v0.3h0c0.1-0.1,0.4-0.4,0.8-0.4c0.4,0,0.6,0.1,0.8,0.4
								c0.1-0.2,0.4-0.4,0.9-0.4c0.6,0,1,0.3,1,1.1V123.9z"/>
							<path class="st13" d="M72.2,121.9c-0.1-0.1-0.4-0.2-0.7-0.2c-0.3,0-0.4,0.1-0.4,0.2c0,0.1,0.1,0.2,0.4,0.3l0.2,0.1
								c0.5,0.2,0.8,0.4,0.8,0.8c0,0.5-0.4,0.9-1.1,0.9c-0.6,0-0.9-0.2-1-0.3l0.2-0.6c0.1,0.1,0.4,0.3,0.7,0.3
								c0.3,0,0.4-0.1,0.4-0.2c0-0.1-0.1-0.2-0.4-0.3l-0.2-0.1c-0.5-0.1-0.8-0.4-0.8-0.8c0-0.5,0.5-0.8,1.1-0.8
								c0.5,0,0.8,0.2,0.9,0.3L72.2,121.9z"/>
							<g>
								<path class="st13" d="M72.6,118.5c-0.7,0-1.4-0.4-1.4-1.4c0-1,0.6-1.4,1.4-1.4c0.7,0,1.4,0.4,1.4,1.4
									C74,118,73.4,118.5,72.6,118.5z M72.6,116.3c-0.3,0-0.6,0.2-0.6,0.8c0,0.5,0.3,0.8,0.6,0.8c0.4,0,0.6-0.2,0.6-0.8
									C73.2,116.5,73,116.3,72.6,116.3z"/>
								<path class="st13" d="M76.1,115.1c0,0-0.1,0-0.2,0c-0.3,0-0.4,0.1-0.4,0.4v0.2h0.7v0.6h-0.7v2.1h-0.7v-2.1h-0.3v-0.6h0.3
									v-0.1c0-0.7,0.4-1.1,1.1-1.1c0.2,0,0.3,0,0.4,0V115.1z"/>
							</g>
						</g>
					</g>
				</g>
			</g>
			<g>
				<g>
					<path class="st0" d="M59.2,60.9h-2.3l0-0.9H46.4l0,0.9h-2.3c0,0,0,2.5,1.5,3.8c0.6,0.5,1.2,0.9,1.8,1.2
						c0.8,2.1,2.2,3.3,3.5,4.5c0.2,0.2,0.3,0.2,0.4,0.4c-0.6,0.6,0.7,2.6-1.8,4.5h4.4c-2.6-1.9-1.2-3.9-1.8-4.5
						c0.1-0.1,0.3-0.2,0.4-0.4c1.4-1.2,2.7-2.4,3.5-4.6c0.6-0.3,1.2-0.7,1.8-1.2C59.3,63.4,59.2,60.9,59.2,60.9z M46.2,64
						c-0.7-0.7-1-1.5-1.1-2h1.4c0.1,0.9,0.2,1.8,0.4,2.5C46.7,64.3,46.4,64.1,46.2,64z M57,64c-0.2,0.2-0.4,0.3-0.6,0.5
						c0.2-0.7,0.3-1.5,0.4-2.5h1.3C58,62.5,57.8,63.3,57,64z"/>
					<path class="st0" d="M55.9,80.4V76h-8.5v4.3H55.9z M54,79.2h-4.7v-2H54L54,79.2z"/>
				</g>
			</g>
		</g>
	</g>
</g>
</svg>