<!-- Generator: Adobe Illustrator 21.0.0, SVG Export Plug-In  -->
<svg version="1.1"
	 xmlns="http://www.w3.org/2000/svg" xmlns:xlink="http://www.w3.org/1999/xlink" xmlns:a="http://ns.adobe.com/AdobeSVGViewerExtensions/3.0/"
	 x="0px" y="0px" width="103.7px" height="150px" viewBox="0 0 103.7 150" style="enable-background:new 0 0 103.7 150;"
	 xml:space="preserve">
<style type="text/css">
	.st0{fill:#FFFFFF;}
	.st1{fill:none;stroke:#929497;stroke-width:0.25;stroke-miterlimit:10;}
	.st2{fill:#355599;}
	.st3{opacity:0.35;}
	.st4{fill:#231F20;}
</style>
<defs>
</defs>
<g>
	
		<image style="overflow:visible;opacity:0.35;" width="432" height="625" xlink:href="7F731A276C7D0213.png"  transform="matrix(0.24 0 0 0.24 0 0)">
	</image>
	<g>
		<g>
			<g>
				<rect x="20.7" y="51.1" class="st0" width="62.2" height="81.6"/>
				<rect x="20.7" y="51.1" class="st1" width="62.2" height="81.6"/>
			</g>
			<g>
				<g>
					<polygon class="st2" points="88.4,114.9 51.8,103.8 15.2,114.9 15.2,13.2 88.4,13.2 					"/>
				</g>
			</g>
			<g>
				<g>
					<path class="st0" d="M59.4,74.3H57l0-0.9H46.6l0,0.9h-2.3c0,0,0,2.5,1.5,3.8c0.6,0.5,1.2,0.9,1.8,1.2c0.8,2.1,2.2,3.3,3.5,4.5
						c0.2,0.2,0.3,0.2,0.4,0.4c-0.6,0.6,0.7,2.6-1.8,4.5H54c-2.6-1.9-1.2-3.9-1.8-4.5c0.1-0.1,0.3-0.2,0.4-0.4
						c1.4-1.2,2.7-2.4,3.5-4.6c0.6-0.3,1.2-0.7,1.8-1.2C59.4,76.8,59.4,74.3,59.4,74.3z M46.4,77.4c-0.7-0.7-1-1.5-1.1-2h1.4
						c0.1,0.9,0.2,1.8,0.4,2.5C46.8,77.7,46.6,77.6,46.4,77.4z M57.2,77.4c-0.2,0.2-0.4,0.3-0.6,0.5c0.2-0.7,0.3-1.5,0.4-2.5h1.3
						C58.2,75.9,57.9,76.7,57.2,77.4z"/>
					<path class="st0" d="M56,93.8v-4.3h-8.5v4.3H56z M54.2,92.6h-4.7v-2h4.7L54.2,92.6z"/>
				</g>
			</g>
			<g>
				<path class="st0" d="M47.2,28.5c0,0.4,0,0.7-0.1,1.1c-0.6,0-1.1,0-1.8,0s-1.3,0-1.9,0l-0.1-0.9c1.7-1.5,2.5-2.2,2.5-3
					c0-0.5-0.3-0.7-0.8-0.7c-0.4,0-0.8,0.1-1.3,0.5l-0.3-1c0.5-0.3,1.2-0.6,1.8-0.6c1,0,1.8,0.6,1.8,1.6c0,0.7-0.4,1.3-0.9,1.9
					c-0.3,0.3-0.7,0.8-1.1,1.1C45.7,28.6,46.6,28.6,47.2,28.5z"/>
				<path class="st0" d="M52.4,26.8c0,1.7-0.8,3-2.2,3c-1.4,0-2.1-1.3-2.1-2.8c0-1.7,0.8-3,2.2-3C51.6,24,52.4,25.2,52.4,26.8z
					 M51.1,26.9c0-1.3-0.4-1.9-1-1.9c-0.6,0-1,0.8-1,1.9c0,1.3,0.4,1.9,0.9,1.9C50.8,28.8,51.1,28,51.1,26.9z"/>
				<path class="st0" d="M55.5,24.1c0,0.2,0,0.7,0,1v3.5c0,0.3,0,0.8,0,1h-1.3c0-0.3,0-1.2,0-1.6v-2.7l-1.1,0.3l-0.2-1
					c0.6-0.2,1.1-0.3,1.5-0.5l0.6-0.2L55.5,24.1z"/>
				<path class="st0" d="M58.4,24.1c0.7,0,1.2,0,1.9,0l0.1,0.6c-0.1,0.2-0.3,0.7-0.4,1l-1.4,2.9c-0.1,0.2-0.4,0.9-0.5,1.1l-1.3-0.1
					c0.2-0.3,0.5-1,0.7-1.4l1.4-3H58c-0.6,0-1,0-1.5,0c0-0.2,0.1-0.9,0.1-1.1C57.3,24.1,57.6,24.1,58.4,24.1z"/>
			</g>
			<g>
				<path class="st0" d="M37.2,40.7c-0.6,0-1.3-0.2-1.8-0.5l0-1.2c0.4,0.3,1.1,0.6,1.7,0.6c0.5,0,0.7-0.2,0.7-0.6
					c0-0.9-2.4-1-2.4-2.5c0-1.1,0.8-1.7,1.9-1.7c0.6,0,1.2,0.2,1.5,0.4l-0.3,1c-0.3-0.2-0.8-0.4-1.2-0.4c-0.4,0-0.7,0.2-0.7,0.6
					c0,0.8,2.4,0.9,2.4,2.5C39.2,40,38.4,40.7,37.2,40.7z"/>
				<path class="st0" d="M41.7,39.4c0,0.3,0,0.9,0,1.2h-1.4c0-0.4,0.1-1.4,0.1-1.9v-1.8c0-0.5,0-1.5-0.1-1.9c0.3,0,1.3,0,1.8,0
					c1.6,0,2.3,0.8,2.3,1.8c0,1.1-0.8,2-2.5,2c-0.1,0-0.2,0-0.3,0V39.4z M42.1,35.9c-0.2,0-0.3,0-0.5,0v1.8c0.1,0,0.2,0,0.3,0
					c0.7,0,1.2-0.3,1.2-1C43.2,36.2,42.9,35.9,42.1,35.9z"/>
				<path class="st0" d="M49,40.6c-0.5,0-1.1,0-1.7,0c-0.6,0-1.3,0-1.9,0c0-0.4,0.1-1.4,0.1-2v-1.8c0-0.5,0-1.6-0.1-2
					c0.5,0,1.1,0,1.8,0c0.6,0,1.2,0,1.7,0c0,0.3-0.1,0.6-0.1,1c-0.4,0-0.9,0-1.4,0c-0.2,0-0.5,0-0.7,0c0,0.1,0,0.3,0,0.4v0.8l1.8,0
					c0,0.3,0,0.6,0,1l-1.8,0v1c0,0.1,0,0.3,0,0.4c0.2,0,0.5,0,0.7,0c0.6,0,1.1,0,1.6,0C49,39.8,49,40.2,49,40.6z"/>
				<path class="st0" d="M54.5,40.1c-0.5,0.4-1.1,0.5-1.8,0.5c-1.7,0-2.9-1.3-2.9-2.8c0-1.8,1.3-3.1,3.1-3.1c0.6,0,1.3,0.2,1.7,0.5
					l-0.2,1.1c-0.4-0.3-0.9-0.5-1.4-0.5c-1.1,0-1.8,0.8-1.8,1.9c0,1.2,0.8,1.9,1.8,1.9c0.7,0,1.2-0.3,1.7-0.7L54.5,40.1z"/>
				<path class="st0" d="M55.8,40.5c0-0.4,0.1-1.4,0.1-1.9v-1.8c0-0.5,0-1.5-0.1-1.9c0.3,0,1.1,0,1.4,0c0,0.2,0,0.9,0,1.2v3.3
					c0,0.3,0,0.9,0,1.2H55.8z"/>
				<path class="st0" d="M59.8,36.4c0.3-0.7,0.5-1.1,0.6-1.6l0.9-0.1l1.8,4.1c0.2,0.5,0.5,1.1,0.8,1.6l-1.4,0.1L62,39.3h-2.1
					c-0.1,0.3-0.4,1-0.5,1.2H58L59.8,36.4z M60.2,38.4h1.5l-0.7-1.9L60.2,38.4z"/>
				<path class="st0" d="M68.4,40.6c-0.5,0-1.1,0-1.8,0c-0.6,0-1.3,0-1.8,0c0-0.4,0.1-1.4,0.1-2v-1.8c0-0.5,0-1.5-0.1-1.9
					c0.3,0,1.1,0,1.4,0c0,0.2,0,0.9,0,1.2v3c0,0.1,0,0.3,0,0.4c0.2,0,0.4,0,0.6,0c0.6,0,1.1,0,1.7,0C68.4,39.8,68.4,40.2,68.4,40.6z
					"/>
				<path class="st0" d="M23.4,47.4c0.3-0.7,0.5-1.1,0.6-1.6l0.9-0.1l1.8,4.1c0.2,0.5,0.5,1.1,0.8,1.6l-1.4,0.1l-0.6-1.3h-2.1
					c-0.1,0.3-0.4,1-0.5,1.2h-1.4L23.4,47.4z M23.8,49.4h1.5l-0.7-1.9L23.8,49.4z"/>
				<path class="st0" d="M32.5,51.1c-0.5,0.4-1.1,0.5-1.8,0.5c-1.7,0-2.9-1.3-2.9-2.8c0-1.8,1.3-3.1,3.1-3.1c0.6,0,1.3,0.2,1.7,0.5
					l-0.2,1.1c-0.4-0.3-0.9-0.5-1.4-0.5c-1.1,0-1.8,0.8-1.8,1.9c0,1.2,0.8,1.9,1.8,1.9c0.7,0,1.2-0.3,1.7-0.7L32.5,51.1z"/>
				<path class="st0" d="M37.4,51.5c0-0.4,0.1-1.3,0.1-1.9v-0.5h-2.4v1.2c0,0.3,0,0.9,0,1.2h-1.4c0-0.4,0.1-1.4,0.1-1.9v-1.8
					c0-0.5,0-1.5-0.1-1.9c0.3,0,1.1,0,1.4,0c0,0.2,0,0.9,0,1.2v1.1h2.4v-0.3c0-0.5,0-1.5-0.1-1.9c0.3,0,1.1,0,1.4,0
					c0,0.2,0,0.9,0,1.2v3.3c0,0.3,0,0.9,0,1.2H37.4z"/>
				<path class="st0" d="M40.3,51.5c0-0.4,0.1-1.4,0.1-1.9v-1.8c0-0.5,0-1.5-0.1-1.9c0.3,0,1.1,0,1.4,0c0,0.2,0,0.9,0,1.2v3.3
					c0,0.3,0,0.9,0,1.2H40.3z"/>
				<path class="st0" d="M46.7,51.6c-0.5,0-1.1,0-1.7,0c-0.6,0-1.3,0-1.9,0c0-0.4,0.1-1.4,0.1-2v-1.8c0-0.5,0-1.6-0.1-2
					c0.5,0,1.1,0,1.8,0c0.6,0,1.2,0,1.7,0c0,0.3-0.1,0.6-0.1,1c-0.4,0-0.9,0-1.4,0c-0.2,0-0.5,0-0.7,0c0,0.1,0,0.3,0,0.4v0.8l1.8,0
					c0,0.3,0,0.6,0,1l-1.8,0v1c0,0.1,0,0.3,0,0.4c0.2,0,0.5,0,0.7,0c0.6,0,1.1,0,1.6,0C46.8,50.8,46.7,51.2,46.7,51.6z"/>
				<path class="st0" d="M48.8,45.9l1.5,3.9l0.9-2.5c0.2-0.4,0.3-0.9,0.5-1.3H53L51.3,50c-0.3,0.7-0.5,1.1-0.6,1.6l-0.8,0.1
					l-1.7-4.1c-0.2-0.5-0.5-1.1-0.7-1.6L48.8,45.9z"/>
				<path class="st0" d="M57.5,51.6c-0.5,0-1.1,0-1.7,0c-0.6,0-1.3,0-1.9,0c0-0.4,0.1-1.4,0.1-2v-1.8c0-0.5,0-1.6-0.1-2
					c0.5,0,1.1,0,1.8,0c0.6,0,1.2,0,1.7,0c0,0.3-0.1,0.6-0.1,1c-0.4,0-0.9,0-1.4,0c-0.2,0-0.5,0-0.7,0c0,0.1,0,0.3,0,0.4v0.8l1.8,0
					c0,0.3,0,0.6,0,1l-1.8,0v1c0,0.1,0,0.3,0,0.4c0.2,0,0.5,0,0.7,0c0.6,0,1.1,0,1.6,0C57.5,50.8,57.5,51.2,57.5,51.6z"/>
				<path class="st0" d="M58.7,49.6l0.2-1.8c0.1-0.5,0.2-1.5,0.2-2l0.8-0.1c0.1,0.3,0.4,0.8,0.5,1.2l1.2,2.7l1.2-2.7
					c0.1-0.3,0.4-0.8,0.5-1.1h0.8c0,0.5,0.2,1.5,0.2,2l0.2,1.8c0.1,0.5,0.2,1.5,0.3,1.9l-1.3,0.1c0-0.2-0.1-0.9-0.1-1.2l-0.3-2.1
					c-0.4,0.9-1.3,3-1.4,3.3l-0.6,0L60,48.4l-0.2,2c0,0.3-0.1,0.9-0.1,1.2h-1.3C58.4,51.1,58.6,50.1,58.7,49.6z"/>
				<path class="st0" d="M69.8,51.6c-0.5,0-1.1,0-1.7,0c-0.6,0-1.3,0-1.9,0c0-0.4,0.1-1.4,0.1-2v-1.8c0-0.5,0-1.6-0.1-2
					c0.5,0,1.1,0,1.8,0c0.6,0,1.2,0,1.7,0c0,0.3-0.1,0.6-0.1,1c-0.4,0-0.9,0-1.4,0c-0.2,0-0.5,0-0.7,0c0,0.1,0,0.3,0,0.4v0.8l1.8,0
					c0,0.3,0,0.6,0,1l-1.8,0v1c0,0.1,0,0.3,0,0.4c0.2,0,0.5,0,0.7,0c0.6,0,1.1,0,1.6,0C69.8,50.8,69.8,51.2,69.8,51.6z"/>
				<path class="st0" d="M71,49.6l0-1.9c0-0.5,0-1.5,0-1.9l0.8-0.1l3,3.6v-1.6c0-0.5,0-1.5-0.1-1.9c0.3,0,1.1,0,1.3,0
					c0,0.2,0,0.9,0,1.2l0,3.4c0,0.3,0,1,0,1.2l-0.8,0.1l-3-3.6v2.3c0,0.3,0,0.9,0,1.2h-1.3C71,51.1,71,50.1,71,49.6z"/>
				<path class="st0" d="M81.8,47c-0.6,0-1.1,0-1.7,0c0,0.2,0,0.4,0,0.5v2.9c0,0.3,0,0.9,0,1.2h-1.4c0-0.4,0.1-1.4,0.1-1.9v-1.4
					c0-0.3,0-0.8,0-1.2c-0.7,0-1.2,0-1.8,0c0-0.3,0-0.7,0-1.1c0.8,0,1.5,0,2.4,0c0.9,0,1.7,0,2.5,0C81.9,46.2,81.8,46.5,81.8,47z"/>
				<path class="st0" d="M38,58.4c0.3-0.7,0.5-1.1,0.6-1.6l0.9-0.1l1.8,4.1c0.2,0.5,0.5,1.1,0.8,1.6l-1.4,0.1l-0.6-1.3H38
					c-0.1,0.3-0.4,1-0.5,1.2h-1.4L38,58.4z M38.3,60.4h1.5l-0.7-1.9L38.3,60.4z"/>
				<path class="st0" d="M48.6,61c-0.2,0.7-0.4,1.1-0.5,1.6l-0.8,0.1L46,59l-0.8,2.2c-0.2,0.5-0.3,0.9-0.5,1.4h-0.8l-1.4-4.1
					c-0.2-0.5-0.4-1.1-0.6-1.6l1.4-0.1l1.1,3.8l0.8-2.4c0.1-0.3,0.3-1,0.4-1.3l0.8-0.1l1.3,3.8l0.7-2.4l0.4-1.3h1.3L48.6,61z"/>
				<path class="st0" d="M51.7,58.4c0.3-0.7,0.5-1.1,0.6-1.6l0.9-0.1l1.8,4.1c0.2,0.5,0.5,1.1,0.8,1.6l-1.4,0.1l-0.6-1.3h-2.1
					c-0.1,0.3-0.4,1-0.5,1.2h-1.4L51.7,58.4z M52.1,60.4h1.5l-0.7-1.9L52.1,60.4z"/>
				<path class="st0" d="M59.9,62.6l-1.2-2l-0.1,0H58v0.8c0,0.3,0,0.9,0,1.2h-1.4c0-0.4,0.1-1.4,0.1-1.9v-1.8c0-0.5,0-1.5-0.1-1.9
					c0.3,0,1.4,0,1.7,0c1.6,0,2.5,0.7,2.4,1.7c0,0.8-0.4,1.3-1.1,1.7l0.9,1.3c0.2,0.3,0.5,0.7,0.7,0.9L59.9,62.6z M58.6,59.7
					c0.6,0,1-0.4,1-0.9c0-0.5-0.3-0.9-1.1-0.9c-0.2,0-0.4,0-0.5,0v1.8H58.6z"/>
				<path class="st0" d="M64.2,62.5h-1.9c0-0.4,0.1-1.4,0.1-1.9v-1.8c0-0.5,0-1.5-0.1-1.9c0.3,0,0.9,0,1.8,0c2.1,0,3.2,1.1,3.2,2.7
					C67.2,61.4,66,62.5,64.2,62.5z M64.1,57.9c-0.2,0-0.4,0-0.5,0c0,0.1,0,0.3,0,0.4v2.8c0,0.1,0,0.2,0,0.4c0.2,0,0.3,0,0.5,0
					c1.3,0,1.8-0.8,1.8-1.9C65.9,58.6,65.3,57.9,64.1,57.9z"/>
			</g>
			<g class="st3">
				<path class="st4" d="M29,119c0,0.2,0,0.7,0,0.9h-1.3c0-0.3,0-1.1,0-1.4v-1.3c0-0.4,0-1.2,0-1.4c0.2,0,1.1,0,1.4,0
					c1.3,0,1.9,0.6,1.9,1.4c0,0.9-0.6,1.6-1.9,1.6H29V119z M29.2,116.5c-0.1,0-0.1,0-0.3,0v1.2c0.1,0,0.1,0,0.2,0
					c0.5,0,0.8-0.2,0.8-0.6C29.9,116.7,29.7,116.5,29.2,116.5z"/>
				<path class="st4" d="M32.2,116.8c0.2-0.5,0.3-0.8,0.5-1.1l1-0.1l1.3,3c0.2,0.4,0.4,0.9,0.6,1.2l-1.3,0l-0.3-0.8h-1.5
					c-0.1,0.2-0.3,0.7-0.3,0.8h-1.2L32.2,116.8z M32.7,118.3h1l-0.5-1.3L32.7,118.3z"/>
				<path class="st4" d="M39.8,116.6c-0.3,0-0.6,0-1,0c-0.2,0-0.4,0-0.5,0c0,0.1,0,0.2,0,0.3v0.5l1.2,0c0,0.3,0,0.5,0,0.9l-1.2,0
					v0.8c0,0.2,0,0.7,0,0.9h-1.3c0-0.3,0-1.1,0-1.4v-1.3c0-0.4,0-1.2,0-1.5c0.4,0,0.9,0,1.5,0c0.5,0,1,0,1.4,0
					C39.9,115.9,39.8,116.2,39.8,116.6z"/>
				<path class="st4" d="M43.4,119.9c-0.4,0-0.9,0-1.4,0c-0.5,0-1.1,0-1.5,0c0-0.3,0-1.1,0-1.5v-1.3c0-0.4,0-1.2,0-1.5
					c0.4,0,0.9,0,1.5,0c0.5,0,1,0,1.4,0c0,0.3,0,0.6,0,1c-0.3,0-0.6,0-1,0c-0.2,0-0.4,0-0.6,0c0,0.1,0,0.2,0,0.3v0.5l1.3,0
					c0,0.3,0,0.5,0,0.8h-1.3v0.5c0,0.1,0,0.2,0,0.3c0.2,0,0.4,0,0.6,0c0.4,0,0.8,0,1.1,0C43.4,119.2,43.4,119.5,43.4,119.9z"/>
				<path class="st4" d="M45.7,119.8h-1.6c0-0.3,0-1.1,0-1.4v-1.3c0-0.4,0-1.1,0-1.4c0.2,0,0.7,0,1.4,0c1.6,0,2.5,0.8,2.5,2.1
					C48,119,47.1,119.8,45.7,119.8z M45.6,116.5c-0.1,0-0.2,0-0.3,0c0,0.1,0,0.2,0,0.3v1.9c0,0.1,0,0.2,0,0.3c0.1,0,0.2,0,0.3,0
					c0.8,0,1.1-0.5,1.1-1.2C46.8,116.9,46.4,116.5,45.6,116.5z"/>
				<path class="st4" d="M51.5,119.9c-0.4,0-0.9,0-1.4,0c-0.5,0-1.1,0-1.5,0c0-0.3,0-1.1,0-1.5v-1.3c0-0.4,0-1.2,0-1.5
					c0.4,0,0.9,0,1.5,0c0.5,0,1,0,1.4,0c0,0.3,0,0.6,0,1c-0.3,0-0.6,0-1,0c-0.2,0-0.4,0-0.6,0c0,0.1,0,0.2,0,0.3v0.5l1.3,0
					c0,0.3,0,0.5,0,0.8h-1.3v0.5c0,0.1,0,0.2,0,0.3c0.2,0,0.4,0,0.6,0c0.4,0,0.8,0,1.1,0C51.6,119.2,51.5,119.5,51.5,119.9z"/>
				<path class="st4" d="M54.7,119.9l-0.8-1.4l-0.1,0l-0.3,0v0.5c0,0.2,0,0.7,0,0.9h-1.3c0-0.3,0-1.1,0-1.4v-1.3c0-0.4,0-1.2,0-1.4
					c0.2,0,1.2,0,1.4,0c1.3,0,2,0.5,2,1.3c0,0.6-0.3,1-0.8,1.3l0.7,1l0.4,0.6L54.7,119.9z M53.8,117.7c0.4,0,0.7-0.2,0.7-0.6
					c0-0.3-0.1-0.6-0.7-0.6c-0.1,0-0.2,0-0.3,0v1.2H53.8z"/>
				<path class="st4" d="M57.6,116.8c0.2-0.5,0.3-0.8,0.5-1.1l1-0.1l1.3,3c0.2,0.4,0.4,0.9,0.6,1.2l-1.3,0l-0.3-0.8h-1.5
					c-0.1,0.2-0.3,0.7-0.3,0.8h-1.2L57.6,116.8z M58.1,118.3h1l-0.5-1.3L58.1,118.3z"/>
				<path class="st4" d="M64.4,116.6c-0.4,0-0.8,0-1.2,0c0,0.1,0,0.3,0,0.4v2c0,0.2,0,0.7,0,0.9h-1.3c0-0.3,0-1.1,0-1.4v-0.9
					c0-0.2,0-0.6,0-0.9c-0.5,0-0.9,0-1.3,0c0-0.3,0-0.7,0-1c0.6,0,1.2,0,1.9,0c0.7,0,1.3,0,1.9,0C64.4,115.9,64.4,116.2,64.4,116.6z
					"/>
				<path class="st4" d="M65,119.8c0-0.3,0-1.1,0-1.4v-1.3c0-0.4,0-1.2,0-1.4c0.2,0,1.1,0,1.3,0c0,0.2,0,0.7,0,0.9v2.5
					c0,0.2,0,0.7,0,0.9H65z"/>
				<path class="st4" d="M67,117.8c0-1.3,0.9-2.3,2.2-2.3c1.3,0,2.1,0.9,2.1,2.1c0,1.3-0.9,2.3-2.2,2.3C67.8,119.9,67,119,67,117.8z
					 M70.1,117.7c0-0.8-0.4-1.3-1-1.3c-0.6,0-1,0.6-1,1.3c0,0.8,0.4,1.3,1,1.3C69.7,119,70.1,118.4,70.1,117.7z"/>
				<path class="st4" d="M72,118.4l0-1.4c0-0.4,0-1.1,0-1.4l0.9-0.1l1.9,2.4v-0.9c0-0.4,0-1.2,0-1.4c0.2,0,1,0,1.2,0
					c0,0.2,0,0.7,0,0.9v2.5c0,0.2,0,0.7,0,0.9l-0.9,0.1l-2-2.4v1.4c0,0.2,0,0.7,0,0.9h-1.2C72,119.5,72,118.8,72,118.4z"/>
				<path class="st4" d="M31.7,125.8c0-1.3,0.9-2.3,2.2-2.3c1.3,0,2.1,0.9,2.1,2.1c0,1.3-0.9,2.3-2.2,2.3
					C32.5,127.9,31.7,127,31.7,125.8z M34.8,125.7c0-0.8-0.4-1.3-1-1.3c-0.6,0-1,0.6-1,1.3c0,0.8,0.4,1.3,1,1.3
					C34.4,127,34.8,126.4,34.8,125.7z"/>
				<path class="st4" d="M39.4,124.6c-0.3,0-0.6,0-1,0c-0.2,0-0.4,0-0.5,0c0,0.1,0,0.2,0,0.3v0.5l1.2,0c0,0.3,0,0.5,0,0.9l-1.2,0
					v0.8c0,0.2,0,0.7,0,0.9h-1.3c0-0.3,0-1.1,0-1.4v-1.3c0-0.4,0-1.2,0-1.5c0.4,0,0.9,0,1.5,0c0.5,0,1,0,1.4,0
					C39.5,123.9,39.4,124.2,39.4,124.6z"/>
				<path class="st4" d="M41.2,126.4l0.2-1.3c0.1-0.4,0.1-1.1,0.2-1.5l0.9,0c0.1,0.2,0.3,0.6,0.4,0.9l0.8,1.7l0.8-1.8
					c0.1-0.3,0.3-0.6,0.3-0.8h0.9c0,0.3,0.1,1.1,0.2,1.5l0.2,1.3c0.1,0.4,0.2,1.1,0.2,1.4l-1.2,0c0-0.2-0.1-0.7-0.1-0.9l-0.2-1.3
					c-0.3,0.7-0.8,2-0.9,2.2l-0.6,0l-0.9-2.2l-0.1,1.3c0,0.2-0.1,0.7-0.1,0.9H41C41,127.5,41.2,126.8,41.2,126.4z"/>
				<path class="st4" d="M50.8,124.5v1.5c0,0.7-0.2,1.1-0.5,1.5c-0.4,0.3-0.8,0.5-1.5,0.5c-1.1,0-1.9-0.6-1.9-1.7v-1.2
					c0-0.4,0-1.2,0-1.4c0.2,0,1.1,0,1.3,0c0,0.2,0,0.7,0,0.9v1.6c0,0.6,0.3,0.9,0.8,0.9c0.5,0,0.7-0.3,0.7-0.8v-1.1
					c0-0.4,0-1.2,0-1.4c0.2,0,1.1,0,1.3,0C50.8,123.8,50.8,124.2,50.8,124.5z"/>
				<path class="st4" d="M52.9,127.9c-0.5,0-1.1-0.2-1.4-0.3l0-1.1c0.3,0.2,0.9,0.5,1.4,0.5c0.3,0,0.4-0.1,0.4-0.3
					c0-0.5-1.8-0.6-1.8-1.8c0-0.9,0.6-1.3,1.5-1.3c0.5,0,1,0.1,1.2,0.3l-0.2,0.9c-0.3-0.1-0.6-0.3-1-0.3c-0.3,0-0.4,0.1-0.4,0.3
					c0,0.5,1.7,0.6,1.7,1.8C54.4,127.4,53.8,127.9,52.9,127.9z"/>
				<path class="st4" d="M58,127.9c-0.4,0-0.9,0-1.4,0c-0.5,0-1.1,0-1.5,0c0-0.3,0-1.1,0-1.5v-1.3c0-0.4,0-1.2,0-1.5
					c0.4,0,0.9,0,1.5,0c0.5,0,1,0,1.4,0c0,0.3,0,0.6,0,1c-0.3,0-0.6,0-1,0c-0.2,0-0.4,0-0.6,0c0,0.1,0,0.2,0,0.3v0.5l1.3,0
					c0,0.3,0,0.5,0,0.8h-1.3v0.5c0,0.1,0,0.2,0,0.3c0.2,0,0.4,0,0.6,0c0.4,0,0.8,0,1.1,0C58,127.2,58,127.5,58,127.9z"/>
				<path class="st4" d="M62.6,124.5v1.5c0,0.7-0.2,1.1-0.5,1.5c-0.4,0.3-0.8,0.5-1.5,0.5c-1.1,0-1.9-0.6-1.9-1.7v-1.2
					c0-0.4,0-1.2,0-1.4c0.2,0,1.1,0,1.3,0c0,0.2,0,0.7,0,0.9v1.6c0,0.6,0.3,0.9,0.8,0.9c0.5,0,0.7-0.3,0.7-0.8v-1.1
					c0-0.4,0-1.2,0-1.4c0.2,0,1.1,0,1.3,0C62.6,123.8,62.6,124.2,62.6,124.5z"/>
				<path class="st4" d="M63.5,126.4l0.2-1.3c0.1-0.4,0.1-1.1,0.2-1.5l0.9,0c0.1,0.2,0.3,0.6,0.4,0.9l0.8,1.7l0.8-1.8
					c0.1-0.3,0.3-0.6,0.3-0.8h0.9c0,0.3,0.1,1.1,0.2,1.5l0.2,1.3c0.1,0.4,0.2,1.1,0.2,1.4l-1.2,0c0-0.2-0.1-0.7-0.1-0.9l-0.2-1.3
					c-0.3,0.7-0.8,2-0.9,2.2l-0.6,0l-0.9-2.2l-0.1,1.3c0,0.2-0.1,0.7-0.1,0.9h-1.2C63.3,127.5,63.4,126.8,63.5,126.4z"/>
				<path class="st4" d="M70.4,127.9c-0.5,0-1.1-0.2-1.4-0.3l0-1.1c0.3,0.2,0.9,0.5,1.4,0.5c0.3,0,0.4-0.1,0.4-0.3
					c0-0.5-1.8-0.6-1.8-1.8c0-0.9,0.6-1.3,1.5-1.3c0.5,0,1,0.1,1.2,0.3l-0.2,0.9c-0.3-0.1-0.6-0.3-1-0.3c-0.3,0-0.4,0.1-0.4,0.3
					c0,0.5,1.7,0.6,1.7,1.8C72,127.4,71.3,127.9,70.4,127.9z"/>
			</g>
		</g>
	</g>
</g>
</svg>