<!-- Generator: Adobe Illustrator 19.1.0, SVG Export Plug-In  -->
<svg version="1.1"
	 xmlns="http://www.w3.org/2000/svg" xmlns:xlink="http://www.w3.org/1999/xlink" xmlns:a="http://ns.adobe.com/AdobeSVGViewerExtensions/3.0/"
	 x="0px" y="0px" width="95.6px" height="139.1px" viewBox="0 0 95.6 139.1" enable-background="new 0 0 95.6 139.1"
	 xml:space="preserve">
<defs>
</defs>
<g>
	<path fill="#C5B591" d="M87.6,0H8.1C0.8,0,0,3.5,0,7.7v131.3l47.8-27.8l47.8,27.8V7.7C95.6,3.5,95,0,87.6,0z"/>
</g>
<g>
	<path fill="#FFFFFF" d="M42,67.9c0,0.5-0.1,1-0.1,1.7c-0.8,0-1.4,0-2.4,0c-0.9,0-1.7,0-2.5,0l-0.1-1.3c2-1.7,3-2.4,3-3.3
		c0-0.5-0.4-0.8-1-0.8c-0.4,0-1,0.2-1.6,0.5l-0.3-1.5c0.7-0.4,1.6-0.7,2.5-0.7c1.3,0,2.3,0.8,2.3,2c0,0.8-0.4,1.5-1,2.2
		c-0.4,0.4-0.8,0.9-1.3,1.2C40.3,68,41.3,68,42,67.9z"/>
	<path fill="#FFFFFF" d="M48.4,66c0,2.1-1,3.7-2.9,3.7c-1.8,0-2.8-1.6-2.8-3.5c0-2.1,1-3.7,2.9-3.7C47.4,62.5,48.4,64.1,48.4,66z
		 M46.4,66.2c0-1.6-0.4-2.2-0.9-2.2c-0.6,0-0.9,0.7-0.9,2.1c0,1.6,0.4,2.2,0.9,2.2C46.1,68.3,46.4,67.5,46.4,66.2z"/>
	<path fill="#FFFFFF" d="M52.2,62.7c0,0.3,0,1,0,1.4v4.2c0,0.4,0,1.1,0,1.3h-2c0.1-0.4,0.1-1.6,0.1-2.2v-2.8L49,64.8l-0.2-1.5
		c0.7-0.2,1.4-0.4,1.9-0.6l0.8-0.2L52.2,62.7z"/>
	<path fill="#FFFFFF" d="M55.2,65.6c0.4-0.3,0.9-0.4,1.4-0.4c1.3,0,2.1,1,2.1,2.1c0,1.4-1.1,2.5-2.7,2.5c-1.7,0-2.7-1.1-2.7-2.9
		c0-2.4,1.6-4.1,4.5-4.3L58,64C56.5,64.1,55.6,64.6,55.2,65.6z M56,66.3c-0.5,0-0.8,0.4-0.8,1c0,0.7,0.4,1.1,0.8,1.1
		c0.5,0,0.8-0.4,0.8-1C56.8,66.5,56.4,66.3,56,66.3z"/>
	<path fill="#FFFFFF" d="M13.5,79.2l0.3-2.2c0.1-0.6,0.2-1.9,0.3-2.4l1.5-0.1c0.2,0.4,0.4,1,0.6,1.4l1.3,2.9l1.3-2.9
		c0.2-0.4,0.4-1,0.6-1.3h1.5c0.1,0.6,0.2,1.8,0.3,2.5l0.3,2.2c0.1,0.6,0.3,1.9,0.4,2.4l-2,0.1c0-0.3-0.1-1.1-0.2-1.5l-0.3-2.2
		c-0.5,1.2-1.4,3.4-1.5,3.7l-1,0.1L15.5,78l-0.2,2.1c0,0.4-0.1,1.2-0.1,1.4h-2C13.3,81,13.4,79.8,13.5,79.2z"/>
	<path fill="#FFFFFF" d="M29.3,76v2.5c0,1.1-0.3,1.9-0.9,2.4c-0.6,0.6-1.4,0.9-2.4,0.9c-1.9,0-3.2-0.9-3.2-2.8v-2
		c0-0.6,0-1.9-0.1-2.4c0.4,0,1.8,0,2.1,0c0,0.3,0,1.1,0,1.5v2.6c0,1.1,0.5,1.5,1.3,1.5c0.8,0,1.2-0.5,1.2-1.3v-1.8
		c0-0.6,0-1.9-0.1-2.4c0.4,0,1.8,0,2.1,0C29.3,74.8,29.3,75.6,29.3,76z"/>
	<path fill="#FFFFFF" d="M32.7,81.7c-0.8,0-1.8-0.3-2.3-0.6l0.1-1.8c0.5,0.4,1.4,0.8,2.3,0.8c0.5,0,0.7-0.2,0.7-0.6
		c0-0.9-2.9-1-2.9-3c0-1.4,1-2.2,2.5-2.2c0.8,0,1.6,0.2,2.1,0.5l-0.3,1.5c-0.5-0.2-1.1-0.5-1.6-0.5c-0.4,0-0.7,0.2-0.7,0.5
		c0,0.9,2.9,1,2.9,3C35.3,80.9,34.3,81.7,32.7,81.7z"/>
	<path fill="#FFFFFF" d="M41.2,81.6c-0.7,0-1.5,0-2.3,0c-0.9,0-1.8,0-2.6,0c0.1-0.5,0.1-1.8,0.1-2.4v-2.2c0-0.6,0-2-0.1-2.5
		c0.7,0,1.5,0,2.4,0c0.8,0,1.6,0,2.3,0c0,0.5-0.1,1-0.1,1.6c-0.5,0-1,0-1.6,0c-0.3,0-0.6,0-0.9,0c0,0.1,0,0.3,0,0.4v0.8l2.2,0
		c0,0.4,0,0.9,0,1.4h-2.1v0.9c0,0.1,0,0.3,0,0.5c0.3,0,0.6,0,0.9,0c0.7,0,1.3,0,1.9,0C41.2,80.5,41.2,81,41.2,81.6z"/>
	<path fill="#FFFFFF" d="M45.8,76.4c0.4-0.8,0.6-1.3,0.8-1.9l1.6-0.1l2.2,5.1c0.3,0.6,0.6,1.4,0.9,2l-2.1,0.1l-0.5-1.3h-2.4
		c-0.1,0.3-0.4,1.1-0.5,1.3h-2.1L45.8,76.4z M46.6,79.1h1.6l-0.8-2.2L46.6,79.1z"/>
	<path fill="#FFFFFF" d="M59.5,79.7c-0.3,0.8-0.4,1.4-0.6,1.9l-1.5,0.1l-1.4-4.2L55.2,80c-0.2,0.6-0.3,1.1-0.5,1.7h-1.6l-1.7-5
		c-0.2-0.6-0.5-1.4-0.7-2l2.1-0.1l1.2,4.4l0.8-2.8l0.5-1.5l1.5-0.1l1.3,4.4l0.7-2.8l0.4-1.5h2.1L59.5,79.7z"/>
	<path fill="#FFFFFF" d="M62.9,76.4c0.4-0.8,0.6-1.3,0.8-1.9l1.6-0.1l2.2,5.1c0.3,0.6,0.6,1.4,0.9,2l-2.1,0.1l-0.5-1.3h-2.4
		c-0.1,0.3-0.4,1.1-0.5,1.3h-2.1L62.9,76.4z M63.6,79.1h1.6l-0.8-2.2L63.6,79.1z"/>
	<path fill="#FFFFFF" d="M73.1,81.7l-1.4-2.4l-0.1,0l-0.5,0v0.8c0,0.4,0,1.2,0,1.4H69c0-0.5,0.1-1.8,0.1-2.4v-2.2
		c0-0.6,0-1.9-0.1-2.4c0.4,0,1.9,0,2.4,0c2.2,0,3.3,0.9,3.3,2.2c0,1-0.5,1.6-1.3,2.1l1.2,1.7l0.7,1L73.1,81.7z M71.6,78
		c0.7,0,1.1-0.4,1.1-1c0-0.5-0.2-1-1.2-1c-0.2,0-0.4,0-0.5,0V78H71.6z"/>
	<path fill="#FFFFFF" d="M78.7,81.6H76c0.1-0.5,0.1-1.8,0.1-2.4v-2.2c0-0.6,0-1.9-0.1-2.4c0.4,0,1.2-0.1,2.4-0.1
		c2.6,0,4.1,1.3,4.1,3.4C82.5,80.2,81,81.6,78.7,81.6z M78.6,76c-0.2,0-0.3,0-0.5,0c0,0.1,0,0.3,0,0.4v3.1c0,0.1,0,0.3,0,0.4
		c0.2,0,0.3,0,0.5,0c1.3,0,1.9-0.9,1.9-2.1C80.6,76.7,79.8,76,78.6,76z"/>
	<path fill="#FFFFFF" d="M25.7,93.7l-1.4-2.4l-0.1,0l-0.5,0v0.8c0,0.4,0,1.2,0,1.4h-2.1c0-0.5,0.1-1.8,0.1-2.4v-2.2
		c0-0.6,0-1.9-0.1-2.4c0.4,0,1.9,0,2.4,0c2.2,0,3.3,0.9,3.3,2.2c0,1-0.5,1.6-1.3,2.1l1.2,1.7l0.7,1L25.7,93.7z M24.2,90
		c0.7,0,1.1-0.4,1.1-1c0-0.5-0.2-1-1.2-1c-0.2,0-0.4,0-0.5,0V90H24.2z"/>
	<path fill="#FFFFFF" d="M33.5,93.6c-0.7,0-1.5,0-2.3,0c-0.9,0-1.8,0-2.6,0c0.1-0.5,0.1-1.8,0.1-2.4v-2.2c0-0.6,0-2-0.1-2.5
		c0.7,0,1.5,0,2.4,0c0.8,0,1.6,0,2.3,0c0,0.5-0.1,1-0.1,1.6c-0.5,0-1,0-1.6,0c-0.3,0-0.6,0-0.9,0c0,0.1,0,0.3,0,0.4v0.8l2.2,0
		c0,0.4,0,0.9,0,1.4h-2.1v0.9c0,0.1,0,0.3,0,0.5c0.3,0,0.6,0,0.9,0c0.7,0,1.3,0,1.9,0C33.5,92.5,33.5,93,33.5,93.6z"/>
	<path fill="#FFFFFF" d="M40.1,93.2c-0.6,0.4-1.4,0.6-2.2,0.6c-2.2,0-3.7-1.6-3.7-3.5c0-2.2,1.6-3.9,3.9-3.9c0.8,0,1.6,0.2,2.1,0.6
		l-0.3,1.6c-0.4-0.4-1-0.6-1.7-0.6c-1.2,0-2,0.8-2,2.1c0,1.3,0.9,2.1,2,2.1c0.9,0,1.5-0.3,2-0.8L40.1,93.2z"/>
	<path fill="#FFFFFF" d="M41.3,93.6c0-0.5,0.1-1.8,0.1-2.4v-2.2c0-0.6,0-1.9-0.1-2.4c0.4,0,1.8,0,2.1,0c0,0.3,0,1.1,0,1.5v4.2
		c0,0.4,0,1.2,0,1.4H41.3z"/>
	<path fill="#FFFFFF" d="M46.9,92.1c0,0.4,0,1.2,0,1.4h-2.1c0-0.5,0.1-1.8,0.1-2.4v-2.2c0-0.6,0-1.9-0.1-2.4c0.4,0,1.9,0,2.4,0
		c2.1,0,3.2,0.9,3.2,2.3c0,1.5-1,2.7-3.2,2.7h-0.2V92.1z M47.3,88c-0.2,0-0.2,0-0.5,0v2c0.1,0,0.2,0,0.3,0c0.8,0,1.3-0.3,1.3-1
		C48.4,88.4,48,88,47.3,88z"/>
	<path fill="#FFFFFF" d="M51.2,93.6c0-0.5,0.1-1.8,0.1-2.4v-2.2c0-0.6,0-1.9-0.1-2.4c0.4,0,1.8,0,2.1,0c0,0.3,0,1.1,0,1.5v4.2
		c0,0.4,0,1.2,0,1.4H51.2z"/>
	<path fill="#FFFFFF" d="M59.5,93.6c-0.7,0-1.5,0-2.3,0c-0.9,0-1.8,0-2.6,0c0.1-0.5,0.1-1.8,0.1-2.4v-2.2c0-0.6,0-2-0.1-2.5
		c0.7,0,1.5,0,2.4,0c0.8,0,1.6,0,2.3,0c0,0.5-0.1,1-0.1,1.6c-0.5,0-1,0-1.6,0c-0.3,0-0.6,0-0.9,0c0,0.1,0,0.3,0,0.4v0.8l2.2,0
		c0,0.4,0,0.9,0,1.4h-2.1v0.9c0,0.1,0,0.3,0,0.5c0.3,0,0.6,0,0.9,0c0.7,0,1.3,0,1.9,0C59.6,92.5,59.5,93,59.5,93.6z"/>
	<path fill="#FFFFFF" d="M60.6,91.2l0-2.3c0-0.6,0-1.9-0.1-2.4l1.5-0.1l3.2,4v-1.4c0-0.6,0-1.9-0.1-2.4c0.4,0,1.7,0,2,0
		c0,0.3-0.1,1.1-0.1,1.5v4.2c0,0.4,0,1.2,0,1.5l-1.4,0.1l-3.3-4v2.4c0,0.4,0,1.2,0,1.4h-2C60.6,93.1,60.6,91.8,60.6,91.2z"/>
	<path fill="#FFFFFF" d="M74.4,88.2c-0.7,0-1.3,0-2.1,0c0,0.2,0,0.5,0,0.6v3.3c0,0.4,0,1.2,0,1.4h-2.1c0.1-0.5,0.1-1.8,0.1-2.4v-1.5
		c0-0.4,0-1,0-1.5c-0.8,0-1.4,0-2.1,0c0-0.5,0-1.1,0-1.7c1,0,1.9,0,3.1,0c1.2,0,2.2,0,3.2,0C74.4,87,74.4,87.5,74.4,88.2z"/>
</g>
<g>
	<g>
		<path fill="#FFFFFF" d="M49.7,41.8c0-2.4,1.8-3.7,4.7-5.6c3.6-2.4,8.1-5.4,8.1-12.4c0-0.6-0.5-1.1-1.2-1.1h-5.6
			c-0.8-1.5-3.2-3-8-3c-4.8,0-7.2,1.6-8,3h-5.6c-0.6,0-1.2,0.5-1.2,1.1c0,7,4.5,10,8.1,12.4c2.9,1.9,4.7,3.3,4.7,5.6v2.1
			c-3.1,0.3-5.4,1.5-5.4,2.8c0,1.6,3.3,3,7.3,3c4,0,7.3-1.3,7.3-3c0-1.4-2.3-2.5-5.4-2.8V41.8z M54.3,33.5c0.9-2,1.7-4.6,1.8-8.6
			h4.1C59.8,29.3,57.1,31.6,54.3,33.5z M47.8,21.6c4.5,0,6.2,1.8,6.2,2.5c0,0.7-1.7,2.5-6.2,2.5c-4.5,0-6.2-1.8-6.2-2.5
			C41.6,23.4,43.3,21.6,47.8,21.6z M35.4,24.9h4.1c0.1,4,0.9,6.6,1.8,8.6C38.5,31.6,35.8,29.3,35.4,24.9z"/>
	</g>
</g>
</svg>
